<svg xmlns="http://www.w3.org/2000/svg" width="194.501" height="192.3" viewBox="0 0 194.501 192.3"><g transform="translate(-176.365 -1608.908)"><g transform="translate(-576 -750.501)"><g transform="translate(752.365 2359.41)"><g transform="translate(194.501 120.006) rotate(150)"><path d="M131.8,27.042c11.568,16.037,14.986,37.107,11.455,58.14-3.568,21.033-14.122,41.99-30.685,49.727-16.6,7.737-39.248,2.216-61.746-7.249-22.5-9.427-44.844-22.8-49.764-41.051-4.883-18.291,7.7-41.427,23.887-58.515C41.1,11,60.9,0,80.651,0S120.2,11,131.8,27.042Z" transform="translate(0 0)" fill="#f5f5f5"/></g></g><g transform="translate(783.002 2396.644)"><g transform="translate(77.793 84.017)"><circle cx="1.556" cy="1.556" r="1.556" fill="#3a345e"/></g><path d="M90.24,56.011h-14V37.341a4.668,4.668,0,0,0-4.668-4.668H54.455V4.668A4.668,4.668,0,0,0,49.788,0H4.668A4.668,4.668,0,0,0,0,4.668V70.014a4.668,4.668,0,0,0,4.668,4.668h32.74v6.223a4.668,4.668,0,0,0,4.668,4.668H65.346V90.24a3.112,3.112,0,0,0,3.112,3.112H90.24a3.112,3.112,0,0,0,3.112-3.112V59.123A3.112,3.112,0,0,0,90.24,56.011ZM3.112,4.668A1.556,1.556,0,0,1,4.668,3.112h45.12a1.556,1.556,0,0,1,1.556,1.556V7.779H3.112Zm0,6.223H51.344v52.9H3.112ZM4.668,71.57a1.556,1.556,0,0,1-1.556-1.556V66.9H51.344v3.112a1.556,1.556,0,0,1-1.556,1.556ZM42.075,82.461a1.556,1.556,0,0,1-1.556-1.556V74.682h9.268a4.668,4.668,0,0,0,4.668-4.668V35.785H71.57a1.556,1.556,0,0,1,1.556,1.556V74.682H56.789v3.112H73.126v3.112a1.556,1.556,0,0,1-1.556,1.556ZM90.24,90.24H68.458V85.573H71.57a4.644,4.644,0,0,0,3.454-1.556H90.24Zm0-9.335h-14V59.123h14Z" fill="#3a345e"/></g></g></g></svg>