<svg xmlns="http://www.w3.org/2000/svg" width="194.501" height="192.3" viewBox="0 0 194.501 192.3"><g transform="translate(-192.365 -2178.908)"><g transform="translate(386.866 2298.915) rotate(150)"><path d="M131.8,27.042c11.568,16.037,14.986,37.107,11.455,58.14-3.568,21.033-14.122,41.99-30.685,49.727-16.6,7.737-39.248,2.216-61.746-7.249-22.5-9.427-44.844-22.8-49.764-41.051-4.883-18.291,7.7-41.427,23.887-58.515C41.1,11,60.9,0,80.651,0S120.2,11,131.8,27.042Z" transform="translate(0 0)" fill="#f5f5f5"/></g><g transform="translate(210.334 2183.758)"><g transform="translate(121.005 102.467)"><g transform="translate(0 0)"><path d="M478.315,335.767,472,329.5a2.588,2.588,0,0,0-3.646,3.676l6.316,6.265a2.589,2.589,0,0,0,3.646-3.676Z" transform="translate(-467.587 -328.751)" fill="#3a345e"/></g></g><g transform="translate(114.558 96.049)"><g transform="translate(0 0)"><path d="M447.1,304.71a2.588,2.588,0,0,0-3.661,0l0,0a2.588,2.588,0,1,0,3.665,0Z" transform="translate(-442.675 -303.952)" fill="#3a345e"/></g></g><g transform="translate(0 23.462)"><g transform="translate(0 0)"><path d="M96.914,108.742l25.11-25.109a9.747,9.747,0,0,0-4.7-16.4,9.757,9.757,0,0,0-7.19-13.723,9.738,9.738,0,0,0-7.6-12.66A9.759,9.759,0,0,0,88.611,29.218l-.25-.268a17.273,17.273,0,0,0-12.6-5.488H55.432a2.589,2.589,0,0,0-2.588,2.588v3.394a11.759,11.759,0,0,0,.669,3.924,9.755,9.755,0,0,0-13,12.073A9.754,9.754,0,0,0,32.9,58.1,9.754,9.754,0,0,0,25.721,71.82a9.755,9.755,0,0,0-4.706,16.4l5.164,5.164L.758,118.807a2.588,2.588,0,1,0,3.66,3.661L30.085,96.8a9.748,9.748,0,0,0,14.56-8.875c.131.005.262.009.394.009a9.746,9.746,0,0,0,9.754-9.749c0-.132,0-.263-.01-.394.13.005.259.009.389.009a9.746,9.746,0,0,0,9.754-9.749c0-.132,0-.263-.01-.394.13.005.259.009.389.009a9.749,9.749,0,0,0,7.544-15.932L90.031,34.555A4.577,4.577,0,1,1,96.5,41.028l-2.533,2.533-9.192,9.192a2.588,2.588,0,1,0,3.66,3.661l9.192-9.192A4.577,4.577,0,1,1,104.1,53.7l-2.534,2.534-6.658,6.658a2.588,2.588,0,1,0,3.66,3.661l6.658-6.658a4.577,4.577,0,1,1,6.473,6.473l-3.477,3.477-3.181,3.181a2.588,2.588,0,1,0,3.66,3.661l3.183-3.183a4.577,4.577,0,0,1,6.471,6.476L93.25,105.083a35.064,35.064,0,0,1-23.6,10.279,2.588,2.588,0,0,0-1.74.76L44.719,139.4a2.588,2.588,0,1,0,3.667,3.654l17.061-17.124a24.059,24.059,0,0,0,14.612,3.759l13.353,13.353a2.588,2.588,0,1,0,3.66-3.661l-14.2-14.2a2.59,2.59,0,0,0-2.042-.75l-.821.067a18.894,18.894,0,0,1-10.8-2.351l1.663-1.669A40.218,40.218,0,0,0,96.914,108.742ZM38.142,91.556a4.576,4.576,0,0,1-6.473,0l-6.994-6.994a4.577,4.577,0,1,1,6.473-6.473l6.994,6.994A4.583,4.583,0,0,1,38.142,91.556ZM48.276,81.423a4.583,4.583,0,0,1-6.473,0l-6.994-6.994-3.478-3.478A4.577,4.577,0,1,1,37.8,64.478L48.275,74.949h0a4.578,4.578,0,0,1,0,6.473ZM58.409,71.289a4.583,4.583,0,0,1-6.473,0l-13-13A4.577,4.577,0,0,1,45.4,51.809l5.927,5.927,7.079,7.079h0a4.578,4.578,0,0,1,0,6.473ZM68.543,61.155a4.582,4.582,0,0,1-6.473,0l-13-13,0,0-2.529-2.529A4.577,4.577,0,0,1,53,39.144L68.542,54.682a4.578,4.578,0,0,1,0,6.474Zm.681-13.113-7.109-7.109a11.843,11.843,0,0,0,2.479.263h.057l7.1-.033a2.588,2.588,0,0,0-.012-5.177h-.012l-7.1.033h-.032a6.574,6.574,0,0,1-6.574-6.575v-.806H75.756a12.08,12.08,0,0,1,8.815,3.838l.105.113Z" transform="translate(0.001 -23.462)" fill="#3a345e"/></g></g></g></g></svg>