<svg xmlns="http://www.w3.org/2000/svg" width="194.501" height="192.3" viewBox="0 0 194.501 192.3"><g transform="translate(-765.365 -1608.908)"><g transform="translate(959.866 1728.915) rotate(150)"><path d="M131.8,27.042c11.568,16.037,14.986,37.107,11.455,58.14-3.568,21.033-14.122,41.99-30.685,49.727-16.6,7.737-39.248,2.216-61.746-7.249-22.5-9.427-44.844-22.8-49.764-41.051-4.883-18.291,7.7-41.427,23.887-58.515C41.1,11,60.9,0,80.651,0S120.2,11,131.8,27.042Z" transform="translate(0 0)" fill="#f5f5f5"/></g><g transform="translate(790.054 1643.053)"><g transform="translate(16.867 16.867)"><path d="M162.648,80H122.167a1.687,1.687,0,0,0-1.687,1.687v15.18a1.687,1.687,0,0,0,2.22,1.6l2.12-.707a4.385,4.385,0,1,1,0,8.336l-2.12-.707a1.687,1.687,0,0,0-2.22,1.6v13.494H106.987a1.687,1.687,0,0,0-1.6,2.22l.707,2.12a4.385,4.385,0,1,1-8.336,0l.707-2.12a1.687,1.687,0,0,0-1.6-2.22H81.687A1.687,1.687,0,0,0,80,122.167v40.481a1.687,1.687,0,0,0,1.687,1.687h80.961a1.687,1.687,0,0,0,1.687-1.687V81.687A1.687,1.687,0,0,0,162.648,80Zm-42.081,66.936a1.688,1.688,0,0,0-.086.532v13.494H83.373V123.854H94.528a7.759,7.759,0,1,0,14.8,0h11.154v13.494a1.687,1.687,0,0,0,2.22,1.6l2.12-.707a4.385,4.385,0,1,1,0,8.336l-2.12-.707A1.687,1.687,0,0,0,120.567,146.936Zm40.394,14.025H123.854V149.807a7.759,7.759,0,1,0,0-14.8V123.854h13.494a1.687,1.687,0,0,0,1.6-2.22l-.707-2.12a4.385,4.385,0,1,1,8.336,0l-.707,2.12a1.687,1.687,0,0,0,1.6,2.22h13.494v37.107Zm0-40.481H149.807a7.759,7.759,0,1,0-14.8,0H123.854V109.327a7.774,7.774,0,1,0,0-14.8V83.373h37.107Z" transform="translate(-80 -80)" fill="#3a345e"/></g><path d="M48.521,14.528a7.759,7.759,0,0,0-4.667,0V1.687A1.687,1.687,0,0,0,42.167,0H1.687A1.687,1.687,0,0,0,0,1.687V42.167a1.687,1.687,0,0,0,1.687,1.687H14.528a7.759,7.759,0,1,0,14.8,0H42.167a1.687,1.687,0,0,0,1.687-1.687V29.326a7.759,7.759,0,0,0,4.667-14.8Zm-.972,11.567a4.386,4.386,0,0,1-2.728,0l-2.12-.707a1.687,1.687,0,0,0-2.22,1.6V40.481H26.987a1.687,1.687,0,0,0-1.6,2.22l.707,2.12a4.385,4.385,0,1,1-8.336,0l.707-2.12a1.687,1.687,0,0,0-1.6-2.22H3.373V3.373H40.481V16.867a1.687,1.687,0,0,0,2.22,1.6l2.12-.707a4.385,4.385,0,0,1,2.728,8.336Z" fill="#3a345e"/></g></g></svg>