<svg xmlns="http://www.w3.org/2000/svg" width="194.501" height="192.3" viewBox="0 0 194.501 192.3"><g transform="translate(-750.365 -2178.908)"><g transform="translate(944.866 2298.915) rotate(150)"><path d="M131.8,27.042c11.568,16.037,14.986,37.107,11.455,58.14-3.568,21.033-14.122,41.99-30.685,49.727-16.6,7.737-39.248,2.216-61.746-7.249-22.5-9.427-44.844-22.8-49.764-41.051-4.883-18.291,7.7-41.427,23.887-58.515C41.1,11,60.9,0,80.651,0S120.2,11,131.8,27.042Z" transform="translate(0 0)" fill="#f5f5f5"/></g><g transform="translate(797 2232)"><g transform="translate(50.731 32.13)"><path d="M301.691,190a1.691,1.691,0,1,0,1.691,1.691A1.692,1.692,0,0,0,301.691,190Z" transform="translate(-300 -190)" fill="#3a345e"/></g><path d="M84.6,75.034,62.027,52.463a33.517,33.517,0,0,0,5.614-18.642A33.821,33.821,0,1,0,33.821,67.641a33.519,33.519,0,0,0,18.642-5.614L58.7,68.267l0,0L75.034,84.6A6.763,6.763,0,1,0,84.6,75.034ZM51.667,58.464h0a30.469,30.469,0,1,1,6.8-6.8A30.586,30.586,0,0,1,51.667,58.464ZM55.215,60A33.935,33.935,0,0,0,60,55.215l4.8,4.8a41.047,41.047,0,0,1-4.782,4.782ZM82.208,82.208a3.38,3.38,0,0,1-4.782,0L62.41,67.192a44.436,44.436,0,0,0,4.782-4.782L82.208,77.427a3.379,3.379,0,0,1,0,4.781Z" fill="#3a345e"/><g transform="translate(6.764 6.764)"><path d="M67.057,40A27.057,27.057,0,1,0,94.113,67.057,27.087,27.087,0,0,0,67.057,40Zm0,50.731A23.675,23.675,0,1,1,90.731,67.057,23.7,23.7,0,0,1,67.057,90.731Z" transform="translate(-40 -40)" fill="#3a345e"/></g><g transform="translate(32.13 13.528)"><path d="M210.642,93.033A20.324,20.324,0,0,0,191.691,80a1.691,1.691,0,0,0,0,3.382,17.026,17.026,0,0,1,15.794,10.864,1.691,1.691,0,1,0,3.157-1.213Z" transform="translate(-190 -80)" fill="#3a345e"/></g></g></g></svg>