<svg xmlns="http://www.w3.org/2000/svg" width="194.501" height="192.3" viewBox="0 0 194.501 192.3"><g transform="translate(-1285.365 -1608.908)"><g transform="translate(1479.866 1728.915) rotate(150)"><path d="M131.8,27.042c11.568,16.037,14.986,37.107,11.455,58.14-3.568,21.033-14.122,41.99-30.685,49.727-16.6,7.737-39.248,2.216-61.746-7.249-22.5-9.427-44.844-22.8-49.764-41.051-4.883-18.291,7.7-41.427,23.887-58.515C41.1,11,60.9,0,80.651,0S120.2,11,131.8,27.042Z" transform="translate(0 0)" fill="#f5f5f5"/></g><g transform="translate(1300 1653.786)"><path d="M95.554,0H9.208A9.218,9.218,0,0,0,0,9.208V70.591A9.218,9.218,0,0,0,9.208,79.8H35.846L31.753,92.076H21.689a3.069,3.069,0,0,0,0,6.138H83.073a3.069,3.069,0,1,0,0-6.138H73.008L68.916,79.8H95.554a9.218,9.218,0,0,0,9.208-9.208V9.208A9.218,9.218,0,0,0,95.554,0ZM38.224,92.076,42.316,79.8H62.445l4.092,12.277Zm60.4-21.484a3.073,3.073,0,0,1-3.069,3.069H9.208a3.073,3.073,0,0,1-3.069-3.069V67.522H98.623ZM33.47,43.744l-2.792-2.791,4.34-4.341L37.81,39.4a3.069,3.069,0,0,0,3.729.473A21.308,21.308,0,0,1,47.012,37.6a3.068,3.068,0,0,0,2.3-2.971V30.692H55.45v3.937a3.068,3.068,0,0,0,2.3,2.971,21.288,21.288,0,0,1,5.472,2.278,3.07,3.07,0,0,0,3.729-.474l2.792-2.792,4.341,4.341-2.792,2.792a3.068,3.068,0,0,0-.473,3.729A21.3,21.3,0,0,1,73.1,52.946a3.068,3.068,0,0,0,2.971,2.3H80v6.138H67.417a15.346,15.346,0,1,0-30.072,0H24.758V55.245H28.7a3.07,3.07,0,0,0,2.972-2.3,21.3,21.3,0,0,1,2.276-5.473,3.07,3.07,0,0,0-.473-3.729ZM61.588,58.314a9.241,9.241,0,0,1-.528,3.069H43.7a9.207,9.207,0,1,1,17.888-3.069Zm37.035,3.069H86.142V52.176a3.069,3.069,0,0,0-3.069-3.069H78.331a27.53,27.53,0,0,0-1.094-2.628l3.357-3.356a3.07,3.07,0,0,0,0-4.341L71.912,30.1a3.07,3.07,0,0,0-4.34,0l-3.356,3.357a27.316,27.316,0,0,0-2.628-1.093V27.623a3.069,3.069,0,0,0-3.069-3.069H46.242a3.069,3.069,0,0,0-3.069,3.069v4.742a27.318,27.318,0,0,0-2.628,1.093L37.189,30.1a3.071,3.071,0,0,0-4.341,0l-8.68,8.681a3.069,3.069,0,0,0,0,4.341l3.356,3.357a27.424,27.424,0,0,0-1.093,2.627H21.689a3.069,3.069,0,0,0-3.069,3.069v9.208H6.138V9.208A3.073,3.073,0,0,1,9.208,6.138H95.554a3.073,3.073,0,0,1,3.069,3.069Zm0,0" fill="#3a345e"/><path d="M370.208,60a9.208,9.208,0,1,0,9.208,9.208A9.218,9.218,0,0,0,370.208,60Zm0,12.277a3.069,3.069,0,1,1,3.069-3.069A3.073,3.073,0,0,1,370.208,72.277Zm0,0" transform="translate(-287.135 -47.723)" fill="#3a345e"/></g></g></svg>