<svg xmlns="http://www.w3.org/2000/svg" width="194.501" height="192.3" viewBox="0 0 194.501 192.3"><g transform="translate(-1279.365 -2178.908)"><g transform="translate(1473.866 2298.915) rotate(150)"><path d="M131.8,27.042c11.568,16.037,14.986,37.107,11.455,58.14-3.568,21.033-14.122,41.99-30.685,49.727-16.6,7.737-39.248,2.216-61.746-7.249-22.5-9.427-44.844-22.8-49.764-41.051-4.883-18.291,7.7-41.427,23.887-58.515C41.1,11,60.9,0,80.651,0S120.2,11,131.8,27.042Z" transform="translate(0 0)" fill="#f5f5f5"/></g><g transform="translate(1312 2225.816)"><path d="M401.242,195.133a7.625,7.625,0,1,1,7.625-7.625A7.625,7.625,0,0,1,401.242,195.133Zm0-12.2a4.575,4.575,0,1,0,4.575,4.575A4.575,4.575,0,0,0,401.242,182.933Zm0,0" transform="translate(-333.491 -152.25)" fill="#3a345e"/><path d="M121.707,195.133a7.625,7.625,0,1,1,7.625-7.625A7.625,7.625,0,0,1,121.707,195.133Zm0-12.2a4.575,4.575,0,1,0,4.575,4.575A4.575,4.575,0,0,0,121.707,182.933Zm0,0" transform="translate(-96.656 -152.25)" fill="#3a345e"/><path d="M76.9,52.708,91.439,39.493a4.261,4.261,0,0,0-5.692-6.34L74.8,42.884H59.4L47.926,56.914V18.484h15.25v6.1H88.3l-3.66-9.15,3.66-9.15H70.8V.184H44.876v56.73L33.4,42.884H18.007L7.057,33.151a4.262,4.262,0,0,0-5.7,6.342L15.9,52.708V88.633H.651v3.05h91.5v-3.05H76.9ZM70.8,9.333h13l-2.439,6.1,2.439,6.1H66.226v-3.05H70.8Zm-22.875-6.1H67.751v12.2H47.926Zm-16.775,85.4H26.577V67.283h-3.05v21.35H18.951V51.359L3.415,37.241a1.221,1.221,0,0,1-.184-1.569,1.206,1.206,0,0,1,1.8-.235l11.815,10.5H31.954l11.34,13.86a1.24,1.24,0,1,1-1.9,1.592L31.151,49.441Zm27.45,0H34.2V57.676l4.88,5.688a4.29,4.29,0,0,0,5.642.772c.057-.038.106-.087.161-.128V76.433h3.05V64.011c.057.044.108.095.169.135a4.291,4.291,0,0,0,5.63-.776L58.6,57.676Zm15.25,0H69.276V67.283h-3.05v21.35H61.651V49.441L51.411,61.39a1.238,1.238,0,0,1-1.63.218,1.235,1.235,0,0,1-.271-1.81l11.34-13.864H75.956l11.812-10.5a1.18,1.18,0,0,1,.955-.294,1.2,1.2,0,0,1,.856.537,1.21,1.21,0,0,1-.191,1.56L73.851,51.36Zm0,0" transform="translate(0)" fill="#3a345e"/></g></g></svg>