<svg xmlns="http://www.w3.org/2000/svg" xmlns:xlink="http://www.w3.org/1999/xlink" width="194.501" height="192.3" viewBox="0 0 194.501 192.3"><defs><clipPath id="a"><rect width="80" height="80" transform="translate(270 3233)" fill="#3a345e" stroke="#707070" stroke-width="1"/></clipPath></defs><g transform="translate(-192.365 -3176.908)"><g transform="translate(386.866 3296.915) rotate(150)"><path d="M131.8,27.042c11.568,16.037,14.986,37.107,11.455,58.14-3.568,21.033-14.122,41.99-30.685,49.727-16.6,7.737-39.248,2.216-61.746-7.249-22.5-9.427-44.844-22.8-49.764-41.051-4.883-18.291,7.7-41.427,23.887-58.515C41.1,11,60.9,0,80.651,0S120.2,11,131.8,27.042Z" transform="translate(0 0)" fill="#f5f5f5"/></g><g transform="translate(-20 -4)" clip-path="url(#a)"><path d="M79.722,76.339,55.039,1.909A2.784,2.784,0,0,0,52.368,0H27.607a2.785,2.785,0,0,0-2.643,1.908L.278,76.339A2.785,2.785,0,0,0,2.922,80H27.676a2.785,2.785,0,0,0,2.643-1.909L40,48.9l9.681,29.192A2.786,2.786,0,0,0,52.324,80H77.078a2.785,2.785,0,0,0,2.644-3.661ZM25.666,74.43H6.779L29.617,5.57H48.5Zm28.669,0-11.4-34.379,9.442-28.475L73.221,74.43H54.335Z" transform="translate(270 3233)" fill="#3a345e"/></g></g></svg>