<svg xmlns="http://www.w3.org/2000/svg" xmlns:xlink="http://www.w3.org/1999/xlink" width="194.501" height="192.3" viewBox="0 0 194.501 192.3"><defs><clipPath id="a"><rect width="80" height="80" transform="translate(1335 2659)" fill="#3a345e" stroke="#707070" stroke-width="1"/></clipPath></defs><g transform="translate(-1285.365 -2606.908)"><g transform="translate(1479.866 2726.915) rotate(150)"><path d="M131.8,27.042c11.568,16.037,14.986,37.107,11.455,58.14-3.568,21.033-14.122,41.99-30.685,49.727-16.6,7.737-39.248,2.216-61.746-7.249-22.5-9.427-44.844-22.8-49.764-41.051-4.883-18.291,7.7-41.427,23.887-58.515C41.1,11,60.9,0,80.651,0S120.2,11,131.8,27.042Z" transform="translate(0 0)" fill="#f5f5f5"/></g><g clip-path="url(#a)"><g transform="translate(1335 2659)"><path d="M79.939,30.875a1.181,1.181,0,0,0-.074-.407,2.042,2.042,0,0,0-.805-1.138L67.608,21.37V12.836a2.049,2.049,0,0,0-2.049-2.049H52.384L41.175,2.994a2.048,2.048,0,0,0-2.334,0l-11.282,7.8H14.442a2.049,2.049,0,0,0-2.049,2.049V21.27L.885,29.223A2.045,2.045,0,0,0,0,30.879c0,.012,0,.023,0,.036L.061,75.327A2.048,2.048,0,0,0,2.11,77.373h0l75.841-.1A2.049,2.049,0,0,0,80,75.217ZM67.608,26.361l6.547,4.55-6.547,4.551ZM40,7.169l5.2,3.618H34.768ZM16.49,14.885H63.51V38.31L47.723,49.286l-6.437-4.993-.028-.02a2.047,2.047,0,0,0-2.483.02l-6.483,5.029L16.49,38.4Zm-4.1,11.365v9.319L5.651,30.91ZM4.1,34.823,28.895,51.957,4.153,71.148Zm4,38.444L40.031,48.5,71.842,73.179Zm43.011-21.35L75.847,34.724,75.9,71.14Z" fill="#3a345e"/><path d="M53.87,23.08H26.13a2.049,2.049,0,1,0,0,4.1H53.87a2.049,2.049,0,0,0,0-4.1Z" fill="#3a345e"/><path d="M53.87,33.734H26.13a2.049,2.049,0,1,0,0,4.1H53.87a2.049,2.049,0,0,0,0-4.1Z" fill="#3a345e"/></g></g></g></svg>