<svg xmlns="http://www.w3.org/2000/svg" width="194.501" height="192.3" viewBox="0 0 194.501 192.3"><g transform="translate(-765.365 -2606.908)"><g transform="translate(959.866 2726.915) rotate(150)"><path d="M131.8,27.042c11.568,16.037,14.986,37.107,11.455,58.14-3.568,21.033-14.122,41.99-30.685,49.727-16.6,7.737-39.248,2.216-61.746-7.249-22.5-9.427-44.844-22.8-49.764-41.051-4.883-18.291,7.7-41.427,23.887-58.515C41.1,11,60.9,0,80.651,0S120.2,11,131.8,27.042Z" transform="translate(0 0)" fill="#f5f5f5"/></g><g transform="translate(812.012 2659.069)"><g transform="translate(31.568)"><path d="M199.892,0a7.892,7.892,0,1,0,7.892,7.892A7.892,7.892,0,0,0,199.892,0Zm0,13.153a5.261,5.261,0,1,1,5.261-5.261A5.261,5.261,0,0,1,199.892,13.153Z" transform="translate(-192)" fill="#3a345e"/></g><g transform="translate(27.622 17.099)"><path d="M185.1,104h-.31l-.278.138a10.485,10.485,0,0,1-9.347,0l-.278-.138h-.31A6.584,6.584,0,0,0,168,110.577v7.892a3.946,3.946,0,0,0,3.946,3.946H187.73a3.946,3.946,0,0,0,3.946-3.946v-7.892A6.584,6.584,0,0,0,185.1,104Zm3.946,14.469a1.315,1.315,0,0,1-1.315,1.315H171.946a1.315,1.315,0,0,1-1.315-1.315v-7.892a3.946,3.946,0,0,1,3.666-3.935,13.163,13.163,0,0,0,11.083,0,3.946,3.946,0,0,1,3.666,3.935Z" transform="translate(-168 -104)" fill="#3a345e"/></g><g transform="translate(59.189 43.406)"><path d="M367.892,264a7.892,7.892,0,1,0,7.892,7.892A7.892,7.892,0,0,0,367.892,264Zm0,13.153a5.261,5.261,0,1,1,5.261-5.261A5.261,5.261,0,0,1,367.892,277.153Z" transform="translate(-360 -264)" fill="#3a345e"/></g><g transform="translate(55.243 60.505)"><path d="M353.1,368h-.31l-.278.132a10.486,10.486,0,0,1-9.347,0l-.278-.132h-.31A6.584,6.584,0,0,0,336,374.577v7.892a3.946,3.946,0,0,0,3.946,3.946H355.73a3.946,3.946,0,0,0,3.946-3.946v-7.892A6.585,6.585,0,0,0,353.1,368Zm3.946,14.469a1.315,1.315,0,0,1-1.315,1.315H339.946a1.315,1.315,0,0,1-1.315-1.315v-7.892a3.946,3.946,0,0,1,3.666-3.935,13.163,13.163,0,0,0,11.083,0,3.946,3.946,0,0,1,3.666,3.935Z" transform="translate(-336 -368)" fill="#3a345e"/></g><g transform="translate(3.946 43.406)"><path d="M31.892,264a7.892,7.892,0,1,0,7.892,7.892A7.892,7.892,0,0,0,31.892,264Zm0,13.153a5.261,5.261,0,1,1,5.261-5.261A5.261,5.261,0,0,1,31.892,277.153Z" transform="translate(-24 -264)" fill="#3a345e"/></g><g transform="translate(0 60.505)"><path d="M17.1,368h-.31l-.278.132a10.486,10.486,0,0,1-9.347,0L6.887,368h-.31A6.584,6.584,0,0,0,0,374.577v7.892a3.946,3.946,0,0,0,3.946,3.946H19.73a3.946,3.946,0,0,0,3.946-3.946v-7.892A6.584,6.584,0,0,0,17.1,368Zm3.946,14.469a1.315,1.315,0,0,1-1.315,1.315H3.946a1.315,1.315,0,0,1-1.315-1.315v-7.892A3.946,3.946,0,0,1,6.3,370.641a13.163,13.163,0,0,0,11.083,0,3.946,3.946,0,0,1,3.666,3.935Z" transform="translate(0 -368)" fill="#3a345e"/></g><g transform="translate(26.306 64.45)"><path d="M186.2,394.343l0,0a1.315,1.315,0,0,0-1.726-.694h0a29.176,29.176,0,0,1-18.76,1.292l1.231-.362a1.316,1.316,0,0,0-.739-2.525l-5.261,1.543c-.02,0-.034.022-.053.029a1.3,1.3,0,0,0-.339.188,1.148,1.148,0,0,0-.132.083,1.274,1.274,0,0,0-.322.447,1.317,1.317,0,0,0-.1.543,4.054,4.054,0,0,0,.132.526c.008.018,0,.039.014.058l2.631,5.034a1.316,1.316,0,1,0,2.333-1.218l-1.071-2.047a31.661,31.661,0,0,0,21.465-1.168A1.315,1.315,0,0,0,186.2,394.343Z" transform="translate(-159.998 -391.995)" fill="#3a345e"/></g><g transform="translate(49.982 10.296)"><path d="M328.6,86.909a1.315,1.315,0,0,0-1.86,0l-1.861,1.861a31.52,31.52,0,0,0-19.054-26.043,1.315,1.315,0,0,0-1.031,2.42,28.894,28.894,0,0,1,17.4,23.246l-1.484-1.484a1.315,1.315,0,0,0-1.86,1.86l3.946,3.946a1.315,1.315,0,0,0,1.86,0l0,0,3.946-3.946A1.315,1.315,0,0,0,328.6,86.909Z" transform="translate(-303.998 -62.622)" fill="#3a345e"/></g><g transform="translate(7.892 7.914)"><path d="M69.007,51.61a1.224,1.224,0,0,0-.034-.228c0-.012-.014-.02-.02-.033s0-.022,0-.033a1.262,1.262,0,0,0-.124-.182,1.328,1.328,0,0,0-.15-.217,1.235,1.235,0,0,0-.256-.175,1.156,1.156,0,0,0-.147-.107l-5.261-2.4a1.315,1.315,0,0,0-1.092,2.391l2.724,1.246A31.519,31.519,0,0,0,48,79.68a1.315,1.315,0,1,0,2.631,0A28.892,28.892,0,0,1,64.866,54.763l-.951,1.987A1.315,1.315,0,0,0,64.53,58.5a1.3,1.3,0,0,0,.57.132,1.315,1.315,0,0,0,1.184-.746L68.914,52.4a.06.06,0,0,1,.011-.041A1.265,1.265,0,0,0,69,52.081a1.36,1.36,0,0,0,.05-.217A1.311,1.311,0,0,0,69.007,51.61Z" transform="translate(-48 -48.134)" fill="#3a345e"/></g></g></g></svg>