<svg xmlns="http://www.w3.org/2000/svg" xmlns:xlink="http://www.w3.org/1999/xlink" width="194.501" height="192.3" viewBox="0 0 194.501 192.3"><defs><clipPath id="a"><rect width="80" height="80" transform="translate(823 3233)" fill="#3a345e" stroke="#707070" stroke-width="1"/></clipPath></defs><g transform="translate(-765.365 -3176.908)"><g transform="translate(959.866 3296.915) rotate(150)"><path d="M131.8,27.042c11.568,16.037,14.986,37.107,11.455,58.14-3.568,21.033-14.122,41.99-30.685,49.727-16.6,7.737-39.248,2.216-61.746-7.249-22.5-9.427-44.844-22.8-49.764-41.051-4.883-18.291,7.7-41.427,23.887-58.515C41.1,11,60.9,0,80.651,0S120.2,11,131.8,27.042Z" transform="translate(0 0)" fill="#f5f5f5"/></g><g clip-path="url(#a)"><path d="M39.844,31.563a3.125,3.125,0,1,1-3.125,3.125A3.125,3.125,0,0,1,39.844,31.563Zm10.938,3.125a3.125,3.125,0,1,0,3.125-3.125A3.125,3.125,0,0,0,50.781,34.688Zm-28.125,0a3.125,3.125,0,1,0,3.125-3.125A3.125,3.125,0,0,0,22.656,34.688Zm54.6,29.307A9.375,9.375,0,0,1,64,77.254L46.841,60.138a3.122,3.122,0,0,1-.782-1.3l-3.737-12.3a3.125,3.125,0,0,1,3.824-3.92L58.76,46.107a3.126,3.126,0,0,1,1.374.8ZM51.811,56.267,63.387,67.818l4.42-4.42L56.3,51.912l-6.345-1.758ZM72.835,68.416l-.6-.6-4.42,4.42.6.6a3.125,3.125,0,1,0,4.421-4.417Zm-31.1-3.657c-.577.025-1.162.038-1.738.038a37.817,37.817,0,0,1-14.378-2.781,3.129,3.129,0,0,0-2.4.014L9,68.036,13.79,56.679a3.125,3.125,0,0,0-.545-3.293A26.5,26.5,0,0,1,6.25,35.6C6.25,19.417,21.39,6.25,40,6.25S73.75,19.417,73.75,35.6a25.724,25.724,0,0,1-2.8,11.451,3.125,3.125,0,1,0,5.6,2.77A31.919,31.919,0,0,0,80,35.6C80,15.971,62.056,0,40,0S0,15.971,0,35.6A32.4,32.4,0,0,0,7.287,56.013L.246,72.691A3.125,3.125,0,0,0,4.34,76.785l20.145-8.5A44.148,44.148,0,0,0,40,71.046c.667,0,1.343-.015,2.012-.044a3.125,3.125,0,0,0-.273-6.244Zm0,0" transform="translate(823 3233.002)" fill="#3a345e"/></g></g></svg>