<svg xmlns="http://www.w3.org/2000/svg" xmlns:xlink="http://www.w3.org/1999/xlink" width="194.501" height="192.3" viewBox="0 0 194.501 192.3"><defs><clipPath id="a"><rect width="80" height="80" transform="translate(1335 3233)" fill="#3a345e" stroke="#707070" stroke-width="1"/></clipPath></defs><g transform="translate(-1279.365 -3176.908)"><g transform="translate(1473.866 3296.915) rotate(150)"><path d="M131.8,27.042c11.568,16.037,14.986,37.107,11.455,58.14-3.568,21.033-14.122,41.99-30.685,49.727-16.6,7.737-39.248,2.216-61.746-7.249-22.5-9.427-44.844-22.8-49.764-41.051-4.883-18.291,7.7-41.427,23.887-58.515C41.1,11,60.9,0,80.651,0S120.2,11,131.8,27.042Z" transform="translate(0 0)" fill="#f5f5f5"/></g><g clip-path="url(#a)"><g transform="translate(1335 3233)"><path d="M78.4,33.6l-15.517-10a1.634,1.634,0,0,0-.386-.15V20a1.666,1.666,0,0,0-1.667-1.667H54.644l-12.927-8.08a1.665,1.665,0,0,0-1.768,0l-12.927,8.08H19.167A1.666,1.666,0,0,0,17.5,20v3.448a1.609,1.609,0,0,0-.386.151L1.6,33.6A1.67,1.67,0,0,0,.833,35V78.333A1.666,1.666,0,0,0,2.5,80h75a1.666,1.666,0,0,0,1.667-1.667V35A1.671,1.671,0,0,0,78.4,33.6ZM40.834,13.634l7.522,4.7H33.312Zm-20,8.034H59.167v37.5s0,.009,0,.014L53.531,62.6,39.964,55.2a1.671,1.671,0,0,0-1.624.016L25.96,62.3l-5.129-3.114s0-.009,0-.013ZM4.167,35.909,17.5,27.318V57.159l-13.333-8.1Zm0,17.053L22.652,64.184,4.167,74.748ZM7.526,76.667,39.186,58.577,72.353,76.667Zm68.308-1.9-18.92-10.32,18.92-11.488Zm0-25.705L62.5,57.159V27.318l13.333,8.591Z" fill="#3a345e"/><path d="M27.5,38.334h20a1.666,1.666,0,0,0,1.667-1.667v-10A1.666,1.666,0,0,0,47.5,25h-20a1.666,1.666,0,0,0-1.667,1.667v10A1.666,1.666,0,0,0,27.5,38.334Zm1.666-10H45.833V35H29.166Z" fill="#3a345e"/><rect width="26.666" height="3.333" transform="translate(25.833 41.667)" fill="#3a345e"/><rect width="26.666" height="3.333" transform="translate(25.833 48.334)" fill="#3a345e"/><path d="M70.833,20a1.661,1.661,0,0,0,1.179-.488L77.9,13.621a1.666,1.666,0,0,0-2.357-2.357l-5.892,5.892A1.667,1.667,0,0,0,70.833,20Z" fill="#3a345e"/><path d="M7.988,19.513a1.667,1.667,0,1,0,2.357-2.357L4.453,11.264A1.666,1.666,0,1,0,2.1,13.621Z" fill="#3a345e"/><path d="M56.881,11.549a1.648,1.648,0,0,0,.618.118,1.666,1.666,0,0,0,1.548-1.048l3.333-8.333a1.667,1.667,0,1,0-3.1-1.237L55.952,9.382A1.667,1.667,0,0,0,56.881,11.549Z" fill="#3a345e"/><path d="M22.619,10.619a1.666,1.666,0,0,0,1.548,1.048,1.645,1.645,0,0,0,.618-.119,1.667,1.667,0,0,0,.929-2.166L22.381,1.049a1.667,1.667,0,0,0-3.1,1.237Z" fill="#3a345e"/></g></g></g></svg>