<svg xmlns="http://www.w3.org/2000/svg" width="186.843" height="185.044" viewBox="0 0 186.843 185.044">
  <g id="gazeta" transform="translate(-668.27 -196.022)">
    <g id="Group_1735" data-name="Group 1735" transform="translate(0 26)">
      <g id="blob-shape_2_" data-name="blob-shape (2)" transform="translate(788.281 170.022) rotate(60)">
        <path id="Path_413" data-name="Path 413" d="M116.334,17.546c8.58,12.45,8.782,29.638,11.642,46.278,2.889,16.668,8.406,32.787,4.1,46.1-4.275,13.317-18.372,23.832-33.336,27.3-14.993,3.438-30.852-.173-46.711-5.315s-31.661-11.786-41.482-24.179C.7,95.368-3.115,77.285,2.836,63.939S24.5,41.984,37.963,30.4,62.633,4.229,76.73.82C90.8-2.618,107.755,5.1,116.334,17.546Z" transform="translate(0 0)" fill="#f5f5f5"/>
      </g>
      <g id="align" transform="matrix(0.966, 0.259, -0.259, 0.966, 720.734, 170.186)">
        <path id="Path_438" data-name="Path 438" d="M32.642,3.84H1.92A1.92,1.92,0,0,1,1.92,0H32.642a1.92,1.92,0,0,1,0,3.84Zm0,0" transform="translate(17.281 94.085)" fill="#3a345e"/>
        <path id="Path_439" data-name="Path 439" d="M32.642,3.84H1.92A1.92,1.92,0,0,1,1.92,0H32.642a1.92,1.92,0,0,1,0,3.84Zm0,0" transform="translate(17.281 78.724)" fill="#3a345e"/>
        <path id="Path_440" data-name="Path 440" d="M32.642,3.84H1.92A1.92,1.92,0,0,1,1.92,0H32.642a1.92,1.92,0,0,1,0,3.84Zm0,0" transform="translate(17.281 63.364)" fill="#3a345e"/>
        <path id="Path_441" data-name="Path 441" d="M32.642,3.84H1.92A1.92,1.92,0,0,1,1.92,0H32.642a1.92,1.92,0,0,1,0,3.84Zm0,0" transform="translate(63.364 94.085)" fill="#3a345e"/>
        <path id="Path_442" data-name="Path 442" d="M32.642,3.84H1.92A1.92,1.92,0,0,1,1.92,0H32.642a1.92,1.92,0,0,1,0,3.84Zm0,0" transform="translate(63.364 78.724)" fill="#3a345e"/>
        <path id="Path_443" data-name="Path 443" d="M32.642,3.84H1.92A1.92,1.92,0,0,1,1.92,0H32.642a1.92,1.92,0,0,1,0,3.84Zm0,0" transform="translate(63.364 63.364)" fill="#3a345e"/>
        <path id="Path_444" data-name="Path 444" d="M32.642,34.561H1.92A1.919,1.919,0,0,1,0,32.642V1.92A1.919,1.919,0,0,1,1.92,0H32.642a1.919,1.919,0,0,1,1.92,1.92V32.642A1.919,1.919,0,0,1,32.642,34.561Zm-28.8-3.84H30.721V3.84H3.84Zm0,0" transform="translate(17.281 17.281)" fill="#3a345e"/>
        <path id="Path_445" data-name="Path 445" d="M32.642,34.561H1.92A1.919,1.919,0,0,1,0,32.642V1.92A1.919,1.919,0,0,1,1.92,0H32.642a1.919,1.919,0,0,1,1.92,1.92V32.642A1.919,1.919,0,0,1,32.642,34.561Zm-28.8-3.84H30.721V3.84H3.84Zm0,0" transform="translate(63.364 17.281)" fill="#3a345e"/>
        <path id="Path_446" data-name="Path 446" d="M113.285,115.206H1.921A1.92,1.92,0,0,1,0,113.285V1.921A1.92,1.92,0,0,1,1.921,0H113.285a1.92,1.92,0,0,1,1.921,1.921V113.285a1.92,1.92,0,0,1-1.921,1.921ZM3.84,111.366H111.366V3.84H3.84Zm0,0" transform="translate(0 0)" fill="#3a345e"/>
      </g>
    </g>
  </g>
</svg>
