<svg xmlns="http://www.w3.org/2000/svg" width="139.826" height="146.378" viewBox="0 0 139.826 146.378">
  <g id="llupa" transform="translate(-1096.802 -211)">
    <g id="blob-shape" transform="translate(1096.802 357.378) rotate(-90)">
      <path id="Path_76" data-name="Path 76" d="M133,27.287c11.673,16.183,15.121,37.443,11.559,58.666-3.6,21.223-14.25,42.37-30.963,50.177-16.751,7.807-39.6,2.236-62.3-7.314-22.7-9.512-45.25-23-50.215-41.423-4.927-18.456,7.769-41.8,24.1-59.045C41.474,11.1,61.447,0,81.381,0S121.288,11.1,133,27.287Z" transform="translate(0 0)" fill="#f5f5f5"/>
    </g>
    <g id="loupe" transform="translate(1114 211)">
      <g id="Group_1727" data-name="Group 1727" transform="translate(61.278 38.809)">
        <g id="Group_1726" data-name="Group 1726">
          <path id="Path_892" data-name="Path 892" d="M302.043,190a2.043,2.043,0,1,0,2.043,2.043A2.043,2.043,0,0,0,302.043,190Z" transform="translate(-300 -190)" fill="#3a345e"/>
        </g>
      </g>
      <g id="Group_1729" data-name="Group 1729">
        <g id="Group_1728" data-name="Group 1728">
          <path id="Path_893" data-name="Path 893" d="M102.187,90.634,74.923,63.369A40.485,40.485,0,0,0,81.7,40.852,40.852,40.852,0,1,0,40.852,81.7a40.487,40.487,0,0,0,22.517-6.781l7.536,7.536,0,0,19.725,19.725a8.17,8.17,0,1,0,11.554-11.553ZM62.409,70.618h0a36.8,36.8,0,1,1,8.21-8.21A36.945,36.945,0,0,1,62.409,70.618Zm4.285,1.852a40.99,40.99,0,0,0,5.776-5.776l5.8,5.8a49.581,49.581,0,0,1-5.776,5.776ZM99.3,99.3a4.082,4.082,0,0,1-5.776,0L75.385,81.161a53.674,53.674,0,0,0,5.776-5.776L99.3,93.523a4.082,4.082,0,0,1,0,5.775Z" fill="#3a345e"/>
        </g>
      </g>
      <g id="Group_1731" data-name="Group 1731" transform="translate(8.17 8.17)">
        <g id="Group_1730" data-name="Group 1730">
          <path id="Path_894" data-name="Path 894" d="M72.682,40a32.682,32.682,0,1,0,32.682,32.682A32.718,32.718,0,0,0,72.682,40Zm0,61.278a28.6,28.6,0,1,1,28.6-28.6A28.629,28.629,0,0,1,72.682,101.278Z" transform="translate(-40 -40)" fill="#3a345e"/>
        </g>
      </g>
      <g id="Group_1733" data-name="Group 1733" transform="translate(38.809 16.341)">
        <g id="Group_1732" data-name="Group 1732">
          <path id="Path_895" data-name="Path 895" d="M214.933,95.743A24.55,24.55,0,0,0,192.043,80a2.043,2.043,0,1,0,0,4.085A20.565,20.565,0,0,1,211.12,97.208a2.043,2.043,0,1,0,3.813-1.465Z" transform="translate(-190 -80)" fill="#3a345e"/>
        </g>
      </g>
    </g>
  </g>
</svg>
