<svg xmlns="http://www.w3.org/2000/svg" width="197.547" height="194.041" viewBox="0 0 197.547 194.041">
  <g id="puzell" transform="translate(-234.441 -187.41)">
    <g id="Group_1736" data-name="Group 1736" transform="translate(0 26)">
      <g id="blob-shape" transform="translate(431.989 282.503) rotate(150)">
        <path id="Path_76" data-name="Path 76" d="M133,27.287c11.673,16.183,15.121,37.443,11.559,58.666-3.6,21.223-14.25,42.37-30.963,50.177-16.751,7.807-39.6,2.236-62.3-7.314-22.7-9.512-45.25-23-50.215-41.423-4.927-18.456,7.769-41.8,24.1-59.045C41.474,11.1,61.447,0,81.381,0S121.288,11.1,133,27.287Z" transform="translate(0 0)" fill="#f5f5f5"/>
      </g>
      <g id="puzzle" transform="translate(234.441 170.234)">
        <g id="Group_235" data-name="Group 235" transform="translate(20.614 20.614)">
          <g id="Group_234" data-name="Group 234">
            <path id="Path_417" data-name="Path 417" d="M181.009,80H131.535a2.062,2.062,0,0,0-2.061,2.061v18.553a2.061,2.061,0,0,0,2.713,1.954l2.591-.864a5.36,5.36,0,1,1,0,10.187l-2.591-.864a2.061,2.061,0,0,0-2.713,1.954v16.491H112.982a2.061,2.061,0,0,0-1.954,2.713l.864,2.591a5.36,5.36,0,1,1-10.187,0l.864-2.591a2.061,2.061,0,0,0-1.954-2.713H82.061A2.061,2.061,0,0,0,80,131.535v49.474a2.062,2.062,0,0,0,2.061,2.061h98.947a2.062,2.062,0,0,0,2.061-2.061V82.061A2.061,2.061,0,0,0,181.009,80Zm-51.429,81.806a2.063,2.063,0,0,0-.106.65v16.491H84.123V133.6H97.755a9.482,9.482,0,1,0,18.087,0h13.632v16.491a2.061,2.061,0,0,0,2.713,1.954l2.591-.864a5.36,5.36,0,1,1,0,10.187l-2.591-.864A2.061,2.061,0,0,0,129.579,161.806Zm49.368,17.141H133.6V165.315a9.482,9.482,0,1,0,0-18.087V133.6h16.491a2.061,2.061,0,0,0,1.954-2.713l-.864-2.591a5.36,5.36,0,1,1,10.187,0l-.864,2.591a2.061,2.061,0,0,0,1.954,2.713h16.491v45.351Zm0-49.474H165.315a9.482,9.482,0,1,0-18.087,0H133.6V115.842a9.5,9.5,0,1,0,0-18.087V84.123h45.351Z" transform="translate(-80 -80)" fill="#3a345e"/>
          </g>
        </g>
        <g id="Group_237" data-name="Group 237">
          <g id="Group_236" data-name="Group 236">
            <path id="Path_418" data-name="Path 418" d="M59.3,17.755a9.482,9.482,0,0,0-5.7,0V2.061A2.061,2.061,0,0,0,51.535,0H2.061A2.061,2.061,0,0,0,0,2.061V51.535A2.061,2.061,0,0,0,2.061,53.6H17.755a9.482,9.482,0,1,0,18.087,0H51.535A2.061,2.061,0,0,0,53.6,51.535V35.841a9.482,9.482,0,0,0,5.7-18.086ZM58.112,31.892a5.36,5.36,0,0,1-3.335,0l-2.591-.864a2.061,2.061,0,0,0-2.713,1.954V49.474H32.982a2.061,2.061,0,0,0-1.954,2.713l.864,2.591a5.36,5.36,0,1,1-10.187,0l.864-2.591a2.061,2.061,0,0,0-1.954-2.713H4.123V4.123H49.474V20.614a2.061,2.061,0,0,0,2.713,1.954l2.591-.864a5.36,5.36,0,0,1,3.335,10.187Z" fill="#3a345e"/>
          </g>
        </g>
      </g>
    </g>
  </g>
</svg>
