<svg xmlns="http://www.w3.org/2000/svg" width="146.483" height="154.628" viewBox="0 0 146.483 154.628">
  <g id="rraketa" transform="translate(-1528.717 -202.75)">
    <g id="Group_1734" data-name="Group 1734" transform="translate(0 26)">
      <g id="blob-shape" transform="translate(1528.717 331.378) rotate(-90)">
        <path id="Path_76" data-name="Path 76" d="M133,27.287c11.673,16.183,15.121,37.443,11.559,58.666-3.6,21.223-14.25,42.37-30.963,50.177-16.751,7.807-39.6,2.236-62.3-7.314-22.7-9.512-45.25-23-50.215-41.423-4.927-18.456,7.769-41.8,24.1-59.045C41.474,11.1,61.447,0,81.381,0S121.288,11.1,133,27.287Z" transform="translate(0 0)" fill="#f5f5f5"/>
      </g>
      <g id="startup" transform="translate(1565.242 176.75)">
        <g id="Group_245" data-name="Group 245" transform="translate(54.031 51.633)">
          <g id="Group_244" data-name="Group 244">
            <path id="Path_422" data-name="Path 422" d="M255.254,241.048a2.148,2.148,0,1,0,0,3.037A2.148,2.148,0,0,0,255.254,241.048Z" transform="translate(-251.587 -240.418)" fill="#3a345e"/>
          </g>
        </g>
        <g id="Group_247" data-name="Group 247" transform="translate(66.706 21.78)">
          <g id="Group_246" data-name="Group 246">
            <path id="Path_423" data-name="Path 423" d="M328.929,104.563a10.738,10.738,0,1,0,0,15.186A10.734,10.734,0,0,0,328.929,104.563Zm-3.037,12.149a6.443,6.443,0,1,1,0-9.112A6.452,6.452,0,0,1,325.892,116.712Z" transform="translate(-310.603 -101.415)" fill="#3a345e"/>
          </g>
        </g>
        <g id="Group_249" data-name="Group 249" transform="translate(20.621 0)">
          <g id="Group_248" data-name="Group 248">
            <path id="Path_424" data-name="Path 424" d="M184.727.629a2.14,2.14,0,0,0-1.6-.628,95.406,95.406,0,0,0-25.791,5.34C146.327,9.23,137.147,14.8,130.056,21.889c-1.589,1.589-3.135,3.274-4.615,5.025-7.012-4.127-12.63-2.833-16.182-.932-8.178,4.377-13.241,16.261-13.241,24.761a2.148,2.148,0,0,0,3.667,1.519,13.672,13.672,0,0,1,11.371-3.815l.752.752a75.541,75.541,0,0,0-3.547,10.431,6.079,6.079,0,0,0,.26,3.73,20.338,20.338,0,0,0-5.8,4.089c-5.528,5.528-6.651,19-6.7,19.572a2.147,2.147,0,0,0,2.141,2.317q.084,0,.169-.007c.571-.045,14.044-1.167,19.572-6.7a20.338,20.338,0,0,0,4.088-5.8,6.065,6.065,0,0,0,3.733.258,75.548,75.548,0,0,0,10.429-3.547l.752.752A13.673,13.673,0,0,1,133.1,85.671a2.148,2.148,0,0,0,1.519,3.666c8.5,0,20.384-5.062,24.761-13.241,1.9-3.552,3.2-9.17-.932-16.182,1.75-1.479,3.435-3.025,5.025-4.615,7.091-7.092,12.659-16.271,16.547-27.283a95.4,95.4,0,0,0,5.34-25.792A2.148,2.148,0,0,0,184.727.629ZM100.82,46.123c1.334-6.456,5.209-13.541,10.467-16.355,3.513-1.88,7.354-1.7,11.437.539A86.836,86.836,0,0,0,113.7,45.016a2.264,2.264,0,0,0-1.137-.668A18.356,18.356,0,0,0,100.82,46.123ZM114.87,79.6c-2.953,2.953-9.88,4.51-14.259,5.146.636-4.379,2.194-11.306,5.147-14.258a15.477,15.477,0,0,1,5.5-3.614l7.227,7.227A15.474,15.474,0,0,1,114.87,79.6Zm9.791-6.663a2.015,2.015,0,0,1-1.877-.609l-4.206-4.206-5.546-5.547a2.017,2.017,0,0,1-.611-1.877,69.735,69.735,0,0,1,2.682-8.2l17.76,17.76A69.685,69.685,0,0,1,124.661,72.934Zm30.927,1.136c-2.814,5.257-9.9,9.132-16.355,10.466a18.279,18.279,0,0,0,1.76-11.8,2.243,2.243,0,0,0-.653-1.085,86.867,86.867,0,0,0,14.708-9.023C157.284,66.717,157.468,70.557,155.588,74.07Zm4.842-21.807a77.951,77.951,0,0,1-6.194,5.556,82.512,82.512,0,0,1-17.121,10.613L116.924,48.241a82.5,82.5,0,0,1,10.613-17.12,77.935,77.935,0,0,1,5.557-6.194c6.362-6.363,14.574-11.426,24.412-15.071l18,18C171.857,37.689,166.793,45.9,160.43,52.263ZM177.047,23.32,162.036,8.309A96.555,96.555,0,0,1,180.88,4.476,96.571,96.571,0,0,1,177.047,23.32Z" transform="translate(-96.018 0)" fill="#3a345e"/>
          </g>
        </g>
        <g id="Group_251" data-name="Group 251" transform="translate(41.883 88.079)">
          <g id="Group_250" data-name="Group 250">
            <path id="Path_425" data-name="Path 425" d="M204.76,410.75a2.148,2.148,0,0,0-3.037,0l-6.074,6.076a2.148,2.148,0,0,0,3.038,3.037l6.074-6.076A2.148,2.148,0,0,0,204.76,410.75Z" transform="translate(-195.021 -410.121)" fill="#3a345e"/>
          </g>
        </g>
        <g id="Group_253" data-name="Group 253" transform="translate(11.509 57.707)">
          <g id="Group_252" data-name="Group 252">
            <path id="Path_426" data-name="Path 426" d="M63.334,269.33a2.148,2.148,0,0,0-3.037,0L54.221,275.4a2.148,2.148,0,1,0,3.037,3.038l6.076-6.074A2.148,2.148,0,0,0,63.334,269.33Z" transform="translate(-53.592 -268.701)" fill="#3a345e"/>
          </g>
        </g>
        <g id="Group_255" data-name="Group 255" transform="translate(18.223 91.118)">
          <g id="Group_254" data-name="Group 254">
            <path id="Path_427" data-name="Path 427" d="M103.066,424.9a2.148,2.148,0,0,0-3.037,0L85.481,439.446a2.148,2.148,0,0,0,3.037,3.037l14.548-14.546A2.148,2.148,0,0,0,103.066,424.9Z" transform="translate(-84.851 -424.271)" fill="#3a345e"/>
          </g>
        </g>
        <g id="Group_257" data-name="Group 257" transform="translate(1.042 91.118)">
          <g id="Group_256" data-name="Group 256">
            <path id="Path_428" data-name="Path 428" d="M23.066,424.9a2.148,2.148,0,0,0-3.037,0L5.481,439.446a2.148,2.148,0,1,0,3.037,3.037l14.548-14.546A2.148,2.148,0,0,0,23.066,424.9Z" transform="translate(-4.851 -424.271)" fill="#3a345e"/>
          </g>
        </g>
        <g id="Group_259" data-name="Group 259" transform="translate(0 72.893)">
          <g id="Group_258" data-name="Group 258">
            <path id="Path_429" data-name="Path 429" d="M18.213,340.039a2.148,2.148,0,0,0-3.037,0L.63,354.587a2.148,2.148,0,0,0,3.037,3.037l14.546-14.548A2.148,2.148,0,0,0,18.213,340.039Z" transform="translate(-0.001 -339.41)" fill="#3a345e"/>
          </g>
        </g>
        <g id="Group_261" data-name="Group 261" transform="translate(60.106 42.521)">
          <g id="Group_260" data-name="Group 260">
            <path id="Path_430" data-name="Path 430" d="M286.574,198.619a2.148,2.148,0,0,0-3.037,0l-3.037,3.037a2.148,2.148,0,0,0,3.037,3.037l3.037-3.037A2.148,2.148,0,0,0,286.574,198.619Z" transform="translate(-279.871 -197.99)" fill="#3a345e"/>
          </g>
        </g>
      </g>
    </g>
  </g>
</svg>
