<svg xmlns="http://www.w3.org/2000/svg" width="144.009" height="142.379" viewBox="0 0 144.009 142.379">
  <g id="syni" transform="translate(-764.678 -3860.12)">
    <g id="Group_1723" data-name="Group 1723">
      <g id="Group_1711" data-name="Group 1711" transform="translate(640.358 -39.29)">
        <g id="blob-shape" transform="translate(268.329 3988.263) rotate(150)">
          <path id="Path_76" data-name="Path 76" d="M97.588,20.022c8.565,11.874,11.1,27.474,8.481,43.047-2.642,15.573-10.456,31.089-22.719,36.818-12.291,5.728-29.059,1.641-45.716-5.367C20.977,87.54,4.432,77.64.789,64.125-2.826,50.583,6.489,33.453,18.475,20.8,30.432,8.148,45.087,0,59.714,0S89,8.148,97.588,20.022Z" transform="translate(0)" fill="#f5f5f5"/>
        </g>
      </g>
      <g id="Group_1715" data-name="Group 1715" transform="translate(-884 -533)">
        <g id="Group_1706" data-name="Group 1706" transform="translate(0 545)">
          <g id="Group_1648" data-name="Group 1648" transform="translate(1692.257 3905.79)">
            <g id="Group_1647" data-name="Group 1647">
              <path id="Path_863" data-name="Path 863" d="M97.832,145.909a29.143,29.143,0,0,0-49.688,0,.967.967,0,0,0,0,1.016,29.143,29.143,0,0,0,49.688,0A.967.967,0,0,0,97.832,145.909Zm-24.844,13A27.2,27.2,0,0,1,50.1,146.416a27.21,27.21,0,0,1,45.775,0A27.2,27.2,0,0,1,72.988,158.911Z" transform="translate(-48 -132)" fill="#3a345e"/>
            </g>
          </g>
          <g id="Group_1650" data-name="Group 1650" transform="translate(1706.673 3909.634)">
            <g id="Group_1649" data-name="Group 1649">
              <path id="Path_864" data-name="Path 864" d="M178.572,164a10.572,10.572,0,1,0,10.572,10.572A10.584,10.584,0,0,0,178.572,164Zm0,19.222a8.65,8.65,0,1,1,8.65-8.65A8.659,8.659,0,0,1,178.572,183.222Z" transform="translate(-168 -164)" fill="#3a345e"/>
            </g>
          </g>
          <g id="Group_1652" data-name="Group 1652" transform="translate(1713.401 3916.362)">
            <g id="Group_1651" data-name="Group 1651" transform="translate(0 0)">
              <path id="Path_865" data-name="Path 865" d="M227.844,220a3.844,3.844,0,1,0,3.844,3.844A3.848,3.848,0,0,0,227.844,220Zm0,5.767a1.922,1.922,0,1,1,1.922-1.922A1.924,1.924,0,0,1,227.844,225.767Z" transform="translate(-224 -220)" fill="#3a345e"/>
            </g>
          </g>
          <g id="Group_1654" data-name="Group 1654" transform="translate(1732.623 3902.906)">
            <g id="Group_1653" data-name="Group 1653" transform="translate(0 0)">
              <path id="Path_866" data-name="Path 866" d="M398.416,108H384.961a.961.961,0,1,0,0,1.922h13.455a.961.961,0,0,0,0-1.922Z" transform="translate(-384 -108)" fill="#3a345e"/>
            </g>
          </g>
          <g id="Group_1656" data-name="Group 1656" transform="translate(1732.623 3899.062)">
            <g id="Group_1655" data-name="Group 1655">
              <path id="Path_867" data-name="Path 867" d="M388.805,76h-3.844a.961.961,0,0,0,0,1.922h3.844a.961.961,0,1,0,0-1.922Z" transform="translate(-384 -76)" fill="#3a345e"/>
            </g>
          </g>
          <g id="Group_1658" data-name="Group 1658" transform="translate(1743.195 3895.218)">
            <g id="Group_1657" data-name="Group 1657" transform="translate(0 0)">
              <path id="Path_868" data-name="Path 868" d="M475.844,44h-2.883a.961.961,0,1,0,0,1.922h2.883a.961.961,0,0,0,0-1.922Z" transform="translate(-472 -44)" fill="#3a345e"/>
            </g>
          </g>
          <g id="Group_1660" data-name="Group 1660" transform="translate(1740.311 3899.062)">
            <g id="Group_1659" data-name="Group 1659">
              <path id="Path_869" data-name="Path 869" d="M454.728,76h-5.767a.961.961,0,0,0,0,1.922h5.767a.961.961,0,0,0,0-1.922Z" transform="translate(-448 -76)" fill="#3a345e"/>
            </g>
          </g>
          <g id="Group_1662" data-name="Group 1662" transform="translate(1732.623 3891.374)">
            <g id="Group_1661" data-name="Group 1661" transform="translate(0 0)">
              <path id="Path_870" data-name="Path 870" d="M388.805,12h-3.844a.961.961,0,1,0,0,1.922h3.844a.961.961,0,1,0,0-1.922Z" transform="translate(-384 -12)" fill="#3a345e"/>
            </g>
          </g>
          <g id="Group_1664" data-name="Group 1664" transform="translate(1740.311 3891.374)">
            <g id="Group_1663" data-name="Group 1663" transform="translate(0 0)">
              <path id="Path_871" data-name="Path 871" d="M454.728,12h-5.767a.961.961,0,1,0,0,1.922h5.767a.961.961,0,1,0,0-1.922Z" transform="translate(-448 -12)" fill="#3a345e"/>
            </g>
          </g>
          <g id="Group_1666" data-name="Group 1666" transform="translate(1732.623 3895.218)">
            <g id="Group_1665" data-name="Group 1665" transform="translate(0 0)">
              <path id="Path_872" data-name="Path 872" d="M391.689,44h-6.728a.961.961,0,0,0,0,1.922h6.728a.961.961,0,0,0,0-1.922Z" transform="translate(-384 -44)" fill="#3a345e"/>
            </g>
          </g>
          <g id="Group_1668" data-name="Group 1668" transform="translate(1719.167 3919.245)">
            <g id="Group_1667" data-name="Group 1667">
              <path id="Path_873" data-name="Path 873" d="M279.689,244h-6.728a.961.961,0,0,0,0,1.922h6.728a.961.961,0,1,0,0-1.922Z" transform="translate(-272 -244)" fill="#3a345e"/>
            </g>
          </g>
          <g id="Group_1670" data-name="Group 1670" transform="translate(1716.284 3926.934)">
            <g id="Group_1669" data-name="Group 1669">
              <path id="Path_874" data-name="Path 874" d="M248.961,308a.96.96,0,0,0-.961.961v1.922a.961.961,0,0,0,1.922,0v-1.922A.96.96,0,0,0,248.961,308Z" transform="translate(-248 -308)" fill="#3a345e"/>
            </g>
          </g>
          <g id="Group_1672" data-name="Group 1672" transform="translate(1716.284 3909.634)">
            <g id="Group_1671" data-name="Group 1671">
              <path id="Path_875" data-name="Path 875" d="M248.961,164a.96.96,0,0,0-.961.961v1.922a.961.961,0,0,0,1.922,0v-1.922A.96.96,0,0,0,248.961,164Z" transform="translate(-248 -164)" fill="#3a345e"/>
            </g>
          </g>
          <g id="Group_1674" data-name="Group 1674" transform="translate(1721.72 3924.681)">
            <g id="Group_1673" data-name="Group 1673">
              <path id="Path_876" data-name="Path 876" d="M296.247,290.888l-1.36-1.36a.961.961,0,1,0-1.359,1.359l1.36,1.36a.961.961,0,0,0,1.359-1.359Z" transform="translate(-293.246 -289.246)" fill="#3a345e"/>
            </g>
          </g>
          <g id="Group_1676" data-name="Group 1676" transform="translate(1709.489 3912.45)">
            <g id="Group_1675" data-name="Group 1675">
              <path id="Path_877" data-name="Path 877" d="M194.438,189.079l-1.359-1.359a.961.961,0,0,0-1.359,1.359l1.359,1.359a.961.961,0,1,0,1.359-1.359Z" transform="translate(-191.438 -187.438)" fill="#3a345e"/>
            </g>
          </g>
          <g id="Group_1678" data-name="Group 1678" transform="translate(1706.674 3919.245)">
            <g id="Group_1677" data-name="Group 1677">
              <path id="Path_878" data-name="Path 878" d="M175.7,244h-6.727a.961.961,0,1,0,0,1.922H175.7a.961.961,0,0,0,0-1.922Z" transform="translate(-168.008 -244)" fill="#3a345e"/>
            </g>
          </g>
          <g id="Group_1680" data-name="Group 1680" transform="translate(1721.721 3902.907)">
            <g id="Group_1679" data-name="Group 1679">
              <path id="Path_879" data-name="Path 879" d="M305.8,108.288a.96.96,0,0,0-1.359,0l-10.9,10.9a.961.961,0,1,0,1.359,1.359l10.9-10.9A.96.96,0,0,0,305.8,108.288Z" transform="translate(-293.254 -108.006)" fill="#3a345e"/>
            </g>
          </g>
          <g id="Group_1682" data-name="Group 1682" transform="translate(1699.943 3924.68)">
            <g id="Group_1681" data-name="Group 1681">
              <path id="Path_880" data-name="Path 880" d="M124.527,289.52a.96.96,0,0,0-1.359,0l-10.9,10.9a.961.961,0,1,0,1.359,1.359l10.9-10.9A.96.96,0,0,0,124.527,289.52Z" transform="translate(-111.982 -289.238)" fill="#3a345e"/>
            </g>
          </g>
          <g id="Group_1684" data-name="Group 1684" transform="translate(1686.49 3935.584)">
            <g id="Group_1683" data-name="Group 1683">
              <path id="Path_881" data-name="Path 881" d="M14.414,380H.961a.961.961,0,0,0,0,1.922H14.414a.961.961,0,0,0,0-1.922Z" transform="translate(0 -380)" fill="#3a345e"/>
            </g>
          </g>
          <g id="Group_1686" data-name="Group 1686" transform="translate(1686.49 3939.428)">
            <g id="Group_1685" data-name="Group 1685">
              <path id="Path_882" data-name="Path 882" d="M14.416,412H.961a.96.96,0,0,0-.961.961v8.65a.96.96,0,0,0,.961.961H14.416a.96.96,0,0,0,.961-.961v-8.65A.96.96,0,0,0,14.416,412Zm-.961,8.65H1.922v-6.728H13.455Z" transform="translate(0 -412)" fill="#3a345e"/>
            </g>
          </g>
          <g id="Group_1688" data-name="Group 1688" transform="translate(1689.374 3945.195)">
            <g id="Group_1687" data-name="Group 1687">
              <path id="Path_883" data-name="Path 883" d="M32.65,460H24.961a.961.961,0,0,0,0,1.922H32.65a.961.961,0,0,0,0-1.922Z" transform="translate(-24 -460)" fill="#3a345e"/>
            </g>
          </g>
          <g id="Group_1690" data-name="Group 1690" transform="translate(1689.374 3945.195)">
            <g id="Group_1689" data-name="Group 1689">
              <path id="Path_884" data-name="Path 884" d="M24.961,460a.96.96,0,0,0-.961.961v2.883a.961.961,0,0,0,1.922,0v-2.883A.96.96,0,0,0,24.961,460Z" transform="translate(-24 -460)" fill="#3a345e"/>
            </g>
          </g>
          <g id="Group_1692" data-name="Group 1692" transform="translate(1697.062 3945.195)">
            <g id="Group_1691" data-name="Group 1691">
              <path id="Path_885" data-name="Path 885" d="M88.961,460a.96.96,0,0,0-.961.961v2.883a.961.961,0,0,0,1.922,0v-2.883A.96.96,0,0,0,88.961,460Z" transform="translate(-88 -460)" fill="#3a345e"/>
            </g>
          </g>
          <g id="Group_1694" data-name="Group 1694" transform="translate(1697.062 3892.335)">
            <g id="Group_1693" data-name="Group 1693" transform="translate(0 0)">
              <path id="Path_886" data-name="Path 886" d="M97.611,20h-8.65a.96.96,0,0,0-.961.961v8.65a.96.96,0,0,0,.961.961h8.65a.96.96,0,0,0,.961-.961v-8.65A.96.96,0,0,0,97.611,20Zm-.961,8.65H89.922V21.922H96.65Z" transform="translate(-88 -20)" fill="#3a345e"/>
            </g>
          </g>
          <g id="Group_1696" data-name="Group 1696" transform="translate(1690.335 3904.829)">
            <g id="Group_1695" data-name="Group 1695">
              <path id="Path_887" data-name="Path 887" d="M36.805,124H32.961a.96.96,0,0,0-.961.961v3.844a.96.96,0,0,0,.961.961h3.844a.96.96,0,0,0,.961-.961v-3.844A.96.96,0,0,0,36.805,124Zm-.961,3.844H33.922v-1.922h1.922Z" transform="translate(-32 -124)" fill="#3a345e"/>
            </g>
          </g>
          <g id="Group_1698" data-name="Group 1698" transform="translate(1712.44 3896.179)">
            <g id="Group_1697" data-name="Group 1697" transform="translate(0 0)">
              <path id="Path_888" data-name="Path 888" d="M219.844,52h-2.883a.96.96,0,0,0-.961.961v2.883a.96.96,0,0,0,.961.961h2.883a.96.96,0,0,0,.961-.961V52.961A.96.96,0,0,0,219.844,52Zm-.961,2.883h-.961v-.961h.961Z" transform="translate(-216 -52)" fill="#3a345e"/>
            </g>
          </g>
          <g id="Group_1700" data-name="Group 1700" transform="translate(1726.856 3937.506)">
            <g id="Group_1699" data-name="Group 1699">
              <path id="Path_889" data-name="Path 889" d="M345.611,396h-8.65a.96.96,0,0,0-.961.961v8.65a.96.96,0,0,0,.961.961h8.65a.96.96,0,0,0,.961-.961v-8.65A.96.96,0,0,0,345.611,396Zm-.961,8.65h-6.728v-6.728h6.728Z" transform="translate(-336 -396)" fill="#3a345e"/>
            </g>
          </g>
          <g id="Group_1702" data-name="Group 1702" transform="translate(1738.389 3929.817)">
            <g id="Group_1701" data-name="Group 1701">
              <path id="Path_890" data-name="Path 890" d="M436.805,332h-3.844a.96.96,0,0,0-.961.961v3.844a.96.96,0,0,0,.961.961h3.844a.96.96,0,0,0,.961-.961v-3.844A.96.96,0,0,0,436.805,332Zm-.961,3.844h-1.922v-1.922h1.922Z" transform="translate(-432 -332)" fill="#3a345e"/>
            </g>
          </g>
          <g id="Group_1704" data-name="Group 1704" transform="translate(1717.245 3939.428)">
            <g id="Group_1703" data-name="Group 1703">
              <path id="Path_891" data-name="Path 891" d="M259.844,412h-2.883a.96.96,0,0,0-.961.961v2.883a.96.96,0,0,0,.961.961h2.883a.96.96,0,0,0,.961-.961v-2.883A.96.96,0,0,0,259.844,412Zm-.961,2.883h-.961v-.961h.961Z" transform="translate(-256 -412)" fill="#3a345e"/>
            </g>
          </g>
        </g>
      </g>
    </g>
  </g>
</svg>
