<svg xmlns="http://www.w3.org/2000/svg" width="144.009" height="142.379" viewBox="0 0 144.009 142.379">
  <g id="gjystiki" transform="translate(-1317.678 -3860.12)">
    <g id="Group_1722" data-name="Group 1722">
      <g id="Group_1709" data-name="Group 1709" transform="translate(1193.358 -39.29)">
        <g id="blob-shape" transform="translate(268.329 3988.263) rotate(150)">
          <path id="Path_76" data-name="Path 76" d="M97.588,20.022c8.565,11.874,11.1,27.474,8.481,43.047-2.642,15.573-10.456,31.089-22.719,36.818-12.291,5.728-29.059,1.641-45.716-5.367C20.977,87.54,4.432,77.64.789,64.125-2.826,50.583,6.489,33.453,18.475,20.8,30.432,8.148,45.087,0,59.714,0S89,8.148,97.588,20.022Z" transform="translate(0)" fill="#f5f5f5"/>
        </g>
      </g>
      <g id="Group_1713" data-name="Group 1713" transform="translate(381 -538)">
        <g id="Group_1636" data-name="Group 1636" transform="translate(984.445 4467.618)">
          <g id="Group_1635" data-name="Group 1635">
            <path id="Path_855" data-name="Path 855" d="M78.072,292.711H74.329v-3.744a.936.936,0,0,0-.936-.936H69.649a.936.936,0,0,0-.936.936v3.744H64.97a.936.936,0,0,0-.936.936v3.743a.936.936,0,0,0,.936.936h3.744v3.744a.936.936,0,0,0,.936.936h3.744a.936.936,0,0,0,.936-.936v-3.744h3.744a.936.936,0,0,0,.936-.936v-3.743A.936.936,0,0,0,78.072,292.711Zm-.936,3.744H73.393a.936.936,0,0,0-.936.936v3.744H70.585v-3.744a.936.936,0,0,0-.936-.936H65.906v-1.872h3.744a.936.936,0,0,0,.936-.936V289.9h1.872v3.744a.936.936,0,0,0,.936.936h3.744Z" transform="translate(-64.034 -288.032)" fill="#3a345e"/>
          </g>
        </g>
        <g id="Group_1638" data-name="Group 1638" transform="translate(976.954 4433.927)">
          <g id="Group_1637" data-name="Group 1637" transform="translate(0 0)">
            <path id="Path_856" data-name="Path 856" d="M56.064,39.5c-.718-6.449-6.775-12.483-13.23-13.171a15.535,15.535,0,0,0-1.651-.094H30.888V22.493H29.017V20.621a3.744,3.744,0,0,0-3.744-3.744H20.594a1.872,1.872,0,1,1,0-3.744H35.568a3.744,3.744,0,1,0,0-7.487H30.888a1.872,1.872,0,0,1-1.872-1.872V.032H27.145V3.776a3.744,3.744,0,0,0,3.744,3.744h4.679a1.872,1.872,0,0,1,0,3.744H20.594a3.744,3.744,0,1,0,0,7.487h4.679a1.872,1.872,0,0,1,1.872,1.872v1.872H25.273v3.744H14.978a15.267,15.267,0,0,0-1.653.094C6.868,27.023.815,33.056.1,39.506A14.974,14.974,0,0,0,22.859,53.939a9.166,9.166,0,0,1,4.108-1.452,14.434,14.434,0,0,1,2.176-.007,9.235,9.235,0,0,1,4.172,1.467A14.974,14.974,0,0,0,56.064,39.5ZM27.145,24.365h1.872v1.872H27.145Zm23.8,25.581A13.094,13.094,0,0,1,34.3,52.356a11.044,11.044,0,0,0-5.025-1.744q-.592-.043-1.2-.043c-.426,0-.842.018-1.262.051a11.009,11.009,0,0,0-4.949,1.728A13.1,13.1,0,0,1,1.959,39.713c.616-5.542,6.02-10.925,11.568-11.522a13.462,13.462,0,0,1,1.452-.083h26.2a13.766,13.766,0,0,1,1.452.078c5.547.6,10.95,5.979,11.568,11.522A13.009,13.009,0,0,1,50.949,49.946Z" transform="translate(0 -0.032)" fill="#3a345e"/>
          </g>
        </g>
        <g id="Group_1640" data-name="Group 1640" transform="translate(1014.394 4465.747)">
          <g id="Group_1639" data-name="Group 1639">
            <path id="Path_857" data-name="Path 857" d="M323.778,272.032a3.744,3.744,0,1,0,3.744,3.744A3.744,3.744,0,0,0,323.778,272.032Zm0,5.615a1.872,1.872,0,1,1,1.872-1.872A1.872,1.872,0,0,1,323.778,277.647Z" transform="translate(-320.034 -272.032)" fill="#3a345e"/>
          </g>
        </g>
        <g id="Group_1642" data-name="Group 1642" transform="translate(1014.394 4476.977)">
          <g id="Group_1641" data-name="Group 1641">
            <path id="Path_858" data-name="Path 858" d="M323.778,368.032a3.744,3.744,0,1,0,3.744,3.744A3.744,3.744,0,0,0,323.778,368.032Zm0,5.615a1.872,1.872,0,1,1,1.872-1.872A1.872,1.872,0,0,1,323.778,373.647Z" transform="translate(-320.034 -368.032)" fill="#3a345e"/>
          </g>
        </g>
        <g id="Group_1644" data-name="Group 1644" transform="translate(1007.842 4471.362)">
          <g id="Group_1643" data-name="Group 1643">
            <path id="Path_859" data-name="Path 859" d="M267.778,320.032a3.744,3.744,0,1,0,3.744,3.744A3.744,3.744,0,0,0,267.778,320.032Zm0,5.615a1.872,1.872,0,1,1,1.872-1.872A1.872,1.872,0,0,1,267.778,325.647Z" transform="translate(-264.034 -320.032)" fill="#3a345e"/>
          </g>
        </g>
        <g id="Group_1646" data-name="Group 1646" transform="translate(1020.945 4471.362)">
          <g id="Group_1645" data-name="Group 1645">
            <path id="Path_860" data-name="Path 860" d="M379.778,320.032a3.744,3.744,0,1,0,3.743,3.744A3.744,3.744,0,0,0,379.778,320.032Zm0,5.615a1.872,1.872,0,1,1,1.872-1.872A1.872,1.872,0,0,1,379.778,325.647Z" transform="translate(-376.034 -320.032)" fill="#3a345e"/>
          </g>
        </g>
      </g>
    </g>
  </g>
</svg>
