<svg xmlns="http://www.w3.org/2000/svg" width="144.009" height="142.379" viewBox="0 0 144.009 142.379">
  <g id="qonta" transform="translate(-1322.678 -3347.119)">
    <g id="Group_1720" data-name="Group 1720">
      <g id="Group_1708" data-name="Group 1708" transform="translate(1198.358 -552.29)">
        <g id="blob-shape" transform="translate(268.329 3988.263) rotate(150)">
          <path id="Path_76" data-name="Path 76" d="M97.588,20.022c8.565,11.874,11.1,27.474,8.481,43.047-2.642,15.573-10.456,31.089-22.719,36.818-12.291,5.728-29.059,1.641-45.716-5.367C20.977,87.54,4.432,77.64.789,64.125-2.826,50.583,6.489,33.453,18.475,20.8,30.432,8.148,45.087,0,59.714,0S89,8.148,97.588,20.022Z" transform="translate(0)" fill="#f5f5f5"/>
        </g>
      </g>
      <g id="Group_1630" data-name="Group 1630" transform="translate(1359.794 3392.662)">
        <path id="Path_852" data-name="Path 852" d="M56.106,50.317H43.355v-2.55a5.106,5.106,0,0,0-5.1-5.1h-15.3a5.106,5.106,0,0,0-5.1,5.1v2.55H5.1a5.106,5.106,0,0,0-5.1,5.1V88.571a5.106,5.106,0,0,0,5.1,5.1H56.106a5.106,5.106,0,0,0,5.1-5.1V55.417A5.106,5.106,0,0,0,56.106,50.317Zm-35.7-2.55a2.554,2.554,0,0,1,2.55-2.55h15.3a2.554,2.554,0,0,1,2.55,2.55v2.55H20.4Zm38.254,40.8a2.554,2.554,0,0,1-2.55,2.55H5.1a2.554,2.554,0,0,1-2.55-2.55V70.01a5.042,5.042,0,0,0,2.55.709H25.5v3.825a1.274,1.274,0,0,0,1.275,1.275h7.651A1.274,1.274,0,0,0,35.7,74.544V70.719h20.4a5.041,5.041,0,0,0,2.55-.709V88.571Zm-30.6-15.3v-5.1h5.1v5.1Zm30.6-7.651a2.554,2.554,0,0,1-2.55,2.55H35.7V66.894a1.274,1.274,0,0,0-1.275-1.275H26.778A1.274,1.274,0,0,0,25.5,66.894v1.275H5.1a2.554,2.554,0,0,1-2.55-2.55v-10.2a2.554,2.554,0,0,1,2.55-2.55H56.106a2.554,2.554,0,0,1,2.55,2.55Z" transform="translate(0 -42.666)" fill="#3a345e"/>
      </g>
    </g>
  </g>
</svg>
