<svg xmlns="http://www.w3.org/2000/svg" width="144.009" height="142.379" viewBox="0 0 144.009 142.379">
  <g id="pare" transform="translate(-171.678 -3860.12)">
    <g id="Group_1724" data-name="Group 1724">
      <g id="Group_1712" data-name="Group 1712" transform="translate(47.358 -39.29)">
        <g id="blob-shape" transform="translate(268.329 3988.263) rotate(150)">
          <path id="Path_76" data-name="Path 76" d="M97.588,20.022c8.565,11.874,11.1,27.474,8.481,43.047-2.642,15.573-10.456,31.089-22.719,36.818-12.291,5.728-29.059,1.641-45.716-5.367C20.977,87.54,4.432,77.64.789,64.125-2.826,50.583,6.489,33.453,18.475,20.8,30.432,8.148,45.087,0,59.714,0S89,8.148,97.588,20.022Z" transform="translate(0)" fill="#f5f5f5"/>
        </g>
      </g>
      <g id="Group_1714" data-name="Group 1714" transform="translate(-1119 -534)">
        <path id="Path_861" data-name="Path 861" d="M147.489,219.533a8.548,8.548,0,0,0-7.259,4.043l0,0a8.544,8.544,0,1,0,7.261-4.045Zm0,15.959a7.407,7.407,0,0,1-6.465-11.03h5.364a.568.568,0,0,0,0-1.135h-4.58a7.406,7.406,0,0,1,12.907,3.108h-8.986a.568.568,0,1,0,0,1.135h9.152c.012.169.019.339.019.51A7.42,7.42,0,0,1,147.489,235.492Z" transform="translate(1205.826 4242.652)" fill="#3a345e"/>
        <path id="Path_862" data-name="Path 862" d="M63.608,104.848H13.2a1.9,1.9,0,0,0-1.9,1.9v3.283H7.455a1.9,1.9,0,0,0-1.9,1.9v3.142H1.9a1.9,1.9,0,0,0-1.9,1.9v23.488a1.9,1.9,0,0,0,1.9,1.9H52.3a1.9,1.9,0,0,0,1.9-1.9v-3.141h3.66a1.9,1.9,0,0,0,1.9-1.9v-3.283h3.848a1.9,1.9,0,0,0,1.9-1.9V106.745A1.9,1.9,0,0,0,63.608,104.848ZM48.372,138.933h-9.75a.568.568,0,0,0,0,1.135H47.9a5.934,5.934,0,0,0-.223,1.148H6.535a5.985,5.985,0,0,0-5.4-5.394V132.25H12.248a.568.568,0,1,0,0-1.135H1.135v-9.522A5.985,5.985,0,0,0,6.52,116.2H47.654a5.985,5.985,0,0,0,5.412,5.4v14.221A5.986,5.986,0,0,0,48.372,138.933Zm4.694-18.467A4.849,4.849,0,0,1,48.8,116.2H52.3a.763.763,0,0,1,.762.762Zm-.762-5.4H10.092a5.939,5.939,0,0,0,1.97-3.9H53.231a5.939,5.939,0,0,0,.3,1.395H41.021a.568.568,0,0,0,0,1.135H54.07a5.983,5.983,0,0,0,4.554,2.853v14.242a5.979,5.979,0,0,0-4.422,2.66V116.965A1.9,1.9,0,0,0,52.3,115.068Zm6.32.337a4.848,4.848,0,0,1-4.251-4.241h3.489a.763.763,0,0,1,.762.762Zm-.762-5.376H15.629A6.077,6.077,0,0,0,17,108.419h8.247a.568.568,0,0,0,0-1.135h-7.73a5.89,5.89,0,0,0,.277-1.3H58.983a5.985,5.985,0,0,0,5.387,5.384v14.249a5.984,5.984,0,0,0-4.611,2.965V111.926A1.9,1.9,0,0,0,57.862,110.029Zm6.508-3.283v3.48a4.849,4.849,0,0,1-4.246-4.243h3.483A.763.763,0,0,1,64.37,106.745Zm-51.932,0a.763.763,0,0,1,.762-.762h3.453a4.883,4.883,0,0,1-3.349,4.046h-.866Zm-5.746,5.181a.763.763,0,0,1,.762-.762h3.463a4.811,4.811,0,0,1-2.936,3.9H6.693v-3.142ZM1.9,116.2H5.378a4.849,4.849,0,0,1-4.243,4.248v-3.486A.763.763,0,0,1,1.9,116.2Zm-.762,24.25v-3.49a4.849,4.849,0,0,1,4.259,4.253H1.9A.763.763,0,0,1,1.135,140.453Zm51.169.763H48.82a4.849,4.849,0,0,1,4.247-4.247v3.484A.763.763,0,0,1,52.3,141.216Zm5.558-5.039H54.381a4.849,4.849,0,0,1,4.244-4.246v3.484A.763.763,0,0,1,57.862,136.177ZM63.608,131h-3.48a4.848,4.848,0,0,1,4.242-4.238v3.476A.763.763,0,0,1,63.608,131Z" transform="translate(1326.214 4342.022)" fill="#3a345e"/>
      </g>
    </g>
  </g>
</svg>
