<svg xmlns="http://www.w3.org/2000/svg" width="144.009" height="142.379" viewBox="0 0 144.009 142.379">
  <g id="Group_1729" data-name="Group 1729" transform="translate(-764.678 -3347.119)">
    <g id="Group_1728" data-name="Group 1728">
      <g id="Group_1721" data-name="Group 1721">
        <g id="Group_1705" data-name="Group 1705" transform="translate(640.358 -552.29)">
          <g id="blob-shape" transform="translate(268.329 3988.263) rotate(150)">
            <path id="Path_76" data-name="Path 76" d="M97.588,20.022c8.565,11.874,11.1,27.474,8.481,43.047-2.642,15.573-10.456,31.089-22.719,36.818-12.291,5.728-29.059,1.641-45.716-5.367C20.977,87.54,4.432,77.64.789,64.125-2.826,50.583,6.489,33.453,18.475,20.8,30.432,8.148,45.087,0,59.714,0S89,8.148,97.588,20.022Z" transform="translate(0)" fill="#f5f5f5"/>
          </g>
        </g>
        <g id="Group_1707" data-name="Group 1707" transform="translate(-1425 131)">
          <path id="Path_847" data-name="Path 847" d="M262.387,115.413h0a1.794,1.794,0,0,0-1.382-.648H213.911l-.915-6.17A5.417,5.417,0,0,0,207.671,104H200v3.588h7.669a1.794,1.794,0,0,1,1.776,1.532l6.269,42.317a5.417,5.417,0,0,0,5.325,4.595h4.41a5.35,5.35,0,0,0,10.105,0h7.837a5.383,5.383,0,1,0,0-3.588h-7.837a5.35,5.35,0,0,0-10.105,0h-4.41a1.807,1.807,0,0,1-1.776-1.532l-.571-3.85h36.928a1.794,1.794,0,0,0,1.762-1.462l5.383-28.707A1.8,1.8,0,0,0,262.387,115.413Zm-13.941,37.031a1.794,1.794,0,1,1-1.794,1.794A1.794,1.794,0,0,1,248.446,152.444Zm-17.942,0a1.794,1.794,0,1,1-1.794,1.794A1.794,1.794,0,0,1,230.5,152.444Zm23.63-8.971h-35.97l-3.719-25.119h44.409Z" transform="translate(2023.163 3157.634)" fill="#3a345e"/>
          <path id="Path_850" data-name="Path 850" d="M281.8,179.588h25.119a1.794,1.794,0,0,0,0-3.588H281.8a1.794,1.794,0,1,0,0,3.588Z" transform="translate(1961.105 3101.782)" fill="#3a345e"/>
          <path id="Path_851" data-name="Path 851" d="M417.8,179.588h3.588a1.794,1.794,0,0,0,0-3.588H417.8a1.794,1.794,0,1,0,0,3.588Z" transform="translate(1855.607 3101.782)" fill="#3a345e"/>
        </g>
      </g>
    </g>
  </g>
</svg>
