<svg xmlns="http://www.w3.org/2000/svg" width="344.454" height="328.34" viewBox="0 0 344.454 328.34"><g transform="translate(0 0)"><path d="M324.8,189.168a164.449,164.449,0,0,0-8.489-25.19c-3.322-7.659-6.92-14.671-10.519-21.13-3.322-5.905-6.736-11.35-9.965-16.24-.092-.185-.092-.277-.185-.369l-2.215-6.92c-3.506-10.98-18.731-50.1-61.638-62.469-1.2-.738-2.491-1.384-3.783-2.122a93.5,93.5,0,0,0-19.193-7.566c-.923-.277-1.845-.461-2.768-.646s-1.845-.461-2.768-.646c-1.938-.277-3.875-.738-5.813-.923A90.158,90.158,0,0,0,185.1,44.3a101.944,101.944,0,0,0-26.482,4.429A109.21,109.21,0,0,0,145.149,53.9c-2.215,1.015-4.521,2.122-6.736,3.322-1.107.646-2.215,1.2-3.322,1.845L131.769,61A179.759,179.759,0,0,0,106.3,80.1a243.749,243.749,0,0,0-18.27,18.27c-25.56,17.993-43.83,36.171-46.875,43.553-1.569,3.783.092,9.689,4.152,16.978-1.2,2.307-2.491,4.521-3.6,6.828a179.128,179.128,0,0,0-8.12,18.085l-.923,2.4-.83,2.491L31.469,190l-.369,1.292c-.277.923-.461,1.753-.646,2.676a26.573,26.573,0,0,0-.461,3.045c0,.554-.092,1.107-.092,1.753a4.492,4.492,0,0,0,.092,1.107,3.317,3.317,0,0,0,.185,1.015,17.6,17.6,0,0,0,2.768,6.644,40.878,40.878,0,0,0,7.935,8.4c2.768,2.307,5.721,4.337,8.581,6.275A187.344,187.344,0,0,0,67.64,232.537a412.382,412.382,0,0,0,38.57,16.794q25.883,9.827,51.673,17.163c39.4,28.512,77.6,49,94.58,44.014,20.761-6.182,34.787-17.624,44.014-31.926a5.6,5.6,0,0,0,.923-.646l.554-.461.461-.369a83.39,83.39,0,0,0,21.869-27.221,77.407,77.407,0,0,0,7.935-31.557A114.8,114.8,0,0,0,324.8,189.168ZM110.177,238.534c-12.918-4.983-25.56-10.242-37.463-16.24a161.547,161.547,0,0,1-17.163-9.6c-2.676-1.753-5.26-3.506-7.659-5.444a34.814,34.814,0,0,1-5.813-5.905,6.583,6.583,0,0,1-1.107-2.4v-.277l.092-.738a13.669,13.669,0,0,1,.277-1.753,16.07,16.07,0,0,1,.461-2.03l.277-1.015.369-1.107.646-2.122.738-2.215c2.122-5.813,4.706-11.534,7.382-17.163.277-.461.461-1.015.738-1.476,15.686,21.5,45.86,50.473,78.432,76.771C123.649,243.517,116.913,241.118,110.177,238.534Zm96.61-185.469c-28.236-.738-59.055,10.427-86.46,25.283A154,154,0,0,1,135.46,67a115.245,115.245,0,0,1,24.914-12.641A94.612,94.612,0,0,1,185.2,49.19a82.566,82.566,0,0,1,11.719.092c1.938.092,3.783.369,5.536.554a23.063,23.063,0,0,1,2.676.461c.923.185,1.753.277,2.676.554a83.133,83.133,0,0,1,11.719,3.414A90.447,90.447,0,0,0,206.787,53.066ZM320.929,218.142a72.123,72.123,0,0,1-8.12,28.328,63.993,63.993,0,0,1-6.551,9.965c12.18-40.323,1.015-90.981-6.459-117,.923,1.661,1.845,3.414,2.676,5.167,3.23,6.459,6.459,13.472,9.412,21.13a160.073,160.073,0,0,1,7.2,24.637A102.086,102.086,0,0,1,320.929,218.142Z" transform="translate(-2.31 -3.483)" fill="#368fd8"/><g transform="translate(42.169)"><g transform="translate(63.789 45.981)"><path d="M120.3,65.73c-1.015.646-2.122.83-2.307.461-.277-.369.369-1.2,1.476-1.845,1.015-.646,2.122-.83,2.307-.461C122.055,64.253,121.409,65.084,120.3,65.73Z" transform="translate(-115.07 -50.962)" fill="#404851"/><path d="M117.2,51.93c-1.015.646-2.122.83-2.307.461-.277-.369.369-1.2,1.476-1.845,1.015-.646,2.122-.83,2.307-.461C118.955,50.453,118.309,51.284,117.2,51.93Z" transform="translate(-114.831 -49.896)" fill="#404851"/></g><g transform="translate(33.371 4.366)"><path d="M83.374,5.446c-1.015.646-1.661,1.476-1.476,1.845.277.369,1.292.185,2.307-.461s1.661-1.476,1.476-1.845C85.4,4.615,84.389,4.8,83.374,5.446Z" transform="translate(-81.866 -4.796)" fill="#404851"/><path d="M94.174,14.442c-1.015.646-1.661,1.476-1.476,1.845.277.369,1.292.185,2.307-.461s1.661-1.476,1.476-1.845C96.2,13.519,95.189,13.8,94.174,14.442Z" transform="translate(-82.7 -5.488)" fill="#404851"/></g><g transform="translate(0 0.586)"><path d="M113.059,73.872l-4.8,2.953L98.2,58.832l-.369-.738-5.721-10.15-1.845-3.322C80.579,49.789,70.983,54.5,64.431,56.986V68.428l-5.352,3.23-2.953-13.1L45.7,49.974l5.352-3.23,10.242,5.167c5.26-4.706,13.749-11.165,22.7-17.532l-12.826-19.1-.83-1.2-1.384-2.03-.646-1.015-4.983-7.29L68.122.7l5.905,4.706L75.689,6.79l2.953-1.845a1.839,1.839,0,0,1,2.584.646,1.839,1.839,0,0,1-.646,2.584L78.734,9.281l2.215,1.753,4.89,3.875,2.768-1.661a1.883,1.883,0,1,1,1.938,3.23l-1.661,1.015,9.135,7.29c2.122-1.384,4.245-2.676,6.182-3.875,20.023-12.365,24.268-6.92,24.268-6.92s2.953,6.182-17.163,18.455c-1.938,1.2-4.06,2.491-6.275,3.783l.83,3.875.092.369,1.476,7.2,1.661-1.015a1.883,1.883,0,0,1,1.938,3.23l-2.768,1.661.554,2.491,1.292,6.367,1.845-1.107a1.883,1.883,0,0,1,1.938,3.23l-2.953,1.845Z" transform="translate(-45.7 -0.7)" fill="#fff8e1"/></g><path d="M125.815,17.3a2.55,2.55,0,0,0-2.215.646,5.32,5.32,0,0,1,2.307,1.2,3.925,3.925,0,0,1,1.292,2.122,6.637,6.637,0,0,1,0,2.584,2.667,2.667,0,0,0,1.569-1.753A3.619,3.619,0,0,0,125.815,17.3Z" transform="translate(-51.719 -1.394)" fill="#282f39"/><path d="M64.112,59.362c-2.953,1.845-5.536,3.045-5.813,2.676-.185-.369,2.03-2.122,4.983-3.968s5.536-3.045,5.813-2.676C69.28,55.764,67.065,57.517,64.112,59.362Z" transform="translate(-46.673 -4.335)" fill="#c5ced7"/><g transform="translate(62.692 41.506)"><rect width="12.549" height="0.554" transform="translate(0.472 0) rotate(58.44)" fill="#c5ced7"/><rect width="12.549" height="0.554" transform="translate(3.349 12.864) rotate(58.445)" fill="#c5ced7"/></g><g transform="translate(32.111)"><rect width="12.549" height="0.554" transform="translate(16.686 19.27) rotate(-121.56)" fill="#c5ced7"/><rect width="12.549" height="0.554" transform="translate(6.568 10.983) rotate(-121.56)" fill="#c5ced7"/></g><path d="M109.871,43.075,95.845,50.919,94,47.6c2.86-1.476,15.04-8.4,15.04-8.4Z" transform="translate(-49.432 -3.089)" fill="#c5ced7"/><path d="M83.2,11.753,73.23,16,72.4,14.89,80.981,10Z" transform="translate(-47.763 -0.832)" fill="#c5ced7"/><path d="M113.357,58.291l-10.8,4.8-.461-.738L112.8,55.8Z" transform="translate(-50.058 -4.371)" fill="#c5ced7"/><g transform="translate(30.165 19.867)"><path d="M78.492,43.745a.558.558,0,0,1,.092-.738c.554-.461,1.292-.923,2.03-1.476a.526.526,0,0,1,.646.83c-.738.554-1.384,1.015-2.03,1.476-.185.277-.554.185-.738-.092Zm3.968-2.953a.5.5,0,0,1,.185-.738c.646-.461,1.292-.923,2.03-1.476a.526.526,0,1,1,.646.83c-.738.461-1.384,1.015-2.03,1.476a.584.584,0,0,1-.83-.092Zm4.152-2.953A.5.5,0,0,1,86.8,37.1c.646-.461,1.384-.923,2.03-1.476a.526.526,0,0,1,.646.83,16.317,16.317,0,0,0-2.03,1.476c-.369.277-.646.185-.83-.092Zm4.06-2.86a.5.5,0,0,1,.185-.738c.646-.461,1.384-.923,2.03-1.384a.526.526,0,1,1,.646.83c-.646.461-1.384.923-2.03,1.384a.52.52,0,0,1-.83-.092Zm4.152-2.768a.5.5,0,0,1,.185-.738c.738-.461,1.384-.923,2.03-1.384a.538.538,0,0,1,.554.923c-.646.461-1.384.923-2.03,1.384a.6.6,0,0,1-.738-.185Zm4.152-2.86a.5.5,0,0,1,.185-.738c.738-.461,1.384-.923,2.03-1.384a.538.538,0,0,1,.554.923c-.646.461-1.384.923-2.03,1.384a.5.5,0,0,1-.738-.185Zm4.152-2.768a.5.5,0,0,1,.185-.738l2.122-1.384a.538.538,0,1,1,.554.923l-2.122,1.384a.579.579,0,0,1-.738-.185Zm4.152-2.768a.5.5,0,0,1,.185-.738,24.842,24.842,0,0,1,2.122-1.384.538.538,0,0,1,.554.923s-.738.554-2.122,1.384a.718.718,0,0,1-.738-.185Z" transform="translate(-78.391 -21.596)" fill="#c5ced7"/><g transform="translate(3.849 9.596)"><path d="M82.6,50.731a.618.618,0,0,1,.277-.738,24.637,24.637,0,0,0,2.215-1.107A.557.557,0,1,1,85.55,49.9a24.636,24.636,0,0,1-2.215,1.107.581.581,0,0,1-.738-.277Zm4.429-2.307a.718.718,0,0,1,.185-.738c.738-.369,1.476-.738,2.215-1.2a.538.538,0,1,1,.554.923c-.738.369-1.476.83-2.215,1.2a.5.5,0,0,1-.738-.185Zm4.429-2.307c-.185-.277,0-.554.185-.738.738-.369,1.476-.738,2.215-1.2a.5.5,0,0,1,.738.185c.185.277,0,.554-.185.738-.738.369-1.476.83-2.215,1.2a.5.5,0,0,1-.738-.185Zm4.429-2.4c-.185-.277,0-.554.185-.738.738-.369,1.476-.83,2.215-1.2.277-.185.554,0,.738.185a.5.5,0,0,1-.185.738c-.738.369-1.476.83-2.215,1.2a.5.5,0,0,1-.738-.185Zm4.429-2.4a.5.5,0,0,1,.185-.738c.738-.369,1.476-.83,2.215-1.2a.538.538,0,0,1,.554.923c-.738.369-1.476.83-2.215,1.2a.483.483,0,0,1-.738-.185Zm4.337-2.4a.5.5,0,0,1,.185-.738c.738-.461,1.476-.83,2.215-1.2a.538.538,0,0,1,.554.923c-.738.369-1.476.83-2.215,1.2a.5.5,0,0,1-.738-.185Zm4.429-2.4a.5.5,0,0,1,.185-.738l2.215-1.2a.538.538,0,0,1,.554.923l-2.215,1.2a.483.483,0,0,1-.738-.185Zm4.337-2.491a.5.5,0,0,1,.185-.738c1.384-.738,2.215-1.2,2.215-1.2a.538.538,0,1,1,.554.923s-.83.461-2.215,1.2a.5.5,0,0,1-.738-.185Z" transform="translate(-82.563 -31.996)" fill="#c5ced7"/></g></g></g><g transform="translate(5.167 61.423)"><path d="M113.19,212.3H113.1c-1.845-.277-3.783-.554-5.629-.923a.941.941,0,0,1,.369-1.845c1.845.277,3.783.646,5.629.923a1.022,1.022,0,0,1,.83,1.107A1.075,1.075,0,0,1,113.19,212.3Zm-11.257-1.938h-.092c-1.845-.369-3.783-.738-5.629-1.107a.941.941,0,0,1,.369-1.845l5.536,1.107a.893.893,0,0,1,.738,1.107A.781.781,0,0,1,101.933,210.364Zm-11.165-2.4h-.185c-1.845-.461-3.783-.923-5.536-1.476a.963.963,0,1,1,.554-1.845c1.753.461,3.6,1.015,5.536,1.384a.934.934,0,0,1,.738,1.107A1.248,1.248,0,0,1,90.768,207.964Zm-10.98-3.045H79.6c-1.845-.554-3.691-1.2-5.444-1.753a.934.934,0,0,1,.646-1.753c1.753.646,3.6,1.2,5.444,1.753a.971.971,0,0,1,.646,1.2A1.205,1.205,0,0,1,79.787,204.919Zm-10.8-3.691a.339.339,0,0,1-.277-.092c-1.845-.738-3.6-1.476-5.352-2.215a.97.97,0,1,1,.83-1.753c1.661.738,3.506,1.476,5.26,2.122a.96.96,0,0,1,.554,1.2A1.294,1.294,0,0,1,68.991,201.229Zm-10.519-4.614a.555.555,0,0,1-.369-.092c-1.753-.83-3.414-1.753-5.075-2.676a.95.95,0,0,1,.923-1.661c1.661.923,3.322,1.753,5.075,2.584a1.061,1.061,0,0,1,.461,1.292C59.211,196.43,58.841,196.707,58.472,196.615Zm-10.058-5.444c-.185,0-.277-.092-.461-.185l-3.045-1.938c-.646-.369-1.2-.83-1.845-1.2a.934.934,0,0,1,1.015-1.569c.554.369,1.2.83,1.753,1.2,1.015.646,1.938,1.292,2.953,1.845a.908.908,0,0,1,.277,1.292C49.153,190.986,48.784,191.171,48.415,191.171Zm-9.32-6.459a1.312,1.312,0,0,1-.554-.185c-1.476-1.2-3.045-2.4-4.429-3.691A.981.981,0,1,1,35.4,179.36c1.384,1.2,2.86,2.491,4.337,3.6a1.006,1.006,0,0,1,.185,1.292A.977.977,0,0,1,39.1,184.712Zm-8.581-7.566a1,1,0,0,1-.646-.277c-1.384-1.384-2.676-2.768-3.968-4.152a.981.981,0,0,1,1.476-1.292c1.2,1.384,2.584,2.768,3.875,4.06a1,1,0,0,1,0,1.384A1.472,1.472,0,0,1,30.514,177.145Zm-7.659-8.489a.839.839,0,0,1-.738-.369c-1.2-1.476-2.307-3.045-3.414-4.614a.934.934,0,1,1,1.569-1.015c1.015,1.569,2.215,3.045,3.322,4.521a.836.836,0,0,1-.185,1.292A.989.989,0,0,1,22.855,168.656ZM16.4,159.244a.822.822,0,0,1-.738-.461c-1.015-1.661-1.938-3.414-2.768-5.075a.97.97,0,0,1,1.753-.83c.83,1.661,1.753,3.322,2.676,4.983a.934.934,0,0,1-.369,1.292A1.17,1.17,0,0,1,16.4,159.244ZM11.321,149a1.06,1.06,0,0,1-.83-.554A54.386,54.386,0,0,1,8.553,143a.963.963,0,0,1,1.845-.554,51.106,51.106,0,0,0,1.938,5.26.887.887,0,0,1-.554,1.2A.832.832,0,0,1,11.321,149ZM8,138.114a.971.971,0,0,1-.923-.738,56.918,56.918,0,0,1-1.015-5.721A.979.979,0,0,1,8,131.378c.277,1.845.554,3.691,1.015,5.536a.893.893,0,0,1-.738,1.107A.714.714,0,0,1,8,138.114Zm-1.476-11.35a.992.992,0,0,1-.923-.923V122.52a22.624,22.624,0,0,1,.185-2.491.927.927,0,0,1,1.845.185,20.994,20.994,0,0,0-.185,2.4,17.812,17.812,0,0,0,0,3.137.9.9,0,0,1-.923,1.015Zm1.2-11.257H7.538a.983.983,0,0,1-.738-1.2,42.643,42.643,0,0,1,1.753-5.536.934.934,0,0,1,1.753.646c-.646,1.753-1.2,3.6-1.661,5.352A.838.838,0,0,1,7.722,115.507Zm4.06-10.7a.555.555,0,0,1-.369-.092,1.061,1.061,0,0,1-.461-1.292c.83-1.661,1.845-3.414,2.86-5.075a.934.934,0,0,1,1.569,1.015c-1.015,1.661-1.938,3.23-2.768,4.89A.807.807,0,0,1,11.782,104.8Zm6-9.689a1.312,1.312,0,0,1-.554-.185.836.836,0,0,1-.185-1.292c1.107-1.476,2.307-3.045,3.6-4.521a.981.981,0,0,1,1.476,1.292c-1.2,1.476-2.4,2.953-3.506,4.429A1.128,1.128,0,0,1,17.78,95.115Zm7.474-8.674a.969.969,0,0,1-.646-1.661C25.9,83.4,27.284,82.1,28.76,80.72A.979.979,0,0,1,30.145,82.1c-1.384,1.292-2.768,2.676-4.06,3.968A1.5,1.5,0,0,1,25.254,86.441Zm8.3-7.843a.7.7,0,0,1-.646-.369,1.008,1.008,0,0,1,.092-1.384c1.476-1.2,2.953-2.4,4.521-3.6a.923.923,0,1,1,1.107,1.476l-4.429,3.6C34.02,78.6,33.836,78.6,33.559,78.6Zm9.043-6.92a1.139,1.139,0,0,1-.738-.369.976.976,0,0,1,.185-1.292c1.569-1.107,3.137-2.215,4.8-3.23a.934.934,0,0,1,1.015,1.569c-1.569,1.015-3.137,2.122-4.706,3.137A.989.989,0,0,1,42.6,71.677Z" transform="translate(-5.6 -66.631)" fill="#fff"/></g><g transform="translate(0 26.33)"><path d="M328.687,337.8S261.6,353.3,178.743,353.3C95.975,353.3,28.8,337.8,28.8,337.8s67.082-15.5,149.943-15.5S328.687,337.8,328.687,337.8Z" transform="translate(-2.225 -51.295)" fill="#368fd8"/><g transform="translate(177.718 31.557)"><g transform="translate(0 77.878)"><path d="M314.687,321.6H210.049A12.562,12.562,0,0,1,197.5,309.047v-149.3A12.562,12.562,0,0,1,210.049,147.2H314.687a12.562,12.562,0,0,1,12.549,12.549v149.3A12.562,12.562,0,0,1,314.687,321.6Z" transform="translate(-192.979 -147.2)" fill="#d8761d"/><path d="M223.613,208.931c29.527-22.884,67.267-33.772,103.622-29.9V159.749A12.562,12.562,0,0,0,314.687,147.2H210.049A12.562,12.562,0,0,0,197.5,159.749v83.6C202.483,229.507,211.895,217.881,223.613,208.931Z" transform="translate(-192.979 -147.2)" fill="#e88636"/><g transform="translate(18.178 174.396)"><rect width="19.377" height="4.245" fill="#282f39"/><rect width="19.377" height="4.245" transform="translate(82.953)" fill="#282f39"/></g><g transform="translate(18.178 66.99)"><path d="M314.723,327.206H212.3V230.78a10.948,10.948,0,0,1,10.98-10.98h80.462a10.948,10.948,0,0,1,10.98,10.98Z" transform="translate(-212.3 -219.8)" fill="#8e3d00"/><path d="M312.863,327.376H214.5V232.15A10.121,10.121,0,0,1,224.65,222h78.063a10.121,10.121,0,0,1,10.15,10.15Z" transform="translate(-212.47 -219.97)" fill="#af550b"/><g transform="translate(11.534 17.163)"><path d="M303.232,240.061h-77.6a.827.827,0,0,1-.83-.83h0a.827.827,0,0,1,.83-.83h77.6a.827.827,0,0,1,.83.83h0A.827.827,0,0,1,303.232,240.061Z" transform="translate(-224.8 -238.4)" fill="#d3d3d3"/><g transform="translate(1.743 0.369)"><path d="M228.729,239.3h-1.753l-.277,3.23a1.141,1.141,0,0,0,1.2,1.292,1.188,1.188,0,0,0,1.2-1.292Zm-.277,1.661h-1.292v-1.2h1.292Z" transform="translate(-226.689 -238.839)" fill="#e5e5e5"/><path d="M227.877,240.461h0a.245.245,0,0,1-.277-.277v-1.107a.245.245,0,0,1,.277-.277h0a.245.245,0,0,1,.277.277v1.107A.3.3,0,0,1,227.877,240.461Z" transform="translate(-226.759 -238.8)" fill="#bcb7b3"/></g></g></g><g transform="translate(18.178 17.624)"><path d="M309.74,192.229H217.19a4.923,4.923,0,0,1-4.89-4.89V171.19a4.923,4.923,0,0,1,4.89-4.89h92.55a4.923,4.923,0,0,1,4.89,4.89v16.148A4.752,4.752,0,0,1,309.74,192.229Z" transform="translate(-212.3 -166.3)" fill="#8e3d00"/><path d="M309.726,190.453H217.545a3.072,3.072,0,0,1-3.045-3.045V171.445a3.072,3.072,0,0,1,3.045-3.045h92.181a3.072,3.072,0,0,1,3.045,3.045v15.963A2.957,2.957,0,0,1,309.726,190.453Z" transform="translate(-212.47 -166.462)" fill="#af550b"/><g transform="translate(11.534 10.242)"><path d="M303.232,179.061h-77.6a.827.827,0,0,1-.83-.83h0a.827.827,0,0,1,.83-.83h77.6a.827.827,0,0,1,.83.83h0A.827.827,0,0,1,303.232,179.061Z" transform="translate(-224.8 -177.4)" fill="#d3d3d3"/><g transform="translate(1.743 0.369)"><path d="M228.729,178.3h-1.753l-.277,3.23a1.141,1.141,0,0,0,1.2,1.292,1.188,1.188,0,0,0,1.2-1.292Zm-.277,1.661h-1.292v-1.2h1.292Z" transform="translate(-226.689 -177.839)" fill="#e5e5e5"/><path d="M227.877,179.461h0a.245.245,0,0,1-.277-.277v-1.107a.245.245,0,0,1,.277-.277h0a.245.245,0,0,1,.277.277v1.107A.3.3,0,0,1,227.877,179.461Z" transform="translate(-226.759 -177.8)" fill="#bcb7b3"/></g></g></g><g transform="translate(0 24.36)"><rect width="4.521" height="9.135" transform="translate(0 116.541)" fill="#282f39"/><rect width="4.521" height="9.135" fill="#282f39"/><g transform="translate(134.257 47.705)"><path d="M338.1,225.3v5.444h0c1.2,0,2.122,2.03,2.122,4.521v10.427c0,2.491-.923,4.521-2.122,4.521h0v5.444h0c2.584,0,4.706-4.429,4.706-9.873V235.358c0-5.629-2.122-10.058-4.706-10.058Z" transform="translate(-338.1 -225.3)" fill="#282f39"/></g></g></g><g transform="translate(33.864)"><path d="M300.627,79.132A16.3,16.3,0,0,0,284.295,62.8H245.632A16.3,16.3,0,0,0,229.3,79.132v8.12h9.5V81.9a9.451,9.451,0,0,1,9.412-9.412h33.5a9.451,9.451,0,0,1,9.412,9.412v5.352h9.5Z" transform="translate(-229.3 -62.8)" fill="#282f39"/><g transform="translate(1.938 24.452)"><g transform="translate(61.638)"><rect width="5.813" height="53.426" fill="#d3d3d3"/></g><rect width="5.813" height="53.426" fill="#d3d3d3"/></g><g transform="translate(1.938 24.452)"><rect width="5.813" height="6.92" transform="translate(61.638)" fill="#bcb7b3"/><rect width="5.813" height="6.92" fill="#bcb7b3"/></g></g></g><g transform="translate(44.014 99.101)"><path d="M109.707,136,90.976,152.517l-24.545-1.938L47.7,167.1l22.33,69.666L89.684,223.2l23.622-1.015,19.654-13.656,23.622-1.015-22.33-69.666Z" transform="translate(-47.7 -136)" fill="#d82c28"/><g transform="translate(3.045 2.491)"><path d="M66.41,155.4l21.223,66.344L71.392,233,51,169.056Z" transform="translate(-51 -139.99)" fill="#fff"/><path d="M93.721,157.43l20.208,63.3-25.006,1.015L67.7,155.4Z" transform="translate(-52.29 -139.99)" fill="#c0c9c8"/><path d="M115.646,138.7l21.223,66.344-20.761,14.395L95.9,156.14Z" transform="translate(-54.469 -138.7)" fill="#fff"/><path d="M137.6,140.269l20.485,63.945-19.562.83L117.3,138.7Z" transform="translate(-56.123 -138.7)" fill="#c0c9c8"/></g><g transform="translate(9.781 8.212)"><path d="M58.3,181.469l4.521-7.935,7.2.738,3.968-2.4-.83-2.307L70.2,167.259l1.569-4.429L85.8,160.8l3.414,3.691-1.292,2.03-4.614-1.845L78.692,168l-1.753,2.676.83,1.384,4.706,2.584.646-4.245,4.429-.554,1.107,1.476-.554,3.23,3.322.923,2.491,3.691-2.491,2.768-3.506.646-2.768,7.751-5.167,2.122v3.691l2.953,1.753,1.661-2.676,12.365.092,3.691,4.89-4.245,5.813,2.03,6.828,3.137,2.4-1.476,1.753-10.058-2.676-2.953-8.858-4.8-.369L81,201.031l-4.337-3.6-1.476-6.92-6.09-2.03-1.107-8.858-2.86-1.845-4.337,4.429Z" transform="translate(-58.3 -146.129)" fill="#59a6ec"/><path d="M102.475,183.286l-2.584,4.06,3.506,7.474,4.8,1.569,7.105-3.6,5.352,9.043,4.8,4.152,2.584-.923L127.02,190.3l-5.536-6.551,1.661-3.045-3.6-2.307,3.968-7.474,6.367,1.569,2.768,1.476,1.2,3.783,3.968,1.2.092-2.215-3.045-1.015.092-8.12-5.905-4.8,3.968-5.629-3.875-4.614,1.107-4.152-3.137-3.506-12.549,2.122-5.536,7.474-9.32,4.8L97.4,168.153l4.614,4.89,4.245,2.676,3.322-3.137L110.687,176l-.554,4.706-4.245-1.292Z" transform="translate(-61.321 -144.9)" fill="#59a6ec"/><path d="M138.475,192.606l-4.06,2.768L133.4,199.9l2.953,2.122,3.045-2.584,2.953.554,1.753-1.845,2.768,2.491,1.384-1.476-3.968-3.691s2.491-3.137,2.307-3.322c-.185-.277-3.506-3.045-3.506-3.045l-2.953,1.015.277,3.045Z" transform="translate(-64.103 -148.315)" fill="#59a6ec"/><g transform="translate(12.088)" opacity="0.5"><path d="M81,192.45v3.6l2.953,1.845,1.661-2.676,12.365.092,3.691,4.89-4.245,5.813,2.03,6.828,3.137,2.4-1.476,1.753-10.058-2.676L88.1,205.46l-4.337-.369L73.43,172.8,75,171.873l-.83-2.307-2.4-1.845-.369-1.107,1.384-3.783L86.81,160.8l3.414,3.691-1.292,2.03-4.614-1.845L79.7,168l-1.753,2.676.83,1.384,4.706,2.584.646-4.245,4.429-.554,1.107,1.476-.554,3.23,3.322.923,2.491,3.691-2.491,2.768-3.506.646-2.768,7.659Z" transform="translate(-71.4 -146.129)" fill="#59a6ec"/><g transform="translate(44.66)"><path d="M134.748,157.172,130.78,162.8l5.905,4.8-.092,8.212,3.045,1.015-.092,2.122-3.968-1.107-1.2-3.875-2.768-1.476-3.783-.923-8.028-25.1,9.043-1.569,3.137,3.506-1.107,4.152Z" transform="translate(-119.8 -144.9)" fill="#59a6ec"/><path d="M144.435,195.475l3.968,3.691-1.384,1.476-2.768-2.491L142.5,200l-2.953-.554-2.215,1.845-2.03-6.459,3.23-2.122,2.03.554-.277-3.045,2.953-1.015s3.322,2.768,3.506,3.045C146.926,192.43,144.435,195.475,144.435,195.475Z" transform="translate(-120.998 -148.323)" fill="#59a6ec"/></g></g></g><g transform="translate(16.357 32.8)"><path d="M67.063,171.873a2.8,2.8,0,0,0-1.384,3.691c.646,1.384,4.89,3.875,4.89,3.875s.738-4.983.092-6.275A2.5,2.5,0,0,0,67.063,171.873Zm2.03,4.245a2.125,2.125,0,0,1-2.768-.923,2.165,2.165,0,0,1,1.015-2.768,2.125,2.125,0,0,1,2.768.923A2.027,2.027,0,0,1,69.093,176.117Z" transform="translate(-65.427 -171.547)" fill="#d82c28"/></g><g transform="translate(60.279 27.875)"><path d="M114.663,166.478a2.8,2.8,0,0,0-1.384,3.691c.646,1.384,4.89,3.875,4.89,3.875s.738-4.983.092-6.275A2.634,2.634,0,0,0,114.663,166.478Zm2.03,4.337a2.125,2.125,0,0,1-2.768-.923,2.165,2.165,0,0,1,1.015-2.768,2.125,2.125,0,0,1,2.768.923A2.081,2.081,0,0,1,116.693,170.814Z" transform="translate(-113.027 -166.209)" fill="#d82c28"/></g><g transform="translate(38.411 59.432)"><path d="M90.963,200.678a2.8,2.8,0,0,0-1.384,3.691c.646,1.384,4.89,3.875,4.89,3.875s.738-4.983.092-6.275A2.634,2.634,0,0,0,90.963,200.678Zm2.122,4.337a2.125,2.125,0,0,1-2.768-.923,2.165,2.165,0,0,1,1.015-2.768,2.125,2.125,0,0,1,2.768.923A2.1,2.1,0,0,1,93.085,205.014Z" transform="translate(-89.327 -200.409)" fill="#d82c28"/></g></g><g transform="translate(131.408 149.876)"><g transform="translate(0 0)"><rect width="22.33" height="51.027" transform="translate(0 21.019) rotate(-70.264)" fill="#fff8e1"/><g transform="translate(16.069 17.806)"><rect width="31.65" height="1.015" transform="translate(0.343 4.609) rotate(19.738)" fill="#c5ced7"/><rect width="31.65" height="1.015" transform="translate(1.177 2.327) rotate(19.736)" fill="#c5ced7"/><rect width="31.65" height="1.015" transform="translate(1.998) rotate(19.738)" fill="#c5ced7"/></g><g transform="translate(0.002 0.001)"><rect width="22.33" height="14.025" transform="translate(0 21.019) rotate(-70.264)" fill="#689f38"/><text transform="translate(3.35 18.951) rotate(19.738)" fill="#fff8e1" font-size="1" font-family="Montserrat-Bold, Montserrat" font-weight="700"><tspan x="0" y="0">TICKETS</tspan></text><text transform="translate(4.008 17.116) rotate(19.738)" fill="#fff8e1" font-size="1" font-family="Montserrat-Bold, Montserrat" font-weight="700"><tspan x="0" y="0">AIRPLANE</tspan></text><g transform="translate(6.907 6.659)"><path d="M157.1,205.493l.554-.554-.461-.923.277-.277a.2.2,0,1,0-.277-.277l-.185.185-.461-.923.277-.277a.2.2,0,1,0-.277-.277l-.185.185-.554-1.107.554-.554c1.753-1.845,1.292-2.4,1.292-2.4s-.554-.461-2.4,1.384l-.554.554-1.2-.554.185-.185a.2.2,0,0,0-.277-.277l-.277.277-.923-.369.185-.185a.2.2,0,0,0-.277-.277l-.277.277-.923-.461-.554.554,3.137,2.491c-.738.923-1.476,1.845-1.938,2.4l-1.2-.277-.461.461,1.292.646.646,1.292.461-.461-.277-1.2c.646-.461,1.476-1.2,2.4-2.03Z" transform="translate(-149.9 -198.244)" fill="#f5c242"/></g></g></g><rect width="8.95" height="8.95" transform="translate(21.606 7.929) rotate(19.738)" fill="#c5ced7"/><g transform="translate(40.811 15.395)"><rect width="0.554" height="9.504" transform="translate(1.469 0.521) rotate(-70.288)" fill="#404851"/><rect width="0.554" height="9.504" transform="matrix(0.338, -0.941, 0.941, 0.338, 1.099, 1.558)" fill="#404851"/><rect width="0.554" height="9.504" transform="translate(0.731 2.557) rotate(-70.202)" fill="#404851"/><rect width="0.554" height="9.504" transform="translate(0.371 3.583) rotate(-70.264)" fill="#404851"/><rect width="0.554" height="9.504" transform="translate(0 4.604) rotate(-70.264)" fill="#404851"/></g></g><g transform="translate(162.769 134.804)"><path d="M206.543,214.008l-25.191,2.676L177.2,177.375l25.19-2.676a2.378,2.378,0,0,1,2.584,2.122l3.6,34.6A2.141,2.141,0,0,1,206.543,214.008Z" transform="translate(-176.462 -174.693)" fill="#083060"/><path d="M205.743,214.108l-25.19,2.676L176.4,177.475l25.19-2.676a2.378,2.378,0,0,1,2.584,2.122l3.6,34.51A2.182,2.182,0,0,1,205.743,214.108Z" transform="translate(-176.4 -174.701)" fill="#003c94"/><g transform="translate(2.768 1.842)"><path d="M179.4,179.006l22.238-2.307a1.342,1.342,0,0,1,1.569,1.292l3.506,33.126Z" transform="translate(-179.4 -176.689)" fill="#054da3"/><g transform="translate(3.52 6.438)"><path d="M197.946,185.727c-.185-.185-.369-.277-.554-.461a8.573,8.573,0,0,0-5.629-1.569h-.185a8.3,8.3,0,0,0-5.167,2.676c-.185.185-.277.369-.461.554a8.393,8.393,0,0,0,1.2,11.626c.185.185.369.277.554.461a8.573,8.573,0,0,0,5.629,1.569h.185a8.3,8.3,0,0,0,5.167-2.676c.185-.185.277-.369.461-.554a8.675,8.675,0,0,0,1.753-6.09A8.859,8.859,0,0,0,197.946,185.727Zm2.215,5.26h0l-3.414.369h0a16.642,16.642,0,0,0-1.015-3.968,11.75,11.75,0,0,0,1.753-1.2A7.831,7.831,0,0,1,200.161,190.987ZM189,188.4a8.93,8.93,0,0,0,2.768.185l.369,3.23-3.23.369h0A12.74,12.74,0,0,1,189,188.4Zm3.045-3.968h0c1.015.092,2.03,1.107,2.768,2.676a10.356,10.356,0,0,1-2.4.738h0Zm-.738.092.369,3.322a7.4,7.4,0,0,1-2.491-.185C189.642,186,190.38,184.8,191.3,184.528Zm.83,8.028.369,3.23a8.869,8.869,0,0,0-2.676.738,14.413,14.413,0,0,1-.923-3.691Zm.461,3.968.369,3.322c-1.015-.092-2.03-1.107-2.768-2.676A7.118,7.118,0,0,1,192.594,196.523Zm1.015,3.23h0l-.369-3.414h0a7.4,7.4,0,0,1,2.491.185C195.362,198.276,194.624,199.476,193.609,199.753Zm-.369-4.06h0l-.369-3.23,3.23-.369a16.5,16.5,0,0,1-.185,3.783A12.621,12.621,0,0,0,193.24,195.693Zm-.461-3.875-.369-3.23h0a8.869,8.869,0,0,0,2.676-.738,11.413,11.413,0,0,1,.923,3.691h0Zm4.06-6a8.363,8.363,0,0,1-1.476,1.015,6.619,6.619,0,0,0-1.753-2.307A7.229,7.229,0,0,1,196.839,185.82Zm-7.105-.923a6.708,6.708,0,0,0-1.2,2.584,6.555,6.555,0,0,1-1.661-.738A9,9,0,0,1,189.734,184.9Zm-3.322,2.491a6.152,6.152,0,0,0,1.938.83,14.478,14.478,0,0,0-.185,4.06h0l-3.414.369h0A7.819,7.819,0,0,1,186.412,187.388Zm-1.569,5.905,3.414-.369a16.642,16.642,0,0,0,1.015,3.968,11.751,11.751,0,0,0-1.753,1.2A7.832,7.832,0,0,1,184.843,193.294Zm3.23,5.26a8.362,8.362,0,0,1,1.476-1.015,6.62,6.62,0,0,0,1.753,2.307A9.13,9.13,0,0,1,188.073,198.553Zm7.2.83a6.709,6.709,0,0,0,1.2-2.584,13.07,13.07,0,0,1,1.661.738A10.162,10.162,0,0,1,195.27,199.384Zm3.322-2.4a6.152,6.152,0,0,0-1.938-.83,14.48,14.48,0,0,0,.185-4.06l3.414-.369A8.145,8.145,0,0,1,198.592,196.985Z" transform="translate(-183.288 -183.666)" fill="#f5c242"/><text transform="matrix(0.995, -0.104, 0.104, 0.995, 0.312, 24.32)" fill="#f5c242" font-size="3" font-family="Montserrat-Bold, Montserrat" font-weight="700"><tspan x="0" y="0">PASSPORT</tspan></text></g></g></g><g transform="translate(44.845 161.293)"><path d="M147.985,216.361l.092,1.476H107.292L107.2,214.7Z" transform="translate(-53.128 -204.273)" fill="#12171e"/><g transform="translate(0 13.564)"><path d="M48.6,222.99V323.476a4.923,4.923,0,0,0,4.89,4.89H192.361a4.923,4.923,0,0,0,4.89-4.89V222.99a4.923,4.923,0,0,0-4.89-4.89H53.4A4.844,4.844,0,0,0,48.6,222.99Z" transform="translate(-48.6 -218.1)" fill="#f5c242"/><path d="M186.456,263.18c-13.564,14.3-29.066,26.3-48.628,31.1a38.8,38.8,0,0,1-9.965,1.569c-18.731,0-38.293.369-55.364-6.367-8.674-3.322-17.9-9.689-23.9-18.178v54.718a4.923,4.923,0,0,0,4.89,4.89H192.361a4.923,4.923,0,0,0,4.89-4.89V251C193.93,255.245,189.87,259.3,186.456,263.18Z" transform="translate(-48.6 -220.642)" fill="#f5c242" opacity="0.5"/><path d="M192,218.1a16.3,16.3,0,0,0,16.332,16.332V222.99a4.923,4.923,0,0,0-4.89-4.89Z" transform="translate(-59.681 -218.1)" fill="#915620"/><path d="M48.6,222.99v11.442A16.3,16.3,0,0,0,64.932,218.1H53.4A4.844,4.844,0,0,0,48.6,222.99Z" transform="translate(-48.6 -218.1)" fill="#915620"/><g transform="translate(0 93.842)"><path d="M192,336.132h11.442a4.923,4.923,0,0,0,4.89-4.89V319.8A16.362,16.362,0,0,0,192,336.132Z" transform="translate(-59.681 -319.8)" fill="#915620"/><path d="M48.6,319.8v11.442a4.923,4.923,0,0,0,4.89,4.89H64.932A16.422,16.422,0,0,0,48.6,319.8Z" transform="translate(-48.6 -319.8)" fill="#915620"/></g><g transform="translate(3.875 4.152)"><path d="M52.8,224.63a2.03,2.03,0,1,0,2.03-2.03A2.048,2.048,0,0,0,52.8,224.63Z" transform="translate(-52.8 -222.6)" fill="#683a15" opacity="0.5"/><path d="M52.8,330.73a2.03,2.03,0,1,0,2.03-2.03A2.048,2.048,0,0,0,52.8,330.73Z" transform="translate(-52.8 -230.798)" fill="#683a15" opacity="0.5"/><g transform="translate(136.841)" opacity="0.5"><path d="M201.1,224.63a2.03,2.03,0,1,0,2.03-2.03A2.048,2.048,0,0,0,201.1,224.63Z" transform="translate(-201.1 -222.6)" fill="#683a15"/><path d="M201.1,330.73a2.03,2.03,0,1,0,2.03-2.03A2.048,2.048,0,0,0,201.1,330.73Z" transform="translate(-201.1 -230.798)" fill="#683a15"/></g></g></g><g transform="translate(53.611)"><path d="M106.7,216.964h7.382a6.183,6.183,0,0,1,6.182-6.182h14.21a6.183,6.183,0,0,1,6.182,6.182h7.382A13.586,13.586,0,0,0,134.474,203.4h-14.21A13.646,13.646,0,0,0,106.7,216.964Z" transform="translate(-106.7 -203.4)" fill="#683a15"/></g><g transform="translate(16.332 123.738)"><rect width="14.025" height="3.045" fill="#282f39"/><rect width="14.025" height="3.045" transform="translate(101.869)" fill="#282f39"/></g><g transform="translate(10.796 13.564)"><g transform="translate(38.556 80.632)"><path d="M102.929,317.217l9.6,2.03a1.2,1.2,0,0,0,1.292-.83l2.03-9.6a1.2,1.2,0,0,0-.83-1.292l-9.6-2.03a1.2,1.2,0,0,0-1.292.83l-2.03,9.6A1.089,1.089,0,0,0,102.929,317.217Z" transform="translate(-102.085 -305.485)" fill="#d82c28"/><path d="M105.761,310.73l2.584.554.554-2.584,2.307.554-.554,2.491,2.491.554-.461,2.4-2.491-.554-.554,2.491-2.4-.461.554-2.584-2.491-.554Z" transform="translate(-102.333 -305.733)" fill="#fff8e1"/></g><g transform="translate(72.635 69.498)"><path d="M139.463,303a12.949,12.949,0,1,0,15.871-9.135A12.935,12.935,0,0,0,139.463,303Z" transform="translate(-139.018 -293.418)" fill="#fff8e1"/><path d="M142.9,303.743l1.292-.092.185-3.783,2.491,1.476,1.107-1.476,1.938,3.6.738-6.09,1.476,1.476,3.045-2.953,1.107,4.06,2.122-.461-2.584,5.629,3.506-2.122.185,1.845h2.953l-1.753,3.322,1.015.738-5.813,2.86v1.845l-4.337-1.661-.554-.185-1.107,5.721-1.2-.369,1.845-5.444-.461-.185-4.614-.738,1.015-1.569Z" transform="translate(-139.318 -293.61)" fill="#d82c28"/></g><g transform="translate(105.857 57.048)"><path d="M185.4,291.3c4.152-3.322,4.152-7.013,4.152-7.013l.646-.092.646,6.09c.461,6.92-2.768,9.689-3.968,10.519Z" transform="translate(-175.824 -280.255)" fill="#282f39"/><path d="M194.305,306.922l-6,.923-1.107-6.92c1.292-.83,4.521-3.691,4.06-10.7l-.646-6,1.476-.092h.646l3.783-.092A2.989,2.989,0,0,1,198,283.3s.369,0,.369.277l1.015-.185s.369-.092.092.277a4.907,4.907,0,0,1-2.953,1.2,7.509,7.509,0,0,1-.83,1.384h0l-.185.185h0a6.632,6.632,0,0,1-4.152,2.215Z" transform="translate(-175.963 -280.186)" fill="#282f39"/><path d="M175.186,287.1c.461.277,1.292.461,3.137.277h.092a6.746,6.746,0,0,0,6.09,2.03l.185,1.2a14.189,14.189,0,0,0,1.2-1.107,9.253,9.253,0,0,0,2.676-5.444h-.277l-.369-2.491-.092-.277a1.6,1.6,0,0,0-1.107-1.292.788.788,0,0,0-.646,0,1.5,1.5,0,0,0-1.292,1.753v.277l.369,2.491-7.105,2.03s-1.015-.461-1.569-.185c0,0-.369.092-.277.369l-1.015.185C175.186,286.822,174.817,286.915,175.186,287.1Z" transform="translate(-175.022 -279.925)" fill="#282f39"/></g><g transform="translate(27.413 16.031)"><path d="M90.277,241.311a7.891,7.891,0,1,0,9.689-5.536A7.937,7.937,0,0,0,90.277,241.311Z" transform="translate(-90.008 -235.473)" fill="#fff8e1"/><path d="M94.489,242.665a3.828,3.828,0,1,0,4.706-2.676A3.841,3.841,0,0,0,94.489,242.665Z" transform="translate(-90.344 -235.812)" fill="#d82c28"/></g><g transform="translate(104.928 14.3)"><rect width="14.302" height="14.302" transform="translate(6.225) rotate(25.76)" fill="#fff8e1"/><rect width="4.89" height="14.302" transform="translate(6.214 0.028) rotate(25.753)" fill="#d82c28"/><rect width="4.798" height="14.302" transform="translate(14.776 4.192) rotate(25.76)" fill="#689f38"/></g><g transform="translate(4.786 67.082)"><path d="M74.911,297.167c1.107.83,2.122,1.569,2.86,2.215l1.661-.83,2.215,1.384-2.4,1.938-.738,3.045-2.215-1.384v-1.845a33.377,33.377,0,0,1-3.23-1.569L70.2,305.84,67.9,304.364l.369-1.661h0c-.092-.092-.185-.092-.277-.185a.988.988,0,0,1-.092-1.292.822.822,0,0,1,.738-.461h.092v-.092c-.092-.092-.185-.092-.277-.185a.988.988,0,0,1-.092-1.292.822.822,0,0,1,.738-.461h.092l.092-.554c-.185-.092-.369-.277-.554-.369a12.268,12.268,0,0,1-2.491-2.03c-1.015-1.2-.738-2.03-.646-2.215v-.092l.092-.092c.369-.461,1.569-1.2,5.167,1.015.185.092.369.277.554.369l.461-.369a1.092,1.092,0,0,1,.092-.923.822.822,0,0,1,.738-.461.941.941,0,0,1,.83.185l.092-.092a1.337,1.337,0,0,1,.092-1.015.822.822,0,0,1,.738-.461.941.941,0,0,1,.83.185h0l1.292-1.015,2.307,1.476Z" transform="translate(-65.486 -290.8)" fill="#fff8e1"/><path d="M77.739,292.438l-1.107-.738-1.292,1.015-.461-.277c-.185-.092-.369-.092-.461.092s-.092.369.092.461l.277.185-1.2.923-.461-.277c-.185-.092-.369-.092-.461.092s-.092.369.092.461l.277.185-1.569,1.2c-.369-.277-.738-.461-1.015-.646-3.414-2.122-4.152-1.2-4.152-1.2s-.554,1.015,2.86,3.23a11.765,11.765,0,0,0,1.107.646l-.461,1.938-.277-.185c-.185-.092-.369-.092-.461.092s-.092.369.092.461l.461.277-.369,1.476-.277-.185c-.185-.092-.369-.092-.461.092s-.092.369.092.461l.461.277-.369,1.661,1.107.738,2.86-5.629a30.575,30.575,0,0,0,4.429,2.122v1.938l.923.554.554-2.215,1.753-1.476-.923-.554-1.753.83a44.194,44.194,0,0,0-3.875-3.045Z" transform="translate(-65.546 -290.87)" fill="#054da1"/></g><g transform="translate(17.44)"><g transform="translate(2.122)"><rect width="11.811" height="110.174" fill="#683a15"/></g><path d="M95.255,218.1H79.2v6a8.034,8.034,0,0,0,8.028,8.028h0a8.034,8.034,0,0,0,8.028-8.028v-6Z" transform="translate(-79.2 -218.1)" fill="#915620"/><path d="M85.7,225.53a2.03,2.03,0,1,0,2.03-2.03A2.112,2.112,0,0,0,85.7,225.53Z" transform="translate(-79.702 -218.517)" fill="#d3d3d3"/><g transform="translate(0 29.896)"><path d="M79.2,336.325H95.255v-6a8.034,8.034,0,0,0-8.028-8.028h0a8.033,8.033,0,0,0-8.028,8.028v6Z" transform="translate(-79.2 -256.048)" fill="#915620"/><path d="M89.66,329.73a2.03,2.03,0,1,0-2.03,2.03A1.99,1.99,0,0,0,89.66,329.73Z" transform="translate(-79.695 -256.465)" fill="#d3d3d3"/><g transform="translate(5.905)"><path d="M89.66,302.83a2.03,2.03,0,1,0-2.03,2.03A1.99,1.99,0,0,0,89.66,302.83Z" transform="translate(-85.6 -254.387)" fill="#d3d3d3"/><path d="M89.66,277.63a2.03,2.03,0,1,0-2.03,2.03A1.99,1.99,0,0,0,89.66,277.63Z" transform="translate(-85.6 -252.439)" fill="#d3d3d3"/><path d="M89.66,252.53a2.03,2.03,0,1,0-2.03,2.03A2.109,2.109,0,0,0,89.66,252.53Z" transform="translate(-85.6 -250.5)" fill="#d3d3d3"/></g></g><g transform="translate(76.033)"><g transform="translate(2.215)"><rect width="11.811" height="110.174" fill="#683a15"/></g><g transform="translate(0.092)"><path d="M177.755,218.1H161.7v6a8.034,8.034,0,0,0,8.028,8.028h0a8.034,8.034,0,0,0,8.028-8.028Z" transform="translate(-161.7 -218.1)" fill="#915620"/><path d="M168.2,225.53a2.03,2.03,0,1,0,2.03-2.03A2.112,2.112,0,0,0,168.2,225.53Z" transform="translate(-162.202 -218.517)" fill="#d3d3d3"/></g><g transform="translate(0 29.896)"><path d="M161.6,336.325h16.055v-6a8.034,8.034,0,0,0-8.028-8.028h0a8.033,8.033,0,0,0-8.028,8.028Z" transform="translate(-161.6 -256.048)" fill="#915620"/><path d="M172.16,329.73a2.03,2.03,0,1,0-2.03,2.03A2.048,2.048,0,0,0,172.16,329.73Z" transform="translate(-162.102 -256.465)" fill="#d3d3d3"/><g transform="translate(5.998)"><path d="M172.16,302.83a2.03,2.03,0,1,0-2.03,2.03A2.048,2.048,0,0,0,172.16,302.83Z" transform="translate(-168.1 -254.387)" fill="#d3d3d3"/><path d="M172.16,277.63a2.03,2.03,0,1,0-2.03,2.03A2.048,2.048,0,0,0,172.16,277.63Z" transform="translate(-168.1 -252.439)" fill="#d3d3d3"/><path d="M172.16,252.53a2.03,2.03,0,1,0-2.03,2.03A2.181,2.181,0,0,0,172.16,252.53Z" transform="translate(-168.1 -250.5)" fill="#d3d3d3"/></g></g></g></g><path d="M64.729,249.3l2.584,3.045,3.968-.461L69.25,255.3l1.569,3.6-3.875-.923-2.86,2.676-.369-3.968L60.3,254.744l3.691-1.569Z" transform="translate(-60.3 -220.511)" fill="#282f39"/></g><g transform="translate(50.935 10.427)"><g transform="translate(15.133 35.142)"><g transform="translate(22.039)"><path d="M150.945,265.029l-3.23.277-1.015-4.245,4.337-.461Z" transform="translate(-144.287 -253.389)" fill="#283039"/><path d="M151.757,260.642l-6,.646a.916.916,0,0,1-1.015-.83l-.646-6a.916.916,0,0,1,.83-1.015l6-.646a.916.916,0,0,1,1.015.83l.646,6A.939.939,0,0,1,151.757,260.642Z" transform="translate(-144.085 -252.785)" fill="#d5dce0"/><rect width="5.813" height="5.813" transform="translate(1.094 1.73) rotate(-6.177)" fill="#c3ccd5"/><rect width="5.075" height="5.075" transform="translate(1.51 2.054) rotate(-6.183)" fill="#283039"/><rect width="3.506" height="3.506" transform="matrix(0.994, -0.108, 0.108, 0.994, 2.339, 2.8)" fill="#12171e"/><path d="M149.276,255.5l-2.676.277.369,3.506.554-.092A8.573,8.573,0,0,1,149.276,255.5Z" transform="translate(-144.279 -252.994)" fill="#2d3842" opacity="0.2"/></g><g transform="translate(0 10.611)"><path d="M121.584,267.621a1.664,1.664,0,0,0-1.384,1.384v.185l1.753,16.148a1.54,1.54,0,0,0,1.661,1.384l30.542-3.322a1.54,1.54,0,0,0,1.384-1.661l-1.753-16.055a1.574,1.574,0,0,0-1.753-1.384Z" transform="translate(-120.2 -264.285)" fill="#054da3"/><path d="M121.3,278.328l.83,7.474a1.54,1.54,0,0,0,1.661,1.384l30.542-3.322a1.54,1.54,0,0,0,1.384-1.661l-1.292-11.9a17.644,17.644,0,0,1-3.137,2.215C142.615,277.313,131.081,282.2,121.3,278.328Z" transform="translate(-120.285 -264.75)" fill="#003c94"/><g transform="translate(1.96 0.657)"><rect width="4.706" height="1.476" transform="matrix(0.994, -0.108, 0.108, 0.994, 0, 1.098)" fill="#12171e"/><rect width="3.783" height="1.476" transform="matrix(0.994, -0.108, 0.108, 0.994, 5.624, 0.408)" fill="#12171e"/></g><g transform="translate(0.082)"><path d="M120.3,269.19l.185,1.292,33.68-3.6-.185-1.292a1.471,1.471,0,0,0-1.661-1.292l-30.635,3.322A1.359,1.359,0,0,0,120.3,269.19Z" transform="translate(-120.289 -264.285)" fill="#c3ccd5"/><path d="M152.326,264.3l-30.635,3.322a1.471,1.471,0,0,0-1.292,1.2l33.5-3.6A1.564,1.564,0,0,0,152.326,264.3Z" transform="translate(-120.298 -264.285)" fill="#d5dce0"/><path d="M122,285.5l.092,1.2a1.54,1.54,0,0,0,1.661,1.384L154.3,284.76a1.54,1.54,0,0,0,1.384-1.661l-.092-1.2Z" transform="translate(-120.421 -265.646)" fill="#c3ccd5"/></g><path d="M122.7,287.8a1.364,1.364,0,0,0,1.2.369l30.542-3.322a1.711,1.711,0,0,0,1.107-.646Z" transform="translate(-120.393 -265.824)" fill="#d5dce0"/></g><g transform="translate(9.438 10.006)"><path d="M151.071,272.829a10.353,10.353,0,1,1-11.442-9.135A10.368,10.368,0,0,1,151.071,272.829Z" transform="translate(-130.428 -263.628)" fill="#d5dce0"/><path d="M150.235,273a9.375,9.375,0,1,1-10.335-8.3A9.35,9.35,0,0,1,150.235,273Z" transform="translate(-130.514 -263.706)" fill="#404751"/><path d="M149.044,273.294a8.121,8.121,0,1,1-8.95-7.2A8.163,8.163,0,0,1,149.044,273.294Z" transform="translate(-130.616 -263.815)" fill="#283039"/><path d="M148.452,273.44a7.469,7.469,0,1,1-8.212-6.644A7.454,7.454,0,0,1,148.452,273.44Z" transform="translate(-130.669 -263.869)" fill="#12171e"/><path d="M144.811,274.136A3.526,3.526,0,1,1,140.936,271,3.527,3.527,0,0,1,144.811,274.136Z" transform="translate(-130.996 -264.196)" fill="#31476c"/><path d="M147.429,270.388a7.6,7.6,0,0,0-7.29-3.691,7.52,7.52,0,0,0-6.644,8.212,6.96,6.96,0,0,0,.83,2.676A17.851,17.851,0,0,0,147.429,270.388Z" transform="translate(-130.662 -263.863)" fill="#2d3842" opacity="0.2"/><g transform="translate(10.11 5.499)"><path d="M143.453,272.275a1.513,1.513,0,1,1,2.122-.277A1.423,1.423,0,0,1,143.453,272.275Z" transform="translate(-141.501 -269.588)" fill="#d5dce0"/><path d="M142.6,275.221a1.07,1.07,0,1,1,.923-1.2A1.043,1.043,0,0,1,142.6,275.221Z" transform="translate(-141.385 -269.858)" fill="#d5dce0"/></g></g></g><path d="M119.025,264.9,103.8,217.837l3.137-3.137.092,3.137,12.18,46.6Z" transform="translate(-103.8 -214.7)" fill="#12171e"/><path d="M155.368,260.7l-3.875-42.722L151.4,216.5l2.307,1.476,2.03,42.907Z" transform="translate(-107.478 -214.839)" fill="#12171e"/></g></g><g transform="translate(226.136 4.722)"><path d="M245.928,36.008c-1.845,2.676-.646,7.2,3.045,13.01,6.367,9.781,19.839,22.976,37,35.248,27.22,19.47,53.426,29.527,58.593,22.422,2.491-3.506-.461-10.335-7.29-18.731-7.2-8.858-18.731-19.47-32.757-29.435C277.209,38.869,251,28.9,245.928,36.008Z" transform="translate(-245.073 -33.718)" fill="#b21b1b"/><path d="M245.928,36.008c-1.845,2.676-.646,7.2,3.045,13.01,7.2,8.858,18.731,19.47,32.757,29.435,27.221,19.47,53.426,29.527,58.593,22.422,1.845-2.584.646-7.2-3.045-13.01-7.2-8.858-18.731-19.47-32.757-29.435C277.209,38.869,251,28.9,245.928,36.008Z" transform="translate(-245.073 -33.718)" fill="#d82c28"/><g transform="translate(29.183 0.734)"><path d="M276.7,51.2a58.429,58.429,0,0,0,18.824,23.16A57.428,57.428,0,0,0,323.482,84.7a55.076,55.076,0,0,0,3.875-6.736c.83-1.845,1.569-3.783,2.215-5.629a37.12,37.12,0,0,0,1.384-16.055,26.727,26.727,0,0,0-4.8-12.088,2.012,2.012,0,0,0-.369-.461h0c-.185-.185-.369-.461-.554-.646a14.186,14.186,0,0,0-1.107-1.2c-.092,0-.092-.092-.092-.185l-.461-.461-.185-.185-.554-.554a2.447,2.447,0,0,0-.554-.461l-.277-.277c-.092-.092-.185-.185-.277-.185a1.274,1.274,0,0,0-.369-.277c-.185-.092-.369-.277-.554-.369-9.5-6.736-22.7-5.536-33.68,2.03a40.834,40.834,0,0,0-5.444,4.429A51.442,51.442,0,0,0,276.7,51.2Z" transform="translate(-276.7 -34.514)" fill="#d82c28"/></g><path d="M276.7,51.75a58.429,58.429,0,0,0,18.824,23.16,57.428,57.428,0,0,0,27.959,10.335,55.076,55.076,0,0,0,3.875-6.736c.83-1.845,1.569-3.783,2.215-5.629a37.12,37.12,0,0,0,1.384-16.055,20.487,20.487,0,0,1-13.564,7.935c-8.951,1.015-17.9-3.691-23.53-10.7A39.315,39.315,0,0,1,287.311,41.6a40.838,40.838,0,0,0-5.444,4.429A34.079,34.079,0,0,0,276.7,51.75Z" transform="translate(-247.517 -34.327)" fill="#b21b1b"/><path d="M276.7,52.113a58.429,58.429,0,0,0,18.824,23.16,57.428,57.428,0,0,0,27.959,10.335,55.076,55.076,0,0,0,3.875-6.736c.83-1.845,1.569-3.783,2.215-5.629-10.98,2.86-21.5.923-29.343-4.614A57.148,57.148,0,0,1,284.266,51.1a47.267,47.267,0,0,1-2.491-4.8A44.068,44.068,0,0,0,276.7,52.113Z" transform="translate(-247.517 -34.69)" fill="#fff"/><g transform="translate(62.897 44.92)"><path d="M324.091,82.4c1.015,5.629-.646,11.35-2.953,16.609s-5.167,10.15-6.828,15.686c-1.569,5.444-1.661,11.719,1.384,16.517a14.678,14.678,0,0,1,2.584-7.751,17.859,17.859,0,0,0,9.6,8.766c-3.414-7.474-1.753-16.24.092-24.268s3.691-16.7.554-24.36C327.321,83.138,325.291,82.861,324.091,82.4Z" transform="translate(-313.238 -82.4)" fill="#ddd7d7"/><path d="M323.1,83.054c3.322,5.629,3.783,12.549,3.414,19.008-.369,6.551-1.569,13.01-1.107,19.562s2.768,13.287,8.028,17.255a16.054,16.054,0,0,1-.277-9.32A20.449,20.449,0,0,0,347,135.188c-6.644-6.736-8.3-16.794-9.6-26.205-1.2-9.412-2.676-19.47-9.043-26.482C326.883,82.5,324.576,83.054,323.1,83.054Z" transform="translate(-314 -82.408)" fill="#fff"/></g></g><g transform="translate(136.656 68.005)"><path d="M153.267,120.57l.646,2.584.646-2.584a14.4,14.4,0,0,1,5.167-7.843,14.074,14.074,0,0,1-5.167-7.843l-.646-2.584-.646,2.584a14.4,14.4,0,0,1-5.167,7.843A13.479,13.479,0,0,1,153.267,120.57Z" transform="translate(-148.1 -102.3)" fill="#fafafa"/><path d="M169.705,138.691l.923,3.6.923-3.6a18.846,18.846,0,0,1,7.105-10.8,18.846,18.846,0,0,1-7.105-10.8l-.923-3.6-.923,3.6a18.846,18.846,0,0,1-7.1,10.8A18.846,18.846,0,0,1,169.705,138.691Z" transform="translate(-149.22 -103.165)" fill="#fafafa"/></g><g transform="translate(326.554 206.784)"><path d="M357.037,266.469l.461-1.569.461,1.569a8.484,8.484,0,0,0,3.137,4.8,8.05,8.05,0,0,0-3.137,4.8l-.461,1.569-.461-1.569a8.484,8.484,0,0,0-3.137-4.8A9.339,9.339,0,0,0,357.037,266.469Z" transform="translate(-353.9 -253.643)" fill="#fafafa"/><path d="M367.037,254.915l.554-2.215.554,2.215a11.738,11.738,0,0,0,4.337,6.644,11.437,11.437,0,0,0-4.337,6.644l-.554,2.215-.554-2.215a11.739,11.739,0,0,0-4.337-6.644A11.738,11.738,0,0,0,367.037,254.915Z" transform="translate(-354.58 -252.7)" fill="#fafafa"/></g><g transform="translate(197.833)"><path d="M218.368,45.538l.554-1.938.554,1.938a10.366,10.366,0,0,0,3.968,6,10.819,10.819,0,0,0-3.968,6l-.554,1.938-.554-1.938a10.366,10.366,0,0,0-3.968-6A10.522,10.522,0,0,0,218.368,45.538Z" transform="translate(-214.4 -29.759)" fill="#fafafa"/><path d="M230.944,31.276l.738-2.676.738,2.676a14.172,14.172,0,0,0,5.444,8.212A14.171,14.171,0,0,0,232.42,47.7l-.738,2.676-.738-2.676a14.171,14.171,0,0,0-5.444-8.212A14.171,14.171,0,0,0,230.944,31.276Z" transform="translate(-215.258 -28.6)" fill="#fafafa"/></g><g transform="translate(0 140.255)"><path d="M15.86,194.369,15.4,192.8l-.461,1.569a8.484,8.484,0,0,1-3.137,4.8,8.05,8.05,0,0,1,3.137,4.8l.461,1.569.461-1.569a8.484,8.484,0,0,1,3.137-4.8A8.807,8.807,0,0,1,15.86,194.369Z" transform="translate(-0.912 -181.543)" fill="#fafafa"/><path d="M5.536,182.815,4.983,180.6l-.646,2.215A11.739,11.739,0,0,1,0,189.458,11.437,11.437,0,0,1,4.337,196.1l.554,2.215.554-2.215a11.739,11.739,0,0,1,4.337-6.644A12.1,12.1,0,0,1,5.536,182.815Z" transform="translate(0 -180.6)" fill="#fafafa"/></g></g></g></svg>