<svg xmlns="http://www.w3.org/2000/svg" width="347.681" height="355.996" viewBox="0 0 347.681 355.996"><circle cx="104.498" cy="104.498" r="104.498" transform="translate(0 147.78) rotate(-45)" fill="#fff"/><g transform="translate(6.269 6.264)"><g transform="translate(0 0)"><path d="M4.569,143.2A140.354,140.354,0,0,1,157.466,1.6l1.006-.929C155.8.444,153.133.251,150.463.135A141.573,141.573,0,0,0,3.641,136.125c-.116,2.708-.116,5.378-.077,8.047Z" transform="translate(-3.54 -0.03)" fill="#fff"/><path d="M600.375,99.875l.774-.7A143.205,143.205,0,0,0,549.074,47.8l-.774.735a140.337,140.337,0,0,1,52.075,51.34Z" transform="translate(-337.541 -29.319)" fill="#fff"/><path d="M305.815,319.09A140.573,140.573,0,0,1,261.942,439.72c-56.833,52.655-145.933,49.25-198.627-7.583a139.492,139.492,0,0,1-24.142-35.864l-.774.735A142.382,142.382,0,0,0,62.619,432.8a141.529,141.529,0,0,0,245.246-90.8,143,143,0,0,0-1.083-23.793Z" transform="translate(-24.913 -195.105)" fill="#fff"/></g><g transform="translate(24.102 24.063)"><path d="M103.583,123.692A116.544,116.544,0,0,1,280.97,90.73l.619-.7A117.522,117.522,0,0,0,102.5,123.654h1.083Z" transform="translate(-88.315 -62.227)" fill="#fff"/><path d="M67.022,348.4H66.016a123.079,123.079,0,0,0-.039,12.535,116.431,116.431,0,0,0,35.593,78.538l.619-.7A116.338,116.338,0,0,1,67.022,348.4Z" transform="translate(-65.837 -237.684)" fill="#fff"/><path d="M629.149,210.922c-1.2-2.167-2.437-4.294-3.753-6.422l-.7.735c1.161,1.857,2.244,3.753,3.289,5.649h1.161Z" transform="translate(-408.484 -149.457)" fill="#fff"/><path d="M403.694,348.4h-1.006A116.4,116.4,0,0,1,234.9,459.552l-.7.735a117.472,117.472,0,0,0,169.533-111A7.138,7.138,0,0,0,403.694,348.4Z" transform="translate(-169.063 -237.684)" fill="#fff"/></g><g transform="translate(16.35 15.154)"><path d="M491.648,662.434c1.7-.735,3.443-1.47,5.107-2.283l-.387-.851c-1.664.774-3.366,1.548-5.068,2.244Z" transform="translate(-318.943 -419.393)" fill="#fff"/><path d="M104.635,559.6l-.735.542c1.122,1.47,2.283,2.979,3.443,4.41l.735-.58C106.918,562.54,105.757,561.07,104.635,559.6Z" transform="translate(-81.422 -358.265)" fill="#fff"/><path d="M88.574,535.9l-.774.5c.967,1.586,1.973,3.134,3.018,4.681l.774-.5C90.547,539.034,89.541,537.448,88.574,535.9Z" transform="translate(-71.551 -343.734)" fill="#fff"/><path d="M53.49,457.5l-.89.271c.542,1.78,1.083,3.559,1.7,5.339l.89-.309C54.573,461.059,54.031,459.28,53.49,457.5Z" transform="translate(-49.969 -295.666)" fill="#fff"/><path d="M143.019,602.3l-.619.7c1.354,1.277,2.747,2.515,4.14,3.753l.619-.7C145.727,604.776,144.334,603.538,143.019,602.3Z" transform="translate(-105.027 -384.445)" fill="#fff"/><path d="M74.551,510.8l-.851.426c.812,1.664,1.7,3.327,2.592,4.952l.812-.464C76.215,514.127,75.364,512.464,74.551,510.8Z" transform="translate(-62.906 -328.345)" fill="#fff"/><path d="M62.851,484.6l-.851.348c.7,1.741,1.393,3.482,2.167,5.146l.851-.387C64.244,488.043,63.509,486.341,62.851,484.6Z" transform="translate(-55.732 -312.282)" fill="#fff"/><path d="M464.671,673.108c1.78-.542,3.559-1.161,5.3-1.818l-.31-.89c-1.741.619-3.482,1.238-5.262,1.78Z" transform="translate(-302.45 -426.198)" fill="#fff"/><path d="M408.4,686.151l.116.929c1.857-.232,3.714-.542,5.532-.851l-.155-.929C412.075,685.609,410.218,685.919,408.4,686.151Z" transform="translate(-268.116 -435.334)" fill="#fff"/><path d="M436.6,680.415l.193.89c1.818-.387,3.637-.851,5.416-1.315l-.232-.89C440.237,679.564,438.418,680.029,436.6,680.415Z" transform="translate(-285.405 -431.533)" fill="#fff"/><path d="M164.78,621l-.58.735c1.47,1.161,2.979,2.283,4.488,3.366l.542-.774C167.721,623.244,166.25,622.122,164.78,621Z" transform="translate(-118.393 -395.911)" fill="#fff"/><path d="M188.2,637.7l-.5.774c1.548,1.006,3.172,2.012,4.759,2.94l.464-.812C191.337,639.673,189.75,638.706,188.2,637.7Z" transform="translate(-132.801 -406.15)" fill="#fff"/><path d="M242.53,666.093l-3.482-1.393-.348.851c1.315.542,2.631,1.083,3.985,1.586Z" transform="translate(-164.07 -422.704)" fill="#fff"/><path d="M213.126,652.3l-.426.813c1.625.89,3.327,1.741,4.991,2.515l.387-.851C216.414,654,214.75,653.151,213.126,652.3Z" transform="translate(-148.129 -415.101)" fill="#fff"/><path d="M122.9,581.7l-.7.619c1.238,1.393,2.515,2.747,3.83,4.1l.658-.658C125.372,584.447,124.1,583.093,122.9,581.7Z" transform="translate(-92.642 -371.815)" fill="#fff"/><path d="M108.878,159.18l-.735-.58c-1.2,1.431-2.36,2.9-3.443,4.41l.735.542C106.557,162.082,107.679,160.612,108.878,159.18Z" transform="translate(-81.912 -112.406)" fill="#fff"/><path d="M147.378,117.4c-1.393,1.2-2.824,2.437-4.178,3.714l.619.7c1.354-1.277,2.747-2.515,4.14-3.714Z" transform="translate(-105.517 -87.146)" fill="#fff"/><path d="M126.83,137.1c-1.277,1.315-2.592,2.708-3.83,4.062l.7.619c1.238-1.354,2.515-2.747,3.791-4.062Z" transform="translate(-93.132 -99.224)" fill="#fff"/><path d="M168.875,101.1c-1.238.89-2.476,1.818-3.675,2.747l.58.735c1.045-.812,2.167-1.625,3.25-2.437Z" transform="translate(-119.006 -77.152)" fill="#fff"/><path d="M301.207,45.229l-.155-.929c-1.664.31-3.327.619-4.952.967l.116.929C297.841,45.848,299.543,45.5,301.207,45.229Z" transform="translate(-199.263 -42.327)" fill="#fff"/><path d="M379.9,689.448l.116.929q2.728-.116,5.455-.348l-.077-.929C383.575,689.255,381.718,689.371,379.9,689.448Z" transform="translate(-250.642 -437.664)" fill="#fff"/><path d="M91.456,181.7c-1.045,1.548-2.089,3.1-3.056,4.681l.774.5c.967-1.548,1.973-3.134,3.018-4.643Z" transform="translate(-71.919 -126.569)" fill="#fff"/><path d="M76.831,206.3c-.89,1.625-1.78,3.289-2.631,4.952l.812.426c.812-1.664,1.7-3.289,2.592-4.913Z" transform="translate(-63.212 -141.652)" fill="#fff"/><path d="M47.038,286.8c-.464,1.818-.851,3.637-1.238,5.455l.929.193c.348-1.818.774-3.637,1.238-5.416Z" transform="translate(-45.8 -191.007)" fill="#fff"/><path d="M64.567,232.1c-.774,1.7-1.509,3.443-2.167,5.146l.851.348c.7-1.7,1.393-3.443,2.167-5.107Z" transform="translate(-55.978 -157.47)" fill="#fff"/><path d="M54.6,259c-.619,1.741-1.2,3.559-1.7,5.339l.89.271c.542-1.78,1.083-3.559,1.7-5.3Z" transform="translate(-50.153 -173.963)" fill="#fff"/><path d="M677.79,450.549c.542-1.78,1.045-3.6,1.47-5.416l-.89-.232c-.464,1.78-.929,3.6-1.47,5.378Z" transform="translate(-432.737 -287.941)" fill="#fff"/><path d="M658.86,225.755l.851-.387c-.735-1.7-1.548-3.4-2.36-5.068l-.851.426C657.312,222.389,658.086,224.053,658.86,225.755Z" transform="translate(-420.229 -150.235)" fill="#fff"/><path d="M612,153.636l.735-.58c-1.161-1.431-2.4-2.863-3.637-4.256l-.7.619C609.638,150.812,610.837,152.2,612,153.636Z" transform="translate(-390.739 -106.397)" fill="#fff"/><path d="M517.626,649.521c1.625-.851,3.289-1.78,4.875-2.708l-.464-.812c-1.586.929-3.211,1.818-4.836,2.67Z" transform="translate(-334.822 -411.238)" fill="#fff"/><path d="M629.772,176.268l.774-.5c-1.045-1.548-2.128-3.056-3.211-4.565l-.735.542C627.683,173.212,628.728,174.759,629.772,176.268Z" transform="translate(-401.897 -120.131)" fill="#fff"/><path d="M358.171,40.129V39.2c-1.857,0-3.753.039-5.571.116l.039.929C354.5,40.167,356.353,40.129,358.171,40.129Z" transform="translate(-233.904 -39.2)" fill="#fff"/><path d="M323.216,42.048l.271-.039c1.818-.232,3.675-.426,5.532-.58l-.077-.929c-1.857.155-3.714.348-5.571.619l-.271.039Z" transform="translate(-215.817 -39.997)" fill="#fff"/><path d="M386.932,40.815l.077-.929c-1.857-.155-3.714-.31-5.571-.387l-.039.929C383.218,40.545,385.114,40.661,386.932,40.815Z" transform="translate(-251.561 -39.384)" fill="#fff"/><path d="M471.162,57.747l.31-.89c-1.741-.658-3.521-1.277-5.3-1.857l-.271.89C467.641,56.47,469.421,57.089,471.162,57.747Z" transform="translate(-303.37 -48.887)" fill="#fff"/><path d="M443.578,49.644l.232-.89c-1.78-.5-3.6-.967-5.416-1.354l-.193.89C440.018,48.715,441.837,49.141,443.578,49.644Z" transform="translate(-286.386 -44.228)" fill="#fff"/><path d="M415.394,43.918l.155-.929c-1.818-.348-3.675-.619-5.532-.89l-.116.929C411.757,43.3,413.575,43.609,415.394,43.918Z" transform="translate(-269.035 -40.978)" fill="#fff"/><path d="M645.386,200.362l.812-.464c-.89-1.625-1.857-3.25-2.824-4.8l-.774.5Q644.051,197.924,645.386,200.362Z" transform="translate(-411.707 -134.785)" fill="#fff"/><path d="M607.735,576.836c1.238-1.393,2.476-2.824,3.637-4.256l-.735-.58c-1.161,1.431-2.4,2.824-3.637,4.217Z" transform="translate(-389.88 -365.868)" fill="#fff"/><path d="M626.074,554.168c1.122-1.47,2.205-3.018,3.25-4.527l-.774-.542c-1.045,1.509-2.128,3.056-3.25,4.527Z" transform="translate(-401.1 -351.828)" fill="#fff"/><path d="M642.374,530.062c.967-1.586,1.934-3.211,2.863-4.8l-.812-.464c-.89,1.586-1.857,3.211-2.824,4.759Z" transform="translate(-411.094 -336.929)" fill="#fff"/><path d="M542.342,634.408c1.547-1.006,3.1-2.05,4.6-3.134l-.542-.774c-1.509,1.083-3.056,2.128-4.6,3.1Z" transform="translate(-349.905 -401.735)" fill="#fff"/><path d="M656.451,504.616c.851-1.664,1.664-3.366,2.4-5.03L658,499.2c-.774,1.664-1.548,3.366-2.4,5.03Z" transform="translate(-419.678 -321.233)" fill="#fff"/><path d="M565.78,617.117c1.47-1.122,2.9-2.321,4.333-3.521l-.619-.7c-1.393,1.2-2.863,2.36-4.294,3.521Z" transform="translate(-364.252 -390.944)" fill="#fff"/><path d="M587.658,597.865c1.354-1.277,2.708-2.592,3.985-3.908l-.658-.658c-1.277,1.315-2.631,2.631-3.985,3.869Z" transform="translate(-377.618 -378.927)" fill="#fff"/><path d="M685.067,307.749l.929-.155c-.271-1.857-.619-3.714-.967-5.494l-.929.193C684.487,304.112,684.8,305.93,685.067,307.749Z" transform="translate(-437.151 -200.388)" fill="#fff"/><path d="M668.351,477.971c.7-1.741,1.354-3.482,1.973-5.262l-.89-.31c-.619,1.741-1.277,3.482-1.934,5.223Z" transform="translate(-426.974 -304.802)" fill="#fff"/><path d="M670,252.271l.89-.31c-.58-1.741-1.238-3.521-1.935-5.262l-.851.348C668.758,248.751,669.415,250.53,670,252.271Z" transform="translate(-427.342 -166.421)" fill="#fff"/><path d="M678.731,279.648l.89-.232c-.426-1.818-.929-3.6-1.431-5.416l-.89.271C677.842,276.05,678.306,277.869,678.731,279.648Z" transform="translate(-432.982 -183.16)" fill="#fff"/><path d="M689.831,336.271c-.116-1.857-.271-3.714-.5-5.571l-.929.116c.193,1.857.348,3.714.464,5.532Z" transform="translate(-439.788 -217.923)" fill="#fff"/><path d="M684.828,422.448c.387-1.818.7-3.675,1.006-5.494l-.928-.155c-.271,1.818-.619,3.675-1.006,5.455Z" transform="translate(-437.029 -270.712)" fill="#fff"/><path d="M689.328,393.849c.193-1.857.387-3.714.5-5.571l-.929-.077c-.116,1.857-.31,3.714-.5,5.532Z" transform="translate(-439.788 -253.177)" fill="#fff"/><path d="M691.228,365.171c.039-1.857.039-3.753,0-5.571l-.929.039c.039,1.857.039,3.714,0,5.532Z" transform="translate(-440.953 -235.642)" fill="#fff"/></g></g><path d="M267.674,388.257c-4.565-7.815-17.41-9.517-10.639-14.469-.193.155,2.592-2.321,3.25-3.056.271-.309.5-.542.658-.735.116-.193.232-.387.387-.7.271-.5,1.354-3.289,1.045-2.128.271-.89.542-1.818.735-2.747.077-.464.155-.812.193-1.006.039-.542.116-1.083.155-1.625.077-1.47.155-2.9.155-4.372.039-3.211,0-6.422,0-9.595a14.459,14.459,0,0,1,3.6-9.982c-3.946-2.553-8.241-2.9-9.788-.7l-.542.774-2.4,3.443-.155.193-1.818-1.277,2.4-3.4,2.437-3.443,1.973-2.786c1.625-2.321-.387-6.5-4.488-9.4s-8.744-3.366-10.368-1.083l-1.973,2.786-2.437,3.443-2.4,3.4-1.818-1.277,10.91-15.475h0c.077-.116.193-.232.271-.348l14.353-20.35c2.631-3.714,1.431-9.092-2.67-11.993s-9.556-2.205-12.187,1.509l-14.353,20.35a3.4,3.4,0,0,0-.232.387h-.039l-31.647,44.84-8.357,16.365-2.36-45.265c1.277-5.339,2.05-10.523-2.36-13.618a9.791,9.791,0,0,0-13.618,2.36L170.952,345.2s-4.372,10.368-1.315,26.54l7.119,14.315c-34.82,71.961-23.058,53.816-27.856,60.47l66.08,19.151c1.7-6.848,22.788-52.113,22.788-52.113,2.437-.774,9.324-2.863,12.767-4.681a24.016,24.016,0,0,0,7.66-6.654C264.23,394.022,269.144,390.85,267.674,388.257Z" transform="translate(-86.393 -164.537)" fill="#eda677"/><path d="M423.374,242.355c-4.1-2.9-9.556-2.205-12.187,1.509l-14.353,20.35a3.408,3.408,0,0,0-.232.387h-.039l-31.647,44.84-.116-.077c.039.193.039.348.077.542,1.083,6.616,1.548,14.315,3.869,20.737l.039.039c.039,0,.039.039.077.039.039-.271.426.039.619.348.039.039.077.039.116.077.116.039.232.077.387.116.89.271,1.741.542,2.631.774.077,0,.116.039.193.039v-.039c.967-1.315,1.934-2.669,2.9-4.024,5.881-8.4,11.336-17.062,16.481-25.921a14.581,14.581,0,0,1,10.562-7.312,18.635,18.635,0,0,1-.039-3.6l-.464.658-1.818-1.277,4.488-6.345a13.185,13.185,0,0,1,1.548-2.205l4.875-6.925h0c.077-.116.193-.232.271-.348l14.353-20.35C428.675,250.6,427.475,245.218,423.374,242.355Z" transform="translate(-218.765 -141.239)" fill="#eda677"/><path d="M345.923,283.292a5.318,5.318,0,0,1-5.378,5.262H256.978a5.342,5.342,0,0,1-5.378-5.262V115.462a5.342,5.342,0,0,1,5.378-5.262h83.606a5.342,5.342,0,0,1,5.378,5.262v167.83Z" transform="translate(-149.36 -61.313)" fill="#1b384c" fill-rule="evenodd"/><path d="M344.2,161.1H262.8v19h0v5.146h0v14.121h0V216.5h0v4.217h0V263.2h0v3.869h0v19.615h0v5.146h0V304.6h85.656V161.1Z" transform="translate(-156.227 -92.52)" fill="#dddbdb" fill-rule="evenodd"/><path d="M262.8,155.6v.077h0v1.934h0v.271h0v2.67h0v.232h0v1.238h0v.348h0v1.006h85.656V155.6Z" transform="translate(-156.227 -89.148)" fill="#e9e9f0" fill-rule="evenodd"/><g transform="translate(4.9 229.794)"><path d="M124.438,704l40.12-84.612L76.89,577.8,17,704Z" transform="translate(-10.423 -577.8)" fill="#fff"/><path d="M333.727,688.722a4.423,4.423,0,1,0-1.78-6.035A4.414,4.414,0,0,0,333.727,688.722Z" transform="translate(-203.192 -640.71)" fill="#0e2a30"/><path d="M118.542,731.469l29.868-62.985L51.649,622.6,0,731.469Z" transform="translate(0 -605.268)" fill="#1b384c"/></g><path d="M370.74,544.82a4.72,4.72,0,1,1-4.72-4.72A4.714,4.714,0,0,1,370.74,544.82Z" transform="translate(-216.619 -324.891)" fill="#fff" fill-rule="evenodd" opacity="0.2"/><rect width="24.103" height="2.631" transform="translate(109.746 68.618)" fill="#1b384c"/><rect width="11.297" height="2.631" transform="translate(140.851 68.618)" fill="#1b384c"/><path d="M275.112,523.378c.348-1.354.619-2.67.851-3.985-.232-.735.5-14.972-16.133-26.618-7.7-5.378-16.752-4.178-20.93-3.791v34.394Z" transform="translate(-141.573 -293.312)" fill="#eda677"/><g transform="translate(110.868 79.369)"><g transform="translate(23.171)"><path d="M340.913,189.34c-.5.387-5.765,4.178-7,9.4-.542,2.283.929,13.657,1.045,16.094.039,1.277,1.354-.464,2.167.387-.155-1.47,10.717-11.3,12.883-11.8,1.509-.348,12.109,7.08,12.032,8.7-.077,1.122.271,1.934.193,3.1l.232.116c.309-.774,1.857-.929,2.012-1.741a54.366,54.366,0,0,0-.193-11.916c-.851-9.208-5.8-10.291-10.91-10.523C340.643,190.617,342.577,188.063,340.913,189.34Z" transform="translate(-333.791 -188.987)"/><g transform="translate(2.982 38.577)"><path d="M341.5,298.682l21.627,4.681c-1.47-1.006,2.592-5.532,1.2-7.776-.774-1.238.464-5.262.967-6.616A12.371,12.371,0,0,1,344.4,288.7a.97.97,0,0,0,.155.271c.851,1.78,2.476,5.378,1.083,7.2C345.408,296.515,342.312,297.676,341.5,298.682Z" transform="translate(-341.5 -288.7)" fill="#e3ac91"/></g></g><g transform="translate(22.777 12.183)"><path d="M348.568,226.135a9.353,9.353,0,0,1-8.241.309c-.774-.348-1.548-.619-2.553-1.045-.5,3.869-1.006,7.583-1.509,11.374a5.49,5.49,0,0,0-.812-1.393,2.335,2.335,0,0,0-1.47-.735c-.309,0-.812.619-.928,1.045A7.6,7.6,0,0,0,334.06,242c.232.387,2.089,1.393,2.244,1.664.619,1.238.89,2.36,1.509,3.637.426.851.851,1.741,1.277,2.592a12.477,12.477,0,0,0,10.291,5.881V225.748C349.11,225.864,348.839,226.019,348.568,226.135Z" transform="translate(-332.773 -223.495)" fill="#f8d0a3"/><path d="M392.088,232.9c-.155-.58-.7-1.354-1.122-1.431-.464-.077-1.122.542-1.509,1.006a9.958,9.958,0,0,0-1.045,2.05c-.039-.542-.039-.774-.039-1.006-.426-3.714-.89-7.467-1.277-11.181a1.677,1.677,0,0,0-1.625-1.7,19.881,19.881,0,0,0-3.714-.116,16.567,16.567,0,0,0-5.958,2.205v30.022h.232a12.463,12.463,0,0,0,10.368-5.61,18.917,18.917,0,0,0,2.515-6.616c.039-.271.851-.464,1.045-.658.5-.464,1.238-.851,1.509-1.431A7.635,7.635,0,0,0,392.088,232.9Z" transform="translate(-359.154 -220.476)" fill="#edbda9"/></g><path d="M351.509,345.82l-5.3-31.492L322.88,305.7l-9.827,4.72-8.241-4.72-26.037,7.931L273.9,345.82Z" transform="translate(-273.9 -260.546)" fill="#161d21"/><path d="M363.911,346.065l4.41-38.611-2.553-1.354-10.523,4.527-10.562-4.14-2.283.967,5.068,38.611Z" transform="translate(-315.898 -260.791)" fill="#fff"/><path d="M347.359,304.9l8.744,4.991-4.8,6.848L343.8,306.448Z" transform="translate(-316.757 -260.055)" fill="#e5e1e1"/><path d="M385.1,304.3l-9.4,5.223,4.836,6.538,7.7-10.136Z" transform="translate(-336.315 -259.687)" fill="#e5e1e1"/><g transform="translate(16.868 46.122)"><path d="M403.718,347.475l5.107-12.845-6.693-5.571,8.2-4.72-7.312-14.9L400.2,308.4l-4.8,39.075Z" transform="translate(-365.262 -308.323)" fill-rule="evenodd"/><path d="M319.009,334.2l5.223,13.154h8.279L328.294,308.2l-2.708.851L317.5,323.908l8.2,4.759Z" transform="translate(-317.5 -308.2)" fill-rule="evenodd"/></g><path d="M363.7,352.932h9.169l-2.747-25.457,2.205-4.488L368.3,317.3l-3.908,5.687,2.205,4.527Z" transform="translate(-328.958 -267.658)" fill="#e74c3c"/></g><path d="M464.209,454.293a7.626,7.626,0,0,1-5.223,9.4l-18.3,4.836a7.632,7.632,0,0,1-9.208-5.571h0a7.626,7.626,0,0,1,5.223-9.4l18.3-4.836a7.633,7.633,0,0,1,9.208,5.571Z" transform="translate(-259.483 -268.719)" fill="#eda677"/><path d="M463.5,348.293c1.934,4.1.542,8.86-3.134,10.6l-16.868,7.931c-3.675,1.741-8.241-.193-10.175-4.333h0c-1.934-4.14-.542-8.86,3.134-10.6l16.868-7.97c3.675-1.7,8.241.232,10.175,4.372Z" transform="translate(-260.241 -204.233)" fill="#eda677"/><path d="M351.373,433.119c0,6.848-6.19,12.419-13.812,12.419H297.712c-7.622,0-13.812-5.571-13.812-12.419h0c0-6.848,6.19-12.419,13.812-12.419h39.849c7.622,0,13.812,5.571,13.812,12.419Z" transform="translate(-169.164 -251.685)" fill="#52ba4a"/><g transform="translate(150.708 187.253)"><path d="M456.274,474.248c-4.256,2.631-6.538,6.693-5.068,9.092l.735,1.238-1.9,1.161-.116-.193-2.205-3.559-.5-.812c-1.47-2.4-6.113-2.205-10.407.426-4.256,2.631-6.538,6.693-5.068,9.092l.5.812,2.205,3.559.116.193-1.9,1.161-2.167-3.521-2.205-3.6-1.78-2.9c-1.47-2.4-6.151-2.205-10.407.426s-6.538,6.693-5.068,9.092l1.78,2.9,2.205,3.6,2.167,3.521-1.9,1.161-9.9-16.133h0c-.077-.116-.155-.271-.232-.387l-11.723-19c-2.4-3.869-7.776-4.913-12.032-2.283s-5.8,7.892-3.4,11.761l11.723,19a2.126,2.126,0,0,0,.271.348h-.039l28.746,46.7-2.476,1.548-7.583-12.3a9.761,9.761,0,0,0-16.636,10.214l17.448,24.606s5.03,5.029,8.589,5.146l26.85,7.544c3.056,5.03,7,11.607,11.22,18.609l53.893-29.635c-9.595-15.591-17.951-29.326-17.951-29.326.232-2.553,1.045-14.508.735-18.416-.387-4.836-8.511-21.743-17.371-36.522l-2.4-4.449-2.476-4.062-.7-1.161-1.741-2.824-1.393-2.283C465.173,471.424,460.53,471.617,456.274,474.248Z" transform="translate(-376.877 -467.842)" fill="#eda677"/><g transform="translate(56.494 82.39)"><path d="M658.581,767.153,605.539,680.8,522.9,731.6l21.859,35.555Z" transform="translate(-522.9 -680.8)" fill="#fff"/><path d="M706.709,727.824a4.423,4.423,0,1,0-6.035-1.78A4.438,4.438,0,0,0,706.709,727.824Z" transform="translate(-631.576 -704.533)" fill="#0e2a30"/><path d="M673.617,793.517,630.789,723.8,539.6,779.821l8.434,13.7Z" transform="translate(-533.139 -707.164)" fill="#1b384c"/></g></g><path d="M353.577,279.093a1.592,1.592,0,0,0-1.431.89c-9.13-1.664-9.943-7.351-9.943-7.583h0a.614.614,0,0,0-.5.658c0,.193-.116,6.422,10.407,8.279a1.618,1.618,0,0,0,1.509,1.006,1.635,1.635,0,0,0,1.625-1.625A1.723,1.723,0,0,0,353.577,279.093Z" transform="translate(-204.602 -160.76)" fill="#2d2d2d"/><g transform="translate(121.932 177.333)"><path d="M304.357,447.181v3.1H302.5V442.5h5.184v1.431h-3.327v1.78h3.018v1.431h-3.018Z" transform="translate(-302.5 -442.384)" fill="#dddbdb"/><path d="M319.757,447.529v2.747H317.9V442.5h3.056a3.357,3.357,0,0,1,2.167.619,2.122,2.122,0,0,1,.774,1.741,2.8,2.8,0,0,1-.31,1.354,2.126,2.126,0,0,1-1.045.851l1.625,3.134v.077h-2.012L320.8,447.53h-1.045Zm1.2-1.431a1.09,1.09,0,0,0,.812-.271,1.054,1.054,0,0,0,.271-.774,1,1,0,0,0-.271-.774,1.09,1.09,0,0,0-.812-.271h-1.2v2.128h1.2Z" transform="translate(-311.942 -442.384)" fill="#dddbdb"/><path d="M338.157,446.988v1.857h3.482v1.432H336.3V442.5h5.339v1.431h-3.482v1.625h2.94v1.393h-2.94Z" transform="translate(-323.223 -442.384)" fill="#dddbdb"/><path d="M353.957,446.988v1.857h3.482v1.432H352.1V442.5h5.339v1.431h-3.482v1.625h2.94v1.393h-2.94Z" transform="translate(-332.911 -442.384)" fill="#dddbdb"/><path d="M380.374,448.893a2.732,2.732,0,0,1-1.122.967,3.76,3.76,0,0,1-1.664.348,3.065,3.065,0,0,1-2.4-1.006,4.117,4.117,0,0,1-.89-2.824v-.387a4.67,4.67,0,0,1,.387-2.012,2.969,2.969,0,0,1,1.161-1.315,3.254,3.254,0,0,1,1.741-.464,3.374,3.374,0,0,1,2.283.735,2.875,2.875,0,0,1,.967,2.051h-1.857a1.266,1.266,0,0,0-.348-1.006,1.561,1.561,0,0,0-1.006-.309,1.129,1.129,0,0,0-1.006.5,3.043,3.043,0,0,0-.348,1.664v.542a3.955,3.955,0,0,0,.31,1.78,1.166,1.166,0,0,0,1.083.542,1.156,1.156,0,0,0,1.315-1.277h1.857A3.3,3.3,0,0,1,380.374,448.893Z" transform="translate(-346.522 -442.2)" fill="#dddbdb"/><path d="M394.276,448.845l-.464,1.432H391.8l2.863-7.776H396.4l2.863,7.776h-1.973l-.464-1.432Zm2.089-1.47-.851-2.708-.812,2.708Z" transform="translate(-357.251 -442.384)" fill="#dddbdb"/><path d="M417.746,448.845v1.432H412.6V442.5h1.857v6.306h3.289Z" transform="translate(-370.004 -442.384)" fill="#dddbdb"/><path d="M432.946,448.845v1.432H427.8V442.5h1.857v6.306h3.289Z" transform="translate(-379.323 -442.384)" fill="#dddbdb"/></g><path d="M462.894,408.283c1.045,4.294-1.315,8.589-5.339,9.556l-18.377,4.526c-3.985,1.006-8.125-1.7-9.169-6h0c-1.045-4.294,1.315-8.589,5.339-9.556l18.377-4.527a7.759,7.759,0,0,1,9.169,6Z" transform="translate(-258.593 -240.274)" fill="#eda677"/></svg>