<svg xmlns="http://www.w3.org/2000/svg" width="338.674" height="359.495" viewBox="0 0 338.674 359.495"><g transform="translate(-15458.165 -5212.397)"><g transform="translate(15458.165 5212.397)"><circle cx="119.741" cy="119.741" r="119.741" transform="translate(0 169.337) rotate(-45)" fill="#fff"/><g transform="translate(7.184 7.178)"><g transform="translate(0 0)"><path d="M4.719,164.089A160.827,160.827,0,0,1,179.919,1.835L181.072.771C178.013.5,174.954.283,171.9.15A162.224,162.224,0,0,0,3.655,155.977c-.133,3.1-.133,6.162-.089,9.221Z" transform="translate(-3.54 -0.03)" fill="#fff"/><path d="M607.971,107.471l.887-.8A164.1,164.1,0,0,0,549.187,47.8l-.887.842a160.81,160.81,0,0,1,59.671,58.828Z" transform="translate(-306.797 -26.623)" fill="#fff"/><path d="M344.822,319.22A161.077,161.077,0,0,1,294.55,457.446c-65.124,60.336-167.22,56.435-227.6-8.689a159.842,159.842,0,0,1-27.663-41.1l-.887.842a163.151,163.151,0,0,0,27.752,41.007,162.173,162.173,0,0,0,281.02-104.047A163.86,163.86,0,0,0,345.93,318.2Z" transform="translate(-22.946 -177.149)" fill="#fff"/></g><g transform="translate(27.617 27.573)"><path d="M103.741,132.658a134.2,134.2,0,0,1,18.132-25.446C170.239,53.747,252.386,48.649,307,94.887l.709-.8A134.665,134.665,0,0,0,102.5,132.614h1.241Z" transform="translate(-86.246 -62.227)" fill="#fff"/><path d="M67.195,348.4H66.042A141.04,141.04,0,0,0,66,362.764a133.415,133.415,0,0,0,40.785,89.994l.709-.8A133.308,133.308,0,0,1,67.195,348.4Z" transform="translate(-65.837 -221.534)" fill="#fff"/><path d="M629.8,211.859c-1.374-2.483-2.793-4.921-4.3-7.359l-.8.842c1.33,2.128,2.571,4.3,3.768,6.472h1.33Z" transform="translate(-376.945 -141.427)" fill="#fff"/><path d="M428.418,348.4h-1.153A132.958,132.958,0,0,1,393,445.709c-40.874,45.174-105.865,55.814-158,30.057l-.8.842A134.608,134.608,0,0,0,428.462,349.42,8.185,8.185,0,0,0,428.418,348.4Z" transform="translate(-159.561 -221.534)" fill="#fff"/></g><g transform="translate(18.735 17.365)"><path d="M491.7,662.891c1.951-.842,3.946-1.685,5.852-2.615l-.443-.975c-1.906.887-3.857,1.773-5.807,2.571Z" transform="translate(-293.801 -384.398)" fill="#fff"/><path d="M104.742,559.6l-.842.621c1.286,1.685,2.616,3.414,3.946,5.054l.842-.665C107.358,562.969,106.028,561.285,104.742,559.6Z" transform="translate(-78.143 -328.897)" fill="#fff"/><path d="M88.687,535.9l-.887.576c1.108,1.818,2.261,3.591,3.458,5.364l.887-.576C90.948,539.491,89.795,537.673,88.687,535.9Z" transform="translate(-69.181 -315.704)" fill="#fff"/><path d="M53.62,457.5l-1.02.31c.621,2.039,1.241,4.079,1.951,6.118l1.02-.355C54.861,461.579,54.24,459.539,53.62,457.5Z" transform="translate(-49.585 -272.06)" fill="#fff"/><path d="M143.109,602.3l-.709.8c1.552,1.463,3.148,2.882,4.743,4.3l.709-.8C146.213,605.137,144.617,603.719,143.109,602.3Z" transform="translate(-99.575 -352.667)" fill="#fff"/><path d="M74.675,510.8l-.975.488c.931,1.906,1.951,3.813,2.97,5.674l.931-.532C76.582,514.612,75.606,512.706,74.675,510.8Z" transform="translate(-61.331 -301.731)" fill="#fff"/><path d="M62.975,484.6,62,485c.8,1.995,1.6,3.99,2.483,5.9l.975-.443C64.571,488.545,63.729,486.595,62.975,484.6Z" transform="translate(-54.818 -287.146)" fill="#fff"/><path d="M464.71,673.5c2.039-.621,4.079-1.33,6.074-2.084l-.355-1.02c-1.995.709-3.99,1.418-6.029,2.039Z" transform="translate(-278.826 -390.577)" fill="#fff"/><path d="M408.4,686.275l.133,1.064c2.128-.266,4.256-.621,6.34-.975L414.7,685.3C412.612,685.655,410.484,686.009,408.4,686.275Z" transform="translate(-247.652 -398.872)" fill="#fff"/><path d="M436.6,680.607l.222,1.02c2.083-.443,4.167-.975,6.206-1.507l-.266-1.02C440.767,679.632,438.684,680.164,436.6,680.607Z" transform="translate(-263.351 -395.42)" fill="#fff"/><path d="M164.865,621l-.665.842c1.685,1.33,3.414,2.615,5.143,3.857l.621-.887C168.234,623.571,166.55,622.286,164.865,621Z" transform="translate(-111.711 -363.077)" fill="#fff"/><path d="M188.276,637.7l-.576.887c1.773,1.152,3.635,2.3,5.453,3.369l.532-.931C191.867,639.961,190.05,638.853,188.276,637.7Z" transform="translate(-124.793 -372.374)" fill="#fff"/><path d="M243.089,666.3l-3.99-1.6-.4.975c1.507.621,3.015,1.241,4.566,1.817Z" transform="translate(-153.184 -387.404)" fill="#fff"/><path d="M213.188,652.3l-.488.931c1.862,1.02,3.813,1.995,5.719,2.882l.443-.975C216.956,654.251,215.05,653.275,213.188,652.3Z" transform="translate(-138.71 -380.501)" fill="#fff"/><path d="M123,581.7l-.8.709c1.419,1.6,2.882,3.148,4.389,4.7l.754-.754C125.835,584.847,124.372,583.3,123,581.7Z" transform="translate(-88.33 -341.199)" fill="#fff"/><path d="M109.488,159.265l-.842-.665c-1.374,1.64-2.7,3.325-3.946,5.054l.842.621C106.828,162.59,108.114,160.905,109.488,159.265Z" transform="translate(-78.588 -105.668)" fill="#fff"/><path d="M147.988,117.4c-1.6,1.374-3.236,2.793-4.788,4.256l.709.8c1.552-1.463,3.148-2.882,4.744-4.256Z" transform="translate(-100.021 -82.732)" fill="#fff"/><path d="M127.389,137.1c-1.463,1.507-2.97,3.1-4.389,4.655l.8.709c1.419-1.552,2.882-3.148,4.345-4.655Z" transform="translate(-88.776 -93.699)" fill="#fff"/><path d="M169.412,101.1c-1.419,1.02-2.837,2.084-4.212,3.148l.665.842c1.2-.931,2.483-1.862,3.724-2.793Z" transform="translate(-112.268 -73.659)" fill="#fff"/><path d="M301.952,45.364l-.177-1.064c-1.906.355-3.813.709-5.674,1.108l.133,1.064C298.095,46.073,300.046,45.674,301.952,45.364Z" transform="translate(-185.137 -42.039)" fill="#fff"/><path d="M379.9,689.5l.133,1.064q3.125-.133,6.251-.4L386.2,689.1C384.111,689.277,381.984,689.41,379.9,689.5Z" transform="translate(-231.787 -400.987)" fill="#fff"/><path d="M91.9,181.7c-1.2,1.773-2.394,3.547-3.5,5.364l.887.576c1.108-1.773,2.261-3.591,3.458-5.32Z" transform="translate(-69.515 -118.527)" fill="#fff"/><path d="M77.215,206.3c-1.02,1.862-2.039,3.768-3.015,5.674l.931.488c.931-1.906,1.951-3.768,2.97-5.63Z" transform="translate(-61.61 -132.221)" fill="#fff"/><path d="M47.219,286.8c-.532,2.084-.975,4.167-1.419,6.251l1.064.222c.4-2.084.887-4.167,1.419-6.206Z" transform="translate(-45.8 -177.034)" fill="#fff"/><path d="M64.883,232.1c-.887,1.951-1.729,3.946-2.483,5.9l.975.4c.8-1.951,1.6-3.946,2.483-5.852Z" transform="translate(-55.041 -146.584)" fill="#fff"/><path d="M54.851,259c-.709,1.995-1.374,4.079-1.951,6.118l1.02.31c.621-2.039,1.241-4.079,1.951-6.073Z" transform="translate(-49.752 -161.558)" fill="#fff"/><path d="M677.92,451.372c.621-2.039,1.2-4.123,1.685-6.206l-1.02-.266c-.532,2.039-1.064,4.123-1.685,6.162Z" transform="translate(-397.121 -265.045)" fill="#fff"/><path d="M659.2,226.551l.975-.443c-.842-1.951-1.773-3.9-2.7-5.807l-.975.488C657.431,222.694,658.318,224.6,659.2,226.551Z" transform="translate(-385.765 -140.015)" fill="#fff"/><path d="M612.523,154.341l.842-.665c-1.33-1.64-2.748-3.281-4.167-4.877l-.8.709C609.819,151.105,611.193,152.7,612.523,154.341Z" transform="translate(-358.988 -100.212)" fill="#fff"/><path d="M517.688,650.034c1.862-.975,3.768-2.039,5.586-3.1l-.532-.931c-1.818,1.064-3.68,2.084-5.542,3.059Z" transform="translate(-308.219 -376.994)" fill="#fff"/><path d="M630.235,177.007l.887-.576c-1.2-1.773-2.438-3.5-3.68-5.231l-.842.621C627.841,173.505,629.038,175.279,630.235,177.007Z" transform="translate(-369.12 -112.682)" fill="#fff"/><path d="M358.984,40.264V39.2c-2.128,0-4.3.044-6.384.133l.044,1.064C354.772,40.308,356.9,40.264,358.984,40.264Z" transform="translate(-216.59 -39.2)" fill="#fff"/><path d="M323.233,42.273l.31-.044c2.084-.266,4.211-.488,6.339-.665l-.089-1.064c-2.128.177-4.256.4-6.384.709l-.31.044Z" transform="translate(-200.168 -39.924)" fill="#fff"/><path d="M387.74,41.007l.089-1.064c-2.128-.177-4.256-.355-6.384-.443l-.044,1.064C383.484,40.7,385.656,40.83,387.74,41.007Z" transform="translate(-232.622 -39.367)" fill="#fff"/><path d="M471.929,58.148l.355-1.02c-2-.754-4.034-1.463-6.073-2.128l-.31,1.02C467.895,56.685,469.934,57.394,471.929,58.148Z" transform="translate(-279.661 -47.996)" fill="#fff"/><path d="M444.362,49.971l.266-1.02c-2.039-.576-4.123-1.108-6.206-1.552l-.222,1.02C440.284,48.907,442.367,49.395,444.362,49.971Z" transform="translate(-264.242 -43.765)" fill="#fff"/><path d="M416.2,44.184l.177-1.064c-2.084-.4-4.211-.709-6.339-1.02l-.133,1.064C412.028,43.474,414.112,43.829,416.2,44.184Z" transform="translate(-248.487 -40.814)" fill="#fff"/><path d="M645.792,201.129l.931-.532c-1.02-1.862-2.128-3.724-3.236-5.5l-.887.576Q644.262,198.336,645.792,201.129Z" transform="translate(-378.027 -125.987)" fill="#fff"/><path d="M607.842,577.541c1.418-1.6,2.837-3.236,4.167-4.876l-.842-.665c-1.33,1.64-2.749,3.236-4.167,4.832Z" transform="translate(-358.209 -335.8)" fill="#fff"/><path d="M626.187,554.907c1.286-1.685,2.527-3.458,3.724-5.187l-.887-.621c-1.2,1.729-2.438,3.5-3.724,5.187Z" transform="translate(-368.396 -323.052)" fill="#fff"/><path d="M642.486,530.829c1.109-1.818,2.217-3.68,3.281-5.5l-.931-.532c-1.02,1.818-2.128,3.68-3.237,5.453Z" transform="translate(-377.47 -309.524)" fill="#fff"/><path d="M542.421,634.978c1.773-1.153,3.546-2.35,5.275-3.591l-.621-.887c-1.729,1.241-3.5,2.438-5.276,3.547Z" transform="translate(-321.914 -368.365)" fill="#fff"/><path d="M656.575,505.407c.975-1.906,1.906-3.857,2.749-5.763l-.975-.443c-.887,1.906-1.773,3.857-2.749,5.763Z" transform="translate(-385.264 -295.273)" fill="#fff"/><path d="M565.865,617.732c1.685-1.286,3.325-2.66,4.965-4.034l-.709-.8c-1.6,1.374-3.281,2.7-4.921,4.034Z" transform="translate(-334.94 -358.568)" fill="#fff"/><path d="M587.754,598.531c1.552-1.463,3.1-2.97,4.566-4.477l-.754-.754c-1.463,1.507-3.015,3.015-4.566,4.433Z" transform="translate(-347.076 -347.657)" fill="#fff"/><path d="M685.208,308.572l1.064-.177c-.31-2.128-.709-4.256-1.108-6.3l-1.064.222C684.543,304.405,684.9,306.489,685.208,308.572Z" transform="translate(-401.129 -185.551)" fill="#fff"/><path d="M668.475,478.784c.8-2,1.552-3.99,2.261-6.029l-1.02-.355c-.709,1.995-1.463,3.99-2.217,5.985Z" transform="translate(-391.888 -280.354)" fill="#fff"/><path d="M670.272,253.084l1.02-.355c-.665-1.995-1.419-4.034-2.217-6.029l-.975.4C668.854,249.05,669.607,251.089,670.272,253.084Z" transform="translate(-392.222 -154.711)" fill="#fff"/><path d="M678.94,280.472l1.02-.266c-.487-2.084-1.064-4.123-1.64-6.206l-1.02.31C677.921,276.35,678.452,278.433,678.94,280.472Z" transform="translate(-397.344 -169.909)" fill="#fff"/><path d="M690.04,337.084c-.133-2.128-.31-4.256-.576-6.384l-1.064.133c.222,2.128.4,4.256.532,6.34Z" transform="translate(-403.523 -201.472)" fill="#fff"/><path d="M684.964,423.273c.443-2.084.8-4.212,1.153-6.3l-1.064-.177c-.31,2.084-.709,4.211-1.153,6.251Z" transform="translate(-401.018 -249.403)" fill="#fff"/><path d="M689.464,394.672c.222-2.128.443-4.256.576-6.384l-1.064-.089c-.133,2.128-.355,4.256-.576,6.339Z" transform="translate(-403.523 -233.482)" fill="#fff"/><path d="M691.364,365.984c.044-2.128.044-4.3,0-6.384l-1.064.044c.044,2.128.044,4.256,0,6.339Z" transform="translate(-404.581 -217.561)" fill="#fff"/></g></g></g><g transform="translate(15533.573 5245.075)"><rect width="93.869" height="55.943" transform="translate(48.438 230.112)" fill="#ffc8a6"/><g transform="translate(96.207 71.083)"><path d="M318.634,130.779a7.478,7.478,0,0,1,1.946.278A13.585,13.585,0,0,0,318.8,130c-.167.278-.334.5-.5.779Z" transform="translate(-237.499 -128.79)" fill="#efbca0"/><path d="M303.5,142.355c0,6.061-.5,11.122,8.508,10.955a11.842,11.842,0,0,0,5.561-1.168c-1.724-11.9-3.225-20.186-3.225-20.186s-.167-.111-.389-.278A7.479,7.479,0,0,0,312,131.4C307.333,131.4,303.5,136.294,303.5,142.355Z" transform="translate(-230.926 -129.412)" fill="#ffdfd5"/><path d="M259.64,150.555a12.386,12.386,0,0,1-5.561,1.168c-9.064.167-8.508-4.894-8.508-10.955s3.837-10.955,8.508-10.955a7.478,7.478,0,0,1,1.946.278c-2.725-1.835-18.907-11.233-22.355,28.75l-.945,50.271H173l25.58,120.45L228,291.637s24.635-45.544,34.144-60.67C268.648,220.456,263.532,176.747,259.64,150.555Z" transform="translate(-173 -127.825)" fill="#ffc8a6"/><path d="M275.709,168.7a12.386,12.386,0,0,1-5.561,1.168,11.275,11.275,0,0,1-5.227-.834c.167,7.34-.334,14.737.334,22.077,1.724,18.3,4.449,32.2,1.112,48.213-3.392,16.46-15.237,39.761-25.414,53-8.786,11.4-19.185,22.577-31.753,30.029l5.394,25.3,29.417-37.926s24.635-45.544,34.144-60.67C284.718,238.6,279.6,194.892,275.709,168.7Z" transform="translate(-189.069 -145.97)" fill="#f9be9d"/></g><rect width="48.269" height="55.943" transform="translate(94.038 230.112)" fill="#f9be9d"/><path d="M34.253,92.337S13.4,71.484,2.945,80.937s8.508,32.254,31.308,43.6Z" transform="translate(0.005 -34.837)" fill="#ffc8a6"/><rect width="104.935" height="8.23" transform="translate(41.209 266.759)" fill="#fff"/><rect width="101.765" height="25.914" transform="translate(43.1 300.903)" fill="#2c3f49"/><g transform="translate(47.159 303.628)"><rect width="3.837" height="20.798" fill="#375968"/><rect width="3.837" height="20.798" transform="translate(8.119)" fill="#375968"/><rect width="3.837" height="20.798" transform="translate(16.238)" fill="#375968"/><rect width="3.837" height="20.798" transform="translate(24.357)" fill="#375968"/><rect width="3.837" height="20.798" transform="translate(32.476)" fill="#375968"/><rect width="3.837" height="20.798" transform="translate(40.595)" fill="#375968"/><rect width="3.837" height="20.798" transform="translate(48.714)" fill="#375968"/><rect width="3.837" height="20.798" transform="translate(56.833)" fill="#375968"/><rect width="3.837" height="20.798" transform="translate(64.952)" fill="#375968"/><rect width="3.837" height="20.798" transform="translate(73.071)" fill="#375968"/><rect width="3.837" height="20.798" transform="translate(81.19)" fill="#375968"/><rect width="3.837" height="20.798" transform="translate(89.309)" fill="#375968"/></g><g transform="translate(34.258 273.71)"><rect width="124.51" height="30.974" fill="#375968"/><path d="M263.26,511.73a8.23,8.23,0,1,1-8.23-8.23A8.212,8.212,0,0,1,263.26,511.73Z" transform="translate(-143.811 -497.216)" fill="#fbf0e3"/></g><ellipse cx="1.557" cy="1.557" rx="1.557" ry="1.557" transform="translate(141.64 284.776)" fill="#375968"/><path d="M265.714,513.657a1.557,1.557,0,1,1-3.114,0,1.557,1.557,0,0,1,3.114,0Z" transform="translate(-116.567 -227.324)" fill="#375968"/><ellipse cx="1.557" cy="1.557" rx="1.557" ry="1.557" transform="translate(141.64 288.891)" fill="#375968"/><path d="M265.714,521.057a1.557,1.557,0,0,1-3.114,0,1.52,1.52,0,0,1,1.557-1.557A1.554,1.554,0,0,1,265.714,521.057Z" transform="translate(-116.567 -230.609)" fill="#375968"/><g transform="translate(33.758)"><ellipse cx="9.676" cy="8.786" rx="9.676" ry="8.786" transform="translate(51.884 208.536)" fill="#1f1f1d"/><path d="M112.584,217.322c0-4.838,4.338-8.786,9.676-8.786v-8.508H69.208L69.375,32.7l55.61.056V19.463h-9.4a2.239,2.239,0,0,1-2.336-2.113,2.239,2.239,0,0,1,2.336-2.113h9.4V.056L82.11,0C70.432,0,60.922,8.619,60.867,19.185L60.7,215.376c0,10.621,9.454,19.241,21.187,19.241l40.317.056v-8.564C116.921,226.108,112.584,222.16,112.584,217.322ZM106.022,15.237a2.239,2.239,0,0,1,2.336,2.113,2.347,2.347,0,0,1-4.671,0A2.2,2.2,0,0,1,106.022,15.237Z" transform="translate(-60.7)" fill="#4b4b4b"/><path d="M211.984.056,174.169,0V15.181h13.958a2.239,2.239,0,0,1,2.336,2.113,2.239,2.239,0,0,1-2.336,2.113H174.169V32.7l50.549.056-.167,167.329-53.051-.056v8.508c5.339,0,9.676,3.948,9.676,8.786s-4.338,8.786-9.676,8.786v8.564l40.317.056c11.734,0,21.243-8.564,21.243-19.241l.167-196.19C233.171,8.731,223.717.111,211.984.056Z" transform="translate(-109.885)" fill="#575554"/><ellipse cx="2.336" cy="2.113" rx="2.336" ry="2.113" transform="translate(42.986 15.237)" fill="#1f1f1d"/><path d="M155.1,29.513a2.239,2.239,0,0,0,2.336,2.113h23.356a2.124,2.124,0,1,0,0-4.226H157.436A2.239,2.239,0,0,0,155.1,29.513Z" transform="translate(-102.605 -12.163)" fill="#1f1f1d"/><path d="M53.053,167.384,0,167.329.111,0,55.721.056,106.27.11,69.192,58.446h.016L106.27.11,106.1,167.44Z" transform="translate(8.508 32.698)" fill="#2a2e3a"/></g><g transform="translate(5.973 133.113)"><path d="M58.04,267.247c4,3.67,3.5,10.733-1.112,15.738h0c-4.616,5-11.622,6.061-15.626,2.391l-27.86-25.692c-4-3.67-3.5-10.733,1.112-15.737h0c4.616-5,11.622-6.061,15.626-2.391Z" transform="translate(-10.737 -239.37)" fill="#ffc8a6"/><path d="M69.508,284.567c4.282,4.282,5.561,9.954,2.836,12.679s-8.4,1.446-12.679-2.836-7.9-7.285-2.836-12.679C61.89,276.392,65.226,280.285,69.508,284.567Z" transform="translate(-30.101 -257.024)" fill="#ffdfd5"/></g><g transform="translate(1.399 174.443)"><path d="M54.333,345.784c4.56,4.226,4.5,11.678-.111,16.683h0c-4.616,5-12.067,5.672-16.627,1.446L5.9,334.606c-4.56-4.226-4.5-11.678.111-16.683h0c4.616-5,12.067-5.672,16.627-1.446Z" transform="translate(-2.512 -313.694)" fill="#ffc8a6"/><path d="M74.208,371.567c4.282,4.282,5.561,9.954,2.836,12.679s-8.4,1.446-12.679-2.836-7.9-7.285-2.836-12.679C66.645,363.392,69.926,367.285,74.208,371.567Z" transform="translate(-27.614 -336.974)" fill="#ffdfd5"/></g><g transform="translate(43.764 77.239)"><circle cx="35.472" cy="35.472" r="35.472" transform="translate(0 50.164) rotate(-45)" fill="#fff"/><g transform="translate(2.128 2.126)"><g transform="translate(0 0)"><path d="M3.89,48.631A47.643,47.643,0,0,1,55.791.565L56.132.25C55.226.171,54.32.105,53.414.066A48.057,48.057,0,0,0,3.574,46.228c-.039.919-.039,1.825-.026,2.732Z" transform="translate(-3.54 -0.03)" fill="#fff"/><path d="M565.977,65.477l.263-.236A48.612,48.612,0,0,0,548.563,47.8l-.263.25a47.638,47.638,0,0,1,17.677,17.427Z" transform="translate(-476.757 -41.526)" fill="#fff"/><path d="M129.175,318.5a47.695,47.695,0,0,1-90.512,26.2l-.263.25A48.333,48.333,0,0,0,46.621,357.1a48.042,48.042,0,0,0,83.249-30.823,48.542,48.542,0,0,0-.368-8.077Z" transform="translate(-33.822 -276.415)" fill="#fff"/></g><g transform="translate(8.181 8.168)"><path d="M102.868,83.091A39.561,39.561,0,0,1,163.082,71.9l.21-.236A39.893,39.893,0,0,0,102.5,83.078h.368Z" transform="translate(-97.685 -62.227)" fill="#fff"/><path d="M66.239,348.4H65.9a41.78,41.78,0,0,0-.013,4.255,39.523,39.523,0,0,0,12.082,26.66l.21-.236A39.491,39.491,0,0,1,66.239,348.4Z" transform="translate(-65.837 -310.817)" fill="#fff"/><path d="M626.21,206.68c-.407-.735-.827-1.458-1.274-2.18l-.236.25c.394.63.762,1.274,1.116,1.917h.394Z" transform="translate(-551.305 -185.815)" fill="#fff"/><path d="M291.735,348.4h-.341a39.514,39.514,0,0,1-56.957,37.731l-.236.25A39.876,39.876,0,0,0,291.748,348.7,2.429,2.429,0,0,0,291.735,348.4Z" transform="translate(-212.089 -310.817)" fill="#fff"/></g><g transform="translate(5.55 5.144)"><path d="M491.418,660.364c.578-.25,1.169-.5,1.734-.775l-.131-.289c-.565.263-1.143.525-1.72.762Z" transform="translate(-432.793 -577.863)" fill="#fff"/><path d="M104.15,559.6l-.25.184c.381.5.775,1.011,1.169,1.5l.25-.2C104.924,560.6,104.53,560.1,104.15,559.6Z" transform="translate(-96.27 -491.256)" fill="#fff"/><path d="M88.063,535.9l-.263.171c.328.539.67,1.064,1.024,1.589l.263-.171C88.732,536.964,88.391,536.425,88.063,535.9Z" transform="translate(-82.284 -470.669)" fill="#fff"/><path d="M52.9,457.5l-.3.092c.184.6.368,1.208.578,1.812l.3-.105C53.27,458.708,53.086,458.1,52.9,457.5Z" transform="translate(-51.707 -402.565)" fill="#fff"/><path d="M142.61,602.3l-.21.236c.46.433.932.854,1.405,1.274l.21-.236C143.529,603.141,143.057,602.72,142.61,602.3Z" transform="translate(-129.714 -528.349)" fill="#fff"/><path d="M73.989,510.8l-.289.144c.276.565.578,1.129.88,1.681l.276-.158C74.554,511.929,74.265,511.365,73.989,510.8Z" transform="translate(-70.036 -448.865)" fill="#fff"/><path d="M62.289,484.6l-.289.118c.236.591.473,1.182.735,1.747l.289-.131C62.762,485.769,62.512,485.191,62.289,484.6Z" transform="translate(-59.872 -426.106)" fill="#fff"/><path d="M464.492,671.319c.6-.184,1.208-.394,1.8-.617l-.105-.3c-.591.21-1.182.42-1.786.6Z" transform="translate(-409.426 -587.505)" fill="#fff"/><path d="M408.4,685.589l.039.315c.63-.079,1.261-.184,1.878-.289l-.053-.315C409.648,685.405,409.017,685.51,408.4,685.589Z" transform="translate(-360.78 -600.448)" fill="#fff"/><path d="M436.6,679.547l.066.3c.617-.131,1.234-.289,1.839-.446l-.079-.3C437.834,679.258,437.217,679.415,436.6,679.547Z" transform="translate(-385.277 -595.063)" fill="#fff"/><path d="M164.4,621l-.2.25c.5.394,1.011.775,1.523,1.143l.184-.263C165.4,621.762,164.9,621.381,164.4,621Z" transform="translate(-148.651 -544.593)" fill="#fff"/><path d="M187.871,637.7l-.171.263c.525.341,1.077.683,1.615,1l.158-.276C188.934,638.37,188.4,638.041,187.871,637.7Z" transform="translate(-169.064 -559.1)" fill="#fff"/><path d="M240,665.173l-1.182-.473-.118.289c.447.184.893.368,1.353.538Z" transform="translate(-213.367 -582.554)" fill="#fff"/><path d="M212.844,652.3l-.144.276c.552.3,1.129.591,1.694.854l.131-.289C213.961,652.878,213.4,652.589,212.844,652.3Z" transform="translate(-190.781 -571.782)" fill="#fff"/><path d="M122.436,581.7l-.236.21c.42.473.854.932,1.3,1.392l.223-.223C123.277,582.632,122.844,582.173,122.436,581.7Z" transform="translate(-112.166 -510.454)" fill="#fff"/><path d="M106.118,158.8l-.25-.2c-.407.486-.8.985-1.169,1.5l.25.184C105.33,159.782,105.711,159.283,106.118,158.8Z" transform="translate(-96.965 -142.919)" fill="#fff"/><path d="M144.618,117.4c-.473.407-.959.827-1.418,1.261l.21.236c.46-.433.932-.854,1.405-1.261Z" transform="translate(-130.409 -107.13)" fill="#fff"/><path d="M124.3,137.1c-.433.447-.88.919-1.3,1.379l.236.21c.42-.46.854-.932,1.287-1.379Z" transform="translate(-112.861 -124.243)" fill="#fff"/><path d="M166.448,101.1c-.42.3-.841.617-1.248.932l.2.25c.355-.276.735-.552,1.1-.827Z" transform="translate(-149.519 -92.971)" fill="#fff"/><path d="M297.834,44.615l-.052-.315c-.565.105-1.129.21-1.681.328l.039.315C296.691,44.825,297.269,44.707,297.834,44.615Z" transform="translate(-263.228 -43.63)" fill="#fff"/><path d="M379.9,689.218l.039.315q.926-.039,1.852-.118l-.026-.315C381.148,689.153,380.517,689.192,379.9,689.218Z" transform="translate(-336.023 -603.749)" fill="#fff"/><path d="M89.438,181.7c-.355.525-.709,1.051-1.038,1.589l.263.171c.328-.525.67-1.064,1.024-1.576Z" transform="translate(-82.805 -162.986)" fill="#fff"/><path d="M75.093,206.3c-.3.552-.6,1.116-.893,1.681l.276.144c.276-.565.578-1.116.88-1.668Z" transform="translate(-70.47 -184.355)" fill="#fff"/><path d="M46.22,286.8c-.158.617-.289,1.234-.42,1.852l.315.066c.118-.617.263-1.234.42-1.839Z" transform="translate(-45.8 -254.283)" fill="#fff"/><path d="M63.135,232.1c-.263.578-.512,1.169-.735,1.747l.289.118c.236-.578.473-1.169.735-1.734Z" transform="translate(-60.22 -206.767)" fill="#fff"/><path d="M53.478,259c-.21.591-.407,1.208-.578,1.812l.3.092c.184-.6.368-1.208.578-1.8Z" transform="translate(-51.968 -230.134)" fill="#fff"/><path d="M677.2,446.817c.184-.6.355-1.221.5-1.839l-.3-.079c-.158.6-.315,1.221-.5,1.826Z" transform="translate(-594.018 -391.62)" fill="#fff"/><path d="M657.3,222.152l.289-.131c-.25-.578-.525-1.156-.8-1.72l-.289.144C656.776,221.009,657.038,221.574,657.3,222.152Z" transform="translate(-576.297 -196.516)" fill="#fff"/><path d="M609.621,150.442l.25-.2c-.394-.486-.814-.972-1.234-1.445l-.236.21C608.82,149.483,609.227,149.956,609.621,150.442Z" transform="translate(-534.514 -134.406)" fill="#fff"/><path d="M517.344,647.2c.552-.289,1.116-.6,1.655-.919l-.158-.276c-.538.315-1.09.617-1.642.906Z" transform="translate(-455.291 -566.31)" fill="#fff"/><path d="M627.677,172.92l.263-.171c-.355-.525-.722-1.037-1.09-1.55l-.25.184C626.968,171.883,627.322,172.408,627.677,172.92Z" transform="translate(-550.324 -153.865)" fill="#fff"/><path d="M354.491,39.515V39.2c-.63,0-1.274.013-1.891.039l.013.315C353.244,39.528,353.874,39.515,354.491,39.515Z" transform="translate(-312.308 -39.2)" fill="#fff"/><path d="M323.139,41.025l.092-.013c.617-.079,1.248-.144,1.878-.2l-.026-.315c-.63.053-1.261.118-1.891.21l-.092.013Z" transform="translate(-286.682 -40.329)" fill="#fff"/><path d="M383.278,39.947l.026-.315c-.63-.053-1.261-.105-1.891-.131l-.013.315C382.017,39.855,382.661,39.894,383.278,39.947Z" transform="translate(-337.326 -39.461)" fill="#fff"/><path d="M467.686,55.932l.105-.3c-.591-.223-1.2-.433-1.8-.63l-.092.3C466.491,55.5,467.1,55.709,467.686,55.932Z" transform="translate(-410.729 -52.925)" fill="#fff"/><path d="M440.025,48.162l.079-.3c-.6-.171-1.221-.328-1.839-.46l-.066.3C438.817,47.847,439.435,47.991,440.025,48.162Z" transform="translate(-386.667 -46.323)" fill="#fff"/><path d="M411.765,42.717l.053-.315c-.617-.118-1.248-.21-1.878-.3l-.039.315C410.53,42.507,411.148,42.612,411.765,42.717Z" transform="translate(-362.083 -41.719)" fill="#fff"/><path d="M643.546,196.886l.276-.158c-.3-.552-.63-1.1-.959-1.628l-.263.171Q643.092,196.059,643.546,196.886Z" transform="translate(-564.223 -174.626)" fill="#fff"/><path d="M607.25,573.642c.42-.473.841-.959,1.234-1.445l-.249-.2c-.394.486-.814.959-1.235,1.431Z" transform="translate(-533.298 -502.028)" fill="#fff"/><path d="M625.563,550.82c.381-.5.749-1.024,1.1-1.537l-.263-.184c-.355.512-.722,1.038-1.1,1.537Z" transform="translate(-549.195 -482.135)" fill="#fff"/><path d="M641.863,526.586c.328-.538.657-1.09.972-1.628l-.276-.158c-.3.538-.63,1.09-.959,1.615Z" transform="translate(-563.354 -461.027)" fill="#fff"/><path d="M541.984,631.826c.525-.341,1.051-.7,1.563-1.064l-.184-.263c-.512.368-1.038.722-1.563,1.051Z" transform="translate(-476.661 -552.845)" fill="#fff"/><path d="M655.889,501.039c.289-.565.565-1.143.814-1.707l-.289-.131c-.263.565-.525,1.143-.814,1.707Z" transform="translate(-575.516 -438.789)" fill="#fff"/><path d="M565.4,614.331c.5-.381.985-.788,1.471-1.2l-.21-.236c-.473.407-.972.8-1.458,1.2Z" transform="translate(-496.988 -537.557)" fill="#fff"/><path d="M587.223,594.85c.46-.433.919-.88,1.353-1.326l-.223-.223c-.433.447-.893.893-1.353,1.313Z" transform="translate(-515.925 -520.531)" fill="#fff"/><path d="M684.428,304.017l.315-.053c-.092-.63-.21-1.261-.328-1.865l-.315.066C684.231,302.783,684.336,303.4,684.428,304.017Z" transform="translate(-600.273 -267.574)" fill="#fff"/><path d="M667.789,474.291c.236-.591.46-1.182.67-1.786l-.3-.105c-.21.591-.433,1.182-.657,1.773Z" transform="translate(-585.853 -415.508)" fill="#fff"/><path d="M668.743,248.591l.3-.105c-.2-.591-.42-1.2-.657-1.786l-.289.118C668.323,247.4,668.547,248,668.743,248.591Z" transform="translate(-586.374 -219.449)" fill="#fff"/><path d="M677.786,275.917l.3-.079c-.144-.617-.315-1.221-.486-1.839l-.3.092C677.484,274.7,677.641,275.313,677.786,275.917Z" transform="translate(-594.366 -243.164)" fill="#fff"/><path d="M688.886,332.591c-.039-.63-.092-1.261-.171-1.891l-.315.039c.066.63.118,1.261.158,1.878Z" transform="translate(-604.008 -292.418)" fill="#fff"/><path d="M684.215,418.717c.131-.617.236-1.248.341-1.865l-.315-.053c-.092.617-.21,1.248-.341,1.852Z" transform="translate(-600.099 -367.21)" fill="#fff"/><path d="M688.715,390.117c.066-.63.131-1.261.171-1.891l-.315-.026c-.039.63-.1,1.261-.171,1.878Z" transform="translate(-604.008 -342.366)" fill="#fff"/><path d="M690.615,361.491c.013-.63.013-1.274,0-1.891l-.315.013c.013.63.013,1.261,0,1.878Z" transform="translate(-605.658 -317.522)" fill="#fff"/></g></g></g><g transform="translate(10.799 91.153)"><path d="M64.339,189.71c3.726,3.448,3,10.288-1.613,15.293h0c-4.616,5-11.344,6.284-15.07,2.836L21.8,183.982c-3.726-3.448-3-10.288,1.613-15.293h0c4.616-5,11.344-6.284,15.07-2.836Z" transform="translate(-19.415 -163.915)" fill="#ffc8a6"/><path d="M76.308,206.077c4.282,4.282,5.561,9.954,2.836,12.679s-8.4,1.446-12.679-2.836-7.9-7.285-2.836-12.679C68.69,197.9,72.026,201.851,76.308,206.077Z" transform="translate(-37.946 -180.227)" fill="#ffdfd5"/></g></g><g transform="translate(15603.403 5293.26)" opacity="0.95"><path d="M10.1.067A.567.567,0,0,0,9.832,0,.356.356,0,0,0,9.52.179L.326,9.372a.9.9,0,0,0,0,1.25l5.891,5.891a.768.768,0,0,0,1.071,0l6.248-6.248V3.5Zm1.116,5.49a1,1,0,1,1,1-1A1,1,0,0,1,11.216,5.556Z" transform="translate(-0.075)" fill="#fff"/><path d="M62.5,17.4v5.958l2.611-2.611a.5.5,0,0,0,0-.714Z" transform="translate(-48.57 -13.517)" fill="#ffcc4d"/><g transform="translate(2.435 6.507)"><path d="M13.132,39.593l-1.406,1.272a.184.184,0,0,1-.268-.022l-.424-.469a.184.184,0,0,1,.022-.268l1.406-1.272a.184.184,0,0,1,.268.022l.424.469A.182.182,0,0,1,13.132,39.593Z" transform="translate(-10.986 -36.638)" fill="#ffcc4d"/><path d="M17.532,43.993l-1.406,1.272a.184.184,0,0,1-.268-.022l-.424-.469a.184.184,0,0,1,.022-.268l1.406-1.272a.184.184,0,0,1,.268.022l.424.469A.182.182,0,0,1,17.532,43.993Z" transform="translate(-14.404 -40.057)" fill="#ffcc4d"/><path d="M21.632,48.093l-1.406,1.272a.184.184,0,0,1-.268-.022l-.424-.469a.184.184,0,0,1,.022-.268l1.406-1.272a.184.184,0,0,1,.268.022l.424.469A.182.182,0,0,1,21.632,48.093Z" transform="translate(-17.589 -43.242)" fill="#ffcc4d"/><path d="M21.415,29.26l-1.607,1.607a.31.31,0,0,0,0,.424l2.12,2.12a.781.781,0,0,1,0,1.116L20.9,35.552a.365.365,0,0,0,0,.536l.4.4a.324.324,0,0,0,.469,0l3.213-3.213a.606.606,0,0,0,0-.87l-3.146-3.124A.261.261,0,0,0,21.415,29.26Z" transform="translate(-17.775 -29.162)" fill="#ffcc4d"/></g><path d="M81.167,17.538c.156.112.29.089.4.223a.416.416,0,0,1,.112.223l.4,4.552a10.557,10.557,0,0,1-2.41,1.651,6.944,6.944,0,0,0-1.5.893c-.893.759-.915,1.272-.893,1.473a.6.6,0,0,0,.045.245,3.689,3.689,0,0,0,.96-.2,3.594,3.594,0,0,0,1.384-.893c.826-.647,1.629-1.294,2.455-1.941a2.5,2.5,0,0,0,.424,1.049,2.049,2.049,0,0,0,.58.58c.6.357,1.7.022,2.656-.826a3.188,3.188,0,0,1-1.138-1.808,2.689,2.689,0,0,1-.022-.937c1.406-1.361,2.834-2.722,4.24-4.061l-.067-.335a2.7,2.7,0,0,0-2.232.915c-.736.781-1.5,1.562-2.232,2.343-.089-.937-.179-1.852-.268-2.789a1.31,1.31,0,0,0-.669-.781,1.206,1.206,0,0,0-.625-.022,15.2,15.2,0,0,1-1.741.2A.28.28,0,0,0,81.167,17.538Z" transform="translate(-60.051 -13.254)" fill="#fff"/><path d="M119.567,17.538c.156.112.29.089.4.223a.416.416,0,0,1,.112.223l.4,4.552a10.557,10.557,0,0,1-2.41,1.651,6.944,6.944,0,0,0-1.5.893c-.893.759-.915,1.272-.893,1.473a.6.6,0,0,0,.045.245,3.689,3.689,0,0,0,.96-.2,3.594,3.594,0,0,0,1.384-.893c.826-.647,1.629-1.294,2.455-1.941a2.5,2.5,0,0,0,.424,1.049,2.049,2.049,0,0,0,.58.58c.6.357,1.7.022,2.656-.826a3.188,3.188,0,0,1-1.138-1.808,2.689,2.689,0,0,1-.022-.937c1.406-1.361,2.834-2.722,4.24-4.061l-.067-.335a2.7,2.7,0,0,0-2.232.915c-.736.781-1.5,1.562-2.232,2.343-.089-.937-.179-1.852-.268-2.789a1.31,1.31,0,0,0-.669-.781,1.206,1.206,0,0,0-.625-.022,15.2,15.2,0,0,1-1.741.2A.28.28,0,0,0,119.567,17.538Z" transform="translate(-89.882 -13.254)" fill="#fff"/><g transform="translate(35.559 6.337)"><path d="M196.621,30.023c-.446.96-.625,1.986-.982,2.99a8.514,8.514,0,0,1-.29.8.52.52,0,0,1-.625.312c-.335-.112-.268-.4-.2-.647a5.868,5.868,0,0,0,.424-2.254c-.424.759-.848,1.54-1.294,2.3-.268.469-.6.848-1.227.558a5.974,5.974,0,0,1-.112-1.785l.022-1.138v-.045h0v-.045l-.045.134a2.665,2.665,0,0,1-.245.58c-.2.6-.446,1.205-.647,1.808-.112.312-.312.625-.692.558-.446-.089-.312-.491-.223-.8.357-1.25.759-2.522,1.138-3.771.2-.692.692-.759,1.272-.714.736.067.469.625.491,1.026.022.692,0,1.384,0,2.3.491-.87.96-1.517,1.272-2.232a1.863,1.863,0,0,1,.848-.982.965.965,0,0,1,1,.067A.682.682,0,0,1,196.621,30.023Z" transform="translate(-183.483 -28.75)" fill="#ffcc4d"/><path d="M161.183,33.855c-.826-.067-1.562-.2-1.741-1.116a.733.733,0,0,1,.446-.87c.446-.179.558.156.625.491a.7.7,0,0,0,.8.647,1.24,1.24,0,0,0,1.205-.625c.2-.379,0-.625-.335-.736-.357-.134-.736-.223-1.093-.357a1.107,1.107,0,0,1-.58-1.83,2.782,2.782,0,0,1,3.1-.87.93.93,0,0,1,.58,1.093.642.642,0,0,1-.513.513c-.268.067-.4-.156-.469-.379a.8.8,0,0,0-1.116-.58c-.335.112-.714.245-.714.669,0,.379.379.469.692.558a.134.134,0,0,1,.089.022c.692.245,1.607.29,1.607,1.339a2.337,2.337,0,0,1-1.808,1.919C161.719,33.788,161.428,33.811,161.183,33.855Z" transform="translate(-159.426 -28.41)" fill="#ffcc4d"/><path d="M181.478,33.819c-.357-.067-.513-.268-.4-.6.424-1.428.848-2.879,1.317-4.307a.62.62,0,0,1,.826-.469c.424.179.223.536.134.826l-1.138,3.749A.951.951,0,0,1,181.478,33.819Z" transform="translate(-176.217 -28.396)" fill="#ffcc4d"/></g></g><g transform="translate(15615.269 5361.022)"><path d="M3.222,9H0v7.733l2.291-2.1A12.375,12.375,0,0,0,24.65,9H21.524A9.281,9.281,0,0,1,4.593,12.512L8.415,9Z" transform="translate(0 4.92)" fill="#ffd000"/><path d="M12.339,0A12.375,12.375,0,0,0,.062,10.826H3.188A9.282,9.282,0,0,1,20.264,7.541l-3.285,3.285h7.733V3.093L22.5,5.308A12.355,12.355,0,0,0,12.339,0Z" transform="translate(0.034)" fill="#ffd000"/></g></g></svg>