<svg xmlns="http://www.w3.org/2000/svg" xmlns:xlink="http://www.w3.org/1999/xlink" width="396.719" height="334.689" viewBox="0 0 396.719 334.689"><defs><clipPath id="a"><path d="M998.2,302.4V518.84h139.969V302.4Z" transform="translate(-998.2 -302.4)"/></clipPath><clipPath id="b"><path d="M1664.8,1170.6l2.783,35.1h16.669l2.774-35.1Z" transform="translate(-1664.8 -1170.6)"/></clipPath><clipPath id="c"><path d="M1651.1,1191.2h-20.283c-9.812,0-1.87,9.785,9.089,10.535.262.027.967.045,1.057.045s.8-.018,1.057-.045c10.95-.75,18.892-10.535,9.08-10.535Z" transform="translate(-1626.363 -1191.2)"/></clipPath></defs><g transform="translate(-15563.765 -5163.416)"><g transform="translate(15674.27 5163.416)" opacity="0.34"><path d="M1605.835,2209.451c-9.321-9.2-21-9.2-30.327,0-7.086,7.086-14.169,14.046-21.132,21.256-1.864,1.985-3.48,2.359-5.841,1.118-4.6-2.485-9.446-4.477-13.923-7.209-20.633-12.926-37.784-29.584-53.075-48.354-7.582-9.323-14.294-19.265-19.017-30.452-.995-2.237-.747-3.73,1.119-5.592,7.086-6.836,14.046-13.921,21-21.007,9.7-9.821,9.7-21.257,0-31.074-5.593-5.6-11.062-11.064-16.655-16.657-5.718-5.717-11.435-11.56-17.153-17.152-9.323-9.075-21.131-9.075-30.329.124-7.208,7.086-14.046,14.295-21.254,21.132a34.1,34.1,0,0,0-10.814,23.365c-1.119,14.792,2.485,28.838,7.705,42.509,10.443,28.342,26.476,53.448,45.866,76.446a282.848,282.848,0,0,0,94.094,73.581c16.532,7.957,33.56,14.171,52.08,15.166,12.8.746,23.865-2.484,32.692-12.428,6.089-6.838,12.926-13.052,19.39-19.516,9.569-9.7,9.569-21.38.123-30.948-11.808-11.687-23.119-23-34.556-34.308Z" transform="translate(-1388.235 -2019.774)" fill="#fff"/><path d="M1566.735,2156.07l22-3.728a98.719,98.719,0,0,0-83.529-81.044l-3.107,22.128a76.111,76.111,0,0,1,43.379,21.624,74.563,74.563,0,0,1,21.256,41.019Z" transform="translate(-1360.569 -2013.998)" fill="#fff"/><path d="M1600.606,2071.563a161.728,161.728,0,0,0-93.1-46.364l-3.107,22.126a141.7,141.7,0,0,1,119.822,116.218l22-3.73a162.942,162.942,0,0,0-45.618-88.25Z" transform="translate(-1360.01 -2025.199)" fill="#fff"/></g><g transform="translate(15563.765 5163.518)"><path d="M1609.271,1259.376s4.789,17.085-22.524,23.771l-77.583,18.991s-8.511,2.087-10.878-6.352l-2.421-8.646s-4.78-17.085,22.524-23.771l68.982-16.886s17.112-4.192,21.865,12.775l.036.117Z" transform="translate(-1360.422 -1133.449)" fill="#ddab89"/><path d="M1580.484,1839.186s1.672,16.941-25.244,18.711l-76.49,5.023s-8.384.551-9.207-7.815l-.849-8.583s-1.671-16.94,25.244-18.711l68.015-4.463s16.859-1.111,18.521,15.7l.009.135Z" transform="translate(-1335.981 -1658.598)" fill="#ddab89"/><path d="M1486.863,2291.611s1.762,17.835-26.572,19.7l-80.51,5.285s-8.836.578-9.7-8.231l-.894-9.026s-1.762-17.835,26.572-19.7l71.584-4.7s17.763-1.166,19.506,16.543l.018.127Z" transform="translate(-1245.459 -2069.39)" fill="#ddab89"/><path d="M1262.967,2803.319s-1.5,15.983-26.734,12.775l-71.755-9.125s-7.8-.994-7.065-8.818l.768-8.159s1.5-15.983,26.734-12.775l63.786,8.1s15.775,2.006,14.293,17.835l-.027.163Z" transform="translate(-1052.797 -2525.913)" fill="#ddab89"/><g transform="translate(90.187 27.32)"><path d="M998.2,302.4V518.84h139.969V302.4Z" transform="translate(-998.2 -302.4)" fill="#ededed"/><g clip-path="url(#a)"><path d="M1093.9,302.3V518.749h122.676V302.3Z" transform="translate(-1085.254 -302.309)" fill="#fff"/></g></g><path d="M1137.66,27.539V21.5s0-21.44-26.752-21.44h-86.446S997.709-1.951,997.709,21.5v6.035ZM997.7,243.98v18.232s0,16.127,26.752,16.127H1110.9s26.752,1.22,26.752-22.2v-12.17H997.7Z" transform="translate(-907.559 -0.021)" fill="#254553"/><path d="M1647.9,139.4v3.921h31.216V139.4Z" transform="translate(-1499.014 -126.807)" fill="#ededed"/><path d="M1552.6,139.4v3.921h5.2V139.4Z" transform="translate(-1412.324 -126.807)" fill="#ededed"/><path d="M138.478,1929.915s54.237-43.015,27.213-64.834c-16.579-13.39-26.861,13.173-42.573,20.13C97.8,1896.4,90.141,1904.6,90.141,1904.6V1815c-3.948,1.111-21.512,9.523-28.27,19.289S20.2,1940.423,18.1,1946.91c-1,3.1-14.51,34.233-18.1,38.7H109.8c8.71-7.417,22.642-24.837,28.677-55.691Z" transform="translate(0 -1651.018)" fill="#e8ba9c"/><path d="M1516.618,2368.5s-11.736-6.921-6.333-14.176c0,0,12-17.681,22.253-8.556,1.274,1.138,10.083,7.056,3.262,16.8l-2.286,3.261s-6.821,9.74-16.552,2.918l-.343-.244Z" transform="translate(-1372.539 -2131.45)" fill="#efcfb9"/><path d="M1318.914,1974.428a18.314,18.314,0,1,0-18.314-18.314,18.314,18.314,0,0,0,18.314,18.314Z" transform="translate(-1183.092 -1762.723)" fill="#a2c73b"/><path d="M1857.414,1974.428a18.314,18.314,0,1,0-18.314-18.314,18.314,18.314,0,0,0,18.314,18.314Z" transform="translate(-1672.939 -1762.723)" fill="#e25e62"/><path d="M1285.673,728.445a49.873,49.873,0,1,1,49.873-49.873,49.874,49.874,0,0,1-49.873,49.873Z" transform="translate(-1124.146 -571.899)" fill="#ededed"/><path d="M1494.109,974.615c2.25-.913,2.873-4.635,1.382-8.321s-4.526-5.945-6.776-5.032-2.873,4.635-1.382,8.321,4.526,5.945,6.776,5.032Z" transform="translate(-1352.216 -874.23)" fill="#eaa182"/><path d="M1983.015,974.615c-2.25-.913-2.873-4.635-1.382-8.321s4.526-5.945,6.776-5.032,2.873,4.635,1.382,8.321-4.517,5.945-6.776,5.032Z" transform="translate(-1801.856 -874.23)" fill="#eaa182"/><g transform="translate(150.413 105.761)"><path d="M1664.8,1170.6l2.783,35.1h16.669l2.774-35.1Z" transform="translate(-1664.8 -1170.6)" fill="#fabf97"/><g clip-path="url(#b)"><path d="M1500.092,586.791c13.3,0,27.782-19.868,27.782-42.536s8.15-41.055-27.782-41.055-27.782,18.377-27.782,41.055,14.483,42.536,27.782,42.536Z" transform="translate(-1488.979 -563.499)" fill="#eaa182"/></g></g><path d="M1559.934,728.084c4.265,0,15.947-5.538,20.311-11.447,2.972-4.03,1.617-6.632,1.617-13.986,0-18.142,6.812-40.251-21.928-40.251s-21.928,22.117-21.928,40.251c0,7.481-1.292,10,1.771,14.04,4.364,5.764,15.892,11.393,20.157,11.393Z" transform="translate(-1398.408 -602.555)" fill="#fabf97"/><path d="M1856.686,962.657c-2.286.163-4.445,1.78-4.644-.316-.226-2.43,2.033-4.03,4.31-4.264,1.771-.181,4.3,1.662,4.21,3.777-.09,2.358-1.59.641-3.876.8Z" transform="translate(-1684.698 -871.506)" fill="#284354"/><path d="M1632.875,962.657c2.277.163,4.445,1.78,4.635-.316.226-2.43-2.033-4.03-4.31-4.264-1.771-.181-4.3,1.662-4.219,3.777.1,2.358,1.608.641,3.894.8Z" transform="translate(-1481.802 -871.506)" fill="#284354"/><g transform="translate(146.941 107.622)"><path d="M1651.1,1191.2h-20.283c-9.812,0-1.87,9.785,9.089,10.535.262.027.967.045,1.057.045s.8-.018,1.057-.045c10.95-.75,18.892-10.535,9.08-10.535Z" transform="translate(-1626.363 -1191.2)" fill="#e26668"/><g clip-path="url(#c)"><path d="M1666.758,1155a2.31,2.31,0,0,0-2.358,2.358v1.175a2.31,2.31,0,0,0,2.358,2.358h17.591a2.31,2.31,0,0,0,2.358-2.358v-1.175a2.31,2.31,0,0,0-2.358-2.358Z" transform="translate(-1660.963 -1158.271)" fill="#fff"/></g><g clip-path="url(#c)"><path d="M1651.1,1237.98h-20.283c-9.812,0-1.87-9.785,9.089-10.535.262-.027.967-.045,1.057-.045s.8.018,1.057.045c10.95.75,18.892,10.535,9.08,10.535Z" transform="translate(-1626.363 -1224.129)" fill="#fc9493"/></g><g clip-path="url(#c)"><path d="M1699.617,1281.3a1.681,1.681,0,0,0-1.717,1.717v.858a1.681,1.681,0,0,0,1.717,1.717h12.821a1.681,1.681,0,0,0,1.717-1.717v-.858a1.681,1.681,0,0,0-1.717-1.717Z" transform="translate(-1691.437 -1273.16)" fill="#fff"/></g></g><path d="M1493.645,562.31c.163-1.283,1.464-1.084,2.756-1,4.011.253,5-1.1,13.191-5.927a19.621,19.621,0,0,1,22.1,1.247c25.623,5.918,10.616,40.693,10.616,40.693s.091-18.3-7.833-23.87c-13.272,9.044-26.834,9.541-34.55,4.156-2.982,6.948-2.006,19.714-2.006,19.714s-5.123-12.911-2.331-24.34a16.544,16.544,0,0,1-1.942-10.67Z" transform="translate(-1358.545 -502.627)" fill="#416170"/><path d="M1388,1476.584c4.147-11.14,8.24-20.69,8.24-20.69a.467.467,0,0,1,.289-.217c5.547-4,18.549-5.078,18.549-5.078h0c0,.009.578,6.686,9.062,6.686s9.071-6.686,9.071-6.686,13.037,1.075,18.576,5.087a.481.481,0,0,1,.235.2s4.084,9.55,8.231,20.69a101.319,101.319,0,0,1-15.386,4.337h0c-.009,0-.027.009-.036.009-.723.145-1.455.28-2.186.406l-.623.108q-.922.163-1.843.3c-.163.027-.325.054-.479.072-.714.108-1.428.2-2.141.289l-.858.108-1.418.163c-.316.036-.623.063-.94.1-.66.063-1.319.117-1.979.172h0c-2.719.208-5.466.325-8.24.325s-5.5-.109-8.2-.316h0c-.669-.054-1.328-.108-2-.172-.316-.027-.623-.063-.94-.1-.479-.045-.949-.1-1.428-.163-.28-.036-.56-.063-.84-.1-.723-.09-1.437-.19-2.15-.289-.154-.027-.316-.045-.47-.072l-1.861-.3c-.2-.036-.4-.072-.6-.1a101.652,101.652,0,0,1-17.609-4.752.13.13,0,0,1-.027-.018Z" transform="translate(-1262.595 -1319.541)" fill="#688da7"/><g transform="translate(125.426 182.973)"><path d="M1404.053,2059.307a1.462,1.462,0,0,0-2.2,0c-.515.515-1.03,1.021-1.536,1.545a.307.307,0,0,1-.425.081c-.334-.181-.687-.325-1.012-.524a15.886,15.886,0,0,1-3.858-3.515,9.2,9.2,0,0,1-1.382-2.214.313.313,0,0,1,.081-.406c.515-.5,1.021-1.012,1.527-1.527a1.471,1.471,0,0,0,0-2.259l-1.211-1.211c-.416-.416-.831-.84-1.247-1.247a1.469,1.469,0,0,0-2.2.009c-.524.515-1.021,1.039-1.545,1.536a2.481,2.481,0,0,0-.786,1.7,7.112,7.112,0,0,0,.56,3.09,18.613,18.613,0,0,0,3.334,5.557,20.559,20.559,0,0,0,6.839,5.349,9.948,9.948,0,0,0,3.786,1.1,2.754,2.754,0,0,0,2.376-.9c.443-.5.94-.948,1.409-1.418a1.479,1.479,0,0,0,.009-2.25c-.858-.85-1.681-1.672-2.512-2.494Z" transform="translate(-1388.236 -2045.52)" fill="#fff"/><path d="M1506.8,2077.462l1.6-.271a7.175,7.175,0,0,0-6.071-5.891l-.226,1.608a5.533,5.533,0,0,1,3.153,1.572,5.419,5.419,0,0,1,1.545,2.982Z" transform="translate(-1491.813 -2067.135)" fill="#fff"/><path d="M1511.393,2028.57a11.756,11.756,0,0,0-6.767-3.37l-.226,1.608a10.3,10.3,0,0,1,8.71,8.448l1.6-.271a11.845,11.845,0,0,0-3.316-6.415Z" transform="translate(-1493.905 -2025.2)" fill="#fff"/></g><path d="M1921.928,2099.854a1.461,1.461,0,0,0,1.563-1.563c0-.723.009-1.455,0-2.177,0-.2.054-.307.244-.352.361-.108.723-.253,1.093-.344a16.054,16.054,0,0,1,5.213-.244,9.233,9.233,0,0,1,2.548.587.325.325,0,0,1,.235.343c-.009.714-.009,1.437,0,2.159a1.461,1.461,0,0,0,1.6,1.59h1.717c.587,0,1.175.009,1.762,0a1.463,1.463,0,0,0,1.554-1.563c.009-.732-.009-1.455.009-2.186a2.493,2.493,0,0,0-.642-1.753,7.293,7.293,0,0,0-2.575-1.8,18.872,18.872,0,0,0-6.288-1.572,20.63,20.63,0,0,0-8.61,1.048,9.906,9.906,0,0,0-3.46,1.9,2.769,2.769,0,0,0-1.039,2.322c.036.659,0,1.337.009,2a1.473,1.473,0,0,0,1.581,1.59c1.147.027,2.313.018,3.488.018Z" transform="translate(-1743.66 -1901.991)" fill="#fff"/></g></g></svg>