<svg xmlns="http://www.w3.org/2000/svg" width="375.214" height="327.492" viewBox="0 0 375.214 327.492"><ellipse cx="90.01" cy="17.875" rx="90.01" ry="17.875" transform="translate(83.945 291.742)" fill="#020202" opacity="0.14"/><path d="M734,3033.651a.92.92,0,0,1-.838-.52,26.4,26.4,0,0,1-1.862-15.059c.967-6.006,3.855-10.916,8.1-13.818a.925.925,0,1,1,1.039,1.531c-8.577,5.862-9.053,19.405-5.617,26.552a.918.918,0,0,1-.433,1.227A.907.907,0,0,1,734,3033.651Z" transform="translate(-650.458 -2763.061)" fill="#52677a"/><path d="M700.2,3002.551a.921.921,0,0,1-.837-.519,26.4,26.4,0,0,1-1.863-15.06c.967-6.006,3.855-10.916,8.1-13.818a.925.925,0,1,1,1.04,1.531c-8.576,5.862-9.053,19.405-5.617,26.552a.917.917,0,0,1-.433,1.227A.948.948,0,0,1,700.2,3002.551Z" transform="translate(-621.539 -2736.452)" fill="#52677a"/><path d="M2180.551,2635.035a.741.741,0,0,1,.75-.13,20.575,20.575,0,0,1,8.895,7.811,15.783,15.783,0,0,1,2.454,12.258.723.723,0,0,1-1.4-.361c1.964-7.869-4.793-16.013-10.5-18.381a.722.722,0,0,1-.39-.939A.668.668,0,0,1,2180.551,2635.035Z" transform="translate(-1890.553 -2447.135)" fill="#52677a"/><path d="M2216.35,2635.635a.744.744,0,0,1,.751-.13,20.58,20.58,0,0,1,8.895,7.811,15.783,15.783,0,0,1,2.454,12.259.723.723,0,1,1-1.4-.361c1.963-7.869-4.794-16.013-10.5-18.38a.722.722,0,0,1-.39-.939A1.2,1.2,0,0,1,2216.35,2635.635Z" transform="translate(-1921.184 -2447.648)" fill="#52677a"/><path d="M1596.17,1788.9l-20.07,1.8,4.317.418,18.626.722C1598.162,1790.849,1597.209,1789.867,1596.17,1788.9Z" transform="translate(-1373.586 -1723.323)" fill="#ebbf7e"/><path d="M1256.1,1777.71a40.811,40.811,0,0,0,1.4,7.1l34.956-3.581,9.847-.881-37.078-3.552Z" transform="translate(-1099.789 -1712.97)" fill="#f7d29e"/><path d="M948.8,1817.894l-95.005-1.386s-12.836-.837-11.493,7.58a30.521,30.521,0,0,0,2.151,7.609,26.155,26.155,0,0,0,2.31,4.3,7.187,7.187,0,0,1,.289,7.479c-2.556,4.49-8.36,10.8-21.21,12.952,0,0-18.337,2.584-28.531,1.588a6.365,6.365,0,0,1-5.328-4.418c-.693-2.05-1.574-4.837-2.426-8.057-2.844-10.771-5.414-26.451.217-35.952,0,0,16.243-30.768,112.043-28.819,95.554.852,111.148,32.083,111.148,32.083,5.486,9.919,2.151,26.1-1.1,36.789-.866,2.844-1.718,5.285-2.4,7.132a6.358,6.358,0,0,1-5.443,4.26c-10.222.693-28.473-2.426-28.473-2.426-12.778-2.541-18.395-9.01-20.82-13.572a7.171,7.171,0,0,1,.506-7.465,27.367,27.367,0,0,0,2.931-5.4h0a30.129,30.129,0,0,0,1.877-6.382C961.637,1817.432,948.8,1817.894,948.8,1817.894Z" transform="translate(-697.932 -1716.293)" fill="#52677a"/><path d="M1968.09,2163.837c-12.778-2.541-18.395-9.01-20.82-13.572a7.172,7.172,0,0,1,.505-7.465,27.354,27.354,0,0,0,2.931-5.4h0s6.7,18.539,53.682,17.485c-.866,2.845-1.718,5.285-2.4,7.133a6.358,6.358,0,0,1-5.443,4.259C1986.341,2166.956,1968.09,2163.837,1968.09,2163.837Z" transform="translate(-1690.467 -2021.505)" fill="#323e49"/><path d="M845.139,2152.317c12.85-2.151,18.655-8.447,21.21-12.951a7.187,7.187,0,0,0-.289-7.479,26.486,26.486,0,0,1-2.772-5.487h0s-7.248,18.323-54.188,15.882c.78,2.859,1.559,5.328,2.195,7.205a6.345,6.345,0,0,0,5.313,4.418C826.8,2154.887,845.139,2152.317,845.139,2152.317Z" transform="translate(-717.329 -2012.093)" fill="#323e49"/><path d="M790.668,2319.464c1.8-2.5,2.483-5.949,2.05-9.775-1.863-12-14.54-8.23-18.9-.823a22.419,22.419,0,0,1,7.118-14.237l-.534-4.129-.043.044v-.014c-5.66,3.349-11.608,14.539-9.154,24.646-2.844,6.194-2.8,9.356-1.617,15.377.881,4.433,2.729,7.161,6.339,9.27a39.031,39.031,0,0,0-1.155,4.938h0c-2.57,7.623-2.123,19.333,4.606,27.288.231,6.815,1.689,9.631,5.458,14.482,2.772,3.566,5.66,5.184,9.818,5.443.982,5.819,2.859,12.114,6.339,15.391,3.581,3.379,9.039,5.27,13.616,1.892l-2.094-4.923c-2.917,1.935-11.652,1.256-14.828-11.753,2.209.577,4.808,1.458,8.2.2h0c4.288-1.632,6.05-5.6,6.064-9.645a16.517,16.517,0,0,0-3.6-10.208c-7.45-7.811-14.684,5.1-14.02,14.655l.043.563c-3.87-.563-10.439-5-12.374-15.984a18.535,18.535,0,0,0,8.649,3.119h0c4.88.362,7.465-4.635,8.028-8.143.491-3.046-.448-6.439-2.541-9.659-7.046-9.891-16.691-.837-17.254,7.74-1.891-4.967-2.036-11.09-1.689-15.32.26-1.473.505-3.076.707-4.794v.057h.029c.144-1.155.3-2.252.433-3.422-.245,2.281,3.653,3.437,7.248,3.841h.015c4.563.462,7.927-2.3,9.746-5.906a16.506,16.506,0,0,0,1.372-10.742c-3.162-10.324-15.42-2.022-19.1,6.815l-.217.52c-3.22-2.238-7.089-9.154-3.9-19.839a18.238,18.238,0,0,0,6.339,6.656h0C784.055,2325.658,788.589,2322.351,790.668,2319.464Zm16.72,60.151a6.064,6.064,0,0,1,.216,3.913,14.709,14.709,0,0,1-.794,2.094,5.143,5.143,0,0,1-3.205,2.772,21.138,21.138,0,0,1-5.5.866C795.534,2380.8,803.821,2370.446,807.388,2379.615Zm-13.2-15.406a4.674,4.674,0,0,1,.029,1.791c-.419,2.195-1.372,4.433-4.721,4.13h0a20.284,20.284,0,0,1-7.566-1.8C780.951,2360.455,792.271,2354.015,794.191,2364.208Zm-1.314-29.714a6.161,6.161,0,0,1-1.559,3.595,14.28,14.28,0,0,1-1.646,1.516,5.11,5.11,0,0,1-4.1,1.04,21.323,21.323,0,0,1-5.3-1.689C781.745,2330.234,793.8,2324.69,792.877,2334.494Zm-17.759-21.514c2.657-7.479,15.709-8.158,12.865,1.819a4.829,4.829,0,0,1-.823,1.6c-1.357,1.762-3.133,3.35-6.122,1.559h0A20.909,20.909,0,0,1,775.118,2312.981Z" transform="translate(-682.87 -2152.499)" fill="#323e49"/><path d="M1053.655,2433.646a.13.13,0,0,0,.015.072c.361,3.162.693,6.31,1.054,9.457s.722,6.281,1.112,9.4c.015.087.015.173.029.26a11.1,11.1,0,0,1-4.563,10.121c-.072.058-.144.1-.217.159a10.96,10.96,0,0,1-4.837,1.848l-8.865,1.141c.058.462.087.938.1,1.4v.4c-.072,3.639-1.834,6.931-5.992,7.465-5.862.751-11.9,1.574-17.846,2.339a6.6,6.6,0,0,1-7.306-3.826l-.087-.173c-.087-.173-.159-.347-.231-.534h0c-.072-.188-.144-.361-.2-.549a3.978,3.978,0,0,1-.116-.39c-.014-.058-.043-.129-.058-.2a14.264,14.264,0,0,1-.361-1.8l-101.82,13.023a14.008,14.008,0,0,1,.116,2.036v.2c0,.13-.015.274-.015.4-.014.2-.029.39-.058.578l-.087.563c-.029.188-.072.375-.116.549a3.309,3.309,0,0,1-.1.361,6.044,6.044,0,0,1-.318.852h0a6.363,6.363,0,0,1-5.429,3.725c-5.934.765-12,1.531-17.86,2.281-4.23.534-6.931-2.3-7.9-5.891a.949.949,0,0,0-.058-.188,10.952,10.952,0,0,1-.26-1.371l-8.865,1.14a11.028,11.028,0,0,1-5.154-.563,1.244,1.244,0,0,1-.246-.1,11.13,11.13,0,0,1-6.959-8.648l-.043-.26c-.173-1.372-1.271-10.092-2.4-18.828l-.015-.072c-1.285-10.006-2.628-20.228-2.758-20.2-1.285-11.868,2.5-22.062,10.887-30.84,7.147-9.183,16.806-16.792,26.48-20.676,8.23-3.307,12.258-9.934,10.959-17.875-9.053-23.1-25.628-54,17.759-18.394a69.79,69.79,0,0,0,53.986-6.916c33.007-45.38,24.777-11.32,21.817,13.327.736,8.013,6.3,13.413,15.1,14.54,10.338,1.328,21.6,6.252,30.826,13.341,9,5.573,17.268,15.088,18.135,26.076C1051.995,2419.38,1052.861,2426.513,1053.655,2433.646Z" transform="translate(-747.79 -2180.18)" fill="#52677a" fill-rule="evenodd"/><path d="M1236.1,2635.34c28.5-3.653,52.946,3.884,54.607,16.821s-20.113,26.379-48.615,30.032-52.946-3.884-54.606-16.821,20.113-26.379,48.614-30.032Z" transform="translate(-1041.003 -2446.761)" fill-rule="evenodd" opacity="0.24"/><path d="M1225.8,2618.74c28.5-3.653,52.946,3.884,54.606,16.821s-20.113,26.379-48.615,30.031-52.946-3.883-54.606-16.82,20.113-26.379,48.615-30.032Z" transform="translate(-1032.19 -2432.558)" fill="#323e49" fill-rule="evenodd"/><path d="M1452.78,2740.352c7.508-.968,13.948,1.025,14.38,4.432s-5.3,6.945-12.807,7.913-13.948-1.025-14.38-4.432,5.313-6.945,12.807-7.913Z" transform="translate(-1257.095 -2537.191)" fill="#fff" fill-rule="evenodd"/><path d="M1495.6,2860.767c4.794-.621,8.909.65,9.2,2.83s-3.378,4.447-8.187,5.054-8.909-.65-9.2-2.83,3.393-4.433,8.187-5.053Z" transform="translate(-1297.693 -2640.293)" fill="#fff" fill-rule="evenodd"/><path d="M1470.9,2652.966c4.794-.621,8.909.65,9.2,2.83s-3.379,4.448-8.187,5.053-8.909-.65-9.2-2.83,3.379-4.433,8.186-5.054Z" transform="translate(-1276.559 -2462.496)" fill="#fff" fill-rule="evenodd"/><path d="M1341.9,2686.972c4.794-.621,8.908.664,9.2,2.83s-3.393,4.433-8.187,5.053-8.909-.65-9.2-2.83,3.393-4.433,8.187-5.054Z" transform="translate(-1166.185 -2491.593)" fill="#fff" fill-rule="evenodd"/><path d="M1603.178,2656.467c4.794-.621,8.908.65,9.2,2.829s-3.393,4.433-8.187,5.054-8.909-.65-9.183-2.83,3.379-4.433,8.172-5.053Z" transform="translate(-1389.748 -2465.491)" fill="#fff" fill-rule="evenodd"/><path d="M1278.4,2815.866c4.794-.621,8.908.65,9.2,2.831s-3.379,4.432-8.187,5.053-8.908-.649-9.2-2.83,3.378-4.447,8.187-5.053Z" transform="translate(-1111.853 -2601.876)" fill="#fff" fill-rule="evenodd"/><path d="M1706.677,2761.167c4.794-.621,8.909.65,9.2,2.83s-3.393,4.433-8.186,5.053-8.909-.65-9.183-2.83,3.364-4.447,8.172-5.053Z" transform="translate(-1478.304 -2555.074)" fill="#fff" fill-rule="evenodd"/><path d="M1367.424,2858.3c4.793-.607,8.908.65,9.183,2.83s-3.379,4.447-8.187,5.053-8.908-.65-9.2-2.829c-.26-2.18,3.407-4.433,8.2-5.054Z" transform="translate(-1188.011 -2638.184)" fill="#fff" fill-rule="evenodd"/><path d="M1627.3,2825.067c4.794-.621,8.908.65,9.2,2.83s-3.379,4.447-8.187,5.053-8.909-.65-9.2-2.83,3.393-4.433,8.187-5.053Z" transform="translate(-1410.377 -2609.748)" fill="#fff" fill-rule="evenodd"/><path d="M1697.678,2690.967c4.793-.621,8.909.65,9.2,2.83s-3.393,4.433-8.187,5.054-8.908-.65-9.183-2.83,3.379-4.447,8.172-5.053Z" transform="translate(-1470.604 -2495.01)" fill="#fff" fill-rule="evenodd"/><path d="M1265.9,2750.566c4.793-.621,8.909.65,9.2,2.83s-3.379,4.433-8.187,5.054-8.909-.65-9.2-2.831,3.393-4.446,8.187-5.053Z" transform="translate(-1101.158 -2546.004)" fill="#fff" fill-rule="evenodd"/><path d="M1071.123,3090.7c.361,3.162.693,6.309,1.054,9.457s.722,6.28,1.112,9.4c.015.087.015.173.029.26a11.054,11.054,0,0,1-4.562,10.122c-.072.058-.144.1-.217.159a11.1,11.1,0,0,1-4.851,1.833l-8.909,1.141v.014a11.428,11.428,0,0,1,.116,1.4c0,.073.014.13.014.2v.2c-.072,3.638-1.848,6.93-5.992,7.465-5.862.75-11.9,1.574-17.846,2.339a6.592,6.592,0,0,1-7.306-3.826l-.086-.173c-.087-.174-.159-.361-.231-.534h0c-.072-.187-.13-.361-.2-.549a3.982,3.982,0,0,1-.116-.389.979.979,0,0,0-.072-.188,14.286,14.286,0,0,1-.375-1.8v-.014l-101.835,13.024v.014a14.022,14.022,0,0,1,.13,2.036v.2c0,.13-.014.275-.014.4-.015.2-.029.39-.058.578l-.087.563c-.029.188-.072.375-.116.548-.029.115-.087.246-.115.36a9.014,9.014,0,0,1-.347.867h0c-.78,1.92-2.541,3.35-5.414,3.711-5.934.765-11.984,1.53-17.846,2.281-4.23.534-6.916-2.281-7.9-5.877-.015-.057-.043-.13-.058-.187-.115-.448-.2-.909-.274-1.372v-.014l-8.851,1.126a11.029,11.029,0,0,1-5.155-.563,1.292,1.292,0,0,1-.245-.1,11.032,11.032,0,0,1-6.959-8.648l-.043-.26c-.173-1.372-1.271-10.092-2.4-18.828Z" transform="translate(-765.243 -2837.163)" fill="#323e49" fill-rule="evenodd"/><path d="M1029.3,3437.7l32.1-4.1a14.359,14.359,0,0,1,.115,2.05v.2c0,.129-.014.274-.014.4-.015.2-.029.39-.058.578s-.058.376-.087.577-.072.376-.116.549c-.029.116-.087.245-.115.361a8.958,8.958,0,0,1-.346.867h0c-.78,1.92-2.541,3.35-5.415,3.71-5.934.766-11.984,1.531-17.846,2.281-4.23.534-6.916-2.3-7.9-5.891-.014-.057-.029-.129-.043-.2A10.669,10.669,0,0,1,1029.3,3437.7Z" transform="translate(-905.736 -3130.553)" fill="#52677a" fill-rule="evenodd"/><path d="M1988.9,3314.8a11.032,11.032,0,0,1,.1,1.4v.4c-.072,3.639-1.834,6.931-5.992,7.465-5.862.75-11.9,1.574-17.846,2.339a6.6,6.6,0,0,1-7.306-3.826l-.087-.173c-.086-.173-.159-.346-.231-.534h0c-.072-.188-.144-.361-.2-.549a4,4,0,0,1-.116-.39c-.014-.058-.043-.129-.058-.2a13.522,13.522,0,0,1-.361-1.819Z" transform="translate(-1699.319 -3028.906)" fill="#52677a" fill-rule="evenodd"/><path d="M2251.065,1365.846h0c-.491.91-1.025,1.776-1.574,2.671h0c-8.259,13.327-23.563,27.491-30.22,31.924-6.757-4.389-22.394-18.582-30.782-31.909-.491-.765-.939-1.53-1.372-2.3h0c-2.729-4.808-4.375-9.428-4.144-13.327.809-13.976,11.883-17.153,11.883-17.153,14.208-3.985,24.112,7.465,24.112,7.465s9.76-11.551,24.011-7.725a16.471,16.471,0,0,1,6.223,3.768c.375.361.751.737,1.126,1.155a19.751,19.751,0,0,1,4.721,12.085C2255.31,1356.4,2253.721,1360.995,2251.065,1365.846Z" transform="translate(-1892.817 -1334.719)" fill="#fff"/><path d="M213.916,2044.7h0c-.289.534-.606,1.054-.938,1.588h0c-4.895,7.913-13.991,16.316-17.933,18.944-4.014-2.6-13.3-11.031-18.265-18.944-.289-.462-.563-.91-.809-1.357h0c-1.617-2.859-2.6-5.588-2.455-7.912.476-8.3,7.046-10.179,7.046-10.179,8.432-2.368,14.309,4.433,14.309,4.433s5.79-6.859,14.251-4.592a9.692,9.692,0,0,1,3.7,2.238c.217.217.448.433.664.693a11.75,11.75,0,0,1,2.8,7.176C216.428,2039.095,215.49,2041.809,213.916,2044.7Z" transform="translate(-173.503 -1926.375)" fill="#fff"/><path d="M443.128,2626.559h0c-.13.26-.289.491-.433.751h0a35.831,35.831,0,0,1-8.418,8.895,36.245,36.245,0,0,1-8.577-8.895c-.13-.216-.26-.433-.375-.635h0a7.177,7.177,0,0,1-1.155-3.711,5.058,5.058,0,0,1,3.306-4.779c3.956-1.112,6.714,2.079,6.714,2.079s2.714-3.22,6.685-2.151a4.593,4.593,0,0,1,1.733,1.054c.1.1.217.2.318.317a5.494,5.494,0,0,1,1.314,3.364A7.08,7.08,0,0,1,443.128,2626.559Z" transform="translate(-387.974 -2432.624)" fill="#fff"/><path d="M655.013,1574.527h0c-.2.375-.419.736-.65,1.112h0a53.681,53.681,0,0,1-12.576,13.284,53.915,53.915,0,0,1-12.821-13.284c-.2-.318-.39-.635-.578-.953h0a10.765,10.765,0,0,1-1.733-5.544c.332-5.819,4.952-7.133,4.952-7.133,5.92-1.66,10.035,3.1,10.035,3.1s4.057-4.808,9.991-3.22a6.875,6.875,0,0,1,2.6,1.574,4.809,4.809,0,0,1,.462.477,8.222,8.222,0,0,1,1.964,5.039A10.746,10.746,0,0,1,655.013,1574.527Z" transform="translate(-561.221 -1528.817)" fill="#fff"/><path d="M2402.916,2442.7h0c-.289.534-.606,1.054-.938,1.588h0c-4.895,7.913-13.991,16.316-17.932,18.944-4.014-2.6-13.3-11.031-18.265-18.944-.289-.461-.563-.91-.808-1.357h0c-1.617-2.859-2.6-5.587-2.455-7.912.477-8.3,7.046-10.179,7.046-10.179,8.432-2.368,14.309,4.433,14.309,4.433s5.79-6.858,14.251-4.591a9.7,9.7,0,0,1,3.7,2.238,7.6,7.6,0,0,1,.664.693,11.745,11.745,0,0,1,2.8,7.176C2405.428,2437.094,2404.49,2439.809,2402.916,2442.7Z" transform="translate(-2046.444 -2266.911)" fill="#fff"/><path d="M2575.932,1936.9h0c-.217.419-.462.809-.722,1.213h0a58.845,58.845,0,0,1-13.745,14.525,58.321,58.321,0,0,1-14.005-14.525c-.217-.346-.433-.693-.622-1.04h0a11.745,11.745,0,0,1-1.891-6.064c.361-6.368,5.4-7.8,5.4-7.8,6.469-1.8,10.973,3.393,10.973,3.393s4.448-5.256,10.93-3.509a7.419,7.419,0,0,1,2.83,1.718,4.442,4.442,0,0,1,.506.534,8.985,8.985,0,0,1,2.151,5.5A11.539,11.539,0,0,1,2575.932,1936.9Z" transform="translate(-2202.537 -1837.835)" fill="#fff"/></svg>