<svg xmlns="http://www.w3.org/2000/svg" xmlns:xlink="http://www.w3.org/1999/xlink" width="343.104" height="355.838" viewBox="0 0 343.104 355.838"><defs><clipPath id="a"><path d="M158.258,311.873l-45.913-209.1a10.851,10.851,0,0,1,8.371-13.012L228.04,66.145a10.851,10.851,0,0,1,13.012,8.371l45.913,209.1a10.851,10.851,0,0,1-8.37,13.012l-107.408,23.62A10.933,10.933,0,0,1,158.258,311.873Z" transform="translate(-112.077 -65.877)"/></clipPath><clipPath id="b"><rect width="135.254" height="32.819" transform="matrix(0.977, -0.215, 0.215, 0.977, 0, 29.026)"/></clipPath></defs><g transform="translate(0)"><g transform="translate(21.201 62.253)"><g transform="translate(9.462)"><path d="M47.259,90.337l4.973,6.8a1.794,1.794,0,0,0,3.149-.5l6.464-18.647a2.211,2.211,0,0,0-2.818-2.818l-21.3,7.708a1.266,1.266,0,0,0,.083,2.4l5.47,1.74A2.821,2.821,0,0,0,45.6,86.69l13.426-9.448L47.508,87.6A2.132,2.132,0,0,0,47.259,90.337Z" transform="translate(-36.899 -75.026)" fill="#fff"/><path d="M45.4,92l3.978,5.387-1.492,1.658a1.235,1.235,0,0,1-2.155-.829Z" transform="translate(-38.354 -77.933)" fill="#fff"/></g><path d="M38.343,98.9a60.5,60.5,0,0,0-12.68,31.659c-.414,4.89-.249,9.945,1.906,14.338,2.4,4.724,6.879,8.039,11.686,10.194,13.84,6.05,31.41,1.989,41.272-9.531,2.4-2.818,4.475-6.3,4.392-10.028-.083-4.558-3.564-8.7-7.956-10.111a15.2,15.2,0,0,0-13.012,2.321A22.953,22.953,0,0,0,56,138.681a31.48,31.48,0,0,0,9.862,34.808c7.376,5.8,17.155,7.956,26.52,7.79s18.564-2.486,27.681-4.807l35.305-8.951" transform="translate(-25.482 -79.114)" fill="none" stroke="#fff" stroke-miterlimit="10" stroke-width="1" stroke-dasharray="6 2 11"/></g><g transform="translate(0 143.457)"><g transform="translate(0 40.965)"><path d="M16.973,239.479l-5.553,7.79a2.026,2.026,0,0,1-3.564-.5L.066,225.8a2.5,2.5,0,0,1,3.149-3.232l24.366,8.2a1.437,1.437,0,0,1,0,2.735l-6.133,2.072a2.982,2.982,0,0,1-2.652-.332L3.381,224.893l13.177,11.52A2.145,2.145,0,0,1,16.973,239.479Z" transform="translate(0.099 -222.438)" fill="#fff"/><path d="M24.192,241.2,19.8,247.416l1.74,1.823a1.449,1.449,0,0,0,2.486-.995Z" transform="translate(-3.308 -225.651)" fill="#fff"/></g><path d="M9.32,228.114a26.49,26.49,0,0,0,2.238,30.416,26.468,26.468,0,0,0,29.753,6.962A26.54,26.54,0,0,0,56.891,239.22c-.414-4.227-2.486-8.868-6.547-9.862-4.558-1.16-8.951,2.984-10.277,7.459-2.155,7.293,1.658,15.746,8.288,19.559s15.415,3.066,21.714-1.16A26.249,26.249,0,0,0,80.925,235.9a34.014,34.014,0,0,0-6.05-21.714c-2.569-3.812-5.718-7.21-7.459-11.437-3.812-9.365,1.077-20.968,9.862-26.106,8.7-5.138,20.056-4.558,29.172,0,9.034,4.558,16,12.514,21.133,21.3" transform="translate(-0.867 -173.009)" fill="none" stroke="#fff" stroke-miterlimit="10" stroke-width="1" stroke-dasharray="6 2 11"/></g><g transform="translate(50.469 263.348)"><g transform="translate(14.847)"><path d="M86.741,329.546l3.9,5.221a1.361,1.361,0,0,0,2.4-.414l4.973-14.42a1.714,1.714,0,0,0-2.238-2.155l-16.41,5.967a.963.963,0,0,0,0,1.823l4.227,1.326a2.382,2.382,0,0,0,1.823-.249l10.36-7.293-8.868,8.039A1.872,1.872,0,0,0,86.741,329.546Z" transform="translate(-78.712 -317.671)" fill="#fff"/><path d="M85.3,330.8l3.066,4.144-1.16,1.243a.942.942,0,0,1-1.658-.58Z" transform="translate(-79.84 -319.919)" fill="#fff"/></g><path d="M83.342,331.7c-12.763,2.569-22.708,14.918-22.542,27.929S71.242,384.741,84,386.979c4.144.746,8.536.5,12.183-1.575s6.216-6.3,5.553-10.36c-.912-5.884-8.288-9.282-13.923-7.293s-9.2,7.79-10.028,13.757c-1.658,12.349,7.459,24.531,19.227,28.675,11.768,4.061,25.112,1.16,35.72-5.387,22.377-13.84,32.819-44.173,23.785-68.87" transform="translate(-60.798 -320.073)" fill="none" stroke="#fff" stroke-miterlimit="10" stroke-width="1" stroke-dasharray="6 2 11"/></g><g transform="translate(221.611 23.05)"><g transform="translate(58.357)"><path d="M348.725,40.633l-4.392,5.138a1.425,1.425,0,0,1-2.486-.58l-4.061-15.249a1.766,1.766,0,0,1,2.4-2.072l16.492,7.293a1.01,1.01,0,0,1-.166,1.906l-4.475,1.077a2.047,2.047,0,0,1-1.823-.414l-10.111-8.288,8.619,8.951A1.655,1.655,0,0,1,348.725,40.633Z" transform="translate(-337.715 -27.724)" fill="#fff"/><path d="M353.581,42.3,350.1,46.361l1.077,1.409a1.059,1.059,0,0,0,1.823-.5Z" transform="translate(-339.836 -30.22)" fill="#fff"/></g><path d="M336.5,37.3c10.028,7.376,14.089,21.133,12.017,33.316-2.072,12.266-9.448,23.122-18.564,31.576-8.7,8.122-19.393,14.586-31.244,15.912-11.768,1.409-24.7-2.984-31.41-12.763" transform="translate(-267.3 -29.364)" fill="none" stroke="#fff" stroke-miterlimit="10" stroke-width="1" stroke-dasharray="6 2 11"/></g><g transform="translate(79.016 197.127)"><g transform="translate(2.449 40.259)"><path d="M103.006,289.623l2.4-2.984a.825.825,0,0,1,1.409.249l2.486,8.536a1.026,1.026,0,0,1-1.326,1.243l-9.448-3.9a.577.577,0,0,1,.083-1.077l2.486-.663a1.319,1.319,0,0,1,1.077.249l5.8,4.558-4.89-4.973A.9.9,0,0,1,103.006,289.623Z" transform="translate(-98.197 -286.345)" fill="#fff"/><path d="M102.1,290.223l1.906-2.32-.663-.746a.56.56,0,0,0-.995.332Z" transform="translate(-98.865 -286.448)" fill="#fff"/></g><path d="M102.666,284.122c-5.718-4.061-8.2-11.768-7.21-18.73s5.055-13.177,10.111-18.067c4.807-4.724,10.774-8.453,17.4-9.365s14.006,1.409,17.9,6.879" transform="translate(-95.242 -237.767)" fill="none" stroke="#fff" stroke-miterlimit="10" stroke-width="1" stroke-dasharray="6 2 11"/></g><g transform="translate(236.446 127.71)"><g transform="translate(55.526)"><path d="M374.742,187.649,386.1,200.992a3.714,3.714,0,0,0,6.464-1.492l10.608-39.7a4.6,4.6,0,0,0-6.3-5.387l-43.1,19.062a2.639,2.639,0,0,0,.414,4.973l11.6,2.818a5.58,5.58,0,0,0,4.807-1.077l26.438-21.548-22.211,23.288A4.4,4.4,0,0,0,374.742,187.649Z" transform="translate(-352.199 -154.007)" fill="#fff"/><path d="M370.8,192l9.034,10.525-2.9,3.647a2.606,2.606,0,0,1-4.641-1.326Z" transform="translate(-355.384 -160.513)" fill="#fff"/></g><path d="M361.032,179.8a63.454,63.454,0,0,0-33.979,35.471c-2.9,7.625-4.144,16.575-.332,23.786s14.172,11.188,20.553,6.216c4.227-3.315,5.553-9.448,4.227-14.586-1.326-5.221-4.807-9.614-8.7-13.26-15.084-14.089-38.04-18.979-57.6-12.431" transform="translate(-285.2 -158.424)" fill="none" stroke="#fff" stroke-miterlimit="10" stroke-width="1" stroke-dasharray="6 2 11"/></g><g transform="translate(137.491 0)"><g transform="translate(2.723)"><path d="M181.529,21.7l9.365-1.74a2.084,2.084,0,0,0,1.077-3.481L176.225.648a2.544,2.544,0,0,0-4.31,1.492L169.1,27.583a1.454,1.454,0,0,0,2.486,1.16l4.475-4.641a3.237,3.237,0,0,0,.829-2.569L174.07,3.3l4.89,16.741A2.239,2.239,0,0,0,181.529,21.7Z" transform="translate(-169.086 0.089)" fill="#fff"/><path d="M180.6,29.226l7.376-1.326.912,2.321a1.443,1.443,0,0,1-1.906,1.823Z" transform="translate(-171.058 -4.704)" fill="#fff"/></g><path d="M174.668,23.4a34.761,34.761,0,0,0,7.376,25.609c2.818,3.4,6.63,6.464,11.023,6.63s9.116-3.564,8.536-7.956c-.414-2.9-2.9-5.138-5.718-5.967s-5.8-.332-8.619.5A31.68,31.68,0,0,0,165.8,65.833" transform="translate(-165.8 -3.933)" fill="none" stroke="#fff" stroke-miterlimit="10" stroke-width="1" stroke-dasharray="6 2 11"/></g><g transform="translate(247.966 226.38)"><g transform="translate(68.714 74.013)"><path d="M390.041,374.246l3.9,5.221a1.361,1.361,0,0,0,2.4-.414l4.973-14.42a1.714,1.714,0,0,0-2.238-2.155l-16.41,5.967a.963.963,0,0,0,0,1.823l4.227,1.326a2.382,2.382,0,0,0,1.823-.249l10.36-7.293-8.868,8.039A1.643,1.643,0,0,0,390.041,374.246Z" transform="translate(-382.012 -362.371)" fill="#fff"/><path d="M388.6,375.5l3.066,4.144-1.16,1.243a.942.942,0,0,1-1.658-.58Z" transform="translate(-383.14 -364.619)" fill="#fff"/></g><path d="M379.159,355.224A23.031,23.031,0,1,1,352.8,319.256c6.216-2.486,15.166-.829,16.658,5.718,1.243,5.387-4.144,10.857-9.7,10.857s-10.525-4.227-12.929-9.2c-2.4-5.055-2.818-10.774-2.9-16.327s.083-11.271-1.409-16.575a28.121,28.121,0,0,0-43.427-15.5" transform="translate(-299.1 -273.065)" fill="none" stroke="#fff" stroke-miterlimit="10" stroke-width="1" stroke-dasharray="6 2 11"/></g><ellipse cx="73.097" cy="6.879" rx="73.097" ry="6.879" transform="translate(145.613 332.574)" fill="#1a1a1a" opacity="0.26"/><g transform="translate(83.918 42.389)"><path d="M289.156,321.1,169.483,347.376a11.544,11.544,0,0,1-13.757-8.785L101.441,91.371a11.544,11.544,0,0,1,8.785-13.757L229.9,51.341a11.544,11.544,0,0,1,13.757,8.785l54.284,247.22A11.544,11.544,0,0,1,289.156,321.1Z" transform="translate(-101.158 -51.058)" fill="#f2f2f2"/><path d="M156.169,312.21l-45.831-208.6a12.382,12.382,0,0,1,9.448-14.752l107.656-23.62a12.382,12.382,0,0,1,14.752,9.448l45.831,208.6a12.382,12.382,0,0,1-9.448,14.752l-107.656,23.62A12.342,12.342,0,0,1,156.169,312.21Z" transform="translate(-102.678 -53.434)" fill="#ccc"/><path d="M158.258,311.873l-45.913-209.1a10.851,10.851,0,0,1,8.371-13.012L228.04,66.145a10.851,10.851,0,0,1,13.012,8.371l45.913,209.1a10.851,10.851,0,0,1-8.37,13.012l-107.408,23.62A10.933,10.933,0,0,1,158.258,311.873Z" transform="translate(-103.027 -53.595)" fill="#e6e6e6"/><path d="M260.427,370.721a10.94,10.94,0,1,1-13.012-8.371A11.017,11.017,0,0,1,260.427,370.721Z" transform="translate(-124.723 -104.321)" fill="gray"/><g transform="translate(9.05 12.282)"><g clip-path="url(#a)"><g transform="translate(-4.748 -3.999)"><rect width="135.254" height="18.15" transform="matrix(0.977, -0.215, 0.215, 0.977, 0, 29.026)" fill="#35528f"/><g transform="translate(5.668 25.727)"><rect width="135.254" height="213.821" transform="matrix(0.977, -0.215, 0.215, 0.977, 0.021, 29.026)" fill="#cdd2d2"/><rect width="135.254" height="51.881" transform="matrix(0.977, -0.215, 0.215, 0.977, 0, 29.049)" fill="#fff"/><rect width="135.254" height="24.614" transform="matrix(0.977, -0.215, 0.215, 0.977, 11.625, 81.764)" fill="#fff"/><rect width="135.254" height="133.099" transform="matrix(0.977, -0.215, 0.215, 0.977, 17.309, 107.903)" fill="#fff"/><line y1="29.007" x2="132.022" transform="translate(3.657 16.497)" fill="none" stroke="#cfd1d2" stroke-miterlimit="10" stroke-width="0.5"/></g><rect width="135.254" height="18.15" transform="matrix(0.977, -0.215, 0.215, 0.977, 1.829, 37.05)" fill="#4167b3"/></g><g transform="translate(3.939 -26.287)"><g transform="translate(55.687 267.413)"><path d="M190.054,359.207a3.056,3.056,0,1,1-3.647-2.321A3.054,3.054,0,0,1,190.054,359.207Z" transform="translate(-184.023 -356.823)" fill="#e55e70"/><path d="M188.723,358.164a1.18,1.18,0,0,0-1.575.332l-.166.249-.249-.166a1.18,1.18,0,0,0-1.575.331,1.021,1.021,0,0,0-.166.829,1.289,1.289,0,0,0,.5.663l.249.166,1.906,1.243,1.16-1.906.166-.249a1.021,1.021,0,0,0,.166-.829A.992.992,0,0,0,188.723,358.164Z" transform="translate(-184.184 -357.023)" fill="#fff"/></g><g transform="translate(50.3 268.879)"><path d="M183.554,361a3.056,3.056,0,1,1-3.647-2.321A2.993,2.993,0,0,1,183.554,361Z" transform="translate(-177.523 -358.593)" fill="#fdd974"/><path d="M182.115,363.195c.166.663-.083,1.243-.414,1.326-.414.083-.829-.332-.912-.995-.166-.663.083-1.243.414-1.326A1.145,1.145,0,0,1,182.115,363.195Z" transform="translate(-178.074 -359.21)"/><path d="M182.891,360.914c.083.249,0,.5-.166.5a.379.379,0,0,1-.331-.414c-.083-.249,0-.5.166-.5A.379.379,0,0,1,182.891,360.914Z" transform="translate(-178.352 -358.919)"/><path d="M179.691,361.614c.083.249,0,.5-.166.5a.379.379,0,0,1-.331-.414c-.083-.249,0-.5.166-.5A.379.379,0,0,1,179.691,361.614Z" transform="translate(-177.804 -359.039)"/><g transform="translate(0.809 1.132)"><path d="M178.583,360.407h0a.081.081,0,0,1-.083-.083.846.846,0,0,1,.912-.331l.083.083-.083.083a.786.786,0,0,0-.829.249Z" transform="translate(-178.5 -359.959)"/></g><g transform="translate(3.461 0.626)"><path d="M182.695,359.557h0a.916.916,0,0,0-.912.083H181.7v-.083a.845.845,0,0,1,.995-.083c0-.083.083,0,0,.083Z" transform="translate(-181.7 -359.349)"/></g></g><path d="M131.876,127.989l-4.89,1.077a2.048,2.048,0,0,0-1.492,2.321l1.077,4.89a2.048,2.048,0,0,0,2.321,1.492l4.89-1.077a2.048,2.048,0,0,0,1.492-2.321l-1.077-4.89A1.954,1.954,0,0,0,131.876,127.989Zm-2.569,1.74,3.149-.663c.166,0,.331.083.331.249s-.083.331-.249.331l-3.149.663c-.166,0-.331-.083-.331-.249C128.976,129.9,129.141,129.73,129.307,129.73Zm.249,1.077,3.149-.663c.166,0,.332.083.332.249s-.083.331-.249.331l-3.149.663c-.166,0-.331-.083-.331-.249S129.39,130.807,129.556,130.807Zm-2.072-.663a.975.975,0,1,1-.746,1.16A.935.935,0,0,1,127.484,130.144Zm7.044,4.475a1.194,1.194,0,0,1-.995,1.492l-4.641.995a1.194,1.194,0,0,1-1.492-.995l-.663-2.9,7.21-1.575Z" transform="translate(-118.31 -50.217)" fill="#35528f"/><g transform="translate(33.342 71.939)"><g transform="translate(0 0)"><path d="M165.8,127.955l-6.05,1.326a1.527,1.527,0,0,1-1.823-1.16l-.829-3.978a1.527,1.527,0,0,1,1.16-1.823l6.05-1.326a1.527,1.527,0,0,1,1.823,1.16l.829,3.978A1.527,1.527,0,0,1,165.8,127.955Zm-7.459-5.138a1.116,1.116,0,0,0-.829,1.326l.829,3.978a1.116,1.116,0,0,0,1.326.829l6.05-1.326a1.116,1.116,0,0,0,.829-1.326l-.829-3.978a1.116,1.116,0,0,0-1.326-.829Z" transform="translate(-157.062 -120.962)" fill="#35528f"/></g><g transform="translate(3.694 7.934)"><rect width="4.475" height="0.414" transform="matrix(0.977, -0.215, 0.215, 0.977, 0, 0.96)" fill="#35528f"/></g><g transform="translate(5.465 7.467)"><rect width="0.414" height="1.243" transform="matrix(0.977, -0.215, 0.215, 0.977, 0, 0.089)" fill="#35528f"/></g><g transform="translate(3.347 2.684)"><path d="M161.1,124.2l.746,3.481,2.486-2.238Z" transform="translate(-161.1 -124.2)" fill="#35528f"/></g></g><path d="M198.048,115.175l-1.16-1.409a.633.633,0,0,0-.414-.166l-7.044,1.575c-.166,0-.249.166-.331.249l-.5,1.74a.747.747,0,0,0,.083.414h0l.083.5a1.612,1.612,0,0,0,1.243,1.16l.829,3.978a.645.645,0,0,0,.746.5l2.155-.5,2.072-.5,2.155-.5a.645.645,0,0,0,.5-.746l-.912-4.061a1.786,1.786,0,0,0,.414-1.409l-.083-.332.083-.083C198.214,115.423,198.131,115.258,198.048,115.175Zm-8.536.414,7.044-1.575,1.077,1.326-.083.083-8.536,1.906h0Zm4.475,7.21-.663-3.232,1.74-.414.663,3.232Zm4.227-1.16c0,.083-.083.249-.166.249l-1.906.414-.746-3.4c0-.083-.166-.166-.249-.166l-2.072.5c-.083,0-.166.166-.166.249l.746,3.4-1.989.414c-.083,0-.249-.083-.249-.166l-.829-3.812h.249a2.146,2.146,0,0,0,.912-.58,1.635,1.635,0,0,0,1.989-.414,1.559,1.559,0,0,0,1.989-.5,1.823,1.823,0,0,0,1.16.166,1.178,1.178,0,0,0,.5-.166Zm-.746-4.475a.081.081,0,0,0-.083.083c-.166.083-.332.249-.5.249a1.426,1.426,0,0,1-.995-.166c-.083,0-.083-.083-.166,0h0c-.083,0-.083.083-.166.083a1.307,1.307,0,0,1-1.74.414c-.083,0-.083-.083-.166,0-.083,0-.083.083-.166.083a1.307,1.307,0,0,1-1.74.414.159.159,0,0,0-.249.083,1.054,1.054,0,0,1-.746.58,1.153,1.153,0,0,1-1.409-.912l-.083-.332,8.453-1.823.083.249A1.447,1.447,0,0,1,197.468,117.164Z" transform="translate(-129.12 -47.762)" fill="#35528f"/><path d="M230.689,111.822a1.626,1.626,0,0,0-.746-.746,2.96,2.96,0,0,1-1.74-1.575,2.624,2.624,0,0,0-2.652-1.575,1.391,1.391,0,0,0-1.077-.332,1.241,1.241,0,0,0-.995,1.16,2.6,2.6,0,0,0-.912,2.984l.414.995a1.066,1.066,0,0,1-.083.995l-.249.414a1.143,1.143,0,0,0,1.243,1.658c.083,0,.166,0,.166-.083l.663-.249a1.557,1.557,0,0,0,1.74.829,1.668,1.668,0,0,0,1.243-1.906v-.083l2.4-.995A1.124,1.124,0,0,0,230.689,111.822Zm-6.133-3.812a1.051,1.051,0,0,1,.5.083h-.083l-.829.332a.081.081,0,0,0-.083.083C224.059,108.259,224.307,108.093,224.556,108.01Zm1.823,7.873a1.362,1.362,0,0,1-1.326-.58l2.238-.912v.083A1.118,1.118,0,0,1,226.379,115.883Zm3.564-2.984-5.967,2.486a.7.7,0,0,1-.912-.332,1.15,1.15,0,0,1,0-.746l.249-.414a1.5,1.5,0,0,0,.083-1.326l-.414-.995a2.142,2.142,0,0,1,1.243-2.818l.829-.332a.5.5,0,0,1,.331-.083,2.188,2.188,0,0,1,2.486,1.326,3.114,3.114,0,0,0,1.989,1.823.747.747,0,0,1,.5.5A.738.738,0,0,1,229.943,112.9Z" transform="translate(-134.909 -46.73)" fill="#35528f"/><g transform="translate(112.852 55.313)"><path d="M261.2,101.314l-7.956,1.74c-.083,0-.249-.083-.249-.166s.083-.249.166-.249l7.956-1.74c.083,0,.249.083.249.166C261.453,101.232,261.371,101.314,261.2,101.314Z" transform="translate(-253 -100.9)" fill="#35528f"/><g transform="translate(0.663 2.984)"><path d="M262,104.914l-7.956,1.74c-.083,0-.249-.083-.249-.166s.083-.249.166-.249l7.956-1.74c.083,0,.249.083.249.166S262.171,104.831,262,104.914Z" transform="translate(-253.8 -104.5)" fill="#35528f"/></g><g transform="translate(1.326 5.884)"><path d="M262.8,108.414l-7.956,1.74c-.083,0-.249-.083-.249-.166s.083-.249.166-.249l7.956-1.74c.083,0,.249.083.249.166S262.888,108.414,262.8,108.414Z" transform="translate(-254.6 -108)" fill="#35528f"/></g></g><circle cx="7.376" cy="7.376" r="7.376" transform="translate(14.046 133.71) rotate(-14.335)" fill="#e6e6e6"/><circle cx="7.376" cy="7.376" r="7.376" transform="translate(18.935 168.602) rotate(-62.289)" fill="#e6e6e6"/><g transform="translate(33.513 122.2)"><text transform="matrix(0.977, -0.215, 0.215, 0.977, 1.073, 16.171)" fill="#898989" font-size="5" font-family="Roboto-Regular, Roboto"><tspan x="0" y="0">What’s on your mind?</tspan></text></g><rect width="78.815" height="3.895" transform="matrix(0.977, -0.215, 0.215, 0.977, 37.843, 156.969)" fill="#e6e6e6"/><rect width="122.988" height="3.895" transform="matrix(0.977, -0.215, 0.215, 0.977, 24.607, 182.524)" fill="#e6e6e6"/><rect width="50.389" height="3.895" transform="matrix(0.977, -0.215, 0.215, 0.977, 39.18, 163.289)" fill="#e6e6e6"/><rect width="43.924" height="3.895" transform="matrix(0.977, -0.215, 0.215, 0.977, 40.421, 168.899)" fill="#e6e6e6"/><path d="M224.938,224.9h-.746a1.848,1.848,0,0,0-1.492,1.658v.663a1.951,1.951,0,0,0,3.812-.829A1.685,1.685,0,0,0,224.938,224.9Zm-.663.166a.708.708,0,0,1,.58,0,.252.252,0,0,0,0,.331c.083.166.083.331-.083.414-.166,0-.166.249-.083.331.166.083,0,.166-.166.166s-.663,0-.663.166a1.218,1.218,0,0,0,.5.414c.249,0,.332-.166.58-.249s.249.249.663.166.331.331.249.58-.083.829-.332.829-.414-.249-.746-.414a1.159,1.159,0,0,1-.58-.746c0-.166-.331-.249-.5-.166s-.249.166-.414,0c-.083-.083-.331-.083-.5-.166A1.945,1.945,0,0,1,224.275,225.066Z" transform="translate(-134.959 -66.821)" fill="#616365"/><rect width="135.254" height="75.915" transform="matrix(0.977, -0.215, 0.215, 0.977, 22.492, 193.121)" fill="#e6e6e6"/><path d="M173.107,359.987a3.007,3.007,0,1,0,3.564,2.321A2.97,2.97,0,0,0,173.107,359.987Zm-.083,4.31c.083.249-.083.414-.331.5s-.414-.083-.5-.332l-.249-1.243c-.083-.249.083-.414.331-.5s.414.083.5.332Zm2.4-.829a.667.667,0,0,1-.414.746l-1.658.331-.414-1.74.5-.663a.628.628,0,0,0,.166-.331v-.5c0-.249.5-.249.5-.083.083.249.166.58.166.58.083.166.249.331.414.249a.365.365,0,0,1,.5.331Z" transform="translate(-126.059 -89.942)" fill="#427cff"/><g transform="translate(64.242 253.22)"><text transform="matrix(0.977, -0.215, 0.215, 0.977, 0.858, 17.174)" fill="#909090" font-size="4" font-family="Roboto-Regular, Roboto"><tspan x="0" y="0">Amanda James and 23 others</tspan></text></g><g transform="translate(138.457 244.436)"><text transform="matrix(0.977, -0.215, 0.215, 0.977, 0.858, 9.649)" fill="#909090" font-size="4" font-family="Roboto-Regular, Roboto"><tspan x="0" y="0">2 Comments</tspan></text></g><g transform="translate(138.689 140.095)"><path d="M285.19,204.514c.083.249-.083.5-.414.58-.249.083-.5-.083-.58-.414-.083-.249.083-.5.414-.58A.623.623,0,0,1,285.19,204.514Z" transform="translate(-284.174 -203.354)" fill="#909090"/><path d="M287.19,204.014c.083.249-.083.5-.414.58-.249.083-.5-.083-.58-.414s.083-.5.414-.58C286.859,203.6,287.19,203.766,287.19,204.014Z" transform="translate(-284.517 -203.268)" fill="#909090"/><path d="M289.29,203.614c.083.249-.083.5-.414.58-.249.083-.5-.083-.58-.414-.083-.249.083-.5.414-.58A.623.623,0,0,1,289.29,203.614Z" transform="translate(-284.877 -203.2)" fill="#909090"/></g><path d="M124.2,114.081a1.951,1.951,0,1,1-2.321-1.492A1.954,1.954,0,0,1,124.2,114.081Z" transform="translate(-117.431 -47.58)" fill="#fff"/><path d="M123.518,110.029l-.249.083-.829-.912-3.729.829-.332,1.16-.249.083a1.588,1.588,0,0,0-1.243,1.989l.829,3.647a1.588,1.588,0,0,0,1.989,1.243l5.387-1.16A1.588,1.588,0,0,0,126.336,115l-.829-3.647A1.744,1.744,0,0,0,123.518,110.029Zm-1.326,6.133a2.243,2.243,0,1,1,1.74-2.652A2.36,2.36,0,0,1,122.192,116.162Zm1.823-4.475c-.166,0-.332-.083-.332-.249s.083-.332.249-.332.332.083.332.249A.444.444,0,0,1,124.015,111.686Z" transform="translate(-116.83 -47.009)" fill="#fff"/><path d="M124.2,114.081a1.951,1.951,0,1,1-2.321-1.492A1.954,1.954,0,0,1,124.2,114.081Z" transform="translate(-117.431 -47.58)" fill="#fff"/><path d="M124.2,114.081a1.951,1.951,0,1,1-2.321-1.492A1.954,1.954,0,0,1,124.2,114.081Z" transform="translate(-117.431 -47.58)" fill="#fff"/><rect width="95.888" height="0.663" transform="matrix(0.977, -0.215, 0.215, 0.977, 15.267, 68.504)" fill="#fff"/><path d="M256.745,79.279a4.389,4.389,0,0,0-3.564,5.055,3.992,3.992,0,0,0,2.321,2.818l.332,1.492,1.409-.995a6.273,6.273,0,0,0,1.243-.083,4.389,4.389,0,0,0,3.564-5.055A4.341,4.341,0,0,0,256.745,79.279Zm1.575,5.055-.995-.663L255.5,85l1.658-2.818,1.243.829,1.575-1.575Z" transform="translate(-140.163 -41.868)" fill="#fff"/><g transform="translate(47.747 53.52)"><path d="M178.551,100.364a2.081,2.081,0,1,1-2.486-1.575A2.035,2.035,0,0,1,178.551,100.364Z" transform="translate(-174.442 -98.737)" fill="none" stroke="#fff" stroke-miterlimit="10" stroke-width="0.75"/><line x1="1.906" y1="1.16" transform="translate(3.86 3.118)" fill="none" stroke="#fff" stroke-miterlimit="10" stroke-width="0.75"/></g><text transform="matrix(0.977, -0.215, 0.215, 0.977, 56.572, 56.149)" fill="#fff" font-size="5" font-family="Roboto-Regular, Roboto"><tspan x="0" y="0">Search</tspan></text><g transform="translate(65.467 62.377)"><path d="M202.02,111.89a3.137,3.137,0,1,1-3.729-2.4A3.17,3.17,0,0,1,202.02,111.89Z" transform="translate(-195.824 -109.424)" fill="#e02242"/><text transform="matrix(0.977, -0.215, 0.215, 0.977, 0.483, 3.743)" fill="#fff" font-size="1" font-family="Roboto-Regular, Roboto"><tspan x="0" y="0">+99</tspan></text></g><g transform="translate(89.749 57.047)"><path d="M231.32,105.485a3.137,3.137,0,1,1-3.729-2.4A3.129,3.129,0,0,1,231.32,105.485Z" transform="translate(-225.124 -102.993)" fill="#e02242"/><text transform="matrix(0.977, -0.215, 0.215, 0.977, 0.473, 3.739)" fill="#fff" font-size="1" font-family="Roboto-Regular, Roboto"><tspan x="0" y="0">+99</tspan></text></g><g transform="translate(0.757 0)"><g transform="translate(0 65.221)" clip-path="url(#b)"><circle cx="9.614" cy="9.614" r="9.614" transform="translate(4.293 44.542) rotate(-67.461)" fill="#fff" stroke="#b3b3b3" stroke-miterlimit="10" stroke-width="0.5"/><g transform="translate(12.439 34.855)"><path d="M136.687,160.869l2.072,1.989a.652.652,0,0,0,1.077-.331l1.077-6.713a.813.813,0,0,0-1.16-.829l-6.8,3.9a.458.458,0,0,0,.166.829l1.989.249a1.157,1.157,0,0,0,.746-.249l3.978-3.978-3.315,4.227A.937.937,0,0,0,136.687,160.869Z" transform="translate(-132.753 -154.912)" fill="#427cff"/><path d="M136.1,161.8l1.658,1.575-.414.663a.455.455,0,0,1-.829-.166Z" transform="translate(-133.326 -156.091)" fill="#427cff"/></g></g><g transform="translate(4.013 136.975) rotate(-79.869)" clip-path="url(#b)"><ellipse cx="9.365" cy="9.365" rx="9.365" ry="9.365" transform="translate(35.518 24.154)" fill="#e6e6e6"/></g><g transform="translate(0 65.221)" clip-path="url(#b)"><path d="M200.38,155.036a10.437,10.437,0,1,1,7.956-12.431A10.427,10.427,0,0,1,200.38,155.036Z" transform="translate(-129.723 -116.545)" fill="none" stroke="#427ef9" stroke-miterlimit="10" stroke-width="1"/></g><g transform="translate(7.922 136.212) rotate(-57.662)" clip-path="url(#b)"><circle cx="9.365" cy="9.365" r="9.365" transform="translate(59.055 18.932)" fill="#e6e6e6"/></g><g transform="translate(0 65.221)" clip-path="url(#b)"><path d="M227.58,149.036a10.436,10.436,0,1,1,7.956-12.431A10.427,10.427,0,0,1,227.58,149.036Z" transform="translate(-134.381 -115.518)" fill="none" stroke="#427ef9" stroke-miterlimit="10" stroke-width="1"/></g><g transform="translate(0 65.221)" clip-path="url(#b)"><path d="M234.772,137.079a9.38,9.38,0,1,1-11.188-7.127A9.436,9.436,0,0,1,234.772,137.079Z" transform="translate(-134.611 -115.743)" fill="#e6e6e6"/></g><g transform="translate(0 65.221)" clip-path="url(#b)"><path d="M256.18,142.836a10.436,10.436,0,1,1,7.956-12.431A10.427,10.427,0,0,1,256.18,142.836Z" transform="translate(-139.278 -114.456)" fill="none" stroke="#427ef9" stroke-miterlimit="10" stroke-width="1"/></g><g transform="translate(0 65.221)" clip-path="url(#b)"><path d="M263.272,130.784a9.38,9.38,0,1,1-11.188-7.127A9.436,9.436,0,0,1,263.272,130.784Z" transform="translate(-139.491 -114.669)" fill="#e6e6e6"/></g><g transform="translate(0 65.221)" clip-path="url(#b)"><path d="M284.68,136.536a10.436,10.436,0,1,1,7.956-12.431A10.427,10.427,0,0,1,284.68,136.536Z" transform="translate(-144.158 -113.377)" fill="none" stroke="#427ef9" stroke-miterlimit="10" stroke-width="1"/></g><g transform="matrix(0.852, -0.524, 0.524, 0.852, 13.72, 139.607)" clip-path="url(#b)"><circle cx="9.365" cy="9.365" r="9.365" transform="translate(128.919 3.6)" fill="#e6e6e6"/></g><g transform="translate(0 65.221)" clip-path="url(#b)"><path d="M180.224,142.775a2.634,2.634,0,1,1-3.149-1.989A2.643,2.643,0,0,1,180.224,142.775Z" transform="translate(-127.551 -117.627)" fill="#427fff" stroke="#fff" stroke-miterlimit="10" stroke-width="0.5"/><g transform="translate(48.861 24.485)"><line x2="0.497" y2="2.403" transform="translate(0.995)" fill="none" stroke="#fff" stroke-miterlimit="10" stroke-width="0.5"/><line y1="0.497" x2="2.321" transform="translate(0 0.995)" fill="none" stroke="#fff" stroke-miterlimit="10" stroke-width="0.5"/></g></g><g transform="translate(0 65.221)" clip-path="url(#b)"><text transform="matrix(0.977, -0.215, 0.215, 0.977, 14.794, 54.628)" fill="#4d4d4d" font-size="3" font-family="Roboto-Regular, Roboto"><tspan x="0" y="0">Direct</tspan></text></g><g transform="translate(0 65.221)" clip-path="url(#b)"><text transform="matrix(0.977, -0.215, 0.215, 0.977, 39.198, 49.265)" fill="#4d4d4d" font-size="3" font-family="Roboto-Regular, Roboto"><tspan x="0" y="0">Your Story</tspan></text></g><g transform="translate(0 65.221)" clip-path="url(#b)"><text transform="matrix(0.977, -0.215, 0.215, 0.977, 65.625, 43.459)" fill="#4d4d4d" font-size="3" font-family="Roboto-Regular, Roboto"><tspan x="0" y="0">Nataly</tspan></text></g><g transform="translate(0 65.221)" clip-path="url(#b)"><text transform="matrix(0.977, -0.215, 0.215, 0.977, 89.505, 38.211)" fill="#4d4d4d" font-size="3" font-family="Roboto-Regular, Roboto"><tspan x="0" y="0">Jose</tspan></text></g><g transform="translate(0 65.221)" clip-path="url(#b)"><text transform="matrix(0.977, -0.215, 0.215, 0.977, 109.854, 33.74)" fill="#4d4d4d" font-size="3" font-family="Roboto-Regular, Roboto"><tspan x="0" y="0">Amanda</tspan></text></g></g></g></g></g><g transform="translate(29.921 9.757)"><path d="M205.169,66.963l-66.3,14.586a1.333,1.333,0,0,1-1.575-.995h0a1.333,1.333,0,0,1,.995-1.575l66.3-14.586a1.333,1.333,0,0,1,1.575.995h0A1.273,1.273,0,0,1,205.169,66.963Z" transform="translate(-137.261 -63.092)" fill="#ccc"/><path d="M225.777,64.048a1.528,1.528,0,1,1-1.823-1.16A1.468,1.468,0,0,1,225.777,64.048Z" transform="translate(-151.902 -62.83)" fill="#ccc"/></g></g></g></svg>