<svg xmlns="http://www.w3.org/2000/svg" width="13270.626" height="5587.156" viewBox="0 0 13270.626 5587.156">
  <g id="Group_6" data-name="Group 6" transform="translate(-214 -353)">
    <path id="Path_33" data-name="Path 33" d="M4284.818,2748.939H3910.035v-1480.4H1273.666v698.092" transform="translate(6608.907 1478.649)" fill="none" stroke="#707070" stroke-width="1"/>
    <path id="Path_32" data-name="Path 32" d="M2806.4,2426.756H3316.4v383.053" transform="translate(8572.623 2962.537)" fill="none" stroke="#707070" stroke-width="1"/>
    <path id="Path_29" data-name="Path 29" d="M2840.284,1570.686l106.507,90.122H4414.82" transform="translate(8616.029 1865.756)" fill="none" stroke="#707070" stroke-width="1"/>
    <path id="Path_31" data-name="Path 31" d="M2840.284,1570.686l106.507,90.122H4414.82" transform="translate(8616.029 4183.437)" fill="none" stroke="#707070" stroke-width="1"/>
    <path id="Path_27" data-name="Path 27" d="M-263.592,1126.809H6986.187v839.682" transform="translate(4854.04 1297.068)" fill="none" stroke="#707070" stroke-width="1"/>
    <path id="Path_20" data-name="Path 20" d="M-11.213,0H1605.25l6.833,3300.979" transform="translate(9514.842 2534.951)" fill="none" stroke="#707070" stroke-width="1"/>
    <path id="Path_26" data-name="Path 26" d="M2745.983,1537.048h-1719.2v82.118" transform="translate(6292.6 1822.66)" fill="none" stroke="#707070" stroke-width="1"/>
    <path id="Path_25" data-name="Path 25" d="M1973.406,1465.658h321.1v71.871" transform="translate(7505.401 1731.196)" fill="none" stroke="#707070" stroke-width="1"/>
    <path id="Path_24" data-name="Path 24" d="M2083.071,1432.587v79.88H1887.809v71" transform="translate(7395.735 1688.825)" fill="none" stroke="#707070" stroke-width="1"/>
    <path id="Path_23" data-name="Path 23" d="M-580.785,3872.847H-788.763V1378.168H160.325" transform="translate(3966.559 1619.105)" fill="none" stroke="#707070" stroke-width="1"/>
    <line id="Line_24" data-name="Line 24" y2="1247.807" transform="translate(2001.306 3146.308)" fill="none" stroke="#707070" stroke-width="1"/>
    <path id="Path_22" data-name="Path 22" d="M674.66,2089.059v139.627H2712.491V1847.693" transform="translate(5841.47 2220.652)" fill="none" stroke="#707070" stroke-width="1"/>
    <line id="Line_9" data-name="Line 9" y2="782.445" transform="translate(7847.976 3285.46)" fill="none" stroke="#707070" stroke-width="1"/>
    <line id="Line_8" data-name="Line 8" y2="1053.906" transform="translate(7184.152 3255.804)" fill="none" stroke="#707070" stroke-width="1"/>
    <path id="Path_19" data-name="Path 19" d="M373.908,1605.781V1504.245H3083.947l13.861,819.229" transform="translate(5456.153 1780.632)" fill="none" stroke="#707070" stroke-width="1"/>
    <line id="Line_23" data-name="Line 23" y2="650.137" transform="translate(6518.047 3577.451)" fill="none" stroke="#707070" stroke-width="1"/>
    <g id="Rectangle_1" data-name="Rectangle 1" transform="translate(864.137 1137.55)" fill="#fff" stroke="#707070" stroke-width="1">
      <rect width="600.099" height="303.311" stroke="none"/>
      <rect x="0.5" y="0.5" width="599.099" height="302.311" fill="none"/>
    </g>
    <g id="Rectangle_2" data-name="Rectangle 2" transform="translate(1646.875 1137.55)" fill="#fff" stroke="#707070" stroke-width="1">
      <rect width="600.099" height="303.311" stroke="none"/>
      <rect x="0.5" y="0.5" width="599.099" height="302.311" fill="none"/>
    </g>
    <g id="Rectangle_3" data-name="Rectangle 3" transform="translate(2390.476 1137.55)" fill="#fff" stroke="#707070" stroke-width="1">
      <rect width="600.099" height="303.311" stroke="none"/>
      <rect x="0.5" y="0.5" width="599.099" height="302.311" fill="none"/>
    </g>
    <g id="Rectangle_4" data-name="Rectangle 4" transform="translate(3166.691 948.389)" fill="#fff" stroke="#707070" stroke-width="1">
      <rect width="600.099" height="303.311" stroke="none"/>
      <rect x="0.5" y="0.5" width="599.099" height="302.311" fill="none"/>
    </g>
    <g id="Rectangle_6" data-name="Rectangle 6" transform="translate(3901.232 644.991)" fill="#fff" stroke="#707070" stroke-width="1">
      <rect width="698.19" height="303.311" rx="66" stroke="none"/>
      <rect x="0.5" y="0.5" width="697.19" height="302.311" rx="65.5" fill="none"/>
    </g>
    <g id="Rectangle_14" data-name="Rectangle 14" transform="translate(3118.786 1897.36)" fill="#f90" stroke="#707070" stroke-width="1">
      <rect width="698.19" height="303.311" rx="66" stroke="none"/>
      <rect x="0.5" y="0.5" width="697.19" height="302.311" rx="65.5" fill="none"/>
    </g>
    <g id="Rectangle_7" data-name="Rectangle 7" transform="translate(4788.611 644.991)" fill="#fff" stroke="#707070" stroke-width="1">
      <rect width="698.19" height="303.311" rx="66" stroke="none"/>
      <rect x="0.5" y="0.5" width="697.19" height="302.311" rx="65.5" fill="none"/>
    </g>
    <g id="Rectangle_8" data-name="Rectangle 8" transform="translate(5694.241 644.991)" fill="#fff" stroke="#707070" stroke-width="1">
      <rect width="698.19" height="303.311" rx="66" stroke="none"/>
      <rect x="0.5" y="0.5" width="697.19" height="302.311" rx="65.5" fill="none"/>
    </g>
    <g id="Rectangle_9" data-name="Rectangle 9" transform="translate(6599.87 644.991)" fill="#fff" stroke="#707070" stroke-width="1">
      <rect width="698.19" height="303.311" rx="66" stroke="none"/>
      <rect x="0.5" y="0.5" width="697.19" height="302.311" rx="65.5" fill="none"/>
    </g>
    <g id="Rectangle_13" data-name="Rectangle 13" transform="translate(8465.877 658.678)" fill="#fff" stroke="#707070" stroke-width="1">
      <rect width="914.902" height="303.311" rx="66" stroke="none"/>
      <rect x="0.5" y="0.5" width="913.902" height="302.311" rx="65.5" fill="none"/>
    </g>
    <g id="Rectangle_10" data-name="Rectangle 10" transform="translate(7453.032 353)" fill="#fff" stroke="#707070" stroke-width="1">
      <rect width="698.19" height="303.311" rx="16" stroke="none"/>
      <rect x="0.5" y="0.5" width="697.19" height="302.311" rx="15.5" fill="none"/>
    </g>
    <g id="Rectangle_11" data-name="Rectangle 11" transform="translate(7453.032 683.771)" fill="#fff" stroke="#707070" stroke-width="1">
      <rect width="698.19" height="303.311" rx="16" stroke="none"/>
      <rect x="0.5" y="0.5" width="697.19" height="302.311" rx="15.5" fill="none"/>
    </g>
    <g id="Rectangle_12" data-name="Rectangle 12" transform="translate(7453.032 1014.543)" fill="#fff" stroke="#707070" stroke-width="1">
      <rect width="698.19" height="303.311" rx="16" stroke="none"/>
      <rect x="0.5" y="0.5" width="697.19" height="302.311" rx="15.5" fill="none"/>
    </g>
    <g id="Rectangle_37" data-name="Rectangle 37" transform="translate(3328.655 5332.821)" fill="#fff" stroke="#707070" stroke-width="1">
      <rect width="698.19" height="303.311" rx="16" stroke="none"/>
      <rect x="0.5" y="0.5" width="697.19" height="302.311" rx="15.5" fill="none"/>
    </g>
    <g id="Rectangle_38" data-name="Rectangle 38" transform="translate(4115.663 5332.821)" fill="#fff" stroke="#707070" stroke-width="1">
      <rect width="841.904" height="303.311" rx="16" stroke="none"/>
      <rect x="0.5" y="0.5" width="840.904" height="302.311" rx="15.5" fill="none"/>
    </g>
    <g id="Rectangle_5" data-name="Rectangle 5" transform="translate(3166.691 1329.973)" fill="#fff" stroke="#707070" stroke-width="1">
      <rect width="600.099" height="303.311" stroke="none"/>
      <rect x="0.5" y="0.5" width="599.099" height="302.311" fill="none"/>
    </g>
    <g id="Rectangle_24" data-name="Rectangle 24" transform="translate(4044.946 2856.084)" fill="#f90" stroke="#707070" stroke-width="1">
      <rect width="600.099" height="303.311" rx="66" stroke="none"/>
      <rect x="0.5" y="0.5" width="599.099" height="302.311" rx="65.5" fill="none"/>
    </g>
    <g id="Rectangle_26" data-name="Rectangle 26" transform="translate(6882.736 2933.645)" fill="#f90" stroke="#707070" stroke-width="1">
      <rect width="600.099" height="303.311" stroke="none"/>
      <rect x="0.5" y="0.5" width="599.099" height="302.311" fill="none"/>
    </g>
    <g id="Rectangle_39" data-name="Rectangle 39" transform="translate(5527.714 3412.693)" fill="#fff" stroke="#707070" stroke-width="1">
      <rect width="600.099" height="164.159" stroke="none"/>
      <rect x="0.5" y="0.5" width="599.099" height="163.159" fill="none"/>
    </g>
    <g id="Rectangle_40" data-name="Rectangle 40" transform="translate(6232.6 3412.693)" fill="#fff" stroke="#707070" stroke-width="1">
      <rect width="600.099" height="164.159" stroke="none"/>
      <rect x="0.5" y="0.5" width="599.099" height="163.159" fill="none"/>
    </g>
    <g id="Rectangle_44" data-name="Rectangle 44" transform="translate(6232.6 3668.185)" fill="#fff" stroke="#707070" stroke-width="1">
      <rect width="600.099" height="164.159" stroke="none"/>
      <rect x="0.5" y="0.5" width="599.099" height="163.159" fill="none"/>
    </g>
    <g id="Rectangle_45" data-name="Rectangle 45" transform="translate(6232.6 3912.271)" fill="#fff" stroke="#707070" stroke-width="1">
      <rect width="600.099" height="164.159" stroke="none"/>
      <rect x="0.5" y="0.5" width="599.099" height="163.159" fill="none"/>
    </g>
    <g id="Rectangle_47" data-name="Rectangle 47" transform="translate(6232.6 4176.889)" fill="#fff" stroke="#707070" stroke-width="1">
      <rect width="600.099" height="164.159" stroke="none"/>
      <rect x="0.5" y="0.5" width="599.099" height="163.159" fill="none"/>
    </g>
    <g id="Rectangle_43" data-name="Rectangle 43" transform="translate(7564.81 3412.693)" fill="#fff" stroke="#707070" stroke-width="1">
      <rect width="600.099" height="164.159" stroke="none"/>
      <rect x="0.5" y="0.5" width="599.099" height="163.159" fill="none"/>
    </g>
    <g id="Rectangle_52" data-name="Rectangle 52" transform="translate(7564.81 3668.185)" fill="#fff" stroke="#707070" stroke-width="1">
      <rect width="600.099" height="164.159" stroke="none"/>
      <rect x="0.5" y="0.5" width="599.099" height="163.159" fill="none"/>
    </g>
    <g id="Rectangle_53" data-name="Rectangle 53" transform="translate(7564.81 3903.147)" fill="#fff" stroke="#707070" stroke-width="1">
      <rect width="600.099" height="164.159" stroke="none"/>
      <rect x="0.5" y="0.5" width="599.099" height="163.159" fill="none"/>
    </g>
    <g id="Rectangle_41" data-name="Rectangle 41" transform="translate(6898.705 3412.693)" fill="#fff" stroke="#707070" stroke-width="1">
      <rect width="600.099" height="164.159" stroke="none"/>
      <rect x="0.5" y="0.5" width="599.099" height="163.159" fill="none"/>
    </g>
    <g id="Rectangle_49" data-name="Rectangle 49" transform="translate(6898.705 3668.185)" fill="#fff" stroke="#707070" stroke-width="1">
      <rect width="600.099" height="164.159" stroke="none"/>
      <rect x="0.5" y="0.5" width="599.099" height="163.159" fill="none"/>
    </g>
    <g id="Rectangle_50" data-name="Rectangle 50" transform="translate(6898.705 3909.99)" fill="#fff" stroke="#707070" stroke-width="1">
      <rect width="600.099" height="164.159" stroke="none"/>
      <rect x="0.5" y="0.5" width="599.099" height="163.159" fill="none"/>
    </g>
    <g id="Rectangle_51" data-name="Rectangle 51" transform="translate(6898.705 4144.952)" fill="#fff" stroke="#707070" stroke-width="1">
      <rect width="600.099" height="164.159" stroke="none"/>
      <rect x="0.5" y="0.5" width="599.099" height="163.159" fill="none"/>
    </g>
    <g id="Rectangle_42" data-name="Rectangle 42" transform="translate(8230.915 3412.693)" fill="#fff" stroke="#707070" stroke-width="1">
      <rect width="600.099" height="164.159" stroke="none"/>
      <rect x="0.5" y="0.5" width="599.099" height="163.159" fill="none"/>
    </g>
    <g id="Rectangle_46" data-name="Rectangle 46" transform="translate(8230.915 3941.927)" fill="#fff" stroke="#707070" stroke-width="1">
      <rect width="600.099" height="164.159" stroke="none"/>
      <rect x="0.5" y="0.5" width="599.099" height="163.159" fill="none"/>
    </g>
    <g id="Rectangle_48" data-name="Rectangle 48" transform="translate(8230.915 3700.122)" fill="#fff" stroke="#707070" stroke-width="1">
      <rect width="600.099" height="164.159" stroke="none"/>
      <rect x="0.5" y="0.5" width="599.099" height="163.159" fill="none"/>
    </g>
    <g id="Rectangle_65" data-name="Rectangle 65" transform="translate(11584.253 3225.636)" fill="#fff" stroke="#707070" stroke-width="1">
      <rect width="600.099" height="164.159" stroke="none"/>
      <rect x="0.5" y="0.5" width="599.099" height="163.159" fill="none"/>
    </g>
    <g id="Rectangle_66" data-name="Rectangle 66" transform="translate(11584.253 3428.661)" fill="#fff" stroke="#707070" stroke-width="1">
      <rect width="600.099" height="164.159" stroke="none"/>
      <rect x="0.5" y="0.5" width="599.099" height="163.159" fill="none"/>
    </g>
    <g id="Rectangle_69" data-name="Rectangle 69" transform="translate(11584.253 5746.342)" fill="#fff" stroke="#707070" stroke-width="1">
      <rect width="600.099" height="164.159" stroke="none"/>
      <rect x="0.5" y="0.5" width="599.099" height="163.159" fill="none"/>
    </g>
    <g id="Rectangle_67" data-name="Rectangle 67" transform="translate(12243.515 3428.661)" fill="#fff" stroke="#707070" stroke-width="1">
      <rect width="600.099" height="164.159" stroke="none"/>
      <rect x="0.5" y="0.5" width="599.099" height="163.159" fill="none"/>
    </g>
    <g id="Rectangle_70" data-name="Rectangle 70" transform="translate(12243.515 5746.342)" fill="#fff" stroke="#707070" stroke-width="1">
      <rect width="600.099" height="164.159" stroke="none"/>
      <rect x="0.5" y="0.5" width="599.099" height="163.159" fill="none"/>
    </g>
    <g id="Rectangle_68" data-name="Rectangle 68" transform="translate(12884.527 3428.661)" fill="#fff" stroke="#707070" stroke-width="1">
      <rect width="600.099" height="164.159" stroke="none"/>
      <rect x="0.5" y="0.5" width="599.099" height="163.159" fill="none"/>
    </g>
    <g id="Rectangle_71" data-name="Rectangle 71" transform="translate(12884.527 5746.342)" fill="#fff" stroke="#707070" stroke-width="1">
      <rect width="600.099" height="164.159" stroke="none"/>
      <rect x="0.5" y="0.5" width="599.099" height="163.159" fill="none"/>
    </g>
    <g id="Rectangle_25" data-name="Rectangle 25" transform="translate(4713.332 2856.084)" fill="#f90" stroke="#707070" stroke-width="1">
      <rect width="600.099" height="303.311" stroke="none"/>
      <rect x="0.5" y="0.5" width="599.099" height="302.311" fill="none"/>
    </g>
    <g id="Rectangle_29" data-name="Rectangle 29" transform="translate(4713.332 3367.069)" fill="#fff" stroke="#707070" stroke-width="1">
      <rect width="600.099" height="303.311" rx="66" stroke="none"/>
      <rect x="0.5" y="0.5" width="599.099" height="302.311" rx="65.5" fill="none"/>
    </g>
    <g id="Rectangle_33" data-name="Rectangle 33" transform="translate(4660.865 3891.741)" fill="#fff" stroke="#707070" stroke-width="1">
      <rect width="705.033" height="305.592" rx="67" stroke="none"/>
      <rect x="0.5" y="0.5" width="704.033" height="304.592" rx="66.5" fill="none"/>
    </g>
    <g id="Rectangle_34" data-name="Rectangle 34" transform="translate(3620.646 3891.741)" fill="#fff" stroke="#707070" stroke-width="1">
      <rect width="889.809" height="305.592" rx="67" stroke="none"/>
      <rect x="0.5" y="0.5" width="888.809" height="304.592" rx="66.5" fill="none"/>
    </g>
    <g id="Rectangle_35" data-name="Rectangle 35" transform="translate(3620.646 4393.601)" fill="#fff" stroke="#707070" stroke-width="1">
      <rect width="889.809" height="305.592" rx="67" stroke="none"/>
      <rect x="0.5" y="0.5" width="888.809" height="304.592" rx="66.5" fill="none"/>
    </g>
    <g id="Rectangle_36" data-name="Rectangle 36" transform="translate(3620.646 4900.023)" fill="#fff" stroke="#707070" stroke-width="1">
      <rect width="889.809" height="305.592" rx="67" stroke="none"/>
      <rect x="0.5" y="0.5" width="888.809" height="304.592" rx="66.5" fill="none"/>
    </g>
    <g id="Rectangle_27" data-name="Rectangle 27" transform="translate(10820.057 2856.084)" fill="#f90" stroke="#707070" stroke-width="1">
      <rect width="600.099" height="303.311" stroke="none"/>
      <rect x="0.5" y="0.5" width="599.099" height="302.311" fill="none"/>
    </g>
    <g id="Rectangle_58" data-name="Rectangle 58" transform="translate(10820.057 3268.978)" fill="#fff" stroke="#707070" stroke-width="1">
      <rect width="600.099" height="303.311" stroke="none"/>
      <rect x="0.5" y="0.5" width="599.099" height="302.311" fill="none"/>
    </g>
    <g id="Rectangle_59" data-name="Rectangle 59" transform="translate(10820.057 3668.185)" fill="#fff" stroke="#707070" stroke-width="1">
      <rect width="600.099" height="303.311" stroke="none"/>
      <rect x="0.5" y="0.5" width="599.099" height="302.311" fill="none"/>
    </g>
    <g id="Rectangle_64" data-name="Rectangle 64" transform="translate(10820.057 4838.431)" fill="#fff" stroke="#707070" stroke-width="1">
      <rect width="600.099" height="303.311" stroke="none"/>
      <rect x="0.5" y="0.5" width="599.099" height="302.311" fill="none"/>
    </g>
    <g id="Rectangle_60" data-name="Rectangle 60" transform="translate(10820.057 4067.392)" fill="#fff" stroke="#707070" stroke-width="1">
      <rect width="600.099" height="303.311" stroke="none"/>
      <rect x="0.5" y="0.5" width="599.099" height="302.311" fill="none"/>
    </g>
    <g id="Rectangle_63" data-name="Rectangle 63" transform="translate(10820.057 5237.638)" fill="#fff" stroke="#707070" stroke-width="1">
      <rect width="600.099" height="303.311" stroke="none"/>
      <rect x="0.5" y="0.5" width="599.099" height="302.311" fill="none"/>
    </g>
    <g id="Rectangle_61" data-name="Rectangle 61" transform="translate(10820.057 4466.599)" fill="#fff" stroke="#707070" stroke-width="1">
      <rect width="600.099" height="303.311" stroke="none"/>
      <rect x="0.5" y="0.5" width="599.099" height="302.311" fill="none"/>
    </g>
    <g id="Rectangle_62" data-name="Rectangle 62" transform="translate(10820.057 5636.845)" fill="#fff" stroke="#707070" stroke-width="1">
      <rect width="600.099" height="303.311" stroke="none"/>
      <rect x="0.5" y="0.5" width="599.099" height="302.311" fill="none"/>
    </g>
    <g id="Rectangle_28" data-name="Rectangle 28" transform="translate(9202.699 2856.084)" fill="#f90" stroke="#707070" stroke-width="1">
      <rect width="600.099" height="303.311" stroke="none"/>
      <rect x="0.5" y="0.5" width="599.099" height="302.311" fill="none"/>
    </g>
    <g id="Rectangle_56" data-name="Rectangle 56" transform="translate(9017.923 3234.76)" fill="#fff" stroke="#707070" stroke-width="1">
      <rect width="494.417" height="249.896" stroke="none"/>
      <rect x="0.5" y="0.5" width="493.417" height="248.896" fill="none"/>
    </g>
    <g id="Rectangle_57" data-name="Rectangle 57" transform="translate(9552.604 3234.76)" fill="#fff" stroke="#707070" stroke-width="1">
      <rect width="494.417" height="249.896" stroke="none"/>
      <rect x="0.5" y="0.5" width="493.417" height="248.896" fill="none"/>
    </g>
    <g id="Rectangle_19" data-name="Rectangle 19" transform="translate(2817.67 2383.88)" fill="#fff" stroke="#707070" stroke-width="1">
      <rect width="600.099" height="303.311" stroke="none"/>
      <rect x="0.5" y="0.5" width="599.099" height="302.311" fill="none"/>
    </g>
    <g id="Rectangle_20" data-name="Rectangle 20" transform="translate(3595.553 2383.88)" fill="#fff" stroke="#707070" stroke-width="1">
      <rect width="912.621" height="303.311" stroke="none"/>
      <rect x="0.5" y="0.5" width="911.621" height="302.311" fill="none"/>
    </g>
    <text id="SPLASH_SCREEN" data-name="SPLASH SCREEN" transform="translate(952.195 1313.745)" fill="#707070" font-size="52" font-family="Roboto-Regular, Roboto"><tspan x="0" y="0">SPLASH SCREEN</tspan></text>
    <text id="ONBOARDING" transform="translate(1774.07 1313.745)" fill="#707070" font-size="52" font-family="Roboto-Regular, Roboto"><tspan x="0" y="0">ONBOARDING</tspan></text>
    <text id="SIGN_UP_LOG_IN" data-name="SIGN UP LOG IN" transform="translate(2504.625 1313.745)" fill="#707070" font-size="52" font-family="Roboto-Regular, Roboto"><tspan x="0" y="0">SIGN UP LOG IN</tspan></text>
    <text id="SIGN_UP" data-name="SIGN UP" transform="translate(3369.806 1124.583)" fill="#707070" font-size="52" font-family="Roboto-Regular, Roboto"><tspan x="0" y="0">SIGN UP</tspan></text>
    <text id="REGISTER_WITH_SMARTSHIP" data-name="REGISTER WITH 
SMARTSHIP" transform="translate(4259.567 789.25)" fill="#707070" font-size="52" font-family="Roboto-Regular, Roboto"><tspan x="-193.984" y="0">REGISTER WITH </tspan><tspan x="-143.051" y="62">SMARTSHIP</tspan></text>
    <text id="DASHBOARD" transform="translate(3478.464 2066.712)" fill="#fff" font-size="52" font-family="Roboto-Regular, Roboto"><tspan x="-151.519" y="0">DASHBOARD</tspan></text>
    <text id="LOCATION_SETTINGS" data-name="LOCATION SETTINGS" transform="translate(4886.792 821.186)" fill="#707070" font-size="52" font-family="Roboto-Regular, Roboto"><tspan x="0" y="0">LOCATION SETTINGS</tspan></text>
    <text id="ID_VERIFICATION" data-name="ID &amp; VERIFICATION" transform="translate(5824.358 821.186)" fill="#707070" font-size="52" font-family="Roboto-Regular, Roboto"><tspan x="0" y="0">ID &amp; VERIFICATION</tspan></text>
    <text id="PAYMENT_METHOD" data-name="PAYMENT METHOD" transform="translate(6704.895 821.186)" fill="#707070" font-size="52" font-family="Roboto-Regular, Roboto"><tspan x="0" y="0">PAYMENT METHOD</tspan></text>
    <text id="REGISTRATION_SUCCESSFUL" data-name="REGISTRATION SUCCESSFUL" transform="translate(8570.901 834.873)" fill="#707070" font-size="52" font-family="Roboto-Regular, Roboto"><tspan x="0" y="0">REGISTRATION SUCCESSFUL</tspan></text>
    <text id="BANK_TRANSFER" data-name="BANK TRANSFER" transform="translate(7587.712 529.195)" fill="#707070" font-size="52" font-family="Roboto-Regular, Roboto"><tspan x="0" y="0">BANK TRANSFER</tspan></text>
    <text id="CREDIT_CARD" data-name="CREDIT CARD" transform="translate(7624.211 859.966)" fill="#707070" font-size="52" font-family="Roboto-Regular, Roboto"><tspan x="0" y="0">CREDIT CARD</tspan></text>
    <text id="SADAD" transform="translate(7701.771 1190.738)" fill="#707070" font-size="52" font-family="Roboto-Regular, Roboto"><tspan x="0" y="0">SADAD</tspan></text>
    <text id="BACK_TO_DASHBOARD" data-name="BACK TO DASHBOARD" transform="translate(3435.96 5509.016)" fill="#707070" font-size="52" font-family="Roboto-Regular, Roboto"><tspan x="0" y="0">BACK TO DASHBOARD</tspan></text>
    <text id="ADD_ANOTHER_SHIPMENT" data-name="ADD ANOTHER SHIPMENT" transform="translate(4222.968 5509.016)" fill="#707070" font-size="52" font-family="Roboto-Regular, Roboto"><tspan x="0" y="0">ADD ANOTHER SHIPMENT</tspan></text>
    <text id="LOG_IN" data-name="LOG IN" transform="translate(3385.775 1505.168)" fill="#707070" font-size="51" font-family="Roboto-Regular, Roboto"><tspan x="0" y="0">LOG IN</tspan></text>
    <g id="Group_4" data-name="Group 4" transform="translate(957.666 2880.55)">
      <g id="Rectangle_15" data-name="Rectangle 15" fill="#fff" stroke="#707070" stroke-width="1">
        <rect width="600.099" height="303.311" stroke="none"/>
        <rect x="0.5" y="0.5" width="599.099" height="302.311" fill="none"/>
      </g>
      <text id="ADD_WAYBILL" data-name="ADD WAYBILL" transform="translate(111.868 176.195)" fill="#707070" font-size="52" font-family="Roboto-Regular, Roboto"><tspan x="0" y="0">ADD WAYBILL</tspan></text>
    </g>
    <text id="DASHBOARD-2" data-name="DASHBOARD" transform="translate(4191.032 3032.279)" fill="#fff" font-size="52" font-family="Roboto-Regular, Roboto"><tspan x="0" y="0">DASHBOARD</tspan></text>
    <g id="Group_2" data-name="Group 2" transform="translate(1701.331 2880.55)">
      <g id="Rectangle_23" data-name="Rectangle 23" fill="#fff" stroke="#707070" stroke-width="1">
        <rect width="600.099" height="303.311" stroke="none"/>
        <rect x="0.5" y="0.5" width="599.099" height="302.311" fill="none"/>
      </g>
      <text id="DEPOSIT_WALLET" data-name="DEPOSIT WALLET" transform="translate(91.338 176.195)" fill="#707070" font-size="52" font-family="Roboto-Regular, Roboto"><tspan x="0" y="0">DEPOSIT WALLET</tspan></text>
    </g>
    <g id="Group_5" data-name="Group 5" transform="translate(1701.331 3425.752)">
      <g id="Rectangle_23-2" data-name="Rectangle 23" fill="#fff" stroke="#707070" stroke-width="1">
        <rect width="600.099" height="303.311" stroke="none"/>
        <rect x="0.5" y="0.5" width="599.099" height="302.311" fill="none"/>
      </g>
      <g id="Rectangle_54" data-name="Rectangle 54" transform="translate(0 369.552)" fill="#fff" stroke="#707070" stroke-width="1">
        <rect width="600.099" height="303.311" stroke="none"/>
        <rect x="0.5" y="0.5" width="599.099" height="302.311" fill="none"/>
      </g>
      <g id="Rectangle_55" data-name="Rectangle 55" transform="translate(0 725.416)" fill="#fff" stroke="#707070" stroke-width="1">
        <rect width="600.099" height="303.311" stroke="none"/>
        <rect x="0.5" y="0.5" width="599.099" height="302.311" fill="none"/>
      </g>
      <text id="PAYMENT_METHOD-2" data-name="PAYMENT METHOD" transform="translate(68.526 176.195)" fill="#707070" font-size="52" font-family="Roboto-Regular, Roboto"><tspan x="0" y="0">PAYMENT METHOD</tspan></text>
      <text id="AMOUNT" transform="translate(191.71 545.746)" fill="#707070" font-size="52" font-family="Roboto-Regular, Roboto"><tspan x="0" y="0">AMOUNT</tspan></text>
      <text id="DEPOSIT" transform="translate(191.71 901.611)" fill="#707070" font-size="52" font-family="Roboto-Regular, Roboto"><tspan x="0" y="0">DEPOSIT</tspan></text>
    </g>
    <text id="FLOATING_MENU" data-name="FLOATING MENU" transform="translate(7003.729 3109.839)" fill="#fff" font-size="52" font-family="Roboto-Regular, Roboto"><tspan x="0" y="0">FLOATING MENU</tspan></text>
    <g id="Group_3" data-name="Group 3" transform="translate(2444.996 2880.55)">
      <g id="Rectangle_21" data-name="Rectangle 21" fill="#fff" stroke="#707070" stroke-width="1">
        <rect width="600.099" height="303.311" stroke="none"/>
        <rect x="0.5" y="0.5" width="599.099" height="302.311" fill="none"/>
      </g>
      <text id="VIEW_ALL_SHIPMENTS" data-name="VIEW ALL SHIPMENTS" transform="translate(83.563 179.244)" fill="#707070" font-size="45" font-family="Roboto-Regular, Roboto"><tspan x="0" y="0">VIEW ALL SHIPMENTS</tspan></text>
    </g>
    <text id="SHIPPING" transform="translate(4893.636 3032.279)" fill="#fff" font-size="52" font-family="Roboto-Regular, Roboto"><tspan x="0" y="0">SHIPPING</tspan></text>
    <text id="MY_SHIPMENTS" data-name="MY SHIPMENTS" transform="translate(4822.919 3543.264)" fill="#707070" font-size="52" font-family="Roboto-Regular, Roboto"><tspan x="0" y="0">MY SHIPMENTS</tspan></text>
    <text id="NEW_SHIPMENT" data-name="NEW SHIPMENT" transform="translate(5637.301 3511.327)" fill="#707070" font-size="52" font-family="Roboto-Regular, Roboto"><tspan x="0" y="0">NEW SHIPMENT</tspan></text>
    <text id="BUY_AWB" data-name="BUY AWB" transform="translate(6406.06 3511.327)" fill="#707070" font-size="52" font-family="Roboto-Regular, Roboto"><tspan x="0" y="0">BUY AWB</tspan></text>
    <text id="CHOOSE_PACKAGE" data-name="CHOOSE  PACKAGE" transform="translate(6301.125 3766.82)" fill="#707070" font-size="52" font-family="Roboto-Regular, Roboto"><tspan x="0" y="0" xml:space="preserve">CHOOSE  PACKAGE</tspan></text>
    <text id="ADD_TO_CART" data-name="ADD TO CART" transform="translate(6369.561 4010.906)" fill="#707070" font-size="52" font-family="Roboto-Regular, Roboto"><tspan x="0" y="0">ADD TO CART</tspan></text>
    <text id="VIEW_CART" data-name="VIEW CART" transform="translate(6369.561 4275.523)" fill="#707070" font-size="52" font-family="Roboto-Regular, Roboto"><tspan x="0" y="0">VIEW CART</tspan></text>
    <text id="ADD_CONSIGNEE" data-name="ADD CONSIGNEE" transform="translate(7674.397 3511.327)" fill="#707070" font-size="52" font-family="Roboto-Regular, Roboto"><tspan x="0" y="0">ADD CONSIGNEE</tspan></text>
    <text id="DETAILS" transform="translate(7763.363 3766.82)" fill="#707070" font-size="52" font-family="Roboto-Regular, Roboto"><tspan x="0" y="0">DETAILS</tspan></text>
    <text id="SAVE" transform="translate(7786.175 4001.781)" fill="#707070" font-size="52" font-family="Roboto-Regular, Roboto"><tspan x="0" y="0">SAVE</tspan></text>
    <text id="ADD_CREDIT" data-name="ADD CREDIT" transform="translate(7058.478 3511.327)" fill="#707070" font-size="52" font-family="Roboto-Regular, Roboto"><tspan x="0" y="0">ADD CREDIT</tspan></text>
    <text id="DEPOSIT_FUNDS" data-name="DEPOSIT FUNDS" transform="translate(7015.135 3766.82)" fill="#707070" font-size="52" font-family="Roboto-Regular, Roboto"><tspan x="0" y="0">DEPOSIT FUNDS</tspan></text>
    <text id="UPLOAD_VOUCHER" data-name="UPLOAD VOUCHER" transform="translate(6985.48 4008.625)" fill="#707070" font-size="52" font-family="Roboto-Regular, Roboto"><tspan x="0" y="0">UPLOAD VOUCHER</tspan></text>
    <text id="SUCCESS" transform="translate(7085.852 4243.587)" fill="#707070" font-size="52" font-family="Roboto-Regular, Roboto"><tspan x="0" y="0">SUCCESS</tspan></text>
    <text id="VIEW_CART-2" data-name="VIEW CART" transform="translate(8397.532 3511.327)" fill="#707070" font-size="52" font-family="Roboto-Regular, Roboto"><tspan x="0" y="0">VIEW CART</tspan></text>
    <text id="CHECKOUT" transform="translate(8377.001 4040.562)" fill="#707070" font-size="52" font-family="Roboto-Regular, Roboto"><tspan x="0" y="0">CHECKOUT</tspan></text>
    <text id="PAYMENT_METHOD-3" data-name="PAYMENT METHOD" transform="translate(8308.565 3798.756)" fill="#707070" font-size="52" font-family="Roboto-Regular, Roboto"><tspan x="0" y="0">PAYMENT METHOD</tspan></text>
    <text id="BOTTOM_NAV" data-name="BOTTOM NAV" transform="translate(11718.934 3324.271)" fill="#707070" font-size="52" font-family="Roboto-Regular, Roboto"><tspan x="0" y="0">BOTTOM NAV</tspan></text>
    <text id="LIST_NEW_PRODUCT" data-name="LIST NEW PRODUCT" transform="translate(11643.654 3527.296)" fill="#707070" font-size="52" font-family="Roboto-Regular, Roboto"><tspan x="0" y="0">LIST NEW PRODUCT</tspan></text>
    <text id="SELECT_DATE" data-name="SELECT DATE" transform="translate(11718.934 5844.977)" fill="#707070" font-size="52" font-family="Roboto-Regular, Roboto"><tspan x="0" y="0">SELECT DATE</tspan></text>
    <text id="ENTER_INFO" data-name="ENTER INFO" transform="translate(12391.882 3527.296)" fill="#707070" font-size="52" font-family="Roboto-Regular, Roboto"><tspan x="0" y="0">ENTER INFO</tspan></text>
    <text id="SELECT_TIME" data-name="SELECT TIME" transform="translate(12391.882 5844.977)" fill="#707070" font-size="52" font-family="Roboto-Regular, Roboto"><tspan x="0" y="0">SELECT TIME</tspan></text>
    <text id="CONFIRM" transform="translate(13032.895 3527.296)" fill="#707070" font-size="52" font-family="Roboto-Regular, Roboto"><tspan x="0" y="0">CONFIRM</tspan></text>
    <text id="CONFIRM-2" data-name="CONFIRM" transform="translate(13069.393 5844.977)" fill="#707070" font-size="52" font-family="Roboto-Regular, Roboto"><tspan x="0" y="0">CONFIRM</tspan></text>
    <text id="ADD_NEW_SHIPMENT" data-name="ADD NEW SHIPMENT" transform="translate(4761.327 4061.092)" fill="#707070" font-size="52" font-family="Roboto-Regular, Roboto"><tspan x="0" y="0">ADD NEW SHIPMENT</tspan></text>
    <text id="ENTER_SHIPMENT_DETAILS" data-name="ENTER SHIPMENT DETAILS" transform="translate(3730.233 4061.092)" fill="#707070" font-size="52" font-family="Roboto-Regular, Roboto"><tspan x="0" y="0">ENTER SHIPMENT DETAILS</tspan></text>
    <text id="SHIPMENT_LOCATION" data-name="SHIPMENT LOCATION" transform="translate(3805.512 4562.952)" fill="#707070" font-size="52" font-family="Roboto-Regular, Roboto"><tspan x="0" y="0">SHIPMENT LOCATION</tspan></text>
    <text id="CHOOSE_VAS_SERVICE" data-name="CHOOSE VAS SERVICE" transform="translate(3805.512 5069.375)" fill="#707070" font-size="52" font-family="Roboto-Regular, Roboto"><tspan x="0" y="0">CHOOSE VAS SERVICE</tspan></text>
    <g id="Group_1" data-name="Group 1" transform="translate(214 2880.55)">
      <g id="Rectangle_22" data-name="Rectangle 22" transform="translate(0)" fill="#fff" stroke="#707070" stroke-width="1">
        <rect width="600.099" height="303.311" stroke="none"/>
        <rect x="0.5" y="0.5" width="599.099" height="302.311" fill="none"/>
      </g>
      <text id="VIEW_ADDRESS_BOOK" data-name="VIEW ADDRESS BOOK" transform="translate(43.433 176.195)" fill="#707070" font-size="52" font-family="Roboto-Regular, Roboto"><tspan x="0" y="0">VIEW ADDRESS BOOK</tspan></text>
    </g>
    <text id="MARKETPLACE" transform="translate(10941.05 3032.279)" fill="#fff" font-size="52" font-family="Roboto-Regular, Roboto"><tspan x="0" y="0">MARKETPLACE</tspan></text>
    <text id="OVERVIEW" transform="translate(10998.079 3445.173)" fill="#707070" font-size="52" font-family="Roboto-Regular, Roboto"><tspan x="0" y="0">OVERVIEW</tspan></text>
    <text id="PRODUCTS" transform="translate(10998.079 3844.38)" fill="#707070" font-size="52" font-family="Roboto-Regular, Roboto"><tspan x="0" y="0">PRODUCTS</tspan></text>
    <text id="BUYERS" transform="translate(11023.173 5014.626)" fill="#707070" font-size="52" font-family="Roboto-Regular, Roboto"><tspan x="0" y="0">BUYERS</tspan></text>
    <text id="ORDERS" transform="translate(11032.297 4243.587)" fill="#707070" font-size="52" font-family="Roboto-Regular, Roboto"><tspan x="0" y="0">ORDERS</tspan></text>
    <text id="EARNINGS" transform="translate(11004.923 5413.833)" fill="#707070" font-size="52" font-family="Roboto-Regular, Roboto"><tspan x="0" y="0">EARNINGS</tspan></text>
    <text id="HISTORY" transform="translate(11025.454 4642.793)" fill="#707070" font-size="52" font-family="Roboto-Regular, Roboto"><tspan x="0" y="0">HISTORY</tspan></text>
    <text id="SCHEDULE" transform="translate(11004.923 5813.04)" fill="#707070" font-size="52" font-family="Roboto-Regular, Roboto"><tspan x="0" y="0">SCHEDULE</tspan></text>
    <text id="PROFILE" transform="translate(9401.252 3032.279)" fill="#fff" font-size="52" font-family="Roboto-Regular, Roboto"><tspan x="0" y="0">PROFILE</tspan></text>
    <text id="ADD_TO_WALLET" data-name="ADD TO WALLET" transform="translate(9136.402 3378.555)" fill="#707070" font-size="41" font-family="Roboto-Regular, Roboto"><tspan x="0" y="0">ADD TO WALLET</tspan></text>
    <text id="EDIT_PROFILE" data-name="EDIT PROFILE" transform="translate(9671.083 3378.555)" fill="#707070" font-size="41" font-family="Roboto-Regular, Roboto"><tspan x="0" y="0">EDIT PROFILE</tspan></text>
    <text id="IN_SCREEN" data-name="IN SCREEN" transform="translate(2986.568 2560.074)" fill="#707070" font-size="52" font-family="Roboto-Regular, Roboto"><tspan x="0" y="0">IN SCREEN</tspan></text>
    <text id="BOTTOM_NAVIGATION" data-name="BOTTOM NAVIGATION" transform="translate(3814.637 2560.074)" fill="#707070" font-size="52" font-family="Roboto-Regular, Roboto"><tspan x="0" y="0">BOTTOM NAVIGATION</tspan></text>
    <path id="Path_1" data-name="Path 1" d="M339.99,496H488.357" transform="translate(1140.521 801.359)" fill="none" stroke="#707070" stroke-width="1"/>
    <path id="Path_2" data-name="Path 2" d="M579.42,496H696.552" transform="translate(1681.969 801.359)" fill="none" stroke="#707070" stroke-width="1"/>
    <path id="Path_3" data-name="Path 3" d="M809.273,591.487,932.261,439.354" transform="translate(2201.76 673.258)" fill="none" stroke="#707070" stroke-width="1"/>
    <path id="Path_4" data-name="Path 4" d="M809.273,496,934.213,674.361" transform="translate(2201.76 801.359)" fill="none" stroke="#707070" stroke-width="1"/>
    <path id="Path_5" data-name="Path 5" d="M1541.665,629.876,1652.431,462.3" transform="translate(2246.183 445.708)" fill="none" stroke="#707070" stroke-width="1"/>
    <path id="Path_6" data-name="Path 6" d="M1908.873,413.481h124.611" transform="translate(2716.643 383.166)" fill="none" stroke="#707070" stroke-width="1"/>
    <path id="Path_7" data-name="Path 7" d="M1908.873,413.481h124.611" transform="translate(3622.272 383.166)" fill="none" stroke="#707070" stroke-width="1"/>
    <path id="Path_8" data-name="Path 8" d="M1908.873,413.481h124.611" transform="translate(4527.901 383.166)" fill="none" stroke="#707070" stroke-width="1"/>
    <path id="Path_9" data-name="Path 9" d="M3080.434,428.681l119.682-145.435" transform="translate(4217.626 216.31)" fill="none" stroke="#707070" stroke-width="1"/>
    <path id="Path_10" data-name="Path 10" d="M3089.4,419.758h99.228" transform="translate(4229.114 391.208)" fill="none" stroke="#707070" stroke-width="1"/>
    <path id="Path_12" data-name="Path 12" d="M3089.4,419.758h250.051" transform="translate(5098.244 391.208)" fill="none" stroke="#707070" stroke-width="1"/>
    <path id="Path_11" data-name="Path 11" d="M3064.111,470.39l173.072,242.3" transform="translate(4196.713 456.076)" fill="none" stroke="#707070" stroke-width="1"/>
    <path id="Path_13" data-name="Path 13" d="M7135.179,413.481s289.994,58.576,158.179,282.664S7108.815,1230,6014.742,1230s-4448.793-125.225-4448.793-125.225" transform="translate(2277.296 383.166)" fill="none" stroke="#707070" stroke-width="1"/>
    <path id="Path_14" data-name="Path 14" d="M1383.453,803.507V974.5" transform="translate(2084.546 882.86)" fill="none" stroke="#707070" stroke-width="1"/>
    <path id="Path_15" data-name="Path 15" d="M1598.928,706.738l-43.506,31.7,57.8,14.295" transform="translate(2263.808 758.881)" fill="none" stroke="#707070" stroke-width="1"/>
    <path id="Path_16" data-name="Path 16" d="M1447.174,1247.371l-371,133.132" transform="translate(1649.81 1451.531)" fill="none" stroke="#707070" stroke-width="1"/>
    <path id="Path_17" data-name="Path 17" d="M1657.4,1252.818l273.488,110.056" transform="translate(2394.462 1458.509)" fill="none" stroke="#707070" stroke-width="1"/>
    <line id="Line_1" data-name="Line 1" y2="161.964" transform="translate(5003.342 3180.525)" fill="none" stroke="#707070" stroke-width="1"/>
    <line id="Line_2" data-name="Line 2" y2="120.903" transform="translate(5012.467 3723.447)" fill="none" stroke="#707070" stroke-width="1"/>
    <line id="Line_3" data-name="Line 3" y2="136.871" transform="translate(4063.495 4227.588)" fill="none" stroke="#707070" stroke-width="1"/>
    <line id="Line_4" data-name="Line 4" y2="136.871" transform="translate(4065.776 4722.604)" fill="none" stroke="#707070" stroke-width="1"/>
    <line id="Line_5" data-name="Line 5" x2="109.497" transform="translate(4535.7 4045.093)" fill="none" stroke="#707070" stroke-width="1"/>
    <line id="Line_6" data-name="Line 6" x1="335.334" y2="70.717" transform="translate(3735.005 5231.308)" fill="none" stroke="#707070" stroke-width="1"/>
    <line id="Line_7" data-name="Line 7" x2="378.676" y2="61.592" transform="translate(4115.962 5231.308)" fill="none" stroke="#707070" stroke-width="1"/>
    <path id="Path_18" data-name="Path 18" d="M-8.566,3193.245H100.673V1902.781" transform="translate(4966.133 2291.231)" fill="none" stroke="#707070" stroke-width="1"/>
    <line id="Line_10" data-name="Line 10" y2="100.372" transform="translate(6518.047 3285.46)" fill="none" stroke="#707070" stroke-width="1"/>
    <line id="Line_11" data-name="Line 11" x2="2591.423" transform="translate(4590.448 2534.951)" fill="none" stroke="#707070" stroke-width="1"/>
    <line id="Line_12" data-name="Line 12" y1="349.021" transform="translate(7184.152 2534.951)" fill="none" stroke="#707070" stroke-width="1"/>
    <line id="Line_13" data-name="Line 13" y1="287.429" transform="translate(5003.342 2534.951)" fill="none" stroke="#707070" stroke-width="1"/>
    <line id="Line_14" data-name="Line 14" x2="2319.962" transform="translate(7181.871 2534.951)" fill="none" stroke="#707070" stroke-width="1"/>
    <line id="Line_15" data-name="Line 15" y1="278.304" transform="translate(9501.833 2534.951)" fill="none" stroke="#707070" stroke-width="1"/>
    <line id="Line_17" data-name="Line 17" y2="424.3" transform="translate(5826.849 3620.793)" fill="none" stroke="#707070" stroke-width="1"/>
    <line id="Line_18" data-name="Line 18" x2="396.926" transform="translate(5432.204 4045.093)" fill="none" stroke="#707070" stroke-width="1"/>
    <line id="Line_19" data-name="Line 19" y1="100.372" transform="translate(3096.274 2238.397)" fill="none" stroke="#707070" stroke-width="1"/>
    <line id="Line_22" data-name="Line 22" y1="38.78" transform="translate(3479.512 2199.617)" fill="none" stroke="#707070" stroke-width="1"/>
    <line id="Line_20" data-name="Line 20" y2="100.372" transform="translate(4052.089 2238.397)" fill="none" stroke="#707070" stroke-width="1"/>
    <line id="Line_21" data-name="Line 21" x2="955.815" transform="translate(3096.274 2238.397)" fill="none" stroke="#707070" stroke-width="1"/>
    <path id="Path_21" data-name="Path 21" d="M-1630.468,1535.149v103.4H2748.012V1401.277h879.935v237.271" transform="translate(2888.183 1648.711)" fill="none" stroke="#707070" stroke-width="1"/>
    <path id="Path_28" data-name="Path 28" d="M2840.284,1606.6l95.584-87.391" transform="translate(8616.029 1799.803)" fill="none" stroke="#707070" stroke-width="1"/>
    <path id="Path_30" data-name="Path 30" d="M2999.654,1404.072l21.007-49.287,23.431,49.287Z" transform="translate(8820.212 1589.148)" fill="#fff" stroke="#707070" stroke-width="1"/>
  </g>
</svg>
