<svg xmlns="http://www.w3.org/2000/svg" width="3784" height="4711.551" viewBox="0 0 3784 4711.551">
  <g id="Group_1550" data-name="Group 1550" transform="translate(8632 1455.79)">
    <g id="Group_1497" data-name="Group 1497" transform="translate(-8631 -1455.79)">
      <path id="Path_2138" data-name="Path 2138" d="M682.809,271.534c-49.785-23.987-108.926-37.787-172.508-37.787V1542.509l320.865-220.316V541.962Z" transform="translate(1330.88 -221.125)" fill="#e44752"/>
      <path id="Path_2139" data-name="Path 2139" d="M1868,397.083c0,177.272-143.594,320.866-320.865,320.866H742.755A320.735,320.735,0,0,1,424.026,433.558a298.024,298.024,0,0,1-2.135-36.475Z" transform="translate(-33.219 2299.041)" fill="#e44752"/>
      <text id="Community_Advisor" data-name="Community
Advisor" transform="translate(1891 3940.551)" fill="#291d89" font-size="696" font-family="CircularStd-Black, Circular Std Black" font-weight="800" letter-spacing="-0.021em"><tspan x="-1891.032" y="0">Community</tspan><tspan x="-1229.484" y="638">Advisor</tspan></text>
      <path id="Path_19" data-name="Path 19" d="M826.887,279.323,509.471,568.808v436.857l317.25-289.651,625.633,570.756.164,312.157a119.619,119.619,0,0,0,119.6,119.606h203.231V1581.021l90.69,82.8,217.36-238.39Z" transform="translate(1318.076 482.083)" fill="#291d89"/>
      <path id="Path_2144" data-name="Path 2144" d="M1639.177,2113.37v151.151H1198.048c-241.51-.327-437.184-196-437.511-437.515v-517.85l-90.692,82.8L452.321,1153.569l618.073-563.856,320.863-292.77V733.8l-308.048,281.105v926.943h384.447C1562.452,1941.849,1639.177,2018.737,1639.177,2113.37Z" transform="translate(436.292 753.948)" fill="#291d89"/>
      <path id="Path_2149" data-name="Path 2149" d="M742.888,233.745v3004.4h-2.135c-88.555,0-168.732-31.529-226.891-82.723-49.944-43.964-83.461-102.534-91.841-167.6V516.166C422.021,438.209,458,367.5,516,316.451,574.158,265.256,654.333,233.745,742.888,233.745Z" transform="translate(-31.219 -221.155)" fill="#e44752"/>
      <path id="Rectangle_1041" data-name="Rectangle 1041" d="M19.532,0H320.9a0,0,0,0,1,0,0V1773.32a0,0,0,0,1,0,0H19.532A19.532,19.532,0,0,1,0,1753.788V19.532A19.532,19.532,0,0,1,19.532,0Z" transform="translate(2162.038 0) rotate(90)" fill="#e44752"/>
      <g id="Group_1456" data-name="Group 1456" transform="translate(2339.085 2328.518)">
        <path id="Path_404" data-name="Path 404" d="M669.026,1048.256c-149.88,0-271.812,121.937-271.812,271.82,0,188.379,272.084,510.18,272.084,510.18s271.551-331.064,271.551-510.18C940.848,1170.192,818.919,1048.256,669.026,1048.256Zm82.017,351.407a115.99,115.99,0,1,1,0-164.026A115.626,115.626,0,0,1,751.042,1399.663Z" transform="translate(-397.213 -1048.256)" fill="#25bbc9"/>
      </g>
    </g>
  </g>
</svg>
