<?xml version="1.0" encoding="utf-8"?>
<!-- Generator: Adobe Illustrator 22.1.0, SVG Export Plug-In . SVG Version: 6.00 Build 0)  -->
<svg version="1.1" xmlns="http://www.w3.org/2000/svg" xmlns:xlink="http://www.w3.org/1999/xlink" x="0px" y="0px"
	 viewBox="0 0 1643 407" style="enable-background:new 0 0 1643 407;" xml:space="preserve">
<style type="text/css">
	.st0{display:none;}
	.st1{display:inline;}
	.st2{fill:#FDDD25;}
	.st3{display:inline;fill:#FDDD25;}
	.st4{fill:#FFFFFF;}
	.st5{fill:#353533;}
	.st6{display:inline;fill:#353533;}
</style>
<g id="AR_x5F_Logo1" class="st0">
	<g id="Logo" class="st1">
		<g id="Logomark">
			<path class="st2" d="M2389.9,1882.1c-5.7-8.8-17.6-11.2-26.9-6.3c-23.3,12.3-44.7,28.1-63.6,46.8c-8.3,8.2-8.8,22-0.1,29.8
				c3.8,3.4,8.5,5.1,13.3,5.1c5.1,0,10.2-1.9,14.1-5.8c16.5-16.5,35.3-30.4,55.8-41.1C2392.7,1905.1,2396.3,1892,2389.9,1882.1z"/>
			<path class="st2" d="M2679.6,1923.5c-19.9-19.9-42.6-36.5-67.5-49.3c-9.4-4.8-21.3-2.4-26.9,6.6c-6.3,10.1-2.5,23.1,7.8,28.3
				c15.6,7.9,30.3,17.7,43.8,29l-29.3,29.3c-33.4-27.1-74.8-41.8-118.5-41.8c-50,0-96.9,19.2-132.3,54.2c-8.3,8.2-8.8,22-0.1,29.8
				c3.8,3.4,8.5,5.1,13.3,5.1c5.1,0,10.2-1.9,14.1-5.8c28-28,65.4-43.5,105.1-43.5c39.7,0,76.9,15.3,104.9,43.2
				c7.9,7.8,20.5,8.1,28.4,0.2l57.3-57.3c3.7-3.7,5.8-8.8,5.8-14.1C2685.4,1932.2,2683.3,1927.2,2679.6,1923.5z"/>
			<path class="st2" d="M2445.2,1892.2c20.9,4.6,39-13.5,34.4-34.4c-2.3-10.5-10.8-19-21.3-21.3c-20.9-4.6-39,13.5-34.4,34.4
				C2426.2,1881.3,2434.7,1889.8,2445.2,1892.2z"/>
			<path class="st2" d="M2519.9,1892.2c20.9,4.6,39-13.5,34.4-34.4c-2.3-10.5-10.8-19-21.3-21.3c-20.9-4.6-39,13.5-34.4,34.4
				C2500.9,1881.3,2509.3,1889.8,2519.9,1892.2z"/>
			<path class="st2" d="M2489.1,2005.9c-28.7,0-55.7,11.1-76,31.2c-7.4,7.3-8.3,19.5-1.6,27.4c7.6,9,21.1,9.4,29.2,1.2
				c4.6-4.6,9.8-8.5,15.4-11.6c5.9-3.2,13,1,13,7.7v67.3c0,10.4,7.6,19.7,17.9,20.7c11.9,1.1,21.8-8.2,21.8-19.8v-68.2
				c0-6.7,7.2-10.9,13-7.7c5.6,3.1,10.8,7,15.4,11.6c3.9,3.9,9,5.8,14.1,5.8c5.5,0,11-2.2,14.9-6.7c7-7.9,6.2-20.3-1.4-27.7
				C2544.7,2016.9,2517.7,2005.9,2489.1,2005.9z"/>
		</g>
		<g id="Tartibk_x5F_Ar">
			<path class="st2" d="M2006.2,1956.8h-1.8c-9.3,0-16.7,7.5-16.7,16.7l0,41.1c0.2,6.1-1.4,10.8-4.5,13.9c-3.2,3.1-7.8,4.7-14,4.7
				h-30.6h-3.7h-18.8c-9.3,0-17.4-8.3-17.1-17.5c0-0.5,0-1.1,0-1.6l-0.1-40.3c0-9.4-7.7-17-17-17h-1.8c-9.3,0-16.7,7.5-16.7,16.7
				l0,41.1c0.2,6.1-1.4,10.8-4.5,13.9c-3.2,3.1-7.8,4.7-14,4.7h-18.4h-3.7h-18.8c-9.3,0-17.4-8.3-17.1-17.5c0-0.5,0-1.1,0-1.6
				l-0.1-40.3c0-9.4-7.7-17-17-17h-1.8c-9.3,0-16.7,7.5-16.7,16.7l0,41.1c0.1,6.1-1.4,10.8-4.5,13.9c-3.2,3.1-7.8,4.7-14,4.7h-18.4
				h-3.7H1693c-2.8,0-4.9-2.5-4.5-5.2c1.1-6.1,1.3-12.3,0.5-18.4c-1.1-8.8-3.9-17.1-8.4-24.8c-4.5-7.7-10.5-13.9-18.1-18.6
				c-7.5-4.7-16.1-7.1-25.8-7.1h-80.4c-3.8,0-5.6-5.2-2.3-6.8l54.5-26.2c4.5-2.2,7.3-6.7,7.3-12l0-2.3c0-11.8-13.3-20.6-23.4-15.5
				l-118.6,59.2c-4.4,2.2-7.1,6.7-7.1,11.8l0,9.9c0,9,8,17,17.1,17h152.6c4.9,0,9,1.8,12.2,5.3c3.2,3.6,5.1,7.8,5.7,12.7
				c0.7,5.5-0.5,10.4-3.4,14.5c-3,4.2-7.6,6.3-13.9,6.3h-193.9h-3.7h-45.8c-10.1,0-17.9,8.8-16.6,18.8l0.2,1.4
				c1.1,8.5,8.3,14.9,16.9,14.9h49.8h3.7h267.7h3.7h18.4c17.3,0,30.3-5.6,38.9-16.9c0,9.3,7.7,16.9,17,16.9h34.1h3.7h18.4
				c17.3,0,30.3-5.6,38.9-16.9c0,9.3,7.7,16.9,17,16.9h34.1h3.7h30.6c16.6,0,29-5,37.3-14.9c8.3-9.9,12.4-23.1,12.5-39.4l-0.1-40.3
				C2023.2,1964.4,2015.6,1956.8,2006.2,1956.8z"/>
			<path class="st2" d="M2209.4,1973.7c0-9.4-7.7-17-17-17h-1.8c-9.3,0-16.7,7.5-16.7,16.7l0,41.1c0.2,6.1-1.4,10.8-4.5,13.9
				c-3.2,3.1-7.8,4.7-14,4.7h-30.6h-3.7h-4.2c-9.4,0-17-7.6-17-17l-0.1-47c0-9.4-7.7-17-17-17h-1.7c-9.3,0-16.8,7.5-16.7,16.8
				l0.5,117.4c0.2,12.1-4.7,23.7-14.6,34.8c-0.4,0.5-0.7,1-0.9,1.5c15-1.5,27.1-7.6,36.2-18.4c8.7-10.3,13.4-21.8,14.3-34.4l0.2-1.5
				h25.6h3.7h30.6c16.6,0,29-5,37.3-14.9c8.3-9.9,12.4-23.1,12.5-39.4L2209.4,1973.7z"/>
			<path class="st2" d="M2112.8,1936.3c15.3,3.4,28.6-9.9,25.2-25.2c-1.7-7.7-7.9-13.9-15.6-15.6c-15.3-3.4-28.6,9.9-25.2,25.2
				C2098.8,1928.4,2105.1,1934.6,2112.8,1936.3z"/>
			<path class="st2" d="M2167.5,1936.3c15.3,3.4,28.6-9.9,25.2-25.2c-1.7-7.7-7.9-13.9-15.6-15.6c-15.3-3.4-28.6,9.9-25.2,25.2
				C2153.6,1928.4,2159.8,1934.6,2167.5,1936.3z"/>
			<path class="st2" d="M1919,1936.3c15.3,3.4,28.6-9.9,25.2-25.2c-1.7-7.7-7.9-13.9-15.6-15.6c-15.3-3.4-28.6,9.9-25.2,25.2
				C1905.1,1928.4,1911.3,1934.6,1919,1936.3z"/>
			<path class="st2" d="M1973.8,1936.3c15.3,3.4,28.6-9.9,25.2-25.2c-1.7-7.7-7.9-13.9-15.6-15.6c-15.3-3.4-28.6,9.9-25.2,25.2
				C1959.9,1928.4,1966.1,1934.6,1973.8,1936.3z"/>
			<path class="st2" d="M1821.2,2097.5c-15.3-3.4-28.6,9.9-25.2,25.2c1.7,7.7,7.9,13.9,15.6,15.6c15.3,3.4,28.6-9.9,25.2-25.2
				C1835.1,2105.4,1828.9,2099.2,1821.2,2097.5z"/>
			<path class="st2" d="M1743.3,2097.5c-15.3-3.4-28.6,9.9-25.2,25.2c1.7,7.7,7.9,13.9,15.6,15.6c15.3,3.4,28.6-9.9,25.2-25.2
				C1757.2,2105.4,1751,2099.2,1743.3,2097.5z"/>
			<path class="st2" d="M1875.9,2097.5c-15.3-3.4-28.6,9.9-25.2,25.2c1.7,7.7,7.9,13.9,15.6,15.6c15.3,3.4,28.6-9.9,25.2-25.2
				C1889.8,2105.4,1883.6,2099.2,1875.9,2097.5z"/>
		</g>
	</g>
</g>
<g id="EN_x5F_Logo1" class="st0">
	<g id="Logo_1_" class="st1">
		<g id="Tartibk_x5F_En_1_">
			<path class="st2" d="M1213.4,1931.2L1213.4,1931.2c0,7.9,6.4,14.3,14.3,14.3h20c7.9,0,14.3,6.4,14.3,14.3v91.4
				c0,9.7,7.9,17.6,17.6,17.6h0c9.7,0,17.6-7.9,17.6-17.6v-91.4c0-7.9,6.4-14.3,14.3-14.3h20c7.9,0,14.3-6.4,14.3-14.3v0
				c0-7.9-6.4-14.3-14.3-14.3h-103.8C1219.8,1916.9,1213.4,1923.3,1213.4,1931.2z"/>
			<path class="st2" d="M1447.8,1916.9h-7.6c-8.2,0-15.7,4.8-19.1,12.4l-52,116.6c-4.8,10.8,3.1,23,14.9,23l0,0
				c6.6,0,12.5-4,15.1-10l9.4-22.6l11-26.7l17-40.8c2.7-6.4,11.7-6.4,14.4,0l17,40.8l11,26.7l9.2,22.3c2.6,6.2,8.7,10.3,15.4,10.3h0
				c12.1,0,20.2-12.5,15.2-23.5l-51.9-116.1C1463.4,1921.8,1456,1916.9,1447.8,1916.9z"/>
			<path class="st2" d="M1676,2032.7c-4.4-6.3-2.8-15,3.3-19.7c12.3-9.4,19.2-23.3,19.2-41.1c0-34-25.5-55-66.1-55h-51.4
				c-7.9,0-14.3,6.4-14.3,14.3v0.5c0,7.9,6.4,14.3,14.3,14.3l49.3-0.1c21.4,0,32.4,9.2,32.4,25.9c0,16.6-10.9,26.6-32.3,26.6h-49.5
				c-7.9,0-14.3,6.4-14.3,14.3v38.5c0,9.7,7.9,17.6,17.6,17.6l0,0c9.7,0,17.6-7.9,17.6-17.6v-17.1c0-4.3,3.5-7.8,7.8-7.8h20.4
				c2.6,0,5,1.3,6.4,3.4l22.7,32.9c2.7,3.9,7.1,6.2,11.8,6.2h16c6,0,9.5-6.8,6.1-11.7L1676,2032.7z"/>
			<path class="st2" d="M1728.7,1931.2L1728.7,1931.2c0,7.9,6.4,14.3,14.3,14.3h20c7.9,0,14.3,6.4,14.3,14.3v91.5
				c0,9.7,7.8,17.5,17.5,17.5h0c9.7,0,17.5-7.8,17.5-17.5v-91.5c0-7.9,6.4-14.3,14.3-14.3h20c7.9,0,14.3-6.4,14.3-14.3v0
				c0-7.9-6.4-14.3-14.3-14.3h-103.7C1735.2,1916.9,1728.7,1923.3,1728.7,1931.2z"/>
			<path class="st2" d="M1901.7,1934.5v116.8c0,9.7,7.9,17.6,17.6,17.6h0c9.7,0,17.6-7.9,17.6-17.6v-116.8c0-9.7-7.9-17.6-17.6-17.6
				h0C1909.6,1916.9,1901.7,1924.8,1901.7,1934.5z"/>
			<path class="st2" d="M2116.7,1994.7c-4.1-2.6-4.5-8.4-1.1-11.8c6.8-6.7,10.8-15.7,10.8-26.5c0-23.8-19.7-39.5-57.6-39.5h-61.2
				c-7.3,0-13.2,5.9-13.2,13.2v0c0,7.3,5.9,13.2,13.2,13.2h56.8c17.1,0,26.4,5.9,26.4,17.8c0,12.1-9.3,18.1-26.4,18.1h-55.7
				c-7.9,0-14.3,6.4-14.3,14.3v61.1c0,7.9,6.4,14.3,14.3,14.3h64.3c40,0,60.9-15.2,60.9-41.6
				C2134,2012.7,2127.5,2001.5,2116.7,1994.7z M2070.6,2042.3h-26.7c-7.9,0-14.3-6.4-14.3-14.3v-9c0-7.9,6.4-14.3,14.3-14.3h26.7
				c18.3,0,27.9,6.2,27.9,19C2098.5,2036.6,2088.8,2042.3,2070.6,2042.3z"/>
			<path class="st2" d="M2268.2,1994.2c-4.4-5.6-4.1-13.5,0.8-18.7l32.2-34.5c8.6-9.2,2.1-24.1-10.5-24.1l0,0
				c-3.9,0-7.7,1.6-10.4,4.5l-47.7,50.2c-5.5,5.8-15.4,1.9-15.4-6.1v-31c0-9.7-7.8-17.5-17.5-17.5l0,0c-9.7,0-17.5,7.8-17.5,17.5
				v117c0,9.7,7.8,17.5,17.5,17.5l0,0c9.7,0,17.5-7.8,17.5-17.5v-15.2c0-3.7,1.4-7.2,4-9.9l9.4-9.8c3.7-3.9,10-3.6,13.3,0.5
				l37.2,45.6c3.2,4,8.1,6.3,13.2,6.3l0,0c13.3,0,20.8-15.4,12.5-25.8L2268.2,1994.2z"/>
		</g>
		<g id="Logomark_1_">
			<path class="st2" d="M2491.1,1882.3c-5.7-8.8-17.6-11.2-26.8-6.3c-23.3,12.3-44.7,28.1-63.5,46.8c-8.3,8.2-8.8,22-0.1,29.7
				c3.8,3.4,8.5,5.1,13.3,5.1c5.1,0,10.2-1.9,14.1-5.8c16.5-16.5,35.3-30.3,55.7-41.1C2493.9,1905.4,2497.5,1892.3,2491.1,1882.3z"
				/>
			<path class="st2" d="M2780.5,1923.7c-19.9-19.9-42.6-36.5-67.4-49.2c-9.4-4.8-21.3-2.4-26.9,6.6c-6.3,10-2.5,23.1,7.8,28.3
				c15.6,7.9,30.3,17.6,43.7,29l-29.2,29.2c-33.4-27.1-74.7-41.7-118.4-41.7c-49.9,0-96.8,19.2-132.2,54.2c-8.3,8.2-8.8,22-0.1,29.8
				c3.8,3.4,8.5,5.1,13.3,5.1c5.1,0,10.2-1.9,14.1-5.8c28-28,65.3-43.4,105-43.4c39.6,0,76.8,15.3,104.8,43.2
				c7.9,7.8,20.5,8.1,28.3,0.2l57.2-57.2c3.7-3.7,5.8-8.8,5.8-14.1C2786.3,1932.5,2784.2,1927.4,2780.5,1923.7z"/>
			<path class="st2" d="M2546.3,1892.4c20.8,4.6,39-13.5,34.4-34.4c-2.3-10.5-10.8-19-21.3-21.3c-20.8-4.6-39,13.5-34.4,34.4
				C2527.4,1881.6,2535.8,1890.1,2546.3,1892.4z"/>
			<path class="st2" d="M2620.9,1892.4c20.8,4.6,39-13.5,34.4-34.4c-2.3-10.5-10.8-19-21.3-21.3c-20.8-4.6-39,13.5-34.4,34.4
				C2601.9,1881.6,2610.4,1890.1,2620.9,1892.4z"/>
			<path class="st2" d="M2590.2,2006c-28.7,0-55.6,11.1-75.9,31.1c-7.4,7.3-8.3,19.4-1.6,27.4c7.6,8.9,21.1,9.3,29.2,1.2
				c4.6-4.6,9.8-8.5,15.4-11.6c5.8-3.2,13,1,13,7.7v67.3c0,10.4,7.6,19.6,17.9,20.6c11.9,1.1,21.8-8.2,21.8-19.8v-68.1
				c0-6.7,7.2-10.9,13-7.7c5.6,3.1,10.8,7,15.4,11.6c3.9,3.9,9,5.8,14.1,5.8c5.5,0,10.9-2.2,14.9-6.7c7-7.9,6.2-20.3-1.4-27.7
				C2645.7,2017.1,2618.8,2006,2590.2,2006z"/>
		</g>
	</g>
</g>
<g id="Logo_Mark" class="st0">
	<g class="st1">
		<path class="st2" d="M1839.2,1808.3c-9.7-15.1-30.1-19.2-46-10.8c-39.9,21.1-76.6,48.1-109,80.2c-14.2,14-15.1,37.6-0.2,51
			c6.5,5.8,14.6,8.7,22.8,8.7c8.7,0,17.4-3.3,24.1-10c28.3-28.3,60.5-52,95.6-70.4C1844,1847.8,1850.2,1825.3,1839.2,1808.3z"/>
		<path class="st2" d="M2335.5,1879.2c-34.2-34.2-73-62.5-115.6-84.4c-16.1-8.3-36.5-4-46.1,11.3c-10.8,17.2-4.3,39.6,13.4,48.5
			c26.8,13.6,51.9,30.3,75,49.7l-50.1,50.1c-57.2-46.4-128.1-71.6-203-71.6c-85.6,0-166,33-226.8,92.9c-14.2,14-15.1,37.7-0.2,51
			c6.5,5.8,14.6,8.7,22.7,8.7c8.7,0,17.4-3.3,24.1-10c48-48,112-74.5,180.1-74.5c67.9,0,131.7,26.3,179.7,74.1
			c13.5,13.4,35.1,13.9,48.6,0.4l98.1-98.1c6.4-6.4,10-15.1,10-24.1C2345.4,1894.3,2341.9,1885.6,2335.5,1879.2z"/>
		<path class="st2" d="M1933.9,1825.6c35.7,7.9,66.9-23.2,59-58.9c-4-18-18.5-32.5-36.5-36.5c-35.7-7.9-66.9,23.2-59,59
			C1901.3,1807,1915.9,1821.6,1933.9,1825.6z"/>
		<path class="st2" d="M2061.8,1825.6c35.7,7.9,66.9-23.2,59-59c-4-18-18.5-32.5-36.5-36.5c-35.7-7.9-66.9,23.2-59,58.9
			C2029.3,1807,2043.8,1821.6,2061.8,1825.6z"/>
		<path class="st2" d="M2009.1,2020.4c-49.2,0-95.3,19-130.2,53.4c-12.7,12.6-14.3,33.3-2.7,46.9c13.1,15.3,36.1,16,50.1,2.1
			c7.9-7.9,16.8-14.6,26.4-19.9c10-5.5,22.3,1.7,22.3,13.1v115.4c0,17.8,13,33.7,30.7,35.4c20.3,1.9,37.4-14,37.4-33.9v-116.8
			c0-11.4,12.3-18.7,22.3-13.1c9.6,5.3,18.5,11.9,26.4,19.9c6.7,6.7,15.4,10,24.1,10c9.4,0,18.8-3.9,25.6-11.5
			c12-13.6,10.6-34.8-2.3-47.5C2104.3,2039.3,2058.2,2020.4,2009.1,2020.4z"/>
	</g>
</g>
<g id="Dual_x5F_Logo1_x5F_1" class="st0">
	<g id="Logo_3_" class="st1">
		<g id="Tartibk_x5F_AR">
			<path class="st2" d="M1482.2,1956.8h-1.8c-9.3,0-16.7,7.5-16.7,16.7l0,41.1c0.2,6.1-1.4,10.8-4.5,13.9c-3.2,3.1-7.8,4.7-14,4.7
				h-30.6h-3.7h-18.8c-9.3,0-17.4-8.3-17.1-17.5c0-0.5,0-1.1,0-1.6l-0.1-40.3c0-9.4-7.7-17-17-17h-1.8c-9.3,0-16.7,7.5-16.7,16.7
				l0,41.1c0.2,6.1-1.4,10.8-4.5,13.9c-3.2,3.1-7.8,4.7-14,4.7h-18.4h-3.7h-18.8c-9.3,0-17.4-8.3-17.1-17.5c0-0.5,0-1.1,0-1.6
				l-0.1-40.3c0-9.4-7.7-17-17-17h-1.8c-9.3,0-16.7,7.5-16.7,16.7l0,41.1c0.1,6.1-1.4,10.8-4.5,13.9c-3.2,3.1-7.8,4.7-14,4.7h-18.4
				h-3.7H1169c-2.8,0-4.9-2.5-4.5-5.2c1.1-6.1,1.3-12.3,0.5-18.4c-1.1-8.8-3.9-17.1-8.4-24.8c-4.5-7.7-10.5-13.9-18.1-18.6
				c-7.5-4.7-16.1-7.1-25.8-7.1h-80.4c-3.8,0-5.6-5.2-2.3-6.8l54.5-26.2c4.5-2.2,7.3-6.7,7.3-12l0-2.3c0-11.8-13.3-20.6-23.4-15.5
				l-118.6,59.2c-4.4,2.2-7.1,6.7-7.1,11.8l0,9.9c0,9,8,17,17.1,17h152.6c4.9,0,9,1.8,12.2,5.3c3.2,3.6,5.1,7.8,5.7,12.7
				c0.7,5.5-0.5,10.4-3.4,14.5c-3,4.2-7.6,6.3-13.9,6.3H919.1h-3.7h-45.8c-10.1,0-17.9,8.8-16.6,18.8l0.2,1.4
				c1.1,8.5,8.3,14.9,16.9,14.9h49.8h3.7h267.7h3.7h18.4c17.3,0,30.3-5.6,38.9-16.9c0,9.3,7.7,16.9,17,16.9h34.1h3.7h18.4
				c17.3,0,30.3-5.6,38.9-16.9c0,9.3,7.7,16.9,17,16.9h34.1h3.7h30.6c16.6,0,29-5,37.3-14.9c8.3-9.9,12.4-23.1,12.5-39.4l-0.1-40.3
				C1499.2,1964.4,1491.6,1956.8,1482.2,1956.8z"/>
			<path class="st2" d="M1685.4,1973.7c0-9.4-7.7-17-17-17h-1.8c-9.3,0-16.7,7.5-16.7,16.7l0,41.1c0.2,6.1-1.4,10.8-4.5,13.9
				c-3.2,3.1-7.8,4.7-14,4.7h-30.6h-3.7h-4.2c-9.4,0-17-7.6-17-17l-0.1-47c0-9.4-7.7-17-17-17h-1.7c-9.3,0-16.8,7.5-16.7,16.8
				l0.5,117.4c0.2,12.1-4.7,23.7-14.6,34.8c-0.4,0.5-0.7,1-0.9,1.5c15-1.5,27.1-7.6,36.2-18.4c8.7-10.3,13.4-21.8,14.3-34.4l0.2-1.5
				h25.6h3.7h30.6c16.6,0,29-5,37.3-14.9c8.3-9.9,12.4-23.1,12.5-39.4L1685.4,1973.7z"/>
			<path class="st2" d="M1588.8,1936.3c15.3,3.4,28.6-9.9,25.2-25.2c-1.7-7.7-7.9-13.9-15.6-15.6c-15.3-3.4-28.6,9.9-25.2,25.2
				C1574.8,1928.4,1581.1,1934.6,1588.8,1936.3z"/>
			<path class="st2" d="M1643.5,1936.3c15.3,3.4,28.6-9.9,25.2-25.2c-1.7-7.7-7.9-13.9-15.6-15.6c-15.3-3.4-28.6,9.9-25.2,25.2
				C1629.6,1928.4,1635.8,1934.6,1643.5,1936.3z"/>
			<path class="st2" d="M1395,1936.3c15.3,3.4,28.6-9.9,25.2-25.2c-1.7-7.7-7.9-13.9-15.6-15.6c-15.3-3.4-28.6,9.9-25.2,25.2
				C1381.1,1928.4,1387.3,1934.6,1395,1936.3z"/>
			<path class="st2" d="M1449.8,1936.3c15.3,3.4,28.6-9.9,25.2-25.2c-1.7-7.7-7.9-13.9-15.6-15.6c-15.3-3.4-28.6,9.9-25.2,25.2
				C1435.9,1928.4,1442.1,1934.6,1449.8,1936.3z"/>
			<path class="st2" d="M1297.2,2097.5c-15.3-3.4-28.6,9.9-25.2,25.2c1.7,7.7,7.9,13.9,15.6,15.6c15.3,3.4,28.6-9.9,25.2-25.2
				C1311.1,2105.4,1304.9,2099.2,1297.2,2097.5z"/>
			<path class="st2" d="M1219.3,2097.5c-15.3-3.4-28.6,9.9-25.2,25.2c1.7,7.7,7.9,13.9,15.6,15.6c15.3,3.4,28.6-9.9,25.2-25.2
				C1233.2,2105.4,1227,2099.2,1219.3,2097.5z"/>
			<path class="st2" d="M1351.9,2097.5c-15.3-3.4-28.6,9.9-25.2,25.2c1.7,7.7,7.9,13.9,15.6,15.6c15.3,3.4,28.6-9.9,25.2-25.2
				C1365.8,2105.4,1359.6,2099.2,1351.9,2097.5z"/>
		</g>
		<g id="Tartibk_x5F_En">
			<path class="st2" d="M2227.4,1931.2L2227.4,1931.2c0,7.9,6.4,14.3,14.3,14.3h20c7.9,0,14.3,6.4,14.3,14.3v91.4
				c0,9.7,7.9,17.6,17.6,17.6l0,0c9.7,0,17.6-7.9,17.6-17.6v-91.4c0-7.9,6.4-14.3,14.3-14.3h20c7.9,0,14.3-6.4,14.3-14.3v0
				c0-7.9-6.4-14.3-14.3-14.3h-103.8C2233.8,1916.9,2227.4,1923.3,2227.4,1931.2z"/>
			<path class="st2" d="M2461.8,1916.9h-7.6c-8.2,0-15.7,4.8-19.1,12.4l-52,116.6c-4.8,10.8,3.1,23,14.9,23h0c6.6,0,12.5-4,15.1-10
				l9.4-22.6l11-26.7l17-40.8c2.7-6.4,11.7-6.4,14.4,0l17,40.8l11,26.7l9.2,22.3c2.6,6.2,8.7,10.3,15.4,10.3l0,0
				c12.1,0,20.2-12.5,15.2-23.5l-51.9-116.1C2477.4,1921.8,2470,1916.9,2461.8,1916.9z"/>
			<path class="st2" d="M2690,2032.7c-4.4-6.3-2.8-15,3.3-19.7c12.3-9.4,19.2-23.3,19.2-41.1c0-34-25.5-55-66.1-55h-51.4
				c-7.9,0-14.3,6.4-14.3,14.3v0.5c0,7.9,6.4,14.3,14.3,14.3l49.3-0.1c21.4,0,32.4,9.2,32.4,25.9c0,16.6-10.9,26.6-32.3,26.6h-49.5
				c-7.9,0-14.3,6.4-14.3,14.3v38.5c0,9.7,7.9,17.6,17.6,17.6l0,0c9.7,0,17.6-7.9,17.6-17.6v-17.1c0-4.3,3.5-7.8,7.8-7.8h20.4
				c2.6,0,5,1.3,6.4,3.4l22.7,32.9c2.7,3.9,7.1,6.2,11.8,6.2h16c6,0,9.5-6.8,6.1-11.7L2690,2032.7z"/>
			<path class="st2" d="M2742.7,1931.2L2742.7,1931.2c0,7.9,6.4,14.3,14.3,14.3h20c7.9,0,14.3,6.4,14.3,14.3v91.5
				c0,9.7,7.8,17.5,17.5,17.5l0,0c9.7,0,17.5-7.8,17.5-17.5v-91.5c0-7.9,6.4-14.3,14.3-14.3h20c7.9,0,14.3-6.4,14.3-14.3v0
				c0-7.9-6.4-14.3-14.3-14.3h-103.7C2749.2,1916.9,2742.7,1923.3,2742.7,1931.2z"/>
			<path class="st2" d="M2915.7,1934.5v116.8c0,9.7,7.9,17.6,17.6,17.6l0,0c9.7,0,17.6-7.9,17.6-17.6v-116.8
				c0-9.7-7.9-17.6-17.6-17.6l0,0C2923.6,1916.9,2915.7,1924.8,2915.7,1934.5z"/>
			<path class="st2" d="M3130.7,1994.7c-4.1-2.6-4.5-8.4-1.1-11.8c6.8-6.7,10.8-15.7,10.8-26.5c0-23.8-19.7-39.5-57.6-39.5h-61.2
				c-7.3,0-13.2,5.9-13.2,13.2v0c0,7.3,5.9,13.2,13.2,13.2h56.8c17.1,0,26.4,5.9,26.4,17.8c0,12.1-9.3,18.1-26.4,18.1h-55.7
				c-7.9,0-14.3,6.4-14.3,14.3v61.1c0,7.9,6.4,14.3,14.3,14.3h64.3c40,0,60.9-15.2,60.9-41.6
				C3148,2012.7,3141.5,2001.5,3130.7,1994.7z M3084.6,2042.3h-26.7c-7.9,0-14.3-6.4-14.3-14.3v-9c0-7.9,6.4-14.3,14.3-14.3h26.7
				c18.3,0,27.9,6.2,27.9,19C3112.5,2036.6,3102.8,2042.3,3084.6,2042.3z"/>
			<path class="st2" d="M3282.2,1994.2c-4.4-5.6-4.1-13.5,0.8-18.7l32.2-34.5c8.6-9.2,2.1-24.1-10.5-24.1l0,0
				c-3.9,0-7.7,1.6-10.4,4.5l-47.7,50.2c-5.5,5.8-15.4,1.9-15.4-6.1v-31c0-9.7-7.8-17.5-17.5-17.5l0,0c-9.7,0-17.5,7.8-17.5,17.5
				v117c0,9.7,7.8,17.5,17.5,17.5l0,0c9.7,0,17.5-7.8,17.5-17.5v-15.2c0-3.7,1.4-7.2,4-9.9l9.4-9.8c3.7-3.9,10-3.6,13.3,0.5
				l37.2,45.6c3.2,4,8.1,6.3,13.2,6.3l0,0c13.3,0,20.8-15.4,12.5-25.8L3282.2,1994.2z"/>
		</g>
		<g id="Logomark_2_">
			<path class="st2" d="M1857.1,1882.3c-5.7-8.8-17.6-11.2-26.8-6.3c-23.3,12.3-44.7,28.1-63.5,46.8c-8.3,8.2-8.8,22-0.1,29.7
				c3.8,3.4,8.5,5.1,13.3,5.1c5.1,0,10.2-1.9,14.1-5.8c16.5-16.5,35.3-30.3,55.7-41.1C1859.9,1905.4,1863.5,1892.3,1857.1,1882.3z"
				/>
			<path class="st2" d="M2146.5,1923.7c-19.9-19.9-42.6-36.5-67.4-49.2c-9.4-4.8-21.3-2.4-26.9,6.6c-6.3,10-2.5,23.1,7.8,28.3
				c15.6,7.9,30.3,17.6,43.7,29l-29.2,29.2c-33.4-27.1-74.7-41.7-118.4-41.7c-49.9,0-96.8,19.2-132.2,54.2c-8.3,8.2-8.8,22-0.1,29.8
				c3.8,3.4,8.5,5.1,13.3,5.1c5.1,0,10.2-1.9,14.1-5.8c28-28,65.3-43.4,105-43.4c39.6,0,76.8,15.3,104.8,43.2
				c7.9,7.8,20.5,8.1,28.3,0.2l57.2-57.2c3.7-3.7,5.8-8.8,5.8-14.1C2152.3,1932.5,2150.2,1927.4,2146.5,1923.7z"/>
			<path class="st2" d="M1912.3,1892.4c20.8,4.6,39-13.5,34.4-34.4c-2.3-10.5-10.8-19-21.3-21.3c-20.8-4.6-39,13.5-34.4,34.4
				C1893.4,1881.6,1901.8,1890.1,1912.3,1892.4z"/>
			<path class="st2" d="M1986.9,1892.4c20.8,4.6,39-13.5,34.4-34.4c-2.3-10.5-10.8-19-21.3-21.3c-20.8-4.6-39,13.5-34.4,34.4
				C1967.9,1881.6,1976.4,1890.1,1986.9,1892.4z"/>
			<path class="st2" d="M1956.2,2006c-28.7,0-55.6,11.1-75.9,31.1c-7.4,7.3-8.3,19.4-1.6,27.4c7.6,8.9,21.1,9.3,29.2,1.2
				c4.6-4.6,9.8-8.5,15.4-11.6c5.8-3.2,13,1,13,7.7v67.3c0,10.4,7.6,19.6,17.9,20.6c11.9,1.1,21.8-8.2,21.8-19.8v-68.1
				c0-6.7,7.2-10.9,13-7.7c5.6,3.1,10.8,7,15.4,11.6c3.9,3.9,9,5.8,14.1,5.8c5.5,0,10.9-2.2,14.9-6.7c7-7.9,6.2-20.3-1.4-27.7
				C2011.7,2017.1,1984.8,2006,1956.2,2006z"/>
		</g>
	</g>
</g>
<g id="Dual_x5F_Logo1_x5F_2" class="st0">
	<g id="Logo_2_" class="st1">
		<g id="Tartibk_x5F_AR_1_">
			<path class="st2" d="M2251.2,2077.8h-1.8c-9.3,0-16.7,7.5-16.7,16.7l0,41.1c0.1,6.1-1.4,10.8-4.5,13.9c-3.2,3.1-7.8,4.7-14,4.7
				h-30.6h-3.7h-18.8c-9.3,0-17.4-8.3-17.1-17.5c0-0.5,0-1.1,0-1.6l-0.1-40.3c0-9.4-7.7-17-17-17h-1.8c-9.3,0-16.7,7.5-16.7,16.7
				l0,41.1c0.2,6.1-1.4,10.8-4.5,13.9c-3.2,3.1-7.8,4.7-14,4.7h-18.4h-3.7h-18.8c-9.3,0-17.4-8.3-17.1-17.5c0-0.5,0-1.1,0-1.6
				l-0.1-40.3c0-9.4-7.7-17-17-17h-1.8c-9.3,0-16.7,7.5-16.7,16.7l0,41.1c0.1,6.1-1.4,10.8-4.5,13.9c-3.2,3.1-7.8,4.7-14,4.7h-18.4
				h-3.7H1938c-2.8,0-4.9-2.5-4.5-5.2c1.1-6.1,1.3-12.3,0.5-18.4c-1.1-8.8-3.9-17.1-8.4-24.8c-4.5-7.7-10.5-13.9-18.1-18.6
				c-7.5-4.7-16.1-7.1-25.8-7.1h-80.4c-3.8,0-5.6-5.2-2.3-6.8l54.5-26.2c4.5-2.2,7.3-6.7,7.3-12l0-2.3c0-11.8-13.3-20.6-23.4-15.5
				l-118.6,59.2c-4.4,2.2-7.1,6.7-7.1,11.8l0,9.9c0,9,8,17,17.1,17h152.6c4.9,0,9,1.8,12.2,5.3c3.2,3.6,5.1,7.8,5.7,12.7
				c0.7,5.5-0.5,10.4-3.4,14.5c-3,4.2-7.6,6.3-13.9,6.3h-193.9h-3.7h-45.8c-10.1,0-17.9,8.8-16.6,18.8l0.2,1.4
				c1.1,8.5,8.3,14.9,16.9,14.9h49.8h3.7h267.7h3.7h18.4c17.3,0,30.3-5.6,38.9-16.9c0,9.3,7.7,16.9,17,16.9h34.1h3.7h18.4
				c17.3,0,30.3-5.6,38.9-16.9c0,9.3,7.7,16.9,17,16.9h34.1h3.7h30.6c16.6,0,29-5,37.3-14.9c8.3-9.9,12.4-23.1,12.5-39.4l-0.1-40.3
				C2268.2,2085.4,2260.6,2077.8,2251.2,2077.8z"/>
			<path class="st2" d="M2454.4,2094.7c0-9.4-7.7-17-17-17h-1.8c-9.3,0-16.7,7.5-16.7,16.7l0,41.1c0.2,6.1-1.4,10.8-4.5,13.9
				c-3.2,3.1-7.8,4.7-14,4.7h-30.6h-3.7h-4.2c-9.4,0-17-7.6-17-17l-0.1-47c0-9.4-7.7-17-17-17h-1.7c-9.3,0-16.8,7.5-16.7,16.8
				l0.5,117.4c0.2,12.1-4.7,23.7-14.6,34.8c-0.4,0.5-0.7,1-0.9,1.5c15-1.5,27.1-7.6,36.2-18.4c8.7-10.3,13.4-21.8,14.3-34.4l0.2-1.5
				h25.6h3.7h30.6c16.6,0,29-5,37.3-14.9c8.3-9.9,12.4-23.1,12.5-39.4L2454.4,2094.7z"/>
			<path class="st2" d="M2357.8,2057.3c15.3,3.4,28.6-9.9,25.2-25.2c-1.7-7.7-7.9-13.9-15.6-15.6c-15.3-3.4-28.6,9.9-25.2,25.2
				C2343.8,2049.4,2350.1,2055.6,2357.8,2057.3z"/>
			<path class="st2" d="M2412.5,2057.3c15.3,3.4,28.6-9.9,25.2-25.2c-1.7-7.7-7.9-13.9-15.6-15.6c-15.3-3.4-28.6,9.9-25.2,25.2
				C2398.6,2049.4,2404.8,2055.6,2412.5,2057.3z"/>
			<path class="st2" d="M2164,2057.3c15.3,3.4,28.6-9.9,25.2-25.2c-1.7-7.7-7.9-13.9-15.6-15.6c-15.3-3.4-28.6,9.9-25.2,25.2
				C2150.1,2049.4,2156.3,2055.6,2164,2057.3z"/>
			<path class="st2" d="M2218.8,2057.3c15.3,3.4,28.6-9.9,25.2-25.2c-1.7-7.7-7.9-13.9-15.6-15.6c-15.3-3.4-28.6,9.9-25.2,25.2
				C2204.9,2049.4,2211.1,2055.6,2218.8,2057.3z"/>
			<path class="st2" d="M2066.2,2218.5c-15.3-3.4-28.6,9.9-25.2,25.2c1.7,7.7,7.9,13.9,15.6,15.6c15.3,3.4,28.6-9.9,25.2-25.2
				C2080.1,2226.4,2073.9,2220.2,2066.2,2218.5z"/>
			<path class="st2" d="M1988.3,2218.5c-15.3-3.4-28.6,9.9-25.2,25.2c1.7,7.7,7.9,13.9,15.6,15.6c15.3,3.4,28.6-9.9,25.2-25.2
				C2002.2,2226.4,1996,2220.2,1988.3,2218.5z"/>
			<path class="st2" d="M2120.9,2218.5c-15.3-3.4-28.6,9.9-25.2,25.2c1.7,7.7,7.9,13.9,15.6,15.6c15.3,3.4,28.6-9.9,25.2-25.2
				C2134.8,2226.4,2128.6,2220.2,2120.9,2218.5z"/>
		</g>
		<g id="Tartibk_x5F_En_2_">
			<path class="st2" d="M1622,2299.9L1622,2299.9c0,6,4.9,10.9,10.9,10.9h15.2c6,0,10.9,4.9,10.9,10.9v69.4c0,7.4,6,13.3,13.3,13.3
				h0c7.4,0,13.3-6,13.3-13.3v-69.4c0-6,4.9-10.9,10.9-10.9h15.2c6,0,10.9-4.9,10.9-10.9l0,0c0-6-4.9-10.9-10.9-10.9h-78.8
				C1626.9,2289,1622,2293.9,1622,2299.9z"/>
			<path class="st2" d="M1799.7,2289h-5.8c-6.2,0-11.9,3.7-14.5,9.4l-39.5,88.5c-3.7,8.2,2.3,17.4,11.3,17.4l0,0c5,0,9.5-3,11.4-7.6
				l7.2-17.1l8.4-20.3l12.9-31c2-4.9,8.9-4.9,10.9,0l12.9,31l8.4,20.3l7,16.9c2,4.7,6.6,7.8,11.7,7.8l0,0c9.2,0,15.3-9.5,11.6-17.8
				l-39.4-88.1C1811.6,2292.7,1806,2289,1799.7,2289z"/>
			<path class="st2" d="M1972.9,2376.8c-3.3-4.8-2.1-11.4,2.5-14.9c9.3-7.1,14.6-17.7,14.6-31.2c0-25.8-19.4-41.7-50.1-41.7h-39
				c-6,0-10.9,4.9-10.9,10.9v0.4c0,6,4.9,10.9,10.9,10.9l37.4,0c16.2,0,24.6,7,24.6,19.7c0,12.6-8.2,20.2-24.5,20.2h-37.5
				c-6,0-10.9,4.9-10.9,10.9v29.2c0,7.4,6,13.3,13.3,13.3l0,0c7.4,0,13.3-6,13.3-13.3V2378c0-3.3,2.6-5.9,5.9-5.9h15.5
				c1.9,0,3.8,1,4.9,2.5l17.2,25c2,2.9,5.4,4.7,8.9,4.7h12.1c4.6,0,7.2-5.1,4.6-8.9L1972.9,2376.8z"/>
			<path class="st2" d="M2012.9,2299.9L2012.9,2299.9c0,6,4.9,10.9,10.9,10.9h15.2c6,0,10.9,4.9,10.9,10.9v69.4
				c0,7.3,5.9,13.3,13.3,13.3h0c7.3,0,13.3-5.9,13.3-13.3v-69.4c0-6,4.9-10.9,10.9-10.9h15.2c6,0,10.9-4.9,10.9-10.9l0,0
				c0-6-4.9-10.9-10.9-10.9h-78.6C2017.7,2289,2012.9,2293.9,2012.9,2299.9z"/>
			<path class="st2" d="M2144.1,2302.3v88.6c0,7.4,6,13.3,13.3,13.3l0,0c7.4,0,13.3-6,13.3-13.3v-88.6c0-7.4-6-13.3-13.3-13.3l0,0
				C2150.1,2289,2144.1,2295,2144.1,2302.3z"/>
			<path class="st2" d="M2307.2,2348c-3.1-2-3.4-6.3-0.8-8.9c5.1-5.1,8.2-11.9,8.2-20.1c0-18.1-14.9-30-43.7-30h-46.4
				c-5.5,0-10,4.5-10,10l0,0c0,5.5,4.5,10,10,10h43.1c13,0,20,4.4,20,13.5c0,9.2-7.1,13.7-20,13.7h-42.3c-6,0-10.9,4.9-10.9,10.9
				v46.3c0,6,4.9,10.9,10.9,10.9h48.8c30.4,0,46.2-11.5,46.2-31.5C2320.3,2361.6,2315.4,2353.2,2307.2,2348z M2272.1,2384.1h-20.3
				c-6,0-10.9-4.9-10.9-10.9v-6.8c0-6,4.9-10.9,10.9-10.9h20.3c13.9,0,21.2,4.7,21.2,14.4C2293.3,2379.8,2286,2384.1,2272.1,2384.1z
				"/>
			<path class="st2" d="M2422.1,2347.6c-3.3-4.2-3.1-10.2,0.6-14.2l24.4-26.2c6.5-7,1.6-18.3-7.9-18.3l0,0c-3,0-5.8,1.2-7.9,3.4
				l-36.2,38.1c-4.2,4.4-11.7,1.5-11.7-4.7v-23.5c0-7.3-5.9-13.3-13.3-13.3l0,0c-7.3,0-13.3,5.9-13.3,13.3v88.7
				c0,7.3,5.9,13.3,13.3,13.3l0,0c7.3,0,13.3-5.9,13.3-13.3v-11.5c0-2.8,1.1-5.5,3-7.5l7.1-7.4c2.8-2.9,7.6-2.7,10.1,0.4l28.2,34.6
				c2.5,3,6.1,4.8,10,4.8l0,0c10.1,0,15.8-11.7,9.5-19.6L2422.1,2347.6z"/>
		</g>
		<g id="Logomark_3_">
			<path class="st2" d="M1939.1,1601.3c-5.7-8.8-17.6-11.2-26.8-6.3c-23.3,12.3-44.7,28.1-63.5,46.8c-8.3,8.2-8.8,22-0.1,29.7
				c3.8,3.4,8.5,5.1,13.3,5.1c5.1,0,10.2-1.9,14.1-5.8c16.5-16.5,35.3-30.3,55.7-41.1C1941.9,1624.4,1945.5,1611.3,1939.1,1601.3z"
				/>
			<path class="st2" d="M2228.5,1642.7c-19.9-19.9-42.6-36.5-67.4-49.2c-9.4-4.8-21.3-2.4-26.9,6.6c-6.3,10-2.5,23.1,7.8,28.3
				c15.6,7.9,30.3,17.6,43.7,29l-29.2,29.2c-33.4-27.1-74.7-41.7-118.4-41.7c-49.9,0-96.8,19.2-132.2,54.2c-8.3,8.2-8.8,22-0.1,29.8
				c3.8,3.4,8.5,5.1,13.3,5.1c5.1,0,10.2-1.9,14.1-5.8c28-28,65.3-43.4,105-43.4c39.6,0,76.8,15.3,104.8,43.2
				c7.9,7.8,20.5,8.1,28.3,0.2l57.2-57.2c3.7-3.7,5.8-8.8,5.8-14.1C2234.3,1651.5,2232.2,1646.4,2228.5,1642.7z"/>
			<path class="st2" d="M1994.3,1611.4c20.8,4.6,39-13.5,34.4-34.4c-2.3-10.5-10.8-19-21.3-21.3c-20.8-4.6-39,13.5-34.4,34.4
				C1975.4,1600.6,1983.8,1609.1,1994.3,1611.4z"/>
			<path class="st2" d="M2068.9,1611.4c20.8,4.6,39-13.5,34.4-34.4c-2.3-10.5-10.8-19-21.3-21.3c-20.8-4.6-39,13.5-34.4,34.4
				C2049.9,1600.6,2058.4,1609.1,2068.9,1611.4z"/>
			<path class="st2" d="M2038.2,1725c-28.7,0-55.6,11.1-75.9,31.1c-7.4,7.3-8.3,19.4-1.6,27.4c7.6,8.9,21.1,9.3,29.2,1.2
				c4.6-4.6,9.8-8.5,15.4-11.6c5.8-3.2,13,1,13,7.7v67.3c0,10.4,7.6,19.6,17.9,20.6c11.9,1.1,21.8-8.2,21.8-19.8v-68.1
				c0-6.7,7.2-10.9,13-7.7c5.6,3.1,10.8,7,15.4,11.6c3.9,3.9,9,5.8,14.1,5.8c5.5,0,10.9-2.2,14.9-6.7c7-7.9,6.2-20.3-1.4-27.7
				C2093.7,1736.1,2066.8,1725,2038.2,1725z"/>
		</g>
	</g>
</g>
<g id="AR_x5F_Logo1_copy" class="st0">
	<rect class="st3" width="4096" height="4096"/>
	<g id="Logo_7_" class="st1">
		<g id="Logomark_7_">
			<path class="st4" d="M2389.9,1882.1c-5.7-8.8-17.6-11.2-26.9-6.3c-23.3,12.3-44.7,28.1-63.6,46.8c-8.3,8.2-8.8,22-0.1,29.8
				c3.8,3.4,8.5,5.1,13.3,5.1c5.1,0,10.2-1.9,14.1-5.8c16.5-16.5,35.3-30.4,55.8-41.1C2392.7,1905.1,2396.3,1892,2389.9,1882.1z"/>
			<path class="st4" d="M2679.6,1923.5c-19.9-19.9-42.6-36.5-67.5-49.3c-9.4-4.8-21.3-2.4-26.9,6.6c-6.3,10.1-2.5,23.1,7.8,28.3
				c15.6,7.9,30.3,17.7,43.8,29l-29.3,29.3c-33.4-27.1-74.8-41.8-118.5-41.8c-50,0-96.9,19.2-132.3,54.2c-8.3,8.2-8.8,22-0.1,29.8
				c3.8,3.4,8.5,5.1,13.3,5.1c5.1,0,10.2-1.9,14.1-5.8c28-28,65.4-43.5,105.1-43.5c39.7,0,76.9,15.3,104.9,43.2
				c7.9,7.8,20.5,8.1,28.4,0.2l57.3-57.3c3.7-3.7,5.8-8.8,5.8-14.1C2685.4,1932.2,2683.3,1927.2,2679.6,1923.5z"/>
			<path class="st4" d="M2445.2,1892.2c20.9,4.6,39-13.5,34.4-34.4c-2.3-10.5-10.8-19-21.3-21.3c-20.9-4.6-39,13.5-34.4,34.4
				C2426.2,1881.3,2434.7,1889.8,2445.2,1892.2z"/>
			<path class="st4" d="M2519.9,1892.2c20.9,4.6,39-13.5,34.4-34.4c-2.3-10.5-10.8-19-21.3-21.3c-20.9-4.6-39,13.5-34.4,34.4
				C2500.9,1881.3,2509.3,1889.8,2519.9,1892.2z"/>
			<path class="st4" d="M2489.1,2005.9c-28.7,0-55.7,11.1-76,31.2c-7.4,7.3-8.3,19.5-1.6,27.4c7.6,9,21.1,9.4,29.2,1.2
				c4.6-4.6,9.8-8.5,15.4-11.6c5.9-3.2,13,1,13,7.7v67.3c0,10.4,7.6,19.7,17.9,20.7c11.9,1.1,21.8-8.2,21.8-19.8v-68.2
				c0-6.7,7.2-10.9,13-7.7c5.6,3.1,10.8,7,15.4,11.6c3.9,3.9,9,5.8,14.1,5.8c5.5,0,11-2.2,14.9-6.7c7-7.9,6.2-20.3-1.4-27.7
				C2544.7,2016.9,2517.7,2005.9,2489.1,2005.9z"/>
		</g>
		<g id="Tartibk_x5F_Ar_1_">
			<path class="st4" d="M2006.2,1956.8h-1.8c-9.3,0-16.7,7.5-16.7,16.7l0,41.1c0.2,6.1-1.4,10.8-4.5,13.9c-3.2,3.1-7.8,4.7-14,4.7
				h-30.6h-3.7h-18.8c-9.3,0-17.4-8.3-17.1-17.5c0-0.5,0-1.1,0-1.6l-0.1-40.3c0-9.4-7.7-17-17-17h-1.8c-9.3,0-16.7,7.5-16.7,16.7
				l0,41.1c0.2,6.1-1.4,10.8-4.5,13.9c-3.2,3.1-7.8,4.7-14,4.7h-18.4h-3.7h-18.8c-9.3,0-17.4-8.3-17.1-17.5c0-0.5,0-1.1,0-1.6
				l-0.1-40.3c0-9.4-7.7-17-17-17h-1.8c-9.3,0-16.7,7.5-16.7,16.7l0,41.1c0.1,6.1-1.4,10.8-4.5,13.9c-3.2,3.1-7.8,4.7-14,4.7h-18.4
				h-3.7H1693c-2.8,0-4.9-2.5-4.5-5.2c1.1-6.1,1.3-12.3,0.5-18.4c-1.1-8.8-3.9-17.1-8.4-24.8c-4.5-7.7-10.5-13.9-18.1-18.6
				c-7.5-4.7-16.1-7.1-25.8-7.1h-80.4c-3.8,0-5.6-5.2-2.3-6.8l54.5-26.2c4.5-2.2,7.3-6.7,7.3-12l0-2.3c0-11.8-13.3-20.6-23.4-15.5
				l-118.6,59.2c-4.4,2.2-7.1,6.7-7.1,11.8l0,9.9c0,9,8,17,17.1,17h152.6c4.9,0,9,1.8,12.2,5.3c3.2,3.6,5.1,7.8,5.7,12.7
				c0.7,5.5-0.5,10.4-3.4,14.5c-3,4.2-7.6,6.3-13.9,6.3h-193.9h-3.7h-45.8c-10.1,0-17.9,8.8-16.6,18.8l0.2,1.4
				c1.1,8.5,8.3,14.9,16.9,14.9h49.8h3.7h267.7h3.7h18.4c17.3,0,30.3-5.6,38.9-16.9c0,9.3,7.7,16.9,17,16.9h34.1h3.7h18.4
				c17.3,0,30.3-5.6,38.9-16.9c0,9.3,7.7,16.9,17,16.9h34.1h3.7h30.6c16.6,0,29-5,37.3-14.9c8.3-9.9,12.4-23.1,12.5-39.4l-0.1-40.3
				C2023.2,1964.4,2015.6,1956.8,2006.2,1956.8z"/>
			<path class="st4" d="M2209.4,1973.7c0-9.4-7.7-17-17-17h-1.8c-9.3,0-16.7,7.5-16.7,16.7l0,41.1c0.2,6.1-1.4,10.8-4.5,13.9
				c-3.2,3.1-7.8,4.7-14,4.7h-30.6h-3.7h-4.2c-9.4,0-17-7.6-17-17l-0.1-47c0-9.4-7.7-17-17-17h-1.7c-9.3,0-16.8,7.5-16.7,16.8
				l0.5,117.4c0.2,12.1-4.7,23.7-14.6,34.8c-0.4,0.5-0.7,1-0.9,1.5c15-1.5,27.1-7.6,36.2-18.4c8.7-10.3,13.4-21.8,14.3-34.4l0.2-1.5
				h25.6h3.7h30.6c16.6,0,29-5,37.3-14.9c8.3-9.9,12.4-23.1,12.5-39.4L2209.4,1973.7z"/>
			<path class="st4" d="M2112.8,1936.3c15.3,3.4,28.6-9.9,25.2-25.2c-1.7-7.7-7.9-13.9-15.6-15.6c-15.3-3.4-28.6,9.9-25.2,25.2
				C2098.8,1928.4,2105.1,1934.6,2112.8,1936.3z"/>
			<path class="st4" d="M2167.5,1936.3c15.3,3.4,28.6-9.9,25.2-25.2c-1.7-7.7-7.9-13.9-15.6-15.6c-15.3-3.4-28.6,9.9-25.2,25.2
				C2153.6,1928.4,2159.8,1934.6,2167.5,1936.3z"/>
			<path class="st4" d="M1919,1936.3c15.3,3.4,28.6-9.9,25.2-25.2c-1.7-7.7-7.9-13.9-15.6-15.6c-15.3-3.4-28.6,9.9-25.2,25.2
				C1905.1,1928.4,1911.3,1934.6,1919,1936.3z"/>
			<path class="st4" d="M1973.8,1936.3c15.3,3.4,28.6-9.9,25.2-25.2c-1.7-7.7-7.9-13.9-15.6-15.6c-15.3-3.4-28.6,9.9-25.2,25.2
				C1959.9,1928.4,1966.1,1934.6,1973.8,1936.3z"/>
			<path class="st4" d="M1821.2,2097.5c-15.3-3.4-28.6,9.9-25.2,25.2c1.7,7.7,7.9,13.9,15.6,15.6c15.3,3.4,28.6-9.9,25.2-25.2
				C1835.1,2105.4,1828.9,2099.2,1821.2,2097.5z"/>
			<path class="st4" d="M1743.3,2097.5c-15.3-3.4-28.6,9.9-25.2,25.2c1.7,7.7,7.9,13.9,15.6,15.6c15.3,3.4,28.6-9.9,25.2-25.2
				C1757.2,2105.4,1751,2099.2,1743.3,2097.5z"/>
			<path class="st4" d="M1875.9,2097.5c-15.3-3.4-28.6,9.9-25.2,25.2c1.7,7.7,7.9,13.9,15.6,15.6c15.3,3.4,28.6-9.9,25.2-25.2
				C1889.8,2105.4,1883.6,2099.2,1875.9,2097.5z"/>
		</g>
	</g>
</g>
<g id="EN_x5F_Logo1_copy" class="st0">
	<rect class="st3" width="4096" height="4096"/>
	<g id="Logo_6_" class="st1">
		<g id="Tartibk_x5F_En_5_">
			<path class="st4" d="M1213.4,1931.2L1213.4,1931.2c0,7.9,6.4,14.3,14.3,14.3h20c7.9,0,14.3,6.4,14.3,14.3v91.4
				c0,9.7,7.9,17.6,17.6,17.6h0c9.7,0,17.6-7.9,17.6-17.6v-91.4c0-7.9,6.4-14.3,14.3-14.3h20c7.9,0,14.3-6.4,14.3-14.3v0
				c0-7.9-6.4-14.3-14.3-14.3h-103.8C1219.8,1916.9,1213.4,1923.3,1213.4,1931.2z"/>
			<path class="st4" d="M1447.8,1916.9h-7.6c-8.2,0-15.7,4.8-19.1,12.4l-52,116.6c-4.8,10.8,3.1,23,14.9,23l0,0
				c6.6,0,12.5-4,15.1-10l9.4-22.6l11-26.7l17-40.8c2.7-6.4,11.7-6.4,14.4,0l17,40.8l11,26.7l9.2,22.3c2.6,6.2,8.7,10.3,15.4,10.3h0
				c12.1,0,20.2-12.5,15.2-23.5l-51.9-116.1C1463.4,1921.8,1456,1916.9,1447.8,1916.9z"/>
			<path class="st4" d="M1676,2032.7c-4.4-6.3-2.8-15,3.3-19.7c12.3-9.4,19.2-23.3,19.2-41.1c0-34-25.5-55-66.1-55h-51.4
				c-7.9,0-14.3,6.4-14.3,14.3v0.5c0,7.9,6.4,14.3,14.3,14.3l49.3-0.1c21.4,0,32.4,9.2,32.4,25.9c0,16.6-10.9,26.6-32.3,26.6h-49.5
				c-7.9,0-14.3,6.4-14.3,14.3v38.5c0,9.7,7.9,17.6,17.6,17.6l0,0c9.7,0,17.6-7.9,17.6-17.6v-17.1c0-4.3,3.5-7.8,7.8-7.8h20.4
				c2.6,0,5,1.3,6.4,3.4l22.7,32.9c2.7,3.9,7.1,6.2,11.8,6.2h16c6,0,9.5-6.8,6.1-11.7L1676,2032.7z"/>
			<path class="st4" d="M1728.7,1931.2L1728.7,1931.2c0,7.9,6.4,14.3,14.3,14.3h20c7.9,0,14.3,6.4,14.3,14.3v91.5
				c0,9.7,7.8,17.5,17.5,17.5h0c9.7,0,17.5-7.8,17.5-17.5v-91.5c0-7.9,6.4-14.3,14.3-14.3h20c7.9,0,14.3-6.4,14.3-14.3v0
				c0-7.9-6.4-14.3-14.3-14.3h-103.7C1735.2,1916.9,1728.7,1923.3,1728.7,1931.2z"/>
			<path class="st4" d="M1901.7,1934.5v116.8c0,9.7,7.9,17.6,17.6,17.6h0c9.7,0,17.6-7.9,17.6-17.6v-116.8c0-9.7-7.9-17.6-17.6-17.6
				h0C1909.6,1916.9,1901.7,1924.8,1901.7,1934.5z"/>
			<path class="st4" d="M2116.7,1994.7c-4.1-2.6-4.5-8.4-1.1-11.8c6.8-6.7,10.8-15.7,10.8-26.5c0-23.8-19.7-39.5-57.6-39.5h-61.2
				c-7.3,0-13.2,5.9-13.2,13.2v0c0,7.3,5.9,13.2,13.2,13.2h56.8c17.1,0,26.4,5.9,26.4,17.8c0,12.1-9.3,18.1-26.4,18.1h-55.7
				c-7.9,0-14.3,6.4-14.3,14.3v61.1c0,7.9,6.4,14.3,14.3,14.3h64.3c40,0,60.9-15.2,60.9-41.6
				C2134,2012.7,2127.5,2001.5,2116.7,1994.7z M2070.6,2042.3h-26.7c-7.9,0-14.3-6.4-14.3-14.3v-9c0-7.9,6.4-14.3,14.3-14.3h26.7
				c18.3,0,27.9,6.2,27.9,19C2098.5,2036.6,2088.8,2042.3,2070.6,2042.3z"/>
			<path class="st4" d="M2268.2,1994.2c-4.4-5.6-4.1-13.5,0.8-18.7l32.2-34.5c8.6-9.2,2.1-24.1-10.5-24.1l0,0
				c-3.9,0-7.7,1.6-10.4,4.5l-47.7,50.2c-5.5,5.8-15.4,1.9-15.4-6.1v-31c0-9.7-7.8-17.5-17.5-17.5l0,0c-9.7,0-17.5,7.8-17.5,17.5
				v117c0,9.7,7.8,17.5,17.5,17.5l0,0c9.7,0,17.5-7.8,17.5-17.5v-15.2c0-3.7,1.4-7.2,4-9.9l9.4-9.8c3.7-3.9,10-3.6,13.3,0.5
				l37.2,45.6c3.2,4,8.1,6.3,13.2,6.3l0,0c13.3,0,20.8-15.4,12.5-25.8L2268.2,1994.2z"/>
		</g>
		<g id="Logomark_6_">
			<path class="st4" d="M2491.1,1882.3c-5.7-8.8-17.6-11.2-26.8-6.3c-23.3,12.3-44.7,28.1-63.5,46.8c-8.3,8.2-8.8,22-0.1,29.7
				c3.8,3.4,8.5,5.1,13.3,5.1c5.1,0,10.2-1.9,14.1-5.8c16.5-16.5,35.3-30.3,55.7-41.1C2493.9,1905.4,2497.5,1892.3,2491.1,1882.3z"
				/>
			<path class="st4" d="M2780.5,1923.7c-19.9-19.9-42.6-36.5-67.4-49.2c-9.4-4.8-21.3-2.4-26.9,6.6c-6.3,10-2.5,23.1,7.8,28.3
				c15.6,7.9,30.3,17.6,43.7,29l-29.2,29.2c-33.4-27.1-74.7-41.7-118.4-41.7c-49.9,0-96.8,19.2-132.2,54.2c-8.3,8.2-8.8,22-0.1,29.8
				c3.8,3.4,8.5,5.1,13.3,5.1c5.1,0,10.2-1.9,14.1-5.8c28-28,65.3-43.4,105-43.4c39.6,0,76.8,15.3,104.8,43.2
				c7.9,7.8,20.5,8.1,28.3,0.2l57.2-57.2c3.7-3.7,5.8-8.8,5.8-14.1C2786.3,1932.5,2784.2,1927.4,2780.5,1923.7z"/>
			<path class="st4" d="M2546.3,1892.4c20.8,4.6,39-13.5,34.4-34.4c-2.3-10.5-10.8-19-21.3-21.3c-20.8-4.6-39,13.5-34.4,34.4
				C2527.4,1881.6,2535.8,1890.1,2546.3,1892.4z"/>
			<path class="st4" d="M2620.9,1892.4c20.8,4.6,39-13.5,34.4-34.4c-2.3-10.5-10.8-19-21.3-21.3c-20.8-4.6-39,13.5-34.4,34.4
				C2601.9,1881.6,2610.4,1890.1,2620.9,1892.4z"/>
			<path class="st4" d="M2590.2,2006c-28.7,0-55.6,11.1-75.9,31.1c-7.4,7.3-8.3,19.4-1.6,27.4c7.6,8.9,21.1,9.3,29.2,1.2
				c4.6-4.6,9.8-8.5,15.4-11.6c5.8-3.2,13,1,13,7.7v67.3c0,10.4,7.6,19.6,17.9,20.6c11.9,1.1,21.8-8.2,21.8-19.8v-68.1
				c0-6.7,7.2-10.9,13-7.7c5.6,3.1,10.8,7,15.4,11.6c3.9,3.9,9,5.8,14.1,5.8c5.5,0,10.9-2.2,14.9-6.7c7-7.9,6.2-20.3-1.4-27.7
				C2645.7,2017.1,2618.8,2006,2590.2,2006z"/>
		</g>
	</g>
</g>
<g id="Logo_Mark_copy" class="st0">
	<rect class="st3" width="4096" height="4096"/>
	<g class="st1">
		<path class="st4" d="M1839.2,1808.3c-9.7-15.1-30.1-19.2-46-10.8c-39.9,21.1-76.6,48.1-109,80.2c-14.2,14-15.1,37.6-0.2,51
			c6.5,5.8,14.6,8.7,22.8,8.7c8.7,0,17.4-3.3,24.1-10c28.3-28.3,60.5-52,95.6-70.4C1844,1847.8,1850.2,1825.3,1839.2,1808.3z"/>
		<path class="st4" d="M2335.5,1879.2c-34.2-34.2-73-62.5-115.6-84.4c-16.1-8.3-36.5-4-46.1,11.3c-10.8,17.2-4.3,39.6,13.4,48.5
			c26.8,13.6,51.9,30.3,75,49.7l-50.1,50.1c-57.2-46.4-128.1-71.6-203-71.6c-85.6,0-166,33-226.8,92.9c-14.2,14-15.1,37.7-0.2,51
			c6.5,5.8,14.6,8.7,22.7,8.7c8.7,0,17.4-3.3,24.1-10c48-48,112-74.5,180.1-74.5c67.9,0,131.7,26.3,179.7,74.1
			c13.5,13.4,35.1,13.9,48.6,0.4l98.1-98.1c6.4-6.4,10-15.1,10-24.1C2345.4,1894.3,2341.9,1885.6,2335.5,1879.2z"/>
		<path class="st4" d="M1933.9,1825.6c35.7,7.9,66.9-23.2,59-58.9c-4-18-18.5-32.5-36.5-36.5c-35.7-7.9-66.9,23.2-59,59
			C1901.3,1807,1915.9,1821.6,1933.9,1825.6z"/>
		<path class="st4" d="M2061.8,1825.6c35.7,7.9,66.9-23.2,59-59c-4-18-18.5-32.5-36.5-36.5c-35.7-7.9-66.9,23.2-59,58.9
			C2029.3,1807,2043.8,1821.6,2061.8,1825.6z"/>
		<path class="st4" d="M2009.1,2020.4c-49.2,0-95.3,19-130.2,53.4c-12.7,12.6-14.3,33.3-2.7,46.9c13.1,15.3,36.1,16,50.1,2.1
			c7.9-7.9,16.8-14.6,26.4-19.9c10-5.5,22.3,1.7,22.3,13.1v115.4c0,17.8,13,33.7,30.7,35.4c20.3,1.9,37.4-14,37.4-33.9v-116.8
			c0-11.4,12.3-18.7,22.3-13.1c9.6,5.3,18.5,11.9,26.4,19.9c6.7,6.7,15.4,10,24.1,10c9.4,0,18.8-3.9,25.6-11.5
			c12-13.6,10.6-34.8-2.3-47.5C2104.3,2039.3,2058.2,2020.4,2009.1,2020.4z"/>
	</g>
</g>
<g id="Dual_x5F_Logo1_x5F_1_copy" class="st0">
	<rect class="st3" width="4096" height="4096"/>
	<g id="Logo_5_" class="st1">
		<g id="Tartibk_x5F_AR_3_">
			<path class="st4" d="M1482.2,1956.8h-1.8c-9.3,0-16.7,7.5-16.7,16.7l0,41.1c0.2,6.1-1.4,10.8-4.5,13.9c-3.2,3.1-7.8,4.7-14,4.7
				h-30.6h-3.7h-18.8c-9.3,0-17.4-8.3-17.1-17.5c0-0.5,0-1.1,0-1.6l-0.1-40.3c0-9.4-7.7-17-17-17h-1.8c-9.3,0-16.7,7.5-16.7,16.7
				l0,41.1c0.2,6.1-1.4,10.8-4.5,13.9c-3.2,3.1-7.8,4.7-14,4.7h-18.4h-3.7h-18.8c-9.3,0-17.4-8.3-17.1-17.5c0-0.5,0-1.1,0-1.6
				l-0.1-40.3c0-9.4-7.7-17-17-17h-1.8c-9.3,0-16.7,7.5-16.7,16.7l0,41.1c0.1,6.1-1.4,10.8-4.5,13.9c-3.2,3.1-7.8,4.7-14,4.7h-18.4
				h-3.7H1169c-2.8,0-4.9-2.5-4.5-5.2c1.1-6.1,1.3-12.3,0.5-18.4c-1.1-8.8-3.9-17.1-8.4-24.8c-4.5-7.7-10.5-13.9-18.1-18.6
				c-7.5-4.7-16.1-7.1-25.8-7.1h-80.4c-3.8,0-5.6-5.2-2.3-6.8l54.5-26.2c4.5-2.2,7.3-6.7,7.3-12l0-2.3c0-11.8-13.3-20.6-23.4-15.5
				l-118.6,59.2c-4.4,2.2-7.1,6.7-7.1,11.8l0,9.9c0,9,8,17,17.1,17h152.6c4.9,0,9,1.8,12.2,5.3c3.2,3.6,5.1,7.8,5.7,12.7
				c0.7,5.5-0.5,10.4-3.4,14.5c-3,4.2-7.6,6.3-13.9,6.3H919.1h-3.7h-45.8c-10.1,0-17.9,8.8-16.6,18.8l0.2,1.4
				c1.1,8.5,8.3,14.9,16.9,14.9h49.8h3.7h267.7h3.7h18.4c17.3,0,30.3-5.6,38.9-16.9c0,9.3,7.7,16.9,17,16.9h34.1h3.7h18.4
				c17.3,0,30.3-5.6,38.9-16.9c0,9.3,7.7,16.9,17,16.9h34.1h3.7h30.6c16.6,0,29-5,37.3-14.9c8.3-9.9,12.4-23.1,12.5-39.4l-0.1-40.3
				C1499.2,1964.4,1491.6,1956.8,1482.2,1956.8z"/>
			<path class="st4" d="M1685.4,1973.7c0-9.4-7.7-17-17-17h-1.8c-9.3,0-16.7,7.5-16.7,16.7l0,41.1c0.2,6.1-1.4,10.8-4.5,13.9
				c-3.2,3.1-7.8,4.7-14,4.7h-30.6h-3.7h-4.2c-9.4,0-17-7.6-17-17l-0.1-47c0-9.4-7.7-17-17-17h-1.7c-9.3,0-16.8,7.5-16.7,16.8
				l0.5,117.4c0.2,12.1-4.7,23.7-14.6,34.8c-0.4,0.5-0.7,1-0.9,1.5c15-1.5,27.1-7.6,36.2-18.4c8.7-10.3,13.4-21.8,14.3-34.4l0.2-1.5
				h25.6h3.7h30.6c16.6,0,29-5,37.3-14.9c8.3-9.9,12.4-23.1,12.5-39.4L1685.4,1973.7z"/>
			<path class="st4" d="M1588.8,1936.3c15.3,3.4,28.6-9.9,25.2-25.2c-1.7-7.7-7.9-13.9-15.6-15.6c-15.3-3.4-28.6,9.9-25.2,25.2
				C1574.8,1928.4,1581.1,1934.6,1588.8,1936.3z"/>
			<path class="st4" d="M1643.5,1936.3c15.3,3.4,28.6-9.9,25.2-25.2c-1.7-7.7-7.9-13.9-15.6-15.6c-15.3-3.4-28.6,9.9-25.2,25.2
				C1629.6,1928.4,1635.8,1934.6,1643.5,1936.3z"/>
			<path class="st4" d="M1395,1936.3c15.3,3.4,28.6-9.9,25.2-25.2c-1.7-7.7-7.9-13.9-15.6-15.6c-15.3-3.4-28.6,9.9-25.2,25.2
				C1381.1,1928.4,1387.3,1934.6,1395,1936.3z"/>
			<path class="st4" d="M1449.8,1936.3c15.3,3.4,28.6-9.9,25.2-25.2c-1.7-7.7-7.9-13.9-15.6-15.6c-15.3-3.4-28.6,9.9-25.2,25.2
				C1435.9,1928.4,1442.1,1934.6,1449.8,1936.3z"/>
			<path class="st4" d="M1297.2,2097.5c-15.3-3.4-28.6,9.9-25.2,25.2c1.7,7.7,7.9,13.9,15.6,15.6c15.3,3.4,28.6-9.9,25.2-25.2
				C1311.1,2105.4,1304.9,2099.2,1297.2,2097.5z"/>
			<path class="st4" d="M1219.3,2097.5c-15.3-3.4-28.6,9.9-25.2,25.2c1.7,7.7,7.9,13.9,15.6,15.6c15.3,3.4,28.6-9.9,25.2-25.2
				C1233.2,2105.4,1227,2099.2,1219.3,2097.5z"/>
			<path class="st4" d="M1351.9,2097.5c-15.3-3.4-28.6,9.9-25.2,25.2c1.7,7.7,7.9,13.9,15.6,15.6c15.3,3.4,28.6-9.9,25.2-25.2
				C1365.8,2105.4,1359.6,2099.2,1351.9,2097.5z"/>
		</g>
		<g id="Tartibk_x5F_En_4_">
			<path class="st4" d="M2227.4,1931.2L2227.4,1931.2c0,7.9,6.4,14.3,14.3,14.3h20c7.9,0,14.3,6.4,14.3,14.3v91.4
				c0,9.7,7.9,17.6,17.6,17.6l0,0c9.7,0,17.6-7.9,17.6-17.6v-91.4c0-7.9,6.4-14.3,14.3-14.3h20c7.9,0,14.3-6.4,14.3-14.3v0
				c0-7.9-6.4-14.3-14.3-14.3h-103.8C2233.8,1916.9,2227.4,1923.3,2227.4,1931.2z"/>
			<path class="st4" d="M2461.8,1916.9h-7.6c-8.2,0-15.7,4.8-19.1,12.4l-52,116.6c-4.8,10.8,3.1,23,14.9,23h0c6.6,0,12.5-4,15.1-10
				l9.4-22.6l11-26.7l17-40.8c2.7-6.4,11.7-6.4,14.4,0l17,40.8l11,26.7l9.2,22.3c2.6,6.2,8.7,10.3,15.4,10.3l0,0
				c12.1,0,20.2-12.5,15.2-23.5l-51.9-116.1C2477.4,1921.8,2470,1916.9,2461.8,1916.9z"/>
			<path class="st4" d="M2690,2032.7c-4.4-6.3-2.8-15,3.3-19.7c12.3-9.4,19.2-23.3,19.2-41.1c0-34-25.5-55-66.1-55h-51.4
				c-7.9,0-14.3,6.4-14.3,14.3v0.5c0,7.9,6.4,14.3,14.3,14.3l49.3-0.1c21.4,0,32.4,9.2,32.4,25.9c0,16.6-10.9,26.6-32.3,26.6h-49.5
				c-7.9,0-14.3,6.4-14.3,14.3v38.5c0,9.7,7.9,17.6,17.6,17.6l0,0c9.7,0,17.6-7.9,17.6-17.6v-17.1c0-4.3,3.5-7.8,7.8-7.8h20.4
				c2.6,0,5,1.3,6.4,3.4l22.7,32.9c2.7,3.9,7.1,6.2,11.8,6.2h16c6,0,9.5-6.8,6.1-11.7L2690,2032.7z"/>
			<path class="st4" d="M2742.7,1931.2L2742.7,1931.2c0,7.9,6.4,14.3,14.3,14.3h20c7.9,0,14.3,6.4,14.3,14.3v91.5
				c0,9.7,7.8,17.5,17.5,17.5l0,0c9.7,0,17.5-7.8,17.5-17.5v-91.5c0-7.9,6.4-14.3,14.3-14.3h20c7.9,0,14.3-6.4,14.3-14.3v0
				c0-7.9-6.4-14.3-14.3-14.3h-103.7C2749.2,1916.9,2742.7,1923.3,2742.7,1931.2z"/>
			<path class="st4" d="M2915.7,1934.5v116.8c0,9.7,7.9,17.6,17.6,17.6l0,0c9.7,0,17.6-7.9,17.6-17.6v-116.8
				c0-9.7-7.9-17.6-17.6-17.6l0,0C2923.6,1916.9,2915.7,1924.8,2915.7,1934.5z"/>
			<path class="st4" d="M3130.7,1994.7c-4.1-2.6-4.5-8.4-1.1-11.8c6.8-6.7,10.8-15.7,10.8-26.5c0-23.8-19.7-39.5-57.6-39.5h-61.2
				c-7.3,0-13.2,5.9-13.2,13.2v0c0,7.3,5.9,13.2,13.2,13.2h56.8c17.1,0,26.4,5.9,26.4,17.8c0,12.1-9.3,18.1-26.4,18.1h-55.7
				c-7.9,0-14.3,6.4-14.3,14.3v61.1c0,7.9,6.4,14.3,14.3,14.3h64.3c40,0,60.9-15.2,60.9-41.6
				C3148,2012.7,3141.5,2001.5,3130.7,1994.7z M3084.6,2042.3h-26.7c-7.9,0-14.3-6.4-14.3-14.3v-9c0-7.9,6.4-14.3,14.3-14.3h26.7
				c18.3,0,27.9,6.2,27.9,19C3112.5,2036.6,3102.8,2042.3,3084.6,2042.3z"/>
			<path class="st4" d="M3282.2,1994.2c-4.4-5.6-4.1-13.5,0.8-18.7l32.2-34.5c8.6-9.2,2.1-24.1-10.5-24.1l0,0
				c-3.9,0-7.7,1.6-10.4,4.5l-47.7,50.2c-5.5,5.8-15.4,1.9-15.4-6.1v-31c0-9.7-7.8-17.5-17.5-17.5l0,0c-9.7,0-17.5,7.8-17.5,17.5
				v117c0,9.7,7.8,17.5,17.5,17.5l0,0c9.7,0,17.5-7.8,17.5-17.5v-15.2c0-3.7,1.4-7.2,4-9.9l9.4-9.8c3.7-3.9,10-3.6,13.3,0.5
				l37.2,45.6c3.2,4,8.1,6.3,13.2,6.3l0,0c13.3,0,20.8-15.4,12.5-25.8L3282.2,1994.2z"/>
		</g>
		<g id="Logomark_5_">
			<path class="st4" d="M1857.1,1882.3c-5.7-8.8-17.6-11.2-26.8-6.3c-23.3,12.3-44.7,28.1-63.5,46.8c-8.3,8.2-8.8,22-0.1,29.7
				c3.8,3.4,8.5,5.1,13.3,5.1c5.1,0,10.2-1.9,14.1-5.8c16.5-16.5,35.3-30.3,55.7-41.1C1859.9,1905.4,1863.5,1892.3,1857.1,1882.3z"
				/>
			<path class="st4" d="M2146.5,1923.7c-19.9-19.9-42.6-36.5-67.4-49.2c-9.4-4.8-21.3-2.4-26.9,6.6c-6.3,10-2.5,23.1,7.8,28.3
				c15.6,7.9,30.3,17.6,43.7,29l-29.2,29.2c-33.4-27.1-74.7-41.7-118.4-41.7c-49.9,0-96.8,19.2-132.2,54.2c-8.3,8.2-8.8,22-0.1,29.8
				c3.8,3.4,8.5,5.1,13.3,5.1c5.1,0,10.2-1.9,14.1-5.8c28-28,65.3-43.4,105-43.4c39.6,0,76.8,15.3,104.8,43.2
				c7.9,7.8,20.5,8.1,28.3,0.2l57.2-57.2c3.7-3.7,5.8-8.8,5.8-14.1C2152.3,1932.5,2150.2,1927.4,2146.5,1923.7z"/>
			<path class="st4" d="M1912.3,1892.4c20.8,4.6,39-13.5,34.4-34.4c-2.3-10.5-10.8-19-21.3-21.3c-20.8-4.6-39,13.5-34.4,34.4
				C1893.4,1881.6,1901.8,1890.1,1912.3,1892.4z"/>
			<path class="st4" d="M1986.9,1892.4c20.8,4.6,39-13.5,34.4-34.4c-2.3-10.5-10.8-19-21.3-21.3c-20.8-4.6-39,13.5-34.4,34.4
				C1967.9,1881.6,1976.4,1890.1,1986.9,1892.4z"/>
			<path class="st4" d="M1956.2,2006c-28.7,0-55.6,11.1-75.9,31.1c-7.4,7.3-8.3,19.4-1.6,27.4c7.6,8.9,21.1,9.3,29.2,1.2
				c4.6-4.6,9.8-8.5,15.4-11.6c5.8-3.2,13,1,13,7.7v67.3c0,10.4,7.6,19.6,17.9,20.6c11.9,1.1,21.8-8.2,21.8-19.8v-68.1
				c0-6.7,7.2-10.9,13-7.7c5.6,3.1,10.8,7,15.4,11.6c3.9,3.9,9,5.8,14.1,5.8c5.5,0,10.9-2.2,14.9-6.7c7-7.9,6.2-20.3-1.4-27.7
				C2011.7,2017.1,1984.8,2006,1956.2,2006z"/>
		</g>
	</g>
</g>
<g id="Dual_x5F_Logo1_x5F_2_copy" class="st0">
	<rect class="st3" width="4096" height="4096"/>
	<g id="Logo_4_" class="st1">
		<g id="Tartibk_x5F_AR_2_">
			<path class="st4" d="M2251.2,2077.8h-1.8c-9.3,0-16.7,7.5-16.7,16.7l0,41.1c0.1,6.1-1.4,10.8-4.5,13.9c-3.2,3.1-7.8,4.7-14,4.7
				h-30.6h-3.7h-18.8c-9.3,0-17.4-8.3-17.1-17.5c0-0.5,0-1.1,0-1.6l-0.1-40.3c0-9.4-7.7-17-17-17h-1.8c-9.3,0-16.7,7.5-16.7,16.7
				l0,41.1c0.2,6.1-1.4,10.8-4.5,13.9c-3.2,3.1-7.8,4.7-14,4.7h-18.4h-3.7h-18.8c-9.3,0-17.4-8.3-17.1-17.5c0-0.5,0-1.1,0-1.6
				l-0.1-40.3c0-9.4-7.7-17-17-17h-1.8c-9.3,0-16.7,7.5-16.7,16.7l0,41.1c0.1,6.1-1.4,10.8-4.5,13.9c-3.2,3.1-7.8,4.7-14,4.7h-18.4
				h-3.7H1938c-2.8,0-4.9-2.5-4.5-5.2c1.1-6.1,1.3-12.3,0.5-18.4c-1.1-8.8-3.9-17.1-8.4-24.8c-4.5-7.7-10.5-13.9-18.1-18.6
				c-7.5-4.7-16.1-7.1-25.8-7.1h-80.4c-3.8,0-5.6-5.2-2.3-6.8l54.5-26.2c4.5-2.2,7.3-6.7,7.3-12l0-2.3c0-11.8-13.3-20.6-23.4-15.5
				l-118.6,59.2c-4.4,2.2-7.1,6.7-7.1,11.8l0,9.9c0,9,8,17,17.1,17h152.6c4.9,0,9,1.8,12.2,5.3c3.2,3.6,5.1,7.8,5.7,12.7
				c0.7,5.5-0.5,10.4-3.4,14.5c-3,4.2-7.6,6.3-13.9,6.3h-193.9h-3.7h-45.8c-10.1,0-17.9,8.8-16.6,18.8l0.2,1.4
				c1.1,8.5,8.3,14.9,16.9,14.9h49.8h3.7h267.7h3.7h18.4c17.3,0,30.3-5.6,38.9-16.9c0,9.3,7.7,16.9,17,16.9h34.1h3.7h18.4
				c17.3,0,30.3-5.6,38.9-16.9c0,9.3,7.7,16.9,17,16.9h34.1h3.7h30.6c16.6,0,29-5,37.3-14.9c8.3-9.9,12.4-23.1,12.5-39.4l-0.1-40.3
				C2268.2,2085.4,2260.6,2077.8,2251.2,2077.8z"/>
			<path class="st4" d="M2454.4,2094.7c0-9.4-7.7-17-17-17h-1.8c-9.3,0-16.7,7.5-16.7,16.7l0,41.1c0.2,6.1-1.4,10.8-4.5,13.9
				c-3.2,3.1-7.8,4.7-14,4.7h-30.6h-3.7h-4.2c-9.4,0-17-7.6-17-17l-0.1-47c0-9.4-7.7-17-17-17h-1.7c-9.3,0-16.8,7.5-16.7,16.8
				l0.5,117.4c0.2,12.1-4.7,23.7-14.6,34.8c-0.4,0.5-0.7,1-0.9,1.5c15-1.5,27.1-7.6,36.2-18.4c8.7-10.3,13.4-21.8,14.3-34.4l0.2-1.5
				h25.6h3.7h30.6c16.6,0,29-5,37.3-14.9c8.3-9.9,12.4-23.1,12.5-39.4L2454.4,2094.7z"/>
			<path class="st4" d="M2357.8,2057.3c15.3,3.4,28.6-9.9,25.2-25.2c-1.7-7.7-7.9-13.9-15.6-15.6c-15.3-3.4-28.6,9.9-25.2,25.2
				C2343.8,2049.4,2350.1,2055.6,2357.8,2057.3z"/>
			<path class="st4" d="M2412.5,2057.3c15.3,3.4,28.6-9.9,25.2-25.2c-1.7-7.7-7.9-13.9-15.6-15.6c-15.3-3.4-28.6,9.9-25.2,25.2
				C2398.6,2049.4,2404.8,2055.6,2412.5,2057.3z"/>
			<path class="st4" d="M2164,2057.3c15.3,3.4,28.6-9.9,25.2-25.2c-1.7-7.7-7.9-13.9-15.6-15.6c-15.3-3.4-28.6,9.9-25.2,25.2
				C2150.1,2049.4,2156.3,2055.6,2164,2057.3z"/>
			<path class="st4" d="M2218.8,2057.3c15.3,3.4,28.6-9.9,25.2-25.2c-1.7-7.7-7.9-13.9-15.6-15.6c-15.3-3.4-28.6,9.9-25.2,25.2
				C2204.9,2049.4,2211.1,2055.6,2218.8,2057.3z"/>
			<path class="st4" d="M2066.2,2218.5c-15.3-3.4-28.6,9.9-25.2,25.2c1.7,7.7,7.9,13.9,15.6,15.6c15.3,3.4,28.6-9.9,25.2-25.2
				C2080.1,2226.4,2073.9,2220.2,2066.2,2218.5z"/>
			<path class="st4" d="M1988.3,2218.5c-15.3-3.4-28.6,9.9-25.2,25.2c1.7,7.7,7.9,13.9,15.6,15.6c15.3,3.4,28.6-9.9,25.2-25.2
				C2002.2,2226.4,1996,2220.2,1988.3,2218.5z"/>
			<path class="st4" d="M2120.9,2218.5c-15.3-3.4-28.6,9.9-25.2,25.2c1.7,7.7,7.9,13.9,15.6,15.6c15.3,3.4,28.6-9.9,25.2-25.2
				C2134.8,2226.4,2128.6,2220.2,2120.9,2218.5z"/>
		</g>
		<g id="Tartibk_x5F_En_3_">
			<path class="st4" d="M1622,2299.9L1622,2299.9c0,6,4.9,10.9,10.9,10.9h15.2c6,0,10.9,4.9,10.9,10.9v69.4c0,7.4,6,13.3,13.3,13.3
				h0c7.4,0,13.3-6,13.3-13.3v-69.4c0-6,4.9-10.9,10.9-10.9h15.2c6,0,10.9-4.9,10.9-10.9l0,0c0-6-4.9-10.9-10.9-10.9h-78.8
				C1626.9,2289,1622,2293.9,1622,2299.9z"/>
			<path class="st4" d="M1799.7,2289h-5.8c-6.2,0-11.9,3.7-14.5,9.4l-39.5,88.5c-3.7,8.2,2.3,17.4,11.3,17.4l0,0c5,0,9.5-3,11.4-7.6
				l7.2-17.1l8.4-20.3l12.9-31c2-4.9,8.9-4.9,10.9,0l12.9,31l8.4,20.3l7,16.9c2,4.7,6.6,7.8,11.7,7.8l0,0c9.2,0,15.3-9.5,11.6-17.8
				l-39.4-88.1C1811.6,2292.7,1806,2289,1799.7,2289z"/>
			<path class="st4" d="M1972.9,2376.8c-3.3-4.8-2.1-11.4,2.5-14.9c9.3-7.1,14.6-17.7,14.6-31.2c0-25.8-19.4-41.7-50.1-41.7h-39
				c-6,0-10.9,4.9-10.9,10.9v0.4c0,6,4.9,10.9,10.9,10.9l37.4,0c16.2,0,24.6,7,24.6,19.7c0,12.6-8.2,20.2-24.5,20.2h-37.5
				c-6,0-10.9,4.9-10.9,10.9v29.2c0,7.4,6,13.3,13.3,13.3l0,0c7.4,0,13.3-6,13.3-13.3V2378c0-3.3,2.6-5.9,5.9-5.9h15.5
				c1.9,0,3.8,1,4.9,2.5l17.2,25c2,2.9,5.4,4.7,8.9,4.7h12.1c4.6,0,7.2-5.1,4.6-8.9L1972.9,2376.8z"/>
			<path class="st4" d="M2012.9,2299.9L2012.9,2299.9c0,6,4.9,10.9,10.9,10.9h15.2c6,0,10.9,4.9,10.9,10.9v69.4
				c0,7.3,5.9,13.3,13.3,13.3h0c7.3,0,13.3-5.9,13.3-13.3v-69.4c0-6,4.9-10.9,10.9-10.9h15.2c6,0,10.9-4.9,10.9-10.9l0,0
				c0-6-4.9-10.9-10.9-10.9h-78.6C2017.7,2289,2012.9,2293.9,2012.9,2299.9z"/>
			<path class="st4" d="M2144.1,2302.3v88.6c0,7.4,6,13.3,13.3,13.3l0,0c7.4,0,13.3-6,13.3-13.3v-88.6c0-7.4-6-13.3-13.3-13.3l0,0
				C2150.1,2289,2144.1,2295,2144.1,2302.3z"/>
			<path class="st4" d="M2307.2,2348c-3.1-2-3.4-6.3-0.8-8.9c5.1-5.1,8.2-11.9,8.2-20.1c0-18.1-14.9-30-43.7-30h-46.4
				c-5.5,0-10,4.5-10,10l0,0c0,5.5,4.5,10,10,10h43.1c13,0,20,4.4,20,13.5c0,9.2-7.1,13.7-20,13.7h-42.3c-6,0-10.9,4.9-10.9,10.9
				v46.3c0,6,4.9,10.9,10.9,10.9h48.8c30.4,0,46.2-11.5,46.2-31.5C2320.3,2361.6,2315.4,2353.2,2307.2,2348z M2272.1,2384.1h-20.3
				c-6,0-10.9-4.9-10.9-10.9v-6.8c0-6,4.9-10.9,10.9-10.9h20.3c13.9,0,21.2,4.7,21.2,14.4C2293.3,2379.8,2286,2384.1,2272.1,2384.1z
				"/>
			<path class="st4" d="M2422.1,2347.6c-3.3-4.2-3.1-10.2,0.6-14.2l24.4-26.2c6.5-7,1.6-18.3-7.9-18.3l0,0c-3,0-5.8,1.2-7.9,3.4
				l-36.2,38.1c-4.2,4.4-11.7,1.5-11.7-4.7v-23.5c0-7.3-5.9-13.3-13.3-13.3l0,0c-7.3,0-13.3,5.9-13.3,13.3v88.7
				c0,7.3,5.9,13.3,13.3,13.3l0,0c7.3,0,13.3-5.9,13.3-13.3v-11.5c0-2.8,1.1-5.5,3-7.5l7.1-7.4c2.8-2.9,7.6-2.7,10.1,0.4l28.2,34.6
				c2.5,3,6.1,4.8,10,4.8l0,0c10.1,0,15.8-11.7,9.5-19.6L2422.1,2347.6z"/>
		</g>
		<g id="Logomark_4_">
			<path class="st4" d="M1939.1,1601.3c-5.7-8.8-17.6-11.2-26.8-6.3c-23.3,12.3-44.7,28.1-63.5,46.8c-8.3,8.2-8.8,22-0.1,29.7
				c3.8,3.4,8.5,5.1,13.3,5.1c5.1,0,10.2-1.9,14.1-5.8c16.5-16.5,35.3-30.3,55.7-41.1C1941.9,1624.4,1945.5,1611.3,1939.1,1601.3z"
				/>
			<path class="st4" d="M2228.5,1642.7c-19.9-19.9-42.6-36.5-67.4-49.2c-9.4-4.8-21.3-2.4-26.9,6.6c-6.3,10-2.5,23.1,7.8,28.3
				c15.6,7.9,30.3,17.6,43.7,29l-29.2,29.2c-33.4-27.1-74.7-41.7-118.4-41.7c-49.9,0-96.8,19.2-132.2,54.2c-8.3,8.2-8.8,22-0.1,29.8
				c3.8,3.4,8.5,5.1,13.3,5.1c5.1,0,10.2-1.9,14.1-5.8c28-28,65.3-43.4,105-43.4c39.6,0,76.8,15.3,104.8,43.2
				c7.9,7.8,20.5,8.1,28.3,0.2l57.2-57.2c3.7-3.7,5.8-8.8,5.8-14.1C2234.3,1651.5,2232.2,1646.4,2228.5,1642.7z"/>
			<path class="st4" d="M1994.3,1611.4c20.8,4.6,39-13.5,34.4-34.4c-2.3-10.5-10.8-19-21.3-21.3c-20.8-4.6-39,13.5-34.4,34.4
				C1975.4,1600.6,1983.8,1609.1,1994.3,1611.4z"/>
			<path class="st4" d="M2068.9,1611.4c20.8,4.6,39-13.5,34.4-34.4c-2.3-10.5-10.8-19-21.3-21.3c-20.8-4.6-39,13.5-34.4,34.4
				C2049.9,1600.6,2058.4,1609.1,2068.9,1611.4z"/>
			<path class="st4" d="M2038.2,1725c-28.7,0-55.6,11.1-75.9,31.1c-7.4,7.3-8.3,19.4-1.6,27.4c7.6,8.9,21.1,9.3,29.2,1.2
				c4.6-4.6,9.8-8.5,15.4-11.6c5.8-3.2,13,1,13,7.7v67.3c0,10.4,7.6,19.6,17.9,20.6c11.9,1.1,21.8-8.2,21.8-19.8v-68.1
				c0-6.7,7.2-10.9,13-7.7c5.6,3.1,10.8,7,15.4,11.6c3.9,3.9,9,5.8,14.1,5.8c5.5,0,10.9-2.2,14.9-6.7c7-7.9,6.2-20.3-1.4-27.7
				C2093.7,1736.1,2066.8,1725,2038.2,1725z"/>
		</g>
	</g>
</g>
<g id="AR_x5F_Logo1_copy_3" class="st0">
	<rect class="st3" width="4096" height="4096"/>
	<g id="Logo_15_" class="st1">
		<g id="Logomark_15_">
			<path class="st5" d="M2389.9,1882.1c-5.7-8.8-17.6-11.2-26.9-6.3c-23.3,12.3-44.7,28.1-63.6,46.8c-8.3,8.2-8.8,22-0.1,29.8
				c3.8,3.4,8.5,5.1,13.3,5.1c5.1,0,10.2-1.9,14.1-5.8c16.5-16.5,35.3-30.4,55.8-41.1C2392.7,1905.1,2396.3,1892,2389.9,1882.1z"/>
			<path class="st5" d="M2679.6,1923.5c-19.9-19.9-42.6-36.5-67.5-49.3c-9.4-4.8-21.3-2.4-26.9,6.6c-6.3,10.1-2.5,23.1,7.8,28.3
				c15.6,7.9,30.3,17.7,43.8,29l-29.3,29.3c-33.4-27.1-74.8-41.8-118.5-41.8c-50,0-96.9,19.2-132.3,54.2c-8.3,8.2-8.8,22-0.1,29.8
				c3.8,3.4,8.5,5.1,13.3,5.1c5.1,0,10.2-1.9,14.1-5.8c28-28,65.4-43.5,105.1-43.5c39.7,0,76.9,15.3,104.9,43.2
				c7.9,7.8,20.5,8.1,28.4,0.2l57.3-57.3c3.7-3.7,5.8-8.8,5.8-14.1C2685.4,1932.2,2683.3,1927.2,2679.6,1923.5z"/>
			<path class="st5" d="M2445.2,1892.2c20.9,4.6,39-13.5,34.4-34.4c-2.3-10.5-10.8-19-21.3-21.3c-20.9-4.6-39,13.5-34.4,34.4
				C2426.2,1881.3,2434.7,1889.8,2445.2,1892.2z"/>
			<path class="st5" d="M2519.9,1892.2c20.9,4.6,39-13.5,34.4-34.4c-2.3-10.5-10.8-19-21.3-21.3c-20.9-4.6-39,13.5-34.4,34.4
				C2500.9,1881.3,2509.3,1889.8,2519.9,1892.2z"/>
			<path class="st5" d="M2489.1,2005.9c-28.7,0-55.7,11.1-76,31.2c-7.4,7.3-8.3,19.5-1.6,27.4c7.6,9,21.1,9.4,29.2,1.2
				c4.6-4.6,9.8-8.5,15.4-11.6c5.9-3.2,13,1,13,7.7v67.3c0,10.4,7.6,19.7,17.9,20.7c11.9,1.1,21.8-8.2,21.8-19.8v-68.2
				c0-6.7,7.2-10.9,13-7.7c5.6,3.1,10.8,7,15.4,11.6c3.9,3.9,9,5.8,14.1,5.8c5.5,0,11-2.2,14.9-6.7c7-7.9,6.2-20.3-1.4-27.7
				C2544.7,2016.9,2517.7,2005.9,2489.1,2005.9z"/>
		</g>
		<g id="Tartibk_x5F_Ar_3_">
			<path class="st5" d="M2006.2,1956.8h-1.8c-9.3,0-16.7,7.5-16.7,16.7l0,41.1c0.2,6.1-1.4,10.8-4.5,13.9c-3.2,3.1-7.8,4.7-14,4.7
				h-30.6h-3.7h-18.8c-9.3,0-17.4-8.3-17.1-17.5c0-0.5,0-1.1,0-1.6l-0.1-40.3c0-9.4-7.7-17-17-17h-1.8c-9.3,0-16.7,7.5-16.7,16.7
				l0,41.1c0.2,6.1-1.4,10.8-4.5,13.9c-3.2,3.1-7.8,4.7-14,4.7h-18.4h-3.7h-18.8c-9.3,0-17.4-8.3-17.1-17.5c0-0.5,0-1.1,0-1.6
				l-0.1-40.3c0-9.4-7.7-17-17-17h-1.8c-9.3,0-16.7,7.5-16.7,16.7l0,41.1c0.1,6.1-1.4,10.8-4.5,13.9c-3.2,3.1-7.8,4.7-14,4.7h-18.4
				h-3.7H1693c-2.8,0-4.9-2.5-4.5-5.2c1.1-6.1,1.3-12.3,0.5-18.4c-1.1-8.8-3.9-17.1-8.4-24.8c-4.5-7.7-10.5-13.9-18.1-18.6
				c-7.5-4.7-16.1-7.1-25.8-7.1h-80.4c-3.8,0-5.6-5.2-2.3-6.8l54.5-26.2c4.5-2.2,7.3-6.7,7.3-12l0-2.3c0-11.8-13.3-20.6-23.4-15.5
				l-118.6,59.2c-4.4,2.2-7.1,6.7-7.1,11.8l0,9.9c0,9,8,17,17.1,17h152.6c4.9,0,9,1.8,12.2,5.3c3.2,3.6,5.1,7.8,5.7,12.7
				c0.7,5.5-0.5,10.4-3.4,14.5c-3,4.2-7.6,6.3-13.9,6.3h-193.9h-3.7h-45.8c-10.1,0-17.9,8.8-16.6,18.8l0.2,1.4
				c1.1,8.5,8.3,14.9,16.9,14.9h49.8h3.7h267.7h3.7h18.4c17.3,0,30.3-5.6,38.9-16.9c0,9.3,7.7,16.9,17,16.9h34.1h3.7h18.4
				c17.3,0,30.3-5.6,38.9-16.9c0,9.3,7.7,16.9,17,16.9h34.1h3.7h30.6c16.6,0,29-5,37.3-14.9c8.3-9.9,12.4-23.1,12.5-39.4l-0.1-40.3
				C2023.2,1964.4,2015.6,1956.8,2006.2,1956.8z"/>
			<path class="st5" d="M2209.4,1973.7c0-9.4-7.7-17-17-17h-1.8c-9.3,0-16.7,7.5-16.7,16.7l0,41.1c0.2,6.1-1.4,10.8-4.5,13.9
				c-3.2,3.1-7.8,4.7-14,4.7h-30.6h-3.7h-4.2c-9.4,0-17-7.6-17-17l-0.1-47c0-9.4-7.7-17-17-17h-1.7c-9.3,0-16.8,7.5-16.7,16.8
				l0.5,117.4c0.2,12.1-4.7,23.7-14.6,34.8c-0.4,0.5-0.7,1-0.9,1.5c15-1.5,27.1-7.6,36.2-18.4c8.7-10.3,13.4-21.8,14.3-34.4l0.2-1.5
				h25.6h3.7h30.6c16.6,0,29-5,37.3-14.9c8.3-9.9,12.4-23.1,12.5-39.4L2209.4,1973.7z"/>
			<path class="st5" d="M2112.8,1936.3c15.3,3.4,28.6-9.9,25.2-25.2c-1.7-7.7-7.9-13.9-15.6-15.6c-15.3-3.4-28.6,9.9-25.2,25.2
				C2098.8,1928.4,2105.1,1934.6,2112.8,1936.3z"/>
			<path class="st5" d="M2167.5,1936.3c15.3,3.4,28.6-9.9,25.2-25.2c-1.7-7.7-7.9-13.9-15.6-15.6c-15.3-3.4-28.6,9.9-25.2,25.2
				C2153.6,1928.4,2159.8,1934.6,2167.5,1936.3z"/>
			<path class="st5" d="M1919,1936.3c15.3,3.4,28.6-9.9,25.2-25.2c-1.7-7.7-7.9-13.9-15.6-15.6c-15.3-3.4-28.6,9.9-25.2,25.2
				C1905.1,1928.4,1911.3,1934.6,1919,1936.3z"/>
			<path class="st5" d="M1973.8,1936.3c15.3,3.4,28.6-9.9,25.2-25.2c-1.7-7.7-7.9-13.9-15.6-15.6c-15.3-3.4-28.6,9.9-25.2,25.2
				C1959.9,1928.4,1966.1,1934.6,1973.8,1936.3z"/>
			<path class="st5" d="M1821.2,2097.5c-15.3-3.4-28.6,9.9-25.2,25.2c1.7,7.7,7.9,13.9,15.6,15.6c15.3,3.4,28.6-9.9,25.2-25.2
				C1835.1,2105.4,1828.9,2099.2,1821.2,2097.5z"/>
			<path class="st5" d="M1743.3,2097.5c-15.3-3.4-28.6,9.9-25.2,25.2c1.7,7.7,7.9,13.9,15.6,15.6c15.3,3.4,28.6-9.9,25.2-25.2
				C1757.2,2105.4,1751,2099.2,1743.3,2097.5z"/>
			<path class="st5" d="M1875.9,2097.5c-15.3-3.4-28.6,9.9-25.2,25.2c1.7,7.7,7.9,13.9,15.6,15.6c15.3,3.4,28.6-9.9,25.2-25.2
				C1889.8,2105.4,1883.6,2099.2,1875.9,2097.5z"/>
		</g>
	</g>
</g>
<g id="EN_x5F_Logo1_copy_3" class="st0">
	<rect class="st3" width="4096" height="4096"/>
	<g id="Logo_14_" class="st1">
		<g id="Tartibk_x5F_En_11_">
			<path class="st5" d="M1213.4,1931.2L1213.4,1931.2c0,7.9,6.4,14.3,14.3,14.3h20c7.9,0,14.3,6.4,14.3,14.3v91.4
				c0,9.7,7.9,17.6,17.6,17.6h0c9.7,0,17.6-7.9,17.6-17.6v-91.4c0-7.9,6.4-14.3,14.3-14.3h20c7.9,0,14.3-6.4,14.3-14.3v0
				c0-7.9-6.4-14.3-14.3-14.3h-103.8C1219.8,1916.9,1213.4,1923.3,1213.4,1931.2z"/>
			<path class="st5" d="M1447.8,1916.9h-7.6c-8.2,0-15.7,4.8-19.1,12.4l-52,116.6c-4.8,10.8,3.1,23,14.9,23l0,0
				c6.6,0,12.5-4,15.1-10l9.4-22.6l11-26.7l17-40.8c2.7-6.4,11.7-6.4,14.4,0l17,40.8l11,26.7l9.2,22.3c2.6,6.2,8.7,10.3,15.4,10.3h0
				c12.1,0,20.2-12.5,15.2-23.5l-51.9-116.1C1463.4,1921.8,1456,1916.9,1447.8,1916.9z"/>
			<path class="st5" d="M1676,2032.7c-4.4-6.3-2.8-15,3.3-19.7c12.3-9.4,19.2-23.3,19.2-41.1c0-34-25.5-55-66.1-55h-51.4
				c-7.9,0-14.3,6.4-14.3,14.3v0.5c0,7.9,6.4,14.3,14.3,14.3l49.3-0.1c21.4,0,32.4,9.2,32.4,25.9c0,16.6-10.9,26.6-32.3,26.6h-49.5
				c-7.9,0-14.3,6.4-14.3,14.3v38.5c0,9.7,7.9,17.6,17.6,17.6l0,0c9.7,0,17.6-7.9,17.6-17.6v-17.1c0-4.3,3.5-7.8,7.8-7.8h20.4
				c2.6,0,5,1.3,6.4,3.4l22.7,32.9c2.7,3.9,7.1,6.2,11.8,6.2h16c6,0,9.5-6.8,6.1-11.7L1676,2032.7z"/>
			<path class="st5" d="M1728.7,1931.2L1728.7,1931.2c0,7.9,6.4,14.3,14.3,14.3h20c7.9,0,14.3,6.4,14.3,14.3v91.5
				c0,9.7,7.8,17.5,17.5,17.5h0c9.7,0,17.5-7.8,17.5-17.5v-91.5c0-7.9,6.4-14.3,14.3-14.3h20c7.9,0,14.3-6.4,14.3-14.3v0
				c0-7.9-6.4-14.3-14.3-14.3h-103.7C1735.2,1916.9,1728.7,1923.3,1728.7,1931.2z"/>
			<path class="st5" d="M1901.7,1934.5v116.8c0,9.7,7.9,17.6,17.6,17.6h0c9.7,0,17.6-7.9,17.6-17.6v-116.8c0-9.7-7.9-17.6-17.6-17.6
				h0C1909.6,1916.9,1901.7,1924.8,1901.7,1934.5z"/>
			<path class="st5" d="M2116.7,1994.7c-4.1-2.6-4.5-8.4-1.1-11.8c6.8-6.7,10.8-15.7,10.8-26.5c0-23.8-19.7-39.5-57.6-39.5h-61.2
				c-7.3,0-13.2,5.9-13.2,13.2v0c0,7.3,5.9,13.2,13.2,13.2h56.8c17.1,0,26.4,5.9,26.4,17.8c0,12.1-9.3,18.1-26.4,18.1h-55.7
				c-7.9,0-14.3,6.4-14.3,14.3v61.1c0,7.9,6.4,14.3,14.3,14.3h64.3c40,0,60.9-15.2,60.9-41.6
				C2134,2012.7,2127.5,2001.5,2116.7,1994.7z M2070.6,2042.3h-26.7c-7.9,0-14.3-6.4-14.3-14.3v-9c0-7.9,6.4-14.3,14.3-14.3h26.7
				c18.3,0,27.9,6.2,27.9,19C2098.5,2036.6,2088.8,2042.3,2070.6,2042.3z"/>
			<path class="st5" d="M2268.2,1994.2c-4.4-5.6-4.1-13.5,0.8-18.7l32.2-34.5c8.6-9.2,2.1-24.1-10.5-24.1l0,0
				c-3.9,0-7.7,1.6-10.4,4.5l-47.7,50.2c-5.5,5.8-15.4,1.9-15.4-6.1v-31c0-9.7-7.8-17.5-17.5-17.5l0,0c-9.7,0-17.5,7.8-17.5,17.5
				v117c0,9.7,7.8,17.5,17.5,17.5l0,0c9.7,0,17.5-7.8,17.5-17.5v-15.2c0-3.7,1.4-7.2,4-9.9l9.4-9.8c3.7-3.9,10-3.6,13.3,0.5
				l37.2,45.6c3.2,4,8.1,6.3,13.2,6.3l0,0c13.3,0,20.8-15.4,12.5-25.8L2268.2,1994.2z"/>
		</g>
		<g id="Logomark_14_">
			<path class="st5" d="M2491.1,1882.3c-5.7-8.8-17.6-11.2-26.8-6.3c-23.3,12.3-44.7,28.1-63.5,46.8c-8.3,8.2-8.8,22-0.1,29.7
				c3.8,3.4,8.5,5.1,13.3,5.1c5.1,0,10.2-1.9,14.1-5.8c16.5-16.5,35.3-30.3,55.7-41.1C2493.9,1905.4,2497.5,1892.3,2491.1,1882.3z"
				/>
			<path class="st5" d="M2780.5,1923.7c-19.9-19.9-42.6-36.5-67.4-49.2c-9.4-4.8-21.3-2.4-26.9,6.6c-6.3,10-2.5,23.1,7.8,28.3
				c15.6,7.9,30.3,17.6,43.7,29l-29.2,29.2c-33.4-27.1-74.7-41.7-118.4-41.7c-49.9,0-96.8,19.2-132.2,54.2c-8.3,8.2-8.8,22-0.1,29.8
				c3.8,3.4,8.5,5.1,13.3,5.1c5.1,0,10.2-1.9,14.1-5.8c28-28,65.3-43.4,105-43.4c39.6,0,76.8,15.3,104.8,43.2
				c7.9,7.8,20.5,8.1,28.3,0.2l57.2-57.2c3.7-3.7,5.8-8.8,5.8-14.1C2786.3,1932.5,2784.2,1927.4,2780.5,1923.7z"/>
			<path class="st5" d="M2546.3,1892.4c20.8,4.6,39-13.5,34.4-34.4c-2.3-10.5-10.8-19-21.3-21.3c-20.8-4.6-39,13.5-34.4,34.4
				C2527.4,1881.6,2535.8,1890.1,2546.3,1892.4z"/>
			<path class="st5" d="M2620.9,1892.4c20.8,4.6,39-13.5,34.4-34.4c-2.3-10.5-10.8-19-21.3-21.3c-20.8-4.6-39,13.5-34.4,34.4
				C2601.9,1881.6,2610.4,1890.1,2620.9,1892.4z"/>
			<path class="st5" d="M2590.2,2006c-28.7,0-55.6,11.1-75.9,31.1c-7.4,7.3-8.3,19.4-1.6,27.4c7.6,8.9,21.1,9.3,29.2,1.2
				c4.6-4.6,9.8-8.5,15.4-11.6c5.8-3.2,13,1,13,7.7v67.3c0,10.4,7.6,19.6,17.9,20.6c11.9,1.1,21.8-8.2,21.8-19.8v-68.1
				c0-6.7,7.2-10.9,13-7.7c5.6,3.1,10.8,7,15.4,11.6c3.9,3.9,9,5.8,14.1,5.8c5.5,0,10.9-2.2,14.9-6.7c7-7.9,6.2-20.3-1.4-27.7
				C2645.7,2017.1,2618.8,2006,2590.2,2006z"/>
		</g>
	</g>
</g>
<g id="Logo_Mark_copy_3" class="st0">
	<rect class="st3" width="4096" height="4096"/>
	<g class="st1">
		<path class="st5" d="M1839.2,1808.3c-9.7-15.1-30.1-19.2-46-10.8c-39.9,21.1-76.6,48.1-109,80.2c-14.2,14-15.1,37.6-0.2,51
			c6.5,5.8,14.6,8.7,22.8,8.7c8.7,0,17.4-3.3,24.1-10c28.3-28.3,60.5-52,95.6-70.4C1844,1847.8,1850.2,1825.3,1839.2,1808.3z"/>
		<path class="st5" d="M2335.5,1879.2c-34.2-34.2-73-62.5-115.6-84.4c-16.1-8.3-36.5-4-46.1,11.3c-10.8,17.2-4.3,39.6,13.4,48.5
			c26.8,13.6,51.9,30.3,75,49.7l-50.1,50.1c-57.2-46.4-128.1-71.6-203-71.6c-85.6,0-166,33-226.8,92.9c-14.2,14-15.1,37.7-0.2,51
			c6.5,5.8,14.6,8.7,22.7,8.7c8.7,0,17.4-3.3,24.1-10c48-48,112-74.5,180.1-74.5c67.9,0,131.7,26.3,179.7,74.1
			c13.5,13.4,35.1,13.9,48.6,0.4l98.1-98.1c6.4-6.4,10-15.1,10-24.1C2345.4,1894.3,2341.9,1885.6,2335.5,1879.2z"/>
		<path class="st5" d="M1933.9,1825.6c35.7,7.9,66.9-23.2,59-58.9c-4-18-18.5-32.5-36.5-36.5c-35.7-7.9-66.9,23.2-59,59
			C1901.3,1807,1915.9,1821.6,1933.9,1825.6z"/>
		<path class="st5" d="M2061.8,1825.6c35.7,7.9,66.9-23.2,59-59c-4-18-18.5-32.5-36.5-36.5c-35.7-7.9-66.9,23.2-59,58.9
			C2029.3,1807,2043.8,1821.6,2061.8,1825.6z"/>
		<path class="st5" d="M2009.1,2020.4c-49.2,0-95.3,19-130.2,53.4c-12.7,12.6-14.3,33.3-2.7,46.9c13.1,15.3,36.1,16,50.1,2.1
			c7.9-7.9,16.8-14.6,26.4-19.9c10-5.5,22.3,1.7,22.3,13.1v115.4c0,17.8,13,33.7,30.7,35.4c20.3,1.9,37.4-14,37.4-33.9v-116.8
			c0-11.4,12.3-18.7,22.3-13.1c9.6,5.3,18.5,11.9,26.4,19.9c6.7,6.7,15.4,10,24.1,10c9.4,0,18.8-3.9,25.6-11.5
			c12-13.6,10.6-34.8-2.3-47.5C2104.3,2039.3,2058.2,2020.4,2009.1,2020.4z"/>
	</g>
</g>
<g id="Dual_x5F_Logo1_x5F_1_copy_3" class="st0">
	<rect class="st3" width="4096" height="4096"/>
	<g id="Logo_13_" class="st1">
		<g id="Tartibk_x5F_AR_7_">
			<path class="st5" d="M1482.2,1956.8h-1.8c-9.3,0-16.7,7.5-16.7,16.7l0,41.1c0.2,6.1-1.4,10.8-4.5,13.9c-3.2,3.1-7.8,4.7-14,4.7
				h-30.6h-3.7h-18.8c-9.3,0-17.4-8.3-17.1-17.5c0-0.5,0-1.1,0-1.6l-0.1-40.3c0-9.4-7.7-17-17-17h-1.8c-9.3,0-16.7,7.5-16.7,16.7
				l0,41.1c0.2,6.1-1.4,10.8-4.5,13.9c-3.2,3.1-7.8,4.7-14,4.7h-18.4h-3.7h-18.8c-9.3,0-17.4-8.3-17.1-17.5c0-0.5,0-1.1,0-1.6
				l-0.1-40.3c0-9.4-7.7-17-17-17h-1.8c-9.3,0-16.7,7.5-16.7,16.7l0,41.1c0.1,6.1-1.4,10.8-4.5,13.9c-3.2,3.1-7.8,4.7-14,4.7h-18.4
				h-3.7H1169c-2.8,0-4.9-2.5-4.5-5.2c1.1-6.1,1.3-12.3,0.5-18.4c-1.1-8.8-3.9-17.1-8.4-24.8c-4.5-7.7-10.5-13.9-18.1-18.6
				c-7.5-4.7-16.1-7.1-25.8-7.1h-80.4c-3.8,0-5.6-5.2-2.3-6.8l54.5-26.2c4.5-2.2,7.3-6.7,7.3-12l0-2.3c0-11.8-13.3-20.6-23.4-15.5
				l-118.6,59.2c-4.4,2.2-7.1,6.7-7.1,11.8l0,9.9c0,9,8,17,17.1,17h152.6c4.9,0,9,1.8,12.2,5.3c3.2,3.6,5.1,7.8,5.7,12.7
				c0.7,5.5-0.5,10.4-3.4,14.5c-3,4.2-7.6,6.3-13.9,6.3H919.1h-3.7h-45.8c-10.1,0-17.9,8.8-16.6,18.8l0.2,1.4
				c1.1,8.5,8.3,14.9,16.9,14.9h49.8h3.7h267.7h3.7h18.4c17.3,0,30.3-5.6,38.9-16.9c0,9.3,7.7,16.9,17,16.9h34.1h3.7h18.4
				c17.3,0,30.3-5.6,38.9-16.9c0,9.3,7.7,16.9,17,16.9h34.1h3.7h30.6c16.6,0,29-5,37.3-14.9c8.3-9.9,12.4-23.1,12.5-39.4l-0.1-40.3
				C1499.2,1964.4,1491.6,1956.8,1482.2,1956.8z"/>
			<path class="st5" d="M1685.4,1973.7c0-9.4-7.7-17-17-17h-1.8c-9.3,0-16.7,7.5-16.7,16.7l0,41.1c0.2,6.1-1.4,10.8-4.5,13.9
				c-3.2,3.1-7.8,4.7-14,4.7h-30.6h-3.7h-4.2c-9.4,0-17-7.6-17-17l-0.1-47c0-9.4-7.7-17-17-17h-1.7c-9.3,0-16.8,7.5-16.7,16.8
				l0.5,117.4c0.2,12.1-4.7,23.7-14.6,34.8c-0.4,0.5-0.7,1-0.9,1.5c15-1.5,27.1-7.6,36.2-18.4c8.7-10.3,13.4-21.8,14.3-34.4l0.2-1.5
				h25.6h3.7h30.6c16.6,0,29-5,37.3-14.9c8.3-9.9,12.4-23.1,12.5-39.4L1685.4,1973.7z"/>
			<path class="st5" d="M1588.8,1936.3c15.3,3.4,28.6-9.9,25.2-25.2c-1.7-7.7-7.9-13.9-15.6-15.6c-15.3-3.4-28.6,9.9-25.2,25.2
				C1574.8,1928.4,1581.1,1934.6,1588.8,1936.3z"/>
			<path class="st5" d="M1643.5,1936.3c15.3,3.4,28.6-9.9,25.2-25.2c-1.7-7.7-7.9-13.9-15.6-15.6c-15.3-3.4-28.6,9.9-25.2,25.2
				C1629.6,1928.4,1635.8,1934.6,1643.5,1936.3z"/>
			<path class="st5" d="M1395,1936.3c15.3,3.4,28.6-9.9,25.2-25.2c-1.7-7.7-7.9-13.9-15.6-15.6c-15.3-3.4-28.6,9.9-25.2,25.2
				C1381.1,1928.4,1387.3,1934.6,1395,1936.3z"/>
			<path class="st5" d="M1449.8,1936.3c15.3,3.4,28.6-9.9,25.2-25.2c-1.7-7.7-7.9-13.9-15.6-15.6c-15.3-3.4-28.6,9.9-25.2,25.2
				C1435.9,1928.4,1442.1,1934.6,1449.8,1936.3z"/>
			<path class="st5" d="M1297.2,2097.5c-15.3-3.4-28.6,9.9-25.2,25.2c1.7,7.7,7.9,13.9,15.6,15.6c15.3,3.4,28.6-9.9,25.2-25.2
				C1311.1,2105.4,1304.9,2099.2,1297.2,2097.5z"/>
			<path class="st5" d="M1219.3,2097.5c-15.3-3.4-28.6,9.9-25.2,25.2c1.7,7.7,7.9,13.9,15.6,15.6c15.3,3.4,28.6-9.9,25.2-25.2
				C1233.2,2105.4,1227,2099.2,1219.3,2097.5z"/>
			<path class="st5" d="M1351.9,2097.5c-15.3-3.4-28.6,9.9-25.2,25.2c1.7,7.7,7.9,13.9,15.6,15.6c15.3,3.4,28.6-9.9,25.2-25.2
				C1365.8,2105.4,1359.6,2099.2,1351.9,2097.5z"/>
		</g>
		<g id="Tartibk_x5F_En_10_">
			<path class="st5" d="M2227.4,1931.2L2227.4,1931.2c0,7.9,6.4,14.3,14.3,14.3h20c7.9,0,14.3,6.4,14.3,14.3v91.4
				c0,9.7,7.9,17.6,17.6,17.6l0,0c9.7,0,17.6-7.9,17.6-17.6v-91.4c0-7.9,6.4-14.3,14.3-14.3h20c7.9,0,14.3-6.4,14.3-14.3v0
				c0-7.9-6.4-14.3-14.3-14.3h-103.8C2233.8,1916.9,2227.4,1923.3,2227.4,1931.2z"/>
			<path class="st5" d="M2461.8,1916.9h-7.6c-8.2,0-15.7,4.8-19.1,12.4l-52,116.6c-4.8,10.8,3.1,23,14.9,23h0c6.6,0,12.5-4,15.1-10
				l9.4-22.6l11-26.7l17-40.8c2.7-6.4,11.7-6.4,14.4,0l17,40.8l11,26.7l9.2,22.3c2.6,6.2,8.7,10.3,15.4,10.3l0,0
				c12.1,0,20.2-12.5,15.2-23.5l-51.9-116.1C2477.4,1921.8,2470,1916.9,2461.8,1916.9z"/>
			<path class="st5" d="M2690,2032.7c-4.4-6.3-2.8-15,3.3-19.7c12.3-9.4,19.2-23.3,19.2-41.1c0-34-25.5-55-66.1-55h-51.4
				c-7.9,0-14.3,6.4-14.3,14.3v0.5c0,7.9,6.4,14.3,14.3,14.3l49.3-0.1c21.4,0,32.4,9.2,32.4,25.9c0,16.6-10.9,26.6-32.3,26.6h-49.5
				c-7.9,0-14.3,6.4-14.3,14.3v38.5c0,9.7,7.9,17.6,17.6,17.6l0,0c9.7,0,17.6-7.9,17.6-17.6v-17.1c0-4.3,3.5-7.8,7.8-7.8h20.4
				c2.6,0,5,1.3,6.4,3.4l22.7,32.9c2.7,3.9,7.1,6.2,11.8,6.2h16c6,0,9.5-6.8,6.1-11.7L2690,2032.7z"/>
			<path class="st5" d="M2742.7,1931.2L2742.7,1931.2c0,7.9,6.4,14.3,14.3,14.3h20c7.9,0,14.3,6.4,14.3,14.3v91.5
				c0,9.7,7.8,17.5,17.5,17.5l0,0c9.7,0,17.5-7.8,17.5-17.5v-91.5c0-7.9,6.4-14.3,14.3-14.3h20c7.9,0,14.3-6.4,14.3-14.3v0
				c0-7.9-6.4-14.3-14.3-14.3h-103.7C2749.2,1916.9,2742.7,1923.3,2742.7,1931.2z"/>
			<path class="st5" d="M2915.7,1934.5v116.8c0,9.7,7.9,17.6,17.6,17.6l0,0c9.7,0,17.6-7.9,17.6-17.6v-116.8
				c0-9.7-7.9-17.6-17.6-17.6l0,0C2923.6,1916.9,2915.7,1924.8,2915.7,1934.5z"/>
			<path class="st5" d="M3130.7,1994.7c-4.1-2.6-4.5-8.4-1.1-11.8c6.8-6.7,10.8-15.7,10.8-26.5c0-23.8-19.7-39.5-57.6-39.5h-61.2
				c-7.3,0-13.2,5.9-13.2,13.2v0c0,7.3,5.9,13.2,13.2,13.2h56.8c17.1,0,26.4,5.9,26.4,17.8c0,12.1-9.3,18.1-26.4,18.1h-55.7
				c-7.9,0-14.3,6.4-14.3,14.3v61.1c0,7.9,6.4,14.3,14.3,14.3h64.3c40,0,60.9-15.2,60.9-41.6
				C3148,2012.7,3141.5,2001.5,3130.7,1994.7z M3084.6,2042.3h-26.7c-7.9,0-14.3-6.4-14.3-14.3v-9c0-7.9,6.4-14.3,14.3-14.3h26.7
				c18.3,0,27.9,6.2,27.9,19C3112.5,2036.6,3102.8,2042.3,3084.6,2042.3z"/>
			<path class="st5" d="M3282.2,1994.2c-4.4-5.6-4.1-13.5,0.8-18.7l32.2-34.5c8.6-9.2,2.1-24.1-10.5-24.1l0,0
				c-3.9,0-7.7,1.6-10.4,4.5l-47.7,50.2c-5.5,5.8-15.4,1.9-15.4-6.1v-31c0-9.7-7.8-17.5-17.5-17.5l0,0c-9.7,0-17.5,7.8-17.5,17.5
				v117c0,9.7,7.8,17.5,17.5,17.5l0,0c9.7,0,17.5-7.8,17.5-17.5v-15.2c0-3.7,1.4-7.2,4-9.9l9.4-9.8c3.7-3.9,10-3.6,13.3,0.5
				l37.2,45.6c3.2,4,8.1,6.3,13.2,6.3l0,0c13.3,0,20.8-15.4,12.5-25.8L3282.2,1994.2z"/>
		</g>
		<g id="Logomark_13_">
			<path class="st5" d="M1857.1,1882.3c-5.7-8.8-17.6-11.2-26.8-6.3c-23.3,12.3-44.7,28.1-63.5,46.8c-8.3,8.2-8.8,22-0.1,29.7
				c3.8,3.4,8.5,5.1,13.3,5.1c5.1,0,10.2-1.9,14.1-5.8c16.5-16.5,35.3-30.3,55.7-41.1C1859.9,1905.4,1863.5,1892.3,1857.1,1882.3z"
				/>
			<path class="st5" d="M2146.5,1923.7c-19.9-19.9-42.6-36.5-67.4-49.2c-9.4-4.8-21.3-2.4-26.9,6.6c-6.3,10-2.5,23.1,7.8,28.3
				c15.6,7.9,30.3,17.6,43.7,29l-29.2,29.2c-33.4-27.1-74.7-41.7-118.4-41.7c-49.9,0-96.8,19.2-132.2,54.2c-8.3,8.2-8.8,22-0.1,29.8
				c3.8,3.4,8.5,5.1,13.3,5.1c5.1,0,10.2-1.9,14.1-5.8c28-28,65.3-43.4,105-43.4c39.6,0,76.8,15.3,104.8,43.2
				c7.9,7.8,20.5,8.1,28.3,0.2l57.2-57.2c3.7-3.7,5.8-8.8,5.8-14.1C2152.3,1932.5,2150.2,1927.4,2146.5,1923.7z"/>
			<path class="st5" d="M1912.3,1892.4c20.8,4.6,39-13.5,34.4-34.4c-2.3-10.5-10.8-19-21.3-21.3c-20.8-4.6-39,13.5-34.4,34.4
				C1893.4,1881.6,1901.8,1890.1,1912.3,1892.4z"/>
			<path class="st5" d="M1986.9,1892.4c20.8,4.6,39-13.5,34.4-34.4c-2.3-10.5-10.8-19-21.3-21.3c-20.8-4.6-39,13.5-34.4,34.4
				C1967.9,1881.6,1976.4,1890.1,1986.9,1892.4z"/>
			<path class="st5" d="M1956.2,2006c-28.7,0-55.6,11.1-75.9,31.1c-7.4,7.3-8.3,19.4-1.6,27.4c7.6,8.9,21.1,9.3,29.2,1.2
				c4.6-4.6,9.8-8.5,15.4-11.6c5.8-3.2,13,1,13,7.7v67.3c0,10.4,7.6,19.6,17.9,20.6c11.9,1.1,21.8-8.2,21.8-19.8v-68.1
				c0-6.7,7.2-10.9,13-7.7c5.6,3.1,10.8,7,15.4,11.6c3.9,3.9,9,5.8,14.1,5.8c5.5,0,10.9-2.2,14.9-6.7c7-7.9,6.2-20.3-1.4-27.7
				C2011.7,2017.1,1984.8,2006,1956.2,2006z"/>
		</g>
	</g>
</g>
<g id="Dual_x5F_Logo1_x5F_2_copy_3" class="st0">
	<rect class="st3" width="4096" height="4096"/>
	<g id="Logo_12_" class="st1">
		<g id="Tartibk_x5F_AR_6_">
			<path class="st5" d="M2251.2,2077.8h-1.8c-9.3,0-16.7,7.5-16.7,16.7l0,41.1c0.1,6.1-1.4,10.8-4.5,13.9c-3.2,3.1-7.8,4.7-14,4.7
				h-30.6h-3.7h-18.8c-9.3,0-17.4-8.3-17.1-17.5c0-0.5,0-1.1,0-1.6l-0.1-40.3c0-9.4-7.7-17-17-17h-1.8c-9.3,0-16.7,7.5-16.7,16.7
				l0,41.1c0.2,6.1-1.4,10.8-4.5,13.9c-3.2,3.1-7.8,4.7-14,4.7h-18.4h-3.7h-18.8c-9.3,0-17.4-8.3-17.1-17.5c0-0.5,0-1.1,0-1.6
				l-0.1-40.3c0-9.4-7.7-17-17-17h-1.8c-9.3,0-16.7,7.5-16.7,16.7l0,41.1c0.1,6.1-1.4,10.8-4.5,13.9c-3.2,3.1-7.8,4.7-14,4.7h-18.4
				h-3.7H1938c-2.8,0-4.9-2.5-4.5-5.2c1.1-6.1,1.3-12.3,0.5-18.4c-1.1-8.8-3.9-17.1-8.4-24.8c-4.5-7.7-10.5-13.9-18.1-18.6
				c-7.5-4.7-16.1-7.1-25.8-7.1h-80.4c-3.8,0-5.6-5.2-2.3-6.8l54.5-26.2c4.5-2.2,7.3-6.7,7.3-12l0-2.3c0-11.8-13.3-20.6-23.4-15.5
				l-118.6,59.2c-4.4,2.2-7.1,6.7-7.1,11.8l0,9.9c0,9,8,17,17.1,17h152.6c4.9,0,9,1.8,12.2,5.3c3.2,3.6,5.1,7.8,5.7,12.7
				c0.7,5.5-0.5,10.4-3.4,14.5c-3,4.2-7.6,6.3-13.9,6.3h-193.9h-3.7h-45.8c-10.1,0-17.9,8.8-16.6,18.8l0.2,1.4
				c1.1,8.5,8.3,14.9,16.9,14.9h49.8h3.7h267.7h3.7h18.4c17.3,0,30.3-5.6,38.9-16.9c0,9.3,7.7,16.9,17,16.9h34.1h3.7h18.4
				c17.3,0,30.3-5.6,38.9-16.9c0,9.3,7.7,16.9,17,16.9h34.1h3.7h30.6c16.6,0,29-5,37.3-14.9c8.3-9.9,12.4-23.1,12.5-39.4l-0.1-40.3
				C2268.2,2085.4,2260.6,2077.8,2251.2,2077.8z"/>
			<path class="st5" d="M2454.4,2094.7c0-9.4-7.7-17-17-17h-1.8c-9.3,0-16.7,7.5-16.7,16.7l0,41.1c0.2,6.1-1.4,10.8-4.5,13.9
				c-3.2,3.1-7.8,4.7-14,4.7h-30.6h-3.7h-4.2c-9.4,0-17-7.6-17-17l-0.1-47c0-9.4-7.7-17-17-17h-1.7c-9.3,0-16.8,7.5-16.7,16.8
				l0.5,117.4c0.2,12.1-4.7,23.7-14.6,34.8c-0.4,0.5-0.7,1-0.9,1.5c15-1.5,27.1-7.6,36.2-18.4c8.7-10.3,13.4-21.8,14.3-34.4l0.2-1.5
				h25.6h3.7h30.6c16.6,0,29-5,37.3-14.9c8.3-9.9,12.4-23.1,12.5-39.4L2454.4,2094.7z"/>
			<path class="st5" d="M2357.8,2057.3c15.3,3.4,28.6-9.9,25.2-25.2c-1.7-7.7-7.9-13.9-15.6-15.6c-15.3-3.4-28.6,9.9-25.2,25.2
				C2343.8,2049.4,2350.1,2055.6,2357.8,2057.3z"/>
			<path class="st5" d="M2412.5,2057.3c15.3,3.4,28.6-9.9,25.2-25.2c-1.7-7.7-7.9-13.9-15.6-15.6c-15.3-3.4-28.6,9.9-25.2,25.2
				C2398.6,2049.4,2404.8,2055.6,2412.5,2057.3z"/>
			<path class="st5" d="M2164,2057.3c15.3,3.4,28.6-9.9,25.2-25.2c-1.7-7.7-7.9-13.9-15.6-15.6c-15.3-3.4-28.6,9.9-25.2,25.2
				C2150.1,2049.4,2156.3,2055.6,2164,2057.3z"/>
			<path class="st5" d="M2218.8,2057.3c15.3,3.4,28.6-9.9,25.2-25.2c-1.7-7.7-7.9-13.9-15.6-15.6c-15.3-3.4-28.6,9.9-25.2,25.2
				C2204.9,2049.4,2211.1,2055.6,2218.8,2057.3z"/>
			<path class="st5" d="M2066.2,2218.5c-15.3-3.4-28.6,9.9-25.2,25.2c1.7,7.7,7.9,13.9,15.6,15.6c15.3,3.4,28.6-9.9,25.2-25.2
				C2080.1,2226.4,2073.9,2220.2,2066.2,2218.5z"/>
			<path class="st5" d="M1988.3,2218.5c-15.3-3.4-28.6,9.9-25.2,25.2c1.7,7.7,7.9,13.9,15.6,15.6c15.3,3.4,28.6-9.9,25.2-25.2
				C2002.2,2226.4,1996,2220.2,1988.3,2218.5z"/>
			<path class="st5" d="M2120.9,2218.5c-15.3-3.4-28.6,9.9-25.2,25.2c1.7,7.7,7.9,13.9,15.6,15.6c15.3,3.4,28.6-9.9,25.2-25.2
				C2134.8,2226.4,2128.6,2220.2,2120.9,2218.5z"/>
		</g>
		<g id="Tartibk_x5F_En_9_">
			<path class="st5" d="M1622,2299.9L1622,2299.9c0,6,4.9,10.9,10.9,10.9h15.2c6,0,10.9,4.9,10.9,10.9v69.4c0,7.4,6,13.3,13.3,13.3
				h0c7.4,0,13.3-6,13.3-13.3v-69.4c0-6,4.9-10.9,10.9-10.9h15.2c6,0,10.9-4.9,10.9-10.9l0,0c0-6-4.9-10.9-10.9-10.9h-78.8
				C1626.9,2289,1622,2293.9,1622,2299.9z"/>
			<path class="st5" d="M1799.7,2289h-5.8c-6.2,0-11.9,3.7-14.5,9.4l-39.5,88.5c-3.7,8.2,2.3,17.4,11.3,17.4l0,0c5,0,9.5-3,11.4-7.6
				l7.2-17.1l8.4-20.3l12.9-31c2-4.9,8.9-4.9,10.9,0l12.9,31l8.4,20.3l7,16.9c2,4.7,6.6,7.8,11.7,7.8l0,0c9.2,0,15.3-9.5,11.6-17.8
				l-39.4-88.1C1811.6,2292.7,1806,2289,1799.7,2289z"/>
			<path class="st5" d="M1972.9,2376.8c-3.3-4.8-2.1-11.4,2.5-14.9c9.3-7.1,14.6-17.7,14.6-31.2c0-25.8-19.4-41.7-50.1-41.7h-39
				c-6,0-10.9,4.9-10.9,10.9v0.4c0,6,4.9,10.9,10.9,10.9l37.4,0c16.2,0,24.6,7,24.6,19.7c0,12.6-8.2,20.2-24.5,20.2h-37.5
				c-6,0-10.9,4.9-10.9,10.9v29.2c0,7.4,6,13.3,13.3,13.3l0,0c7.4,0,13.3-6,13.3-13.3V2378c0-3.3,2.6-5.9,5.9-5.9h15.5
				c1.9,0,3.8,1,4.9,2.5l17.2,25c2,2.9,5.4,4.7,8.9,4.7h12.1c4.6,0,7.2-5.1,4.6-8.9L1972.9,2376.8z"/>
			<path class="st5" d="M2012.9,2299.9L2012.9,2299.9c0,6,4.9,10.9,10.9,10.9h15.2c6,0,10.9,4.9,10.9,10.9v69.4
				c0,7.3,5.9,13.3,13.3,13.3h0c7.3,0,13.3-5.9,13.3-13.3v-69.4c0-6,4.9-10.9,10.9-10.9h15.2c6,0,10.9-4.9,10.9-10.9l0,0
				c0-6-4.9-10.9-10.9-10.9h-78.6C2017.7,2289,2012.9,2293.9,2012.9,2299.9z"/>
			<path class="st5" d="M2144.1,2302.3v88.6c0,7.4,6,13.3,13.3,13.3l0,0c7.4,0,13.3-6,13.3-13.3v-88.6c0-7.4-6-13.3-13.3-13.3l0,0
				C2150.1,2289,2144.1,2295,2144.1,2302.3z"/>
			<path class="st5" d="M2307.2,2348c-3.1-2-3.4-6.3-0.8-8.9c5.1-5.1,8.2-11.9,8.2-20.1c0-18.1-14.9-30-43.7-30h-46.4
				c-5.5,0-10,4.5-10,10l0,0c0,5.5,4.5,10,10,10h43.1c13,0,20,4.4,20,13.5c0,9.2-7.1,13.7-20,13.7h-42.3c-6,0-10.9,4.9-10.9,10.9
				v46.3c0,6,4.9,10.9,10.9,10.9h48.8c30.4,0,46.2-11.5,46.2-31.5C2320.3,2361.6,2315.4,2353.2,2307.2,2348z M2272.1,2384.1h-20.3
				c-6,0-10.9-4.9-10.9-10.9v-6.8c0-6,4.9-10.9,10.9-10.9h20.3c13.9,0,21.2,4.7,21.2,14.4C2293.3,2379.8,2286,2384.1,2272.1,2384.1z
				"/>
			<path class="st5" d="M2422.1,2347.6c-3.3-4.2-3.1-10.2,0.6-14.2l24.4-26.2c6.5-7,1.6-18.3-7.9-18.3l0,0c-3,0-5.8,1.2-7.9,3.4
				l-36.2,38.1c-4.2,4.4-11.7,1.5-11.7-4.7v-23.5c0-7.3-5.9-13.3-13.3-13.3l0,0c-7.3,0-13.3,5.9-13.3,13.3v88.7
				c0,7.3,5.9,13.3,13.3,13.3l0,0c7.3,0,13.3-5.9,13.3-13.3v-11.5c0-2.8,1.1-5.5,3-7.5l7.1-7.4c2.8-2.9,7.6-2.7,10.1,0.4l28.2,34.6
				c2.5,3,6.1,4.8,10,4.8l0,0c10.1,0,15.8-11.7,9.5-19.6L2422.1,2347.6z"/>
		</g>
		<g id="Logomark_12_">
			<path class="st5" d="M1939.1,1601.3c-5.7-8.8-17.6-11.2-26.8-6.3c-23.3,12.3-44.7,28.1-63.5,46.8c-8.3,8.2-8.8,22-0.1,29.7
				c3.8,3.4,8.5,5.1,13.3,5.1c5.1,0,10.2-1.9,14.1-5.8c16.5-16.5,35.3-30.3,55.7-41.1C1941.9,1624.4,1945.5,1611.3,1939.1,1601.3z"
				/>
			<path class="st5" d="M2228.5,1642.7c-19.9-19.9-42.6-36.5-67.4-49.2c-9.4-4.8-21.3-2.4-26.9,6.6c-6.3,10-2.5,23.1,7.8,28.3
				c15.6,7.9,30.3,17.6,43.7,29l-29.2,29.2c-33.4-27.1-74.7-41.7-118.4-41.7c-49.9,0-96.8,19.2-132.2,54.2c-8.3,8.2-8.8,22-0.1,29.8
				c3.8,3.4,8.5,5.1,13.3,5.1c5.1,0,10.2-1.9,14.1-5.8c28-28,65.3-43.4,105-43.4c39.6,0,76.8,15.3,104.8,43.2
				c7.9,7.8,20.5,8.1,28.3,0.2l57.2-57.2c3.7-3.7,5.8-8.8,5.8-14.1C2234.3,1651.5,2232.2,1646.4,2228.5,1642.7z"/>
			<path class="st5" d="M1994.3,1611.4c20.8,4.6,39-13.5,34.4-34.4c-2.3-10.5-10.8-19-21.3-21.3c-20.8-4.6-39,13.5-34.4,34.4
				C1975.4,1600.6,1983.8,1609.1,1994.3,1611.4z"/>
			<path class="st5" d="M2068.9,1611.4c20.8,4.6,39-13.5,34.4-34.4c-2.3-10.5-10.8-19-21.3-21.3c-20.8-4.6-39,13.5-34.4,34.4
				C2049.9,1600.6,2058.4,1609.1,2068.9,1611.4z"/>
			<path class="st5" d="M2038.2,1725c-28.7,0-55.6,11.1-75.9,31.1c-7.4,7.3-8.3,19.4-1.6,27.4c7.6,8.9,21.1,9.3,29.2,1.2
				c4.6-4.6,9.8-8.5,15.4-11.6c5.8-3.2,13,1,13,7.7v67.3c0,10.4,7.6,19.6,17.9,20.6c11.9,1.1,21.8-8.2,21.8-19.8v-68.1
				c0-6.7,7.2-10.9,13-7.7c5.6,3.1,10.8,7,15.4,11.6c3.9,3.9,9,5.8,14.1,5.8c5.5,0,10.9-2.2,14.9-6.7c7-7.9,6.2-20.3-1.4-27.7
				C2093.7,1736.1,2066.8,1725,2038.2,1725z"/>
		</g>
	</g>
</g>
<g id="AR_x5F_Logo1_copy_2" class="st0">
	<rect class="st6" width="4096" height="4096"/>
	<g id="Logo_11_" class="st1">
		<g id="Logomark_11_">
			<path class="st2" d="M2389.9,1882.1c-5.7-8.8-17.6-11.2-26.9-6.3c-23.3,12.3-44.7,28.1-63.6,46.8c-8.3,8.2-8.8,22-0.1,29.8
				c3.8,3.4,8.5,5.1,13.3,5.1c5.1,0,10.2-1.9,14.1-5.8c16.5-16.5,35.3-30.4,55.8-41.1C2392.7,1905.1,2396.3,1892,2389.9,1882.1z"/>
			<path class="st2" d="M2679.6,1923.5c-19.9-19.9-42.6-36.5-67.5-49.3c-9.4-4.8-21.3-2.4-26.9,6.6c-6.3,10.1-2.5,23.1,7.8,28.3
				c15.6,7.9,30.3,17.7,43.8,29l-29.3,29.3c-33.4-27.1-74.8-41.8-118.5-41.8c-50,0-96.9,19.2-132.3,54.2c-8.3,8.2-8.8,22-0.1,29.8
				c3.8,3.4,8.5,5.1,13.3,5.1c5.1,0,10.2-1.9,14.1-5.8c28-28,65.4-43.5,105.1-43.5c39.7,0,76.9,15.3,104.9,43.2
				c7.9,7.8,20.5,8.1,28.4,0.2l57.3-57.3c3.7-3.7,5.8-8.8,5.8-14.1C2685.4,1932.2,2683.3,1927.2,2679.6,1923.5z"/>
			<path class="st2" d="M2445.2,1892.2c20.9,4.6,39-13.5,34.4-34.4c-2.3-10.5-10.8-19-21.3-21.3c-20.9-4.6-39,13.5-34.4,34.4
				C2426.2,1881.3,2434.7,1889.8,2445.2,1892.2z"/>
			<path class="st2" d="M2519.9,1892.2c20.9,4.6,39-13.5,34.4-34.4c-2.3-10.5-10.8-19-21.3-21.3c-20.9-4.6-39,13.5-34.4,34.4
				C2500.9,1881.3,2509.3,1889.8,2519.9,1892.2z"/>
			<path class="st2" d="M2489.1,2005.9c-28.7,0-55.7,11.1-76,31.2c-7.4,7.3-8.3,19.5-1.6,27.4c7.6,9,21.1,9.4,29.2,1.2
				c4.6-4.6,9.8-8.5,15.4-11.6c5.9-3.2,13,1,13,7.7v67.3c0,10.4,7.6,19.7,17.9,20.7c11.9,1.1,21.8-8.2,21.8-19.8v-68.2
				c0-6.7,7.2-10.9,13-7.7c5.6,3.1,10.8,7,15.4,11.6c3.9,3.9,9,5.8,14.1,5.8c5.5,0,11-2.2,14.9-6.7c7-7.9,6.2-20.3-1.4-27.7
				C2544.7,2016.9,2517.7,2005.9,2489.1,2005.9z"/>
		</g>
		<g id="Tartibk_x5F_Ar_2_">
			<path class="st2" d="M2006.2,1956.8h-1.8c-9.3,0-16.7,7.5-16.7,16.7l0,41.1c0.2,6.1-1.4,10.8-4.5,13.9c-3.2,3.1-7.8,4.7-14,4.7
				h-30.6h-3.7h-18.8c-9.3,0-17.4-8.3-17.1-17.5c0-0.5,0-1.1,0-1.6l-0.1-40.3c0-9.4-7.7-17-17-17h-1.8c-9.3,0-16.7,7.5-16.7,16.7
				l0,41.1c0.2,6.1-1.4,10.8-4.5,13.9c-3.2,3.1-7.8,4.7-14,4.7h-18.4h-3.7h-18.8c-9.3,0-17.4-8.3-17.1-17.5c0-0.5,0-1.1,0-1.6
				l-0.1-40.3c0-9.4-7.7-17-17-17h-1.8c-9.3,0-16.7,7.5-16.7,16.7l0,41.1c0.1,6.1-1.4,10.8-4.5,13.9c-3.2,3.1-7.8,4.7-14,4.7h-18.4
				h-3.7H1693c-2.8,0-4.9-2.5-4.5-5.2c1.1-6.1,1.3-12.3,0.5-18.4c-1.1-8.8-3.9-17.1-8.4-24.8c-4.5-7.7-10.5-13.9-18.1-18.6
				c-7.5-4.7-16.1-7.1-25.8-7.1h-80.4c-3.8,0-5.6-5.2-2.3-6.8l54.5-26.2c4.5-2.2,7.3-6.7,7.3-12l0-2.3c0-11.8-13.3-20.6-23.4-15.5
				l-118.6,59.2c-4.4,2.2-7.1,6.7-7.1,11.8l0,9.9c0,9,8,17,17.1,17h152.6c4.9,0,9,1.8,12.2,5.3c3.2,3.6,5.1,7.8,5.7,12.7
				c0.7,5.5-0.5,10.4-3.4,14.5c-3,4.2-7.6,6.3-13.9,6.3h-193.9h-3.7h-45.8c-10.1,0-17.9,8.8-16.6,18.8l0.2,1.4
				c1.1,8.5,8.3,14.9,16.9,14.9h49.8h3.7h267.7h3.7h18.4c17.3,0,30.3-5.6,38.9-16.9c0,9.3,7.7,16.9,17,16.9h34.1h3.7h18.4
				c17.3,0,30.3-5.6,38.9-16.9c0,9.3,7.7,16.9,17,16.9h34.1h3.7h30.6c16.6,0,29-5,37.3-14.9c8.3-9.9,12.4-23.1,12.5-39.4l-0.1-40.3
				C2023.2,1964.4,2015.6,1956.8,2006.2,1956.8z"/>
			<path class="st2" d="M2209.4,1973.7c0-9.4-7.7-17-17-17h-1.8c-9.3,0-16.7,7.5-16.7,16.7l0,41.1c0.2,6.1-1.4,10.8-4.5,13.9
				c-3.2,3.1-7.8,4.7-14,4.7h-30.6h-3.7h-4.2c-9.4,0-17-7.6-17-17l-0.1-47c0-9.4-7.7-17-17-17h-1.7c-9.3,0-16.8,7.5-16.7,16.8
				l0.5,117.4c0.2,12.1-4.7,23.7-14.6,34.8c-0.4,0.5-0.7,1-0.9,1.5c15-1.5,27.1-7.6,36.2-18.4c8.7-10.3,13.4-21.8,14.3-34.4l0.2-1.5
				h25.6h3.7h30.6c16.6,0,29-5,37.3-14.9c8.3-9.9,12.4-23.1,12.5-39.4L2209.4,1973.7z"/>
			<path class="st2" d="M2112.8,1936.3c15.3,3.4,28.6-9.9,25.2-25.2c-1.7-7.7-7.9-13.9-15.6-15.6c-15.3-3.4-28.6,9.9-25.2,25.2
				C2098.8,1928.4,2105.1,1934.6,2112.8,1936.3z"/>
			<path class="st2" d="M2167.5,1936.3c15.3,3.4,28.6-9.9,25.2-25.2c-1.7-7.7-7.9-13.9-15.6-15.6c-15.3-3.4-28.6,9.9-25.2,25.2
				C2153.6,1928.4,2159.8,1934.6,2167.5,1936.3z"/>
			<path class="st2" d="M1919,1936.3c15.3,3.4,28.6-9.9,25.2-25.2c-1.7-7.7-7.9-13.9-15.6-15.6c-15.3-3.4-28.6,9.9-25.2,25.2
				C1905.1,1928.4,1911.3,1934.6,1919,1936.3z"/>
			<path class="st2" d="M1973.8,1936.3c15.3,3.4,28.6-9.9,25.2-25.2c-1.7-7.7-7.9-13.9-15.6-15.6c-15.3-3.4-28.6,9.9-25.2,25.2
				C1959.9,1928.4,1966.1,1934.6,1973.8,1936.3z"/>
			<path class="st2" d="M1821.2,2097.5c-15.3-3.4-28.6,9.9-25.2,25.2c1.7,7.7,7.9,13.9,15.6,15.6c15.3,3.4,28.6-9.9,25.2-25.2
				C1835.1,2105.4,1828.9,2099.2,1821.2,2097.5z"/>
			<path class="st2" d="M1743.3,2097.5c-15.3-3.4-28.6,9.9-25.2,25.2c1.7,7.7,7.9,13.9,15.6,15.6c15.3,3.4,28.6-9.9,25.2-25.2
				C1757.2,2105.4,1751,2099.2,1743.3,2097.5z"/>
			<path class="st2" d="M1875.9,2097.5c-15.3-3.4-28.6,9.9-25.2,25.2c1.7,7.7,7.9,13.9,15.6,15.6c15.3,3.4,28.6-9.9,25.2-25.2
				C1889.8,2105.4,1883.6,2099.2,1875.9,2097.5z"/>
		</g>
	</g>
</g>
<g id="EN_x5F_Logo1_copy_2">
	<g id="Logo_10_">
		<g id="Tartibk_x5F_En_8_">
			<path class="st2" d="M44.4,142.2L44.4,142.2c0,7.9,6.4,14.3,14.3,14.3h20c7.9,0,14.3,6.4,14.3,14.3v91.4
				c0,9.7,7.9,17.6,17.6,17.6h0c9.7,0,17.6-7.9,17.6-17.6v-91.4c0-7.9,6.4-14.3,14.3-14.3h20c7.9,0,14.3-6.4,14.3-14.3v0
				c0-7.9-6.4-14.3-14.3-14.3H58.7C50.8,127.9,44.4,134.3,44.4,142.2z"/>
			<path class="st2" d="M278.8,127.9h-7.6c-8.2,0-15.7,4.8-19.1,12.4l-52,116.6c-4.8,10.8,3.1,23,14.9,23h0c6.6,0,12.5-4,15.1-10
				l9.4-22.6l11-26.7l17-40.8c2.7-6.4,11.7-6.4,14.4,0l17,40.8l11,26.7l9.2,22.3c2.6,6.2,8.7,10.3,15.4,10.3h0
				c12.1,0,20.2-12.5,15.2-23.5l-51.9-116.1C294.4,132.8,287,127.9,278.8,127.9z"/>
			<path class="st2" d="M507,243.7c-4.4-6.3-2.8-15,3.3-19.7c12.3-9.4,19.2-23.3,19.2-41.1c0-34-25.5-55-66.1-55h-51.4
				c-7.9,0-14.3,6.4-14.3,14.3v0.5c0,7.9,6.4,14.3,14.3,14.3l49.3-0.1c21.4,0,32.4,9.2,32.4,25.9c0,16.6-10.9,26.6-32.3,26.6h-49.5
				c-7.9,0-14.3,6.4-14.3,14.3v38.5c0,9.7,7.9,17.6,17.6,17.6h0c9.7,0,17.6-7.9,17.6-17.6v-17.1c0-4.3,3.5-7.8,7.8-7.8h20.4
				c2.6,0,5,1.3,6.4,3.4l22.7,32.9c2.7,3.9,7.1,6.2,11.8,6.2h16c6,0,9.5-6.8,6.1-11.7L507,243.7z"/>
			<path class="st2" d="M559.7,142.2L559.7,142.2c0,7.9,6.4,14.3,14.3,14.3h20c7.9,0,14.3,6.4,14.3,14.3v91.5
				c0,9.7,7.8,17.5,17.5,17.5h0c9.7,0,17.5-7.8,17.5-17.5v-91.5c0-7.9,6.4-14.3,14.3-14.3h20c7.9,0,14.3-6.4,14.3-14.3v0
				c0-7.9-6.4-14.3-14.3-14.3H574.1C566.2,127.9,559.7,134.3,559.7,142.2z"/>
			<path class="st2" d="M732.7,145.5v116.8c0,9.7,7.9,17.6,17.6,17.6l0,0c9.7,0,17.6-7.9,17.6-17.6V145.5c0-9.7-7.9-17.6-17.6-17.6
				l0,0C740.6,127.9,732.7,135.8,732.7,145.5z"/>
			<path class="st2" d="M947.7,205.7c-4.1-2.6-4.5-8.4-1.1-11.8c6.8-6.7,10.8-15.7,10.8-26.5c0-23.8-19.7-39.5-57.6-39.5h-61.2
				c-7.3,0-13.2,5.9-13.2,13.2v0c0,7.3,5.9,13.2,13.2,13.2h56.8c17.1,0,26.4,5.9,26.4,17.8c0,12.1-9.3,18.1-26.4,18.1h-55.7
				c-7.9,0-14.3,6.4-14.3,14.3v61.1c0,7.9,6.4,14.3,14.3,14.3h64.3c40,0,60.9-15.2,60.9-41.6C965,223.7,958.5,212.5,947.7,205.7z
				 M901.6,253.3h-26.7c-7.9,0-14.3-6.4-14.3-14.3v-9c0-7.9,6.4-14.3,14.3-14.3h26.7c18.3,0,27.9,6.2,27.9,19
				C929.5,247.6,919.8,253.3,901.6,253.3z"/>
			<path class="st2" d="M1099.2,205.2c-4.4-5.6-4.1-13.5,0.8-18.7l32.2-34.5c8.6-9.2,2.1-24.1-10.5-24.1l0,0
				c-3.9,0-7.7,1.6-10.4,4.5l-47.7,50.2c-5.5,5.8-15.4,1.9-15.4-6.1v-31c0-9.7-7.8-17.5-17.5-17.5l0,0c-9.7,0-17.5,7.8-17.5,17.5
				v117c0,9.7,7.8,17.5,17.5,17.5l0,0c9.7,0,17.5-7.8,17.5-17.5v-15.2c0-3.7,1.4-7.2,4-9.9l9.4-9.8c3.7-3.9,10-3.6,13.3,0.5
				l37.2,45.6c3.2,4,8.1,6.3,13.2,6.3l0,0c13.3,0,20.8-15.4,12.5-25.8L1099.2,205.2z"/>
		</g>
		<g id="Logomark_10_">
			<path class="st2" d="M1322.1,93.3c-5.7-8.8-17.6-11.2-26.8-6.3c-23.3,12.3-44.7,28.1-63.5,46.8c-8.3,8.2-8.8,22-0.1,29.7
				c3.8,3.4,8.5,5.1,13.3,5.1c5.1,0,10.2-1.9,14.1-5.8c16.5-16.5,35.3-30.3,55.7-41.1C1324.9,116.4,1328.5,103.3,1322.1,93.3z"/>
			<path class="st2" d="M1611.5,134.7c-19.9-19.9-42.6-36.5-67.4-49.2c-9.4-4.8-21.3-2.4-26.9,6.6c-6.3,10-2.5,23.1,7.8,28.3
				c15.6,7.9,30.3,17.6,43.7,29l-29.2,29.2c-33.4-27.1-74.7-41.7-118.4-41.7c-49.9,0-96.8,19.2-132.2,54.2c-8.3,8.2-8.8,22-0.1,29.8
				c3.8,3.4,8.5,5.1,13.3,5.1c5.1,0,10.2-1.9,14.1-5.8c28-28,65.3-43.4,105-43.4c39.6,0,76.8,15.3,104.8,43.2
				c7.9,7.8,20.5,8.1,28.3,0.2l57.2-57.2c3.7-3.7,5.8-8.8,5.8-14.1C1617.3,143.5,1615.2,138.4,1611.5,134.7z"/>
			<path class="st2" d="M1377.3,103.4c20.8,4.6,39-13.5,34.4-34.4c-2.3-10.5-10.8-19-21.3-21.3c-20.8-4.6-39,13.5-34.4,34.4
				C1358.4,92.6,1366.8,101.1,1377.3,103.4z"/>
			<path class="st2" d="M1451.9,103.4c20.8,4.6,39-13.5,34.4-34.4c-2.3-10.5-10.8-19-21.3-21.3c-20.8-4.6-39,13.5-34.4,34.4
				C1432.9,92.6,1441.4,101.1,1451.9,103.4z"/>
			<path class="st2" d="M1421.2,217c-28.7,0-55.6,11.1-75.9,31.1c-7.4,7.3-8.3,19.4-1.6,27.4c7.6,8.9,21.1,9.3,29.2,1.2
				c4.6-4.6,9.8-8.5,15.4-11.6c5.8-3.2,13,1,13,7.7v67.3c0,10.4,7.6,19.6,17.9,20.6c11.9,1.1,21.8-8.2,21.8-19.8v-68.1
				c0-6.7,7.2-10.9,13-7.7c5.6,3.1,10.8,7,15.4,11.6c3.9,3.9,9,5.8,14.1,5.8c5.5,0,10.9-2.2,14.9-6.7c7-7.9,6.2-20.3-1.4-27.7
				C1476.7,228.1,1449.8,217,1421.2,217z"/>
		</g>
	</g>
</g>
<g id="Logo_Mark_copy_2" class="st0">
	<rect class="st6" width="4096" height="4096"/>
	<g class="st1">
		<path class="st2" d="M1839.2,1808.3c-9.7-15.1-30.1-19.2-46-10.8c-39.9,21.1-76.6,48.1-109,80.2c-14.2,14-15.1,37.6-0.2,51
			c6.5,5.8,14.6,8.7,22.8,8.7c8.7,0,17.4-3.3,24.1-10c28.3-28.3,60.5-52,95.6-70.4C1844,1847.8,1850.2,1825.3,1839.2,1808.3z"/>
		<path class="st2" d="M2335.5,1879.2c-34.2-34.2-73-62.5-115.6-84.4c-16.1-8.3-36.5-4-46.1,11.3c-10.8,17.2-4.3,39.6,13.4,48.5
			c26.8,13.6,51.9,30.3,75,49.7l-50.1,50.1c-57.2-46.4-128.1-71.6-203-71.6c-85.6,0-166,33-226.8,92.9c-14.2,14-15.1,37.7-0.2,51
			c6.5,5.8,14.6,8.7,22.7,8.7c8.7,0,17.4-3.3,24.1-10c48-48,112-74.5,180.1-74.5c67.9,0,131.7,26.3,179.7,74.1
			c13.5,13.4,35.1,13.9,48.6,0.4l98.1-98.1c6.4-6.4,10-15.1,10-24.1C2345.4,1894.3,2341.9,1885.6,2335.5,1879.2z"/>
		<path class="st2" d="M1933.9,1825.6c35.7,7.9,66.9-23.2,59-58.9c-4-18-18.5-32.5-36.5-36.5c-35.7-7.9-66.9,23.2-59,59
			C1901.3,1807,1915.9,1821.6,1933.9,1825.6z"/>
		<path class="st2" d="M2061.8,1825.6c35.7,7.9,66.9-23.2,59-59c-4-18-18.5-32.5-36.5-36.5c-35.7-7.9-66.9,23.2-59,58.9
			C2029.3,1807,2043.8,1821.6,2061.8,1825.6z"/>
		<path class="st2" d="M2009.1,2020.4c-49.2,0-95.3,19-130.2,53.4c-12.7,12.6-14.3,33.3-2.7,46.9c13.1,15.3,36.1,16,50.1,2.1
			c7.9-7.9,16.8-14.6,26.4-19.9c10-5.5,22.3,1.7,22.3,13.1v115.4c0,17.8,13,33.7,30.7,35.4c20.3,1.9,37.4-14,37.4-33.9v-116.8
			c0-11.4,12.3-18.7,22.3-13.1c9.6,5.3,18.5,11.9,26.4,19.9c6.7,6.7,15.4,10,24.1,10c9.4,0,18.8-3.9,25.6-11.5
			c12-13.6,10.6-34.8-2.3-47.5C2104.3,2039.3,2058.2,2020.4,2009.1,2020.4z"/>
	</g>
</g>
<g id="Dual_x5F_Logo1_x5F_1_copy_2" class="st0">
	<rect class="st6" width="4096" height="4096"/>
	<g id="Logo_9_" class="st1">
		<g id="Tartibk_x5F_AR_5_">
			<path class="st2" d="M1482.2,1956.8h-1.8c-9.3,0-16.7,7.5-16.7,16.7l0,41.1c0.2,6.1-1.4,10.8-4.5,13.9c-3.2,3.1-7.8,4.7-14,4.7
				h-30.6h-3.7h-18.8c-9.3,0-17.4-8.3-17.1-17.5c0-0.5,0-1.1,0-1.6l-0.1-40.3c0-9.4-7.7-17-17-17h-1.8c-9.3,0-16.7,7.5-16.7,16.7
				l0,41.1c0.2,6.1-1.4,10.8-4.5,13.9c-3.2,3.1-7.8,4.7-14,4.7h-18.4h-3.7h-18.8c-9.3,0-17.4-8.3-17.1-17.5c0-0.5,0-1.1,0-1.6
				l-0.1-40.3c0-9.4-7.7-17-17-17h-1.8c-9.3,0-16.7,7.5-16.7,16.7l0,41.1c0.1,6.1-1.4,10.8-4.5,13.9c-3.2,3.1-7.8,4.7-14,4.7h-18.4
				h-3.7H1169c-2.8,0-4.9-2.5-4.5-5.2c1.1-6.1,1.3-12.3,0.5-18.4c-1.1-8.8-3.9-17.1-8.4-24.8c-4.5-7.7-10.5-13.9-18.1-18.6
				c-7.5-4.7-16.1-7.1-25.8-7.1h-80.4c-3.8,0-5.6-5.2-2.3-6.8l54.5-26.2c4.5-2.2,7.3-6.7,7.3-12l0-2.3c0-11.8-13.3-20.6-23.4-15.5
				l-118.6,59.2c-4.4,2.2-7.1,6.7-7.1,11.8l0,9.9c0,9,8,17,17.1,17h152.6c4.9,0,9,1.8,12.2,5.3c3.2,3.6,5.1,7.8,5.7,12.7
				c0.7,5.5-0.5,10.4-3.4,14.5c-3,4.2-7.6,6.3-13.9,6.3H919.1h-3.7h-45.8c-10.1,0-17.9,8.8-16.6,18.8l0.2,1.4
				c1.1,8.5,8.3,14.9,16.9,14.9h49.8h3.7h267.7h3.7h18.4c17.3,0,30.3-5.6,38.9-16.9c0,9.3,7.7,16.9,17,16.9h34.1h3.7h18.4
				c17.3,0,30.3-5.6,38.9-16.9c0,9.3,7.7,16.9,17,16.9h34.1h3.7h30.6c16.6,0,29-5,37.3-14.9c8.3-9.9,12.4-23.1,12.5-39.4l-0.1-40.3
				C1499.2,1964.4,1491.6,1956.8,1482.2,1956.8z"/>
			<path class="st2" d="M1685.4,1973.7c0-9.4-7.7-17-17-17h-1.8c-9.3,0-16.7,7.5-16.7,16.7l0,41.1c0.2,6.1-1.4,10.8-4.5,13.9
				c-3.2,3.1-7.8,4.7-14,4.7h-30.6h-3.7h-4.2c-9.4,0-17-7.6-17-17l-0.1-47c0-9.4-7.7-17-17-17h-1.7c-9.3,0-16.8,7.5-16.7,16.8
				l0.5,117.4c0.2,12.1-4.7,23.7-14.6,34.8c-0.4,0.5-0.7,1-0.9,1.5c15-1.5,27.1-7.6,36.2-18.4c8.7-10.3,13.4-21.8,14.3-34.4l0.2-1.5
				h25.6h3.7h30.6c16.6,0,29-5,37.3-14.9c8.3-9.9,12.4-23.1,12.5-39.4L1685.4,1973.7z"/>
			<path class="st2" d="M1588.8,1936.3c15.3,3.4,28.6-9.9,25.2-25.2c-1.7-7.7-7.9-13.9-15.6-15.6c-15.3-3.4-28.6,9.9-25.2,25.2
				C1574.8,1928.4,1581.1,1934.6,1588.8,1936.3z"/>
			<path class="st2" d="M1643.5,1936.3c15.3,3.4,28.6-9.9,25.2-25.2c-1.7-7.7-7.9-13.9-15.6-15.6c-15.3-3.4-28.6,9.9-25.2,25.2
				C1629.6,1928.4,1635.8,1934.6,1643.5,1936.3z"/>
			<path class="st2" d="M1395,1936.3c15.3,3.4,28.6-9.9,25.2-25.2c-1.7-7.7-7.9-13.9-15.6-15.6c-15.3-3.4-28.6,9.9-25.2,25.2
				C1381.1,1928.4,1387.3,1934.6,1395,1936.3z"/>
			<path class="st2" d="M1449.8,1936.3c15.3,3.4,28.6-9.9,25.2-25.2c-1.7-7.7-7.9-13.9-15.6-15.6c-15.3-3.4-28.6,9.9-25.2,25.2
				C1435.9,1928.4,1442.1,1934.6,1449.8,1936.3z"/>
			<path class="st2" d="M1297.2,2097.5c-15.3-3.4-28.6,9.9-25.2,25.2c1.7,7.7,7.9,13.9,15.6,15.6c15.3,3.4,28.6-9.9,25.2-25.2
				C1311.1,2105.4,1304.9,2099.2,1297.2,2097.5z"/>
			<path class="st2" d="M1219.3,2097.5c-15.3-3.4-28.6,9.9-25.2,25.2c1.7,7.7,7.9,13.9,15.6,15.6c15.3,3.4,28.6-9.9,25.2-25.2
				C1233.2,2105.4,1227,2099.2,1219.3,2097.5z"/>
			<path class="st2" d="M1351.9,2097.5c-15.3-3.4-28.6,9.9-25.2,25.2c1.7,7.7,7.9,13.9,15.6,15.6c15.3,3.4,28.6-9.9,25.2-25.2
				C1365.8,2105.4,1359.6,2099.2,1351.9,2097.5z"/>
		</g>
		<g id="Tartibk_x5F_En_7_">
			<path class="st2" d="M2227.4,1931.2L2227.4,1931.2c0,7.9,6.4,14.3,14.3,14.3h20c7.9,0,14.3,6.4,14.3,14.3v91.4
				c0,9.7,7.9,17.6,17.6,17.6l0,0c9.7,0,17.6-7.9,17.6-17.6v-91.4c0-7.9,6.4-14.3,14.3-14.3h20c7.9,0,14.3-6.4,14.3-14.3v0
				c0-7.9-6.4-14.3-14.3-14.3h-103.8C2233.8,1916.9,2227.4,1923.3,2227.4,1931.2z"/>
			<path class="st2" d="M2461.8,1916.9h-7.6c-8.2,0-15.7,4.8-19.1,12.4l-52,116.6c-4.8,10.8,3.1,23,14.9,23h0c6.6,0,12.5-4,15.1-10
				l9.4-22.6l11-26.7l17-40.8c2.7-6.4,11.7-6.4,14.4,0l17,40.8l11,26.7l9.2,22.3c2.6,6.2,8.7,10.3,15.4,10.3l0,0
				c12.1,0,20.2-12.5,15.2-23.5l-51.9-116.1C2477.4,1921.8,2470,1916.9,2461.8,1916.9z"/>
			<path class="st2" d="M2690,2032.7c-4.4-6.3-2.8-15,3.3-19.7c12.3-9.4,19.2-23.3,19.2-41.1c0-34-25.5-55-66.1-55h-51.4
				c-7.9,0-14.3,6.4-14.3,14.3v0.5c0,7.9,6.4,14.3,14.3,14.3l49.3-0.1c21.4,0,32.4,9.2,32.4,25.9c0,16.6-10.9,26.6-32.3,26.6h-49.5
				c-7.9,0-14.3,6.4-14.3,14.3v38.5c0,9.7,7.9,17.6,17.6,17.6l0,0c9.7,0,17.6-7.9,17.6-17.6v-17.1c0-4.3,3.5-7.8,7.8-7.8h20.4
				c2.6,0,5,1.3,6.4,3.4l22.7,32.9c2.7,3.9,7.1,6.2,11.8,6.2h16c6,0,9.5-6.8,6.1-11.7L2690,2032.7z"/>
			<path class="st2" d="M2742.7,1931.2L2742.7,1931.2c0,7.9,6.4,14.3,14.3,14.3h20c7.9,0,14.3,6.4,14.3,14.3v91.5
				c0,9.7,7.8,17.5,17.5,17.5l0,0c9.7,0,17.5-7.8,17.5-17.5v-91.5c0-7.9,6.4-14.3,14.3-14.3h20c7.9,0,14.3-6.4,14.3-14.3v0
				c0-7.9-6.4-14.3-14.3-14.3h-103.7C2749.2,1916.9,2742.7,1923.3,2742.7,1931.2z"/>
			<path class="st2" d="M2915.7,1934.5v116.8c0,9.7,7.9,17.6,17.6,17.6l0,0c9.7,0,17.6-7.9,17.6-17.6v-116.8
				c0-9.7-7.9-17.6-17.6-17.6l0,0C2923.6,1916.9,2915.7,1924.8,2915.7,1934.5z"/>
			<path class="st2" d="M3130.7,1994.7c-4.1-2.6-4.5-8.4-1.1-11.8c6.8-6.7,10.8-15.7,10.8-26.5c0-23.8-19.7-39.5-57.6-39.5h-61.2
				c-7.3,0-13.2,5.9-13.2,13.2v0c0,7.3,5.9,13.2,13.2,13.2h56.8c17.1,0,26.4,5.9,26.4,17.8c0,12.1-9.3,18.1-26.4,18.1h-55.7
				c-7.9,0-14.3,6.4-14.3,14.3v61.1c0,7.9,6.4,14.3,14.3,14.3h64.3c40,0,60.9-15.2,60.9-41.6
				C3148,2012.7,3141.5,2001.5,3130.7,1994.7z M3084.6,2042.3h-26.7c-7.9,0-14.3-6.4-14.3-14.3v-9c0-7.9,6.4-14.3,14.3-14.3h26.7
				c18.3,0,27.9,6.2,27.9,19C3112.5,2036.6,3102.8,2042.3,3084.6,2042.3z"/>
			<path class="st2" d="M3282.2,1994.2c-4.4-5.6-4.1-13.5,0.8-18.7l32.2-34.5c8.6-9.2,2.1-24.1-10.5-24.1l0,0
				c-3.9,0-7.7,1.6-10.4,4.5l-47.7,50.2c-5.5,5.8-15.4,1.9-15.4-6.1v-31c0-9.7-7.8-17.5-17.5-17.5l0,0c-9.7,0-17.5,7.8-17.5,17.5
				v117c0,9.7,7.8,17.5,17.5,17.5l0,0c9.7,0,17.5-7.8,17.5-17.5v-15.2c0-3.7,1.4-7.2,4-9.9l9.4-9.8c3.7-3.9,10-3.6,13.3,0.5
				l37.2,45.6c3.2,4,8.1,6.3,13.2,6.3l0,0c13.3,0,20.8-15.4,12.5-25.8L3282.2,1994.2z"/>
		</g>
		<g id="Logomark_9_">
			<path class="st2" d="M1857.1,1882.3c-5.7-8.8-17.6-11.2-26.8-6.3c-23.3,12.3-44.7,28.1-63.5,46.8c-8.3,8.2-8.8,22-0.1,29.7
				c3.8,3.4,8.5,5.1,13.3,5.1c5.1,0,10.2-1.9,14.1-5.8c16.5-16.5,35.3-30.3,55.7-41.1C1859.9,1905.4,1863.5,1892.3,1857.1,1882.3z"
				/>
			<path class="st2" d="M2146.5,1923.7c-19.9-19.9-42.6-36.5-67.4-49.2c-9.4-4.8-21.3-2.4-26.9,6.6c-6.3,10-2.5,23.1,7.8,28.3
				c15.6,7.9,30.3,17.6,43.7,29l-29.2,29.2c-33.4-27.1-74.7-41.7-118.4-41.7c-49.9,0-96.8,19.2-132.2,54.2c-8.3,8.2-8.8,22-0.1,29.8
				c3.8,3.4,8.5,5.1,13.3,5.1c5.1,0,10.2-1.9,14.1-5.8c28-28,65.3-43.4,105-43.4c39.6,0,76.8,15.3,104.8,43.2
				c7.9,7.8,20.5,8.1,28.3,0.2l57.2-57.2c3.7-3.7,5.8-8.8,5.8-14.1C2152.3,1932.5,2150.2,1927.4,2146.5,1923.7z"/>
			<path class="st2" d="M1912.3,1892.4c20.8,4.6,39-13.5,34.4-34.4c-2.3-10.5-10.8-19-21.3-21.3c-20.8-4.6-39,13.5-34.4,34.4
				C1893.4,1881.6,1901.8,1890.1,1912.3,1892.4z"/>
			<path class="st2" d="M1986.9,1892.4c20.8,4.6,39-13.5,34.4-34.4c-2.3-10.5-10.8-19-21.3-21.3c-20.8-4.6-39,13.5-34.4,34.4
				C1967.9,1881.6,1976.4,1890.1,1986.9,1892.4z"/>
			<path class="st2" d="M1956.2,2006c-28.7,0-55.6,11.1-75.9,31.1c-7.4,7.3-8.3,19.4-1.6,27.4c7.6,8.9,21.1,9.3,29.2,1.2
				c4.6-4.6,9.8-8.5,15.4-11.6c5.8-3.2,13,1,13,7.7v67.3c0,10.4,7.6,19.6,17.9,20.6c11.9,1.1,21.8-8.2,21.8-19.8v-68.1
				c0-6.7,7.2-10.9,13-7.7c5.6,3.1,10.8,7,15.4,11.6c3.9,3.9,9,5.8,14.1,5.8c5.5,0,10.9-2.2,14.9-6.7c7-7.9,6.2-20.3-1.4-27.7
				C2011.7,2017.1,1984.8,2006,1956.2,2006z"/>
		</g>
	</g>
</g>
<g id="Dual_x5F_Logo1_x5F_2_copy_2" class="st0">
	<rect class="st6" width="4096" height="4096"/>
	<g id="Logo_8_" class="st1">
		<g id="Tartibk_x5F_AR_4_">
			<path class="st2" d="M2251.2,2077.8h-1.8c-9.3,0-16.7,7.5-16.7,16.7l0,41.1c0.1,6.1-1.4,10.8-4.5,13.9c-3.2,3.1-7.8,4.7-14,4.7
				h-30.6h-3.7h-18.8c-9.3,0-17.4-8.3-17.1-17.5c0-0.5,0-1.1,0-1.6l-0.1-40.3c0-9.4-7.7-17-17-17h-1.8c-9.3,0-16.7,7.5-16.7,16.7
				l0,41.1c0.2,6.1-1.4,10.8-4.5,13.9c-3.2,3.1-7.8,4.7-14,4.7h-18.4h-3.7h-18.8c-9.3,0-17.4-8.3-17.1-17.5c0-0.5,0-1.1,0-1.6
				l-0.1-40.3c0-9.4-7.7-17-17-17h-1.8c-9.3,0-16.7,7.5-16.7,16.7l0,41.1c0.1,6.1-1.4,10.8-4.5,13.9c-3.2,3.1-7.8,4.7-14,4.7h-18.4
				h-3.7H1938c-2.8,0-4.9-2.5-4.5-5.2c1.1-6.1,1.3-12.3,0.5-18.4c-1.1-8.8-3.9-17.1-8.4-24.8c-4.5-7.7-10.5-13.9-18.1-18.6
				c-7.5-4.7-16.1-7.1-25.8-7.1h-80.4c-3.8,0-5.6-5.2-2.3-6.8l54.5-26.2c4.5-2.2,7.3-6.7,7.3-12l0-2.3c0-11.8-13.3-20.6-23.4-15.5
				l-118.6,59.2c-4.4,2.2-7.1,6.7-7.1,11.8l0,9.9c0,9,8,17,17.1,17h152.6c4.9,0,9,1.8,12.2,5.3c3.2,3.6,5.1,7.8,5.7,12.7
				c0.7,5.5-0.5,10.4-3.4,14.5c-3,4.2-7.6,6.3-13.9,6.3h-193.9h-3.7h-45.8c-10.1,0-17.9,8.8-16.6,18.8l0.2,1.4
				c1.1,8.5,8.3,14.9,16.9,14.9h49.8h3.7h267.7h3.7h18.4c17.3,0,30.3-5.6,38.9-16.9c0,9.3,7.7,16.9,17,16.9h34.1h3.7h18.4
				c17.3,0,30.3-5.6,38.9-16.9c0,9.3,7.7,16.9,17,16.9h34.1h3.7h30.6c16.6,0,29-5,37.3-14.9c8.3-9.9,12.4-23.1,12.5-39.4l-0.1-40.3
				C2268.2,2085.4,2260.6,2077.8,2251.2,2077.8z"/>
			<path class="st2" d="M2454.4,2094.7c0-9.4-7.7-17-17-17h-1.8c-9.3,0-16.7,7.5-16.7,16.7l0,41.1c0.2,6.1-1.4,10.8-4.5,13.9
				c-3.2,3.1-7.8,4.7-14,4.7h-30.6h-3.7h-4.2c-9.4,0-17-7.6-17-17l-0.1-47c0-9.4-7.7-17-17-17h-1.7c-9.3,0-16.8,7.5-16.7,16.8
				l0.5,117.4c0.2,12.1-4.7,23.7-14.6,34.8c-0.4,0.5-0.7,1-0.9,1.5c15-1.5,27.1-7.6,36.2-18.4c8.7-10.3,13.4-21.8,14.3-34.4l0.2-1.5
				h25.6h3.7h30.6c16.6,0,29-5,37.3-14.9c8.3-9.9,12.4-23.1,12.5-39.4L2454.4,2094.7z"/>
			<path class="st2" d="M2357.8,2057.3c15.3,3.4,28.6-9.9,25.2-25.2c-1.7-7.7-7.9-13.9-15.6-15.6c-15.3-3.4-28.6,9.9-25.2,25.2
				C2343.8,2049.4,2350.1,2055.6,2357.8,2057.3z"/>
			<path class="st2" d="M2412.5,2057.3c15.3,3.4,28.6-9.9,25.2-25.2c-1.7-7.7-7.9-13.9-15.6-15.6c-15.3-3.4-28.6,9.9-25.2,25.2
				C2398.6,2049.4,2404.8,2055.6,2412.5,2057.3z"/>
			<path class="st2" d="M2164,2057.3c15.3,3.4,28.6-9.9,25.2-25.2c-1.7-7.7-7.9-13.9-15.6-15.6c-15.3-3.4-28.6,9.9-25.2,25.2
				C2150.1,2049.4,2156.3,2055.6,2164,2057.3z"/>
			<path class="st2" d="M2218.8,2057.3c15.3,3.4,28.6-9.9,25.2-25.2c-1.7-7.7-7.9-13.9-15.6-15.6c-15.3-3.4-28.6,9.9-25.2,25.2
				C2204.9,2049.4,2211.1,2055.6,2218.8,2057.3z"/>
			<path class="st2" d="M2066.2,2218.5c-15.3-3.4-28.6,9.9-25.2,25.2c1.7,7.7,7.9,13.9,15.6,15.6c15.3,3.4,28.6-9.9,25.2-25.2
				C2080.1,2226.4,2073.9,2220.2,2066.2,2218.5z"/>
			<path class="st2" d="M1988.3,2218.5c-15.3-3.4-28.6,9.9-25.2,25.2c1.7,7.7,7.9,13.9,15.6,15.6c15.3,3.4,28.6-9.9,25.2-25.2
				C2002.2,2226.4,1996,2220.2,1988.3,2218.5z"/>
			<path class="st2" d="M2120.9,2218.5c-15.3-3.4-28.6,9.9-25.2,25.2c1.7,7.7,7.9,13.9,15.6,15.6c15.3,3.4,28.6-9.9,25.2-25.2
				C2134.8,2226.4,2128.6,2220.2,2120.9,2218.5z"/>
		</g>
		<g id="Tartibk_x5F_En_6_">
			<path class="st2" d="M1622,2299.9L1622,2299.9c0,6,4.9,10.9,10.9,10.9h15.2c6,0,10.9,4.9,10.9,10.9v69.4c0,7.4,6,13.3,13.3,13.3
				h0c7.4,0,13.3-6,13.3-13.3v-69.4c0-6,4.9-10.9,10.9-10.9h15.2c6,0,10.9-4.9,10.9-10.9l0,0c0-6-4.9-10.9-10.9-10.9h-78.8
				C1626.9,2289,1622,2293.9,1622,2299.9z"/>
			<path class="st2" d="M1799.7,2289h-5.8c-6.2,0-11.9,3.7-14.5,9.4l-39.5,88.5c-3.7,8.2,2.3,17.4,11.3,17.4l0,0c5,0,9.5-3,11.4-7.6
				l7.2-17.1l8.4-20.3l12.9-31c2-4.9,8.9-4.9,10.9,0l12.9,31l8.4,20.3l7,16.9c2,4.7,6.6,7.8,11.7,7.8l0,0c9.2,0,15.3-9.5,11.6-17.8
				l-39.4-88.1C1811.6,2292.7,1806,2289,1799.7,2289z"/>
			<path class="st2" d="M1972.9,2376.8c-3.3-4.8-2.1-11.4,2.5-14.9c9.3-7.1,14.6-17.7,14.6-31.2c0-25.8-19.4-41.7-50.1-41.7h-39
				c-6,0-10.9,4.9-10.9,10.9v0.4c0,6,4.9,10.9,10.9,10.9l37.4,0c16.2,0,24.6,7,24.6,19.7c0,12.6-8.2,20.2-24.5,20.2h-37.5
				c-6,0-10.9,4.9-10.9,10.9v29.2c0,7.4,6,13.3,13.3,13.3l0,0c7.4,0,13.3-6,13.3-13.3V2378c0-3.3,2.6-5.9,5.9-5.9h15.5
				c1.9,0,3.8,1,4.9,2.5l17.2,25c2,2.9,5.4,4.7,8.9,4.7h12.1c4.6,0,7.2-5.1,4.6-8.9L1972.9,2376.8z"/>
			<path class="st2" d="M2012.9,2299.9L2012.9,2299.9c0,6,4.9,10.9,10.9,10.9h15.2c6,0,10.9,4.9,10.9,10.9v69.4
				c0,7.3,5.9,13.3,13.3,13.3h0c7.3,0,13.3-5.9,13.3-13.3v-69.4c0-6,4.9-10.9,10.9-10.9h15.2c6,0,10.9-4.9,10.9-10.9l0,0
				c0-6-4.9-10.9-10.9-10.9h-78.6C2017.7,2289,2012.9,2293.9,2012.9,2299.9z"/>
			<path class="st2" d="M2144.1,2302.3v88.6c0,7.4,6,13.3,13.3,13.3l0,0c7.4,0,13.3-6,13.3-13.3v-88.6c0-7.4-6-13.3-13.3-13.3l0,0
				C2150.1,2289,2144.1,2295,2144.1,2302.3z"/>
			<path class="st2" d="M2307.2,2348c-3.1-2-3.4-6.3-0.8-8.9c5.1-5.1,8.2-11.9,8.2-20.1c0-18.1-14.9-30-43.7-30h-46.4
				c-5.5,0-10,4.5-10,10l0,0c0,5.5,4.5,10,10,10h43.1c13,0,20,4.4,20,13.5c0,9.2-7.1,13.7-20,13.7h-42.3c-6,0-10.9,4.9-10.9,10.9
				v46.3c0,6,4.9,10.9,10.9,10.9h48.8c30.4,0,46.2-11.5,46.2-31.5C2320.3,2361.6,2315.4,2353.2,2307.2,2348z M2272.1,2384.1h-20.3
				c-6,0-10.9-4.9-10.9-10.9v-6.8c0-6,4.9-10.9,10.9-10.9h20.3c13.9,0,21.2,4.7,21.2,14.4C2293.3,2379.8,2286,2384.1,2272.1,2384.1z
				"/>
			<path class="st2" d="M2422.1,2347.6c-3.3-4.2-3.1-10.2,0.6-14.2l24.4-26.2c6.5-7,1.6-18.3-7.9-18.3l0,0c-3,0-5.8,1.2-7.9,3.4
				l-36.2,38.1c-4.2,4.4-11.7,1.5-11.7-4.7v-23.5c0-7.3-5.9-13.3-13.3-13.3l0,0c-7.3,0-13.3,5.9-13.3,13.3v88.7
				c0,7.3,5.9,13.3,13.3,13.3l0,0c7.3,0,13.3-5.9,13.3-13.3v-11.5c0-2.8,1.1-5.5,3-7.5l7.1-7.4c2.8-2.9,7.6-2.7,10.1,0.4l28.2,34.6
				c2.5,3,6.1,4.8,10,4.8l0,0c10.1,0,15.8-11.7,9.5-19.6L2422.1,2347.6z"/>
		</g>
		<g id="Logomark_8_">
			<path class="st2" d="M1939.1,1601.3c-5.7-8.8-17.6-11.2-26.8-6.3c-23.3,12.3-44.7,28.1-63.5,46.8c-8.3,8.2-8.8,22-0.1,29.7
				c3.8,3.4,8.5,5.1,13.3,5.1c5.1,0,10.2-1.9,14.1-5.8c16.5-16.5,35.3-30.3,55.7-41.1C1941.9,1624.4,1945.5,1611.3,1939.1,1601.3z"
				/>
			<path class="st2" d="M2228.5,1642.7c-19.9-19.9-42.6-36.5-67.4-49.2c-9.4-4.8-21.3-2.4-26.9,6.6c-6.3,10-2.5,23.1,7.8,28.3
				c15.6,7.9,30.3,17.6,43.7,29l-29.2,29.2c-33.4-27.1-74.7-41.7-118.4-41.7c-49.9,0-96.8,19.2-132.2,54.2c-8.3,8.2-8.8,22-0.1,29.8
				c3.8,3.4,8.5,5.1,13.3,5.1c5.1,0,10.2-1.9,14.1-5.8c28-28,65.3-43.4,105-43.4c39.6,0,76.8,15.3,104.8,43.2
				c7.9,7.8,20.5,8.1,28.3,0.2l57.2-57.2c3.7-3.7,5.8-8.8,5.8-14.1C2234.3,1651.5,2232.2,1646.4,2228.5,1642.7z"/>
			<path class="st2" d="M1994.3,1611.4c20.8,4.6,39-13.5,34.4-34.4c-2.3-10.5-10.8-19-21.3-21.3c-20.8-4.6-39,13.5-34.4,34.4
				C1975.4,1600.6,1983.8,1609.1,1994.3,1611.4z"/>
			<path class="st2" d="M2068.9,1611.4c20.8,4.6,39-13.5,34.4-34.4c-2.3-10.5-10.8-19-21.3-21.3c-20.8-4.6-39,13.5-34.4,34.4
				C2049.9,1600.6,2058.4,1609.1,2068.9,1611.4z"/>
			<path class="st2" d="M2038.2,1725c-28.7,0-55.6,11.1-75.9,31.1c-7.4,7.3-8.3,19.4-1.6,27.4c7.6,8.9,21.1,9.3,29.2,1.2
				c4.6-4.6,9.8-8.5,15.4-11.6c5.8-3.2,13,1,13,7.7v67.3c0,10.4,7.6,19.6,17.9,20.6c11.9,1.1,21.8-8.2,21.8-19.8v-68.1
				c0-6.7,7.2-10.9,13-7.7c5.6,3.1,10.8,7,15.4,11.6c3.9,3.9,9,5.8,14.1,5.8c5.5,0,10.9-2.2,14.9-6.7c7-7.9,6.2-20.3-1.4-27.7
				C2093.7,1736.1,2066.8,1725,2038.2,1725z"/>
		</g>
	</g>
</g>
</svg>
