<?xml version="1.0" encoding="UTF-8"?> <svg xmlns="http://www.w3.org/2000/svg" width="229.869" height="33.457" viewBox="0 0 229.869 33.457"><g id="Whisper_Header_Logo" data-name="Whisper Header Logo" transform="translate(0 0.03)"><path id="Path_301" data-name="Path 301" d="M27.838,10.271h-.123L19.346,39.918h-3.1L6.64,7.55h2.6L17.734,37.2h.123L26.163,7.55h3.163L37.7,37.2h.123L46.31,7.55h2.613l-9.68,32.368H36.02Z" transform="translate(-6.64 -7.03)" fill="#121160"></path><path id="Path_302" data-name="Path 302" d="M455.19,7.55h2.6V39.918h-2.6Z" transform="translate(-354.499 -7.03)" fill="#121160"></path><path id="Path_303" data-name="Path 303" d="M415.14,7.55h2.6V39.918h-2.6Z" transform="translate(-323.439 -7.03)" fill="#121160"></path><path id="Path_304" data-name="Path 304" d="M208.63,47.42h2.6V70.838h-2.6Z" transform="translate(-163.287 -37.95)" fill="#121160"></path><path id="Path_305" data-name="Path 305" d="M502.833,29.723c0,4.126,3.659,7.3,10.043,7.3,6.135,0,10.227-3.219,10.227-7.343,0-4.216-3.1-5.668-8.059-6.936l-5.019-1.277c-5.837-1.45-8.979-3.536-8.979-7.933,0-5.212,4.9-8.432,11.839-8.432,8.182,0,11.839,3.4,11.839,8.8h-2.6c0-4.353-2.727-7.253-8.979-7.253-4.959,0-9.484,1.677-9.484,6.71,0,3.592,2.667,5.3,6.51,6.254l6.571,1.679c5.7,1.45,8.979,3.491,8.979,8.25,0,5.758-5.837,9.022-12.831,9.022-10.227,0-12.645-5.26-12.645-8.387V28.04h2.6Z" transform="translate(-389.436 -5.13)" fill="#121160"></path><path id="Path_306" data-name="Path 306" d="M651.24,7.55h11.467c10.351.137,12.025,5.486,12.025,8.979,0,5.486-4.649,8.979-12.571,8.979h-8.306V39.922H651.24ZM662.4,23.962c5.269,0,9.731-2.085,9.731-7.435,0-4.624-3.347-7.435-9.359-7.435h-8.928v14.87Z" transform="translate(-506.539 -7.03)" fill="#121160"></path><path id="Path_307" data-name="Path 307" d="M790.13,7.55h21.137V9.274H792.734V22.193h17.285v1.724H792.734V38.2h19.081v1.722H790.13Z" transform="translate(-614.251 -7.03)" fill="#121160"></path><path id="Path_308" data-name="Path 308" d="M918.8,7.55h12.955c6.137,0,10.973,2.586,10.973,8.479,0,4.265-3.1,7.57-8.865,8.023v.092c7.253.317,8.555,3.592,8.555,8.023v3.4a5.938,5.938,0,0,0,1.488,4.35h-2.977a7.776,7.776,0,0,1-1.122-4.4V32.212c0-4.622-1.735-7.3-8.865-7.3H921.4v15h-2.6Zm10.91,15.815c4.9,0,10.414-1.179,10.414-7.343,0-4.353-3.347-6.936-8.739-6.936H921.4V23.365Z" transform="translate(-714.037 -7.03)" fill="#121160"></path><path id="Path_309" data-name="Path 309" d="M263.334,121.31v2.6H219.36v-2.6Z" transform="translate(-171.608 -95.253)" fill="#121160"></path><path id="Path_310" data-name="Path 310" d="M269.191,97.77h0a1.884,1.884,0,0,1-1.971,1.782H231.651a1.884,1.884,0,0,1-1.971-1.782h0a1.883,1.883,0,0,1,1.971-1.78H267.22A1.884,1.884,0,0,1,269.191,97.77Z" transform="translate(-179.612 -75.617)" fill="#121160"></path></g></svg> 